<svg width="390" height="844" viewBox="0 0 390 844" fill="none" xmlns="http://www.w3.org/2000/svg">
<g clip-path="url(#clip0_22_236)">
<rect width="390" height="844" fill="#FFF4DE"/>
<g filter="url(#filter0_f_22_236)">
<path d="M141.941 337.194L-51.2711 362.447L23.4655 182.494L141.941 337.194Z" fill="#FC7DA8"/>
<path d="M59.5951 166.486L177.018 319.811L-14.4771 344.839L59.5951 166.486Z" stroke="black"/>
<path d="M246.829 697.233L464.982 828.031L469.18 573.706L246.829 697.233Z" fill="#FC7DA8"/>
<path d="M434.261 535.736L213.887 658.166L430.101 787.801L434.261 535.736Z" stroke="black" stroke-width="1.30538"/>
<circle cx="254" cy="23" r="111" fill="#FFD011"/>
<circle cx="254" cy="74" r="110.5" stroke="black"/>
<circle cx="52.7012" cy="499.129" r="67.2185" transform="rotate(36.9676 52.7012 499.129)" fill="#FFD011"/>
<circle cx="34.1286" cy="523.804" r="66.9157" transform="rotate(36.9676 34.1286 523.804)" stroke="black" stroke-width="0.605572"/>
<rect x="61.836" y="661" width="163" height="163" transform="rotate(38.6919 61.836 661)" fill="#048CD6"/>
<rect x="18.9742" y="661.763" width="162" height="162" transform="rotate(38.6919 18.9742 661.763)" stroke="black"/>
<rect x="360.926" y="294" width="128.214" height="128.214" transform="rotate(38.6919 360.926 294)" fill="#048CD6"/>
<rect x="327.212" y="294.6" width="127.428" height="127.428" transform="rotate(38.6919 327.212 294.6)" stroke="black" stroke-width="0.78659"/>
</g>
</g>
<defs>
<filter id="filter0_f_22_236" x="-91" y="-96" width="568.18" height="994.182" filterUnits="userSpaceOnUse" color-interpolation-filters="sRGB">
<feFlood flood-opacity="0" result="BackgroundImageFix"/>
<feBlend mode="normal" in="SourceGraphic" in2="BackgroundImageFix" result="shape"/>
<feGaussianBlur stdDeviation="4" result="effect1_foregroundBlur_22_236"/>
</filter>
<clipPath id="clip0_22_236">
<rect width="390" height="844" fill="white"/>
</clipPath>
</defs>
</svg>
