<svg width="234" height="260" viewBox="0 0 234 260" fill="none" xmlns="http://www.w3.org/2000/svg">
<path d="M230.927 194.94C230.585 194.462 230.175 194.256 229.696 194.256H229.149C229.149 194.256 229.149 194.12 229.081 194.12C228.739 193.641 228.328 193.436 227.85 193.436H227.302C227.302 193.436 227.302 193.299 227.234 193.299C226.892 192.82 226.482 192.615 226.003 192.615H225.456C225.456 192.615 225.456 192.478 225.387 192.478C225.045 191.999 224.635 191.794 224.156 191.794H223.609C223.609 191.794 223.609 191.658 223.541 191.658C223.199 191.179 222.788 190.974 222.31 190.974H221.763C221.763 190.974 221.763 190.837 221.694 190.837C221.352 190.358 220.942 190.153 220.463 190.153H219.916C219.916 190.153 219.916 190.016 219.847 190.016C219.506 189.537 219.095 189.332 218.616 189.332H218.069C218.069 189.332 218.069 189.195 218.001 189.195C217.659 188.717 217.249 188.511 216.77 188.511H216.223C216.223 188.511 216.223 188.375 216.154 188.375C215.812 187.896 215.402 187.691 214.923 187.691H214.376C214.376 187.691 214.376 187.554 214.308 187.554C213.966 187.075 213.555 186.87 213.076 186.87H212.529C212.529 186.87 212.529 186.733 212.461 186.733C212.119 186.254 211.709 186.049 211.23 186.049H210.683C210.683 186.049 210.683 185.912 210.614 185.912C210.272 185.434 209.862 185.228 209.383 185.228H208.836C208.836 185.228 208.836 185.092 208.768 185.092C208.426 184.613 208.015 184.408 207.536 184.408H206.989C206.989 184.408 206.989 184.271 206.921 184.271C206.579 183.792 206.169 183.587 205.69 183.587H205.143C205.143 183.587 205.143 183.45 205.074 183.45C204.732 182.971 204.322 182.766 203.843 182.766H203.296C203.296 182.766 203.296 182.629 203.228 182.629C203.091 182.424 202.954 182.287 202.749 182.219L201.791 177.5C201.791 177.568 201.928 177.637 201.997 177.705C202.475 178.184 203.022 178.321 203.501 178.252H203.57C203.638 178.321 203.775 178.457 203.843 178.526C204.322 179.005 204.869 179.141 205.348 179.073H205.416C205.485 179.141 205.621 179.278 205.69 179.347C206.169 179.825 206.716 179.962 207.195 179.894H207.263C207.331 179.962 207.468 180.099 207.536 180.167C208.015 180.646 208.562 180.783 209.041 180.714H209.11C209.178 180.783 209.315 180.92 209.383 180.988C209.862 181.467 210.409 181.604 210.888 181.535H210.956C211.025 181.604 211.161 181.74 211.23 181.809C211.709 182.287 212.256 182.424 212.734 182.356H212.803C212.871 182.424 213.008 182.561 213.076 182.629C213.555 183.108 214.102 183.245 214.581 183.177H214.65C214.718 183.245 214.855 183.382 214.923 183.45C215.402 183.929 215.949 184.066 216.428 183.997H216.496C216.565 184.066 216.701 184.202 216.77 184.271C217.249 184.75 217.796 184.886 218.274 184.818L230.243 182.766C230.585 182.766 230.791 182.424 230.927 181.945C231.064 181.398 231.133 180.783 230.927 180.099C230.927 179.757 230.791 179.415 230.654 179.073L214.923 151.51C217.864 146.312 219.916 141.866 218.138 131.676C217.18 126.136 215.744 121.348 213.76 117.45C211.777 113.551 209.452 110.679 206.647 108.9C205.758 108.285 204.801 107.874 203.912 107.532C203.296 107.19 202.681 106.917 202.065 106.712C201.449 106.37 200.834 106.096 200.218 105.891C199.603 105.549 198.987 105.275 198.372 105.07C197.756 104.728 197.141 104.455 196.525 104.25C195.909 103.908 195.294 103.634 194.678 103.429C194.063 103.087 193.447 102.813 192.832 102.608C192.216 102.266 191.601 101.993 190.985 101.787C190.37 101.445 189.754 101.172 189.138 100.967C188.523 100.625 187.907 100.351 187.292 100.146C187.087 100.077 186.95 99.9407 186.745 99.8723H191.259C191.737 99.8723 192.216 99.5987 192.558 98.9832C192.9 98.3676 193.105 97.6837 193.105 96.8629V92.0753C193.447 92.2805 193.789 92.3489 194.2 92.3489H194.268C194.815 92.8961 195.362 93.1696 196.046 93.1696H196.115C196.662 93.7168 197.209 93.9904 197.893 93.9904H197.961C198.508 94.5375 199.056 94.8111 199.74 94.8111H199.808C200.355 95.3583 200.902 95.6318 201.586 95.6318H201.655C202.202 96.179 202.749 96.4526 203.433 96.4526H203.501C204.048 96.9997 204.596 97.2733 205.279 97.2733H205.348C205.895 97.8205 206.442 98.094 207.126 98.094H207.195C207.742 98.6412 208.289 98.9148 208.973 98.9148H209.041C209.588 99.4619 210.135 99.7355 210.819 99.7355H221.899C222.378 99.7355 222.857 99.4619 223.199 98.8464C223.541 98.2308 223.746 97.5469 223.746 96.7261V25.8012C223.746 24.9805 223.541 24.2965 223.199 23.681C222.857 23.0654 222.378 22.7919 221.899 22.7919H221.284C220.942 22.2447 220.531 21.9711 219.984 21.9711H219.369C219.027 21.424 218.616 21.1504 218.069 21.1504H217.454C217.112 20.6032 216.701 20.3297 216.154 20.3297H215.539C215.197 19.7825 214.786 19.5089 214.239 19.5089H213.624C213.282 18.9618 212.871 18.6882 212.324 18.6882H211.709C211.367 18.1411 210.956 17.8675 210.409 17.8675H209.794C209.452 17.3203 209.041 17.0467 208.494 17.0467H207.878C207.536 16.4996 207.126 16.226 206.579 16.226H205.963C205.621 15.6788 205.211 15.4053 204.664 15.4053H204.048C203.706 14.8581 203.296 14.5845 202.749 14.5845H202.133C201.791 14.0374 201.381 13.7638 200.834 13.7638H200.218C199.876 13.2167 199.466 12.9431 198.919 12.9431H198.303C197.961 12.3959 197.551 12.1223 197.004 12.1223H196.388C196.046 11.5752 195.636 11.3016 195.089 11.3016H194.473C194.131 10.7545 193.721 10.4809 193.174 10.4809H192.558C192.216 9.93373 191.806 9.66015 191.259 9.66015H190.643C190.301 9.113 189.891 8.83941 189.344 8.83941H188.728C188.386 8.29226 187.976 8.01868 187.429 8.01868H186.813C186.471 7.47153 186.061 7.19795 185.514 7.19795H184.898C184.556 6.6508 184.146 6.37722 183.598 6.37722H182.983C182.641 5.83007 182.231 5.55649 181.683 5.55649H168.825C168.347 5.55649 167.868 5.83006 167.526 6.44561C167.184 7.06116 166.979 7.74511 166.979 8.56584V13.3534C166.637 13.2167 166.363 13.1483 165.953 13.1483C165.406 12.6011 164.858 12.3275 164.174 12.3275C163.627 11.7804 163.08 11.5068 162.396 11.5068C161.849 10.9596 161.302 10.6861 160.618 10.6861C160.071 10.1389 159.524 9.86533 158.84 9.86533C158.293 9.31817 157.745 9.0446 157.061 9.0446C156.514 8.49744 155.967 8.22387 155.283 8.22387C154.736 7.67671 154.189 7.40314 153.505 7.40314C152.958 6.85598 152.411 6.58241 151.727 6.58241C151.18 6.03525 150.632 5.76167 149.948 5.76167H138.8C138.321 5.76167 137.843 6.03525 137.501 6.6508C137.159 7.26635 136.954 7.95029 136.954 8.77103V16.9099C136.475 16.7048 135.996 16.4996 135.586 16.2944C134.97 15.9524 134.355 15.6789 133.739 15.4737C133.123 15.1317 132.508 14.8581 131.892 14.6529C131.277 14.311 130.661 14.0374 130.046 13.8322C129.43 13.4902 128.815 13.2167 128.199 13.0115C127.584 12.6695 126.968 12.3959 126.352 12.1907C125.737 11.8488 125.121 11.5752 124.506 11.37C123.89 11.028 123.275 10.7545 122.659 10.5493C122.044 10.2073 121.428 9.93372 120.812 9.72854C120.197 9.38657 119.581 9.11299 118.966 8.90781C118.35 8.56584 117.735 8.29226 117.119 8.08708C116.504 7.74511 115.888 7.47153 115.273 7.26635C114.657 6.92438 114.041 6.65079 113.426 6.44561C112.81 6.10364 112.195 5.83006 111.579 5.62488C110.964 5.28291 110.348 5.00933 109.733 4.80415C107.544 3.57305 105.082 3.09429 102.483 3.43626L82.1013 5.83007C81.6909 5.83007 81.4173 6.24043 81.2122 6.85598C81.007 7.47153 80.9386 8.22387 81.007 8.97621L81.2122 10.4809C80.8702 10.2757 80.4598 10.1389 80.0495 10.1389H79.9127C79.5023 9.59176 78.8867 9.31818 78.2028 9.31818H78.066C77.6556 8.77103 77.0401 8.49744 76.3561 8.49744H76.2194C75.809 7.95029 75.1935 7.67671 74.5095 7.67671H74.3727C73.9623 7.12956 73.3468 6.85598 72.6629 6.85598H72.5261C72.1157 6.30883 71.5002 6.03525 70.8162 6.03525H70.6794C70.2691 5.4881 69.6535 5.21452 68.9696 5.21452H68.8328C68.4224 4.66737 67.8069 4.39378 67.1229 4.39378H66.9861C66.5758 3.84663 65.9602 3.57305 65.2763 3.57305H65.1395C64.7291 3.0259 64.1136 2.75232 63.4296 2.75232H47.015C46.2626 2.75232 45.6471 3.0259 45.2367 3.64145C44.8264 4.1886 44.4844 4.87254 44.3476 5.62488L42.2958 14.3794C41.9538 13.8322 41.6118 13.5586 41.2015 13.5586H40.4491C40.1072 13.0115 39.7652 12.7379 39.3548 12.7379H38.6025C38.2605 12.1907 37.9185 11.9172 37.5082 11.9172H36.7558C36.4139 11.37 36.0719 11.0964 35.6615 11.0964H34.9092C34.5672 10.5493 34.2252 10.2757 33.8149 10.2757H33.0625C32.7206 9.72854 32.3786 9.45497 31.9682 9.45497H31.2159C30.8739 8.90781 30.5319 8.63424 30.1216 8.63424H29.3692C29.0273 8.08708 28.6853 7.8135 28.2749 7.8135H27.5226C27.1806 7.26634 26.8387 6.99277 26.4283 6.99277H25.6759C25.334 6.44561 24.992 6.17204 24.5816 6.17204H23.8293C23.4873 5.62488 23.1454 5.35131 22.735 5.35131H21.9827C21.6407 4.80415 21.2987 4.53058 20.8883 4.53058H20.136C19.794 3.98342 19.4521 3.70984 19.0417 3.70984H18.2894C17.9474 3.16268 17.6054 2.88911 17.1951 2.88911H3.65297C3.17421 2.88911 2.76385 3.23109 2.49027 3.84663C2.1483 4.46218 2.01151 5.21451 2.01151 6.10364V82.2266C2.01151 83.1157 2.1483 83.868 2.49027 84.4836C2.83224 85.0991 3.24261 85.4411 3.65297 85.4411H4.40532C4.74729 85.9882 5.08925 86.2618 5.49962 86.2618H6.25196C6.59393 86.809 6.9359 87.0825 7.34626 87.0825H8.09861C8.44058 87.6297 8.78255 87.9033 9.19292 87.9033H9.94525C10.2872 88.4504 10.6292 88.724 11.0396 88.724H11.7919C12.1339 89.2712 12.4758 89.5447 12.8862 89.5447H13.6386C13.9805 90.0919 14.3225 90.3655 14.7329 90.3655H15.4852C15.8272 90.9126 16.1691 91.1862 16.5795 91.1862H17.3318C17.4686 91.4598 17.6738 91.665 17.879 91.8018C16.1007 92.2805 14.4593 92.9644 12.8862 93.922C9.53489 95.837 6.86751 98.9148 4.88407 103.018C2.90064 107.122 1.94312 112.252 1.94312 118.407V129.145C1.94312 138.515 3.99494 145.423 8.03021 149.937C10.1504 152.262 12.681 153.972 15.5536 155.067C16.1691 155.34 16.7847 155.682 17.4002 155.887C18.0158 156.161 18.6313 156.503 19.2469 156.708C19.8624 156.982 20.478 157.324 21.0935 157.529C21.7091 157.802 22.3246 158.144 22.9402 158.349C23.5557 158.623 24.1713 158.965 24.7868 159.17C25.4024 159.444 26.0179 159.786 26.6335 159.991C27.249 160.264 27.8646 160.606 28.4801 160.812C29.0957 161.085 29.7112 161.427 30.3268 161.632C30.9423 161.906 31.5579 162.248 32.1734 162.453C32.5838 162.658 32.9257 162.795 33.3361 163H5.49962C5.08925 163 4.67889 163.274 4.40532 163.889C4.06334 164.505 3.92655 165.189 3.92655 166.01V237.755C3.92655 238.576 4.06334 239.26 4.40532 239.876C4.74729 240.491 5.08925 240.765 5.49962 240.765H6.25196C6.59393 241.312 6.9359 241.585 7.34626 241.585H8.09861C8.44058 242.133 8.78255 242.406 9.19292 242.406H9.94525C10.2872 242.953 10.6292 243.227 11.0396 243.227H11.7919C12.1339 243.774 12.4758 244.048 12.8862 244.048H13.6386C13.9805 244.595 14.3225 244.868 14.7329 244.868H15.4852C15.8272 245.415 16.1691 245.689 16.5795 245.689H17.3318C17.6738 246.236 18.0158 246.51 18.4262 246.51H19.1785C19.5205 247.057 19.8624 247.33 20.2728 247.33H21.0251C21.3671 247.878 21.7091 248.151 22.1194 248.151H22.8718C23.2138 248.698 23.5557 248.972 23.9661 248.972H24.7184C25.0604 249.519 25.4024 249.793 25.8127 249.793H26.5651C26.907 250.34 27.249 250.613 27.6594 250.613H28.4117C28.7537 251.161 29.0957 251.434 29.506 251.434H30.2584C30.6003 251.981 30.9423 252.255 31.3527 252.255H32.105C32.447 252.802 32.789 253.076 33.1993 253.076H33.9517C34.2936 253.623 34.6356 253.896 35.046 253.896H35.7983C36.1403 254.443 36.4823 254.717 36.8926 254.717H37.645C37.9869 255.264 38.3289 255.538 38.7393 255.538H39.4916C39.8336 256.085 40.1756 256.359 40.5859 256.359H41.3383C41.6802 256.906 42.0222 257.179 42.4326 257.179H43.1849C43.5269 257.726 43.8688 258 44.2792 258H57.069C57.4793 258 57.8897 257.726 58.1633 257.111C58.5052 256.495 58.642 255.811 58.642 254.991V242.68C58.8472 242.885 59.1208 242.953 59.326 242.953H60.0783C60.0783 242.953 60.0783 242.953 60.0783 243.022C60.3519 243.5 60.7623 243.774 61.1726 243.774H61.925C61.925 243.774 61.925 243.774 61.925 243.842C62.1985 244.321 62.6089 244.595 63.0193 244.595H63.7716C63.7716 244.595 63.7716 244.595 63.7716 244.663C64.0452 245.142 64.4555 245.415 64.8659 245.415H65.6182C65.6182 245.415 65.6182 245.415 65.6182 245.484C65.8918 245.963 66.3022 246.236 66.7126 246.236H67.4649C67.4649 246.236 67.4649 246.236 67.4649 246.305C67.7385 246.783 68.1488 247.057 68.5592 247.057H69.3115C69.3115 247.057 69.3115 247.057 69.3115 247.125C69.5851 247.604 69.9955 247.878 70.4059 247.878H71.1582C71.1582 247.878 71.1582 247.878 71.1582 247.946C71.4318 248.425 71.8421 248.698 72.2525 248.698H73.0048C73.0048 248.698 73.0048 248.698 73.0048 248.767C73.2784 249.246 73.6888 249.519 74.0991 249.519H74.8515C74.8515 249.519 74.8515 249.519 74.8515 249.588C75.1251 250.066 75.5354 250.34 75.9458 250.34H76.6981C76.6981 250.34 76.6981 250.34 76.6981 250.408C76.9717 250.887 77.3821 251.161 77.7924 251.161H78.5448C78.5448 251.161 78.5448 251.161 78.5448 251.229C78.8184 251.708 79.2287 251.981 79.6391 251.981H80.3914C80.3914 251.981 80.3914 251.981 80.3914 252.05C80.665 252.528 81.0754 252.802 81.4857 252.802H82.2381C82.2381 252.802 82.2381 252.802 82.2381 252.87C82.5116 253.349 82.922 253.623 83.3324 253.623H84.0847C84.0847 253.623 84.0847 253.623 84.0847 253.691C84.3583 254.17 84.7687 254.443 85.179 254.443H85.9314C85.9314 254.443 85.9314 254.443 85.9314 254.512C86.2049 254.991 86.6153 255.264 87.0257 255.264H87.778C87.778 255.264 87.778 255.264 87.778 255.333C88.0516 255.811 88.462 256.085 88.8723 256.085H89.6247C89.6247 256.085 89.6247 256.085 89.6247 256.153C89.8982 256.632 90.3086 256.906 90.719 256.906H126.352C126.763 256.906 127.105 256.632 127.447 256.153C127.72 255.675 127.925 255.059 127.925 254.375V242.064C127.925 242.064 127.925 242.064 127.994 242.064C128.541 242.406 129.157 242.611 129.772 242.885C130.319 243.227 130.935 243.432 131.55 243.706C132.098 244.048 132.713 244.253 133.329 244.526C133.876 244.868 134.491 245.073 135.107 245.347C135.654 245.689 136.27 245.894 136.885 246.168C137.432 246.51 138.048 246.715 138.663 246.988C139.211 247.33 139.826 247.536 140.442 247.809C140.989 248.151 141.604 248.356 142.22 248.63C142.767 248.972 143.383 249.177 143.998 249.451C144.545 249.793 145.161 249.998 145.776 250.271C146.324 250.613 146.939 250.819 147.555 251.092C148.102 251.434 148.717 251.639 149.333 251.913C152.479 253.623 156.036 254.102 160.071 253.349C163.627 252.734 166.705 251.092 169.099 248.493C170.125 247.33 171.082 246.031 171.835 244.526C172.108 244.8 172.45 244.937 172.792 244.937H173.339C173.339 244.937 173.339 245.073 173.408 245.073C173.75 245.552 174.16 245.757 174.639 245.757H175.186C175.186 245.757 175.186 245.894 175.254 245.894C175.596 246.373 176.007 246.578 176.485 246.578H177.033C177.033 246.578 177.033 246.715 177.101 246.715C177.443 247.194 177.853 247.399 178.332 247.399H178.879C178.879 247.399 178.879 247.536 178.948 247.536C179.29 248.014 179.7 248.22 180.179 248.22H180.726C180.726 248.22 180.726 248.356 180.794 248.356C181.136 248.835 181.547 249.04 182.025 249.04H182.573C182.573 249.04 182.573 249.177 182.641 249.177C182.983 249.656 183.393 249.861 183.872 249.861H184.419C184.419 249.861 184.419 249.998 184.488 249.998C184.83 250.477 185.24 250.682 185.719 250.682H186.266C186.266 250.682 186.266 250.819 186.334 250.819C186.676 251.297 187.087 251.503 187.565 251.503H188.113C188.113 251.503 188.113 251.639 188.181 251.639C188.523 252.118 188.933 252.323 189.412 252.323H189.959C189.959 252.323 189.959 252.46 190.028 252.46C190.37 252.939 190.78 253.144 191.259 253.144H191.806C191.806 253.144 191.806 253.281 191.874 253.281C192.216 253.76 192.627 253.965 193.105 253.965H193.652C193.652 253.965 193.652 254.102 193.721 254.102C194.063 254.58 194.473 254.785 194.952 254.785H195.499C195.499 254.785 195.499 254.922 195.567 254.922C195.909 255.401 196.32 255.606 196.799 255.606H197.346C197.346 255.606 197.346 255.743 197.414 255.743C197.756 256.222 198.166 256.427 198.645 256.427H209.383C209.862 256.427 210.272 256.222 210.614 255.743C210.956 255.264 211.093 254.785 211.093 254.17V208.277H227.85C228.328 208.277 228.739 208.072 229.081 207.593C229.423 207.115 229.559 206.636 229.559 206.02V196.377C229.559 195.761 229.423 195.214 229.081 194.804L230.927 194.94ZM93.2496 100.077L88.1884 99.0515C88.1884 98.9831 88.1884 98.9148 88.1884 98.8464V97.9573C88.462 98.094 88.7355 98.094 89.0091 98.094H89.2143C89.6931 98.6412 90.2402 98.9148 90.9242 98.9148H91.1293C91.6081 99.4619 92.1552 99.7355 92.8392 99.7355H93.0444C93.1812 99.8723 93.2496 100.009 93.3864 100.077H93.2496ZM105.424 156.092L104.466 155.887L104.603 155.203L106.86 155.682C106.381 155.819 105.903 155.956 105.424 156.161V156.092ZM157.335 174.764C156.378 174.149 155.42 173.67 154.394 173.328C153.779 172.986 153.163 172.712 152.547 172.507C151.932 172.165 151.316 171.892 150.701 171.686C150.085 171.344 149.47 171.071 148.854 170.866C148.239 170.524 147.623 170.25 147.008 170.045C146.392 169.703 145.776 169.429 145.161 169.224C144.545 168.882 143.93 168.609 143.314 168.403C142.699 168.061 142.083 167.788 141.468 167.583C140.852 167.241 140.236 166.967 139.621 166.762C139.005 166.42 138.39 166.146 137.774 165.941C137.159 165.599 136.543 165.326 135.928 165.12C135.312 164.779 134.697 164.505 134.081 164.3C133.465 163.958 132.85 163.684 132.234 163.479C131.619 163.137 131.003 162.863 130.388 162.658C129.772 162.316 129.157 162.043 128.541 161.838C127.925 161.496 127.31 161.222 126.694 161.017C126.079 160.675 125.463 160.401 124.848 160.196C124.232 159.854 123.617 159.581 123.001 159.375C122.659 159.17 122.249 159.033 121.907 158.828L122.659 158.965C122.864 158.965 123.001 158.965 123.206 158.965C123.206 158.965 123.206 159.033 123.206 159.102C123.48 159.444 123.822 159.649 124.164 159.649H124.916C124.916 159.786 124.985 159.854 125.053 159.991C125.326 160.333 125.668 160.538 126.01 160.538H126.763C126.763 160.675 126.831 160.743 126.9 160.88C127.173 161.222 127.515 161.427 127.857 161.427H128.609C128.609 161.564 128.678 161.632 128.746 161.769C129.02 162.111 129.362 162.316 129.704 162.316H130.456C130.456 162.453 130.524 162.521 130.593 162.658C130.866 163 131.208 163.205 131.55 163.205H132.303C132.303 163.342 132.371 163.411 132.439 163.547C132.713 163.889 133.055 164.095 133.397 164.095H134.149C134.149 164.231 134.218 164.3 134.286 164.437C134.56 164.779 134.902 164.984 135.244 164.984H136.68C137.022 165.257 137.432 165.394 137.911 165.394H138.116C138.595 165.941 139.142 166.215 139.826 166.215H140.031C140.51 166.762 141.057 167.036 141.741 167.036H141.946C142.425 167.583 142.972 167.856 143.656 167.856H143.861C144.34 168.403 144.887 168.677 145.571 168.677H145.776C146.255 169.224 146.802 169.498 147.486 169.498H147.691C148.17 170.045 148.717 170.318 149.401 170.318H149.606C149.88 170.66 150.222 170.934 150.632 171.002C150.769 171.276 150.838 171.481 150.974 171.686C151.385 172.233 151.727 172.507 152.137 172.439H152.753C152.753 172.439 152.821 172.439 152.889 172.507C153.3 173.054 153.642 173.328 154.052 173.259H154.668C154.668 173.259 154.736 173.259 154.804 173.328C155.215 173.875 155.557 174.149 155.967 174.08H156.583C156.583 174.08 156.651 174.08 156.719 174.149C157.13 174.696 157.472 174.969 157.882 174.901H158.498C158.498 174.901 158.566 174.901 158.635 174.969C159.045 175.516 159.387 175.79 159.797 175.722H160.413C160.413 175.722 160.481 175.722 160.55 175.79C160.96 176.337 161.302 176.611 161.712 176.542H162.328C162.328 176.542 162.396 176.542 162.465 176.611C162.67 176.953 162.875 177.158 163.149 177.226H160.892C160.002 176.474 159.113 175.79 158.156 175.243L157.335 174.764ZM60.4887 75.3187H59.7363C59.3944 74.7716 59.0524 74.498 58.642 74.498H57.9581V73.7456C58.2317 74.0876 58.5736 74.2928 58.9156 74.2928H59.6679C59.6679 74.4296 59.7363 74.498 59.8047 74.6348C60.0783 74.9767 60.4203 75.1819 60.7622 75.1819H61.5146C61.5146 75.3187 61.583 75.3871 61.6514 75.5239C61.9249 75.8659 62.2669 76.0711 62.6089 76.0711H63.156V76.755C62.9509 76.413 62.6773 76.2762 62.3353 76.2762H61.583C61.241 75.7291 60.899 75.4555 60.4887 75.4555V75.3187ZM120.197 213.68H119.445C119.445 213.68 119.445 213.68 119.445 213.612C119.171 213.133 118.761 212.86 118.35 212.86H117.598C117.598 212.86 117.598 212.86 117.598 212.791C117.324 212.313 116.914 212.039 116.504 212.039H115.751C115.751 212.039 115.751 212.039 115.751 211.971C115.478 211.492 115.067 211.218 114.657 211.218H113.905C113.905 211.218 113.905 211.218 113.905 211.15C113.631 210.671 113.221 210.398 112.81 210.398H112.058C112.058 210.398 112.058 210.398 112.058 210.329C111.784 209.85 111.374 209.577 110.964 209.577H110.211H120.197C120.265 209.577 120.402 209.645 120.47 209.714C121.086 210.056 121.702 210.329 122.317 210.534C122.659 210.671 123.001 210.876 123.343 211.013C123.206 212.313 122.18 213.27 120.334 213.817L120.197 213.68ZM58.1633 103.018C57.6845 102.745 57.1373 102.54 56.5902 102.334C56.3166 102.198 56.1114 102.129 55.8379 101.993H58.3684L58.1633 103.018ZM66.6442 173.054C69.3115 172.712 71.7054 172.028 73.894 170.866C73.894 170.866 74.0307 170.866 74.0991 170.934L75.2619 171.139C75.467 171.481 75.6722 171.686 75.9458 171.755L77.1085 171.96C77.3137 172.302 77.5189 172.507 77.7924 172.575L78.9551 172.781C79.1603 173.123 79.3655 173.328 79.6391 173.396L80.8018 173.601C80.8018 173.601 80.8018 173.67 80.8702 173.738H68.4224C68.1488 173.259 67.8069 172.986 67.3965 172.986H66.6442V173.054ZM157.198 200.617C156.583 200.275 155.967 200.002 155.352 199.796C154.736 199.454 154.121 199.181 153.505 198.976C152.889 198.634 152.274 198.36 151.658 198.155C151.043 197.813 150.427 197.539 149.812 197.334C149.333 197.061 148.854 196.855 148.375 196.65C148.649 195.693 149.401 195.009 150.632 194.667C150.906 194.804 151.111 194.94 151.385 194.94C151.59 195.077 151.795 195.146 152 195.146C152.411 195.556 152.821 195.761 153.231 195.83C153.437 195.966 153.642 196.035 153.847 196.035C154.257 196.445 154.668 196.65 155.078 196.719C155.283 196.855 155.488 196.924 155.694 196.924C156.104 197.334 156.514 197.539 156.925 197.608C157.13 197.745 157.335 197.813 157.609 197.813H158.156C158.156 197.813 158.156 197.95 158.224 197.95C158.566 198.429 158.977 198.634 159.455 198.634H159.797V201.917C159.592 201.848 159.318 201.711 159.113 201.643C158.498 201.301 157.882 201.028 157.267 200.822L157.198 200.617Z" fill="#1E1E1E"/>
<path d="M47.4937 69.5052C47.9725 69.5052 48.3828 69.8472 48.6564 70.4627C48.9984 71.0783 49.1352 71.8306 49.1352 72.7197V81.3374C49.1352 82.2266 48.9984 82.9789 48.6564 83.5945C48.3144 84.21 47.9041 84.552 47.4937 84.552H3.72134C3.24258 84.552 2.83221 84.21 2.55863 83.5945C2.21666 82.9789 2.07987 82.2266 2.07987 81.3374V5.21454C2.07987 4.32542 2.21666 3.57308 2.55863 2.95753C2.9006 2.34198 3.31097 2 3.72134 2H17.2634C17.7422 2 18.1525 2.34198 18.4261 2.95753C18.7681 3.57308 18.9049 4.32542 18.9049 5.21454V69.5052H47.4937Z" fill="#218BCB"/>
<path d="M55.4275 18.7566L51.2554 42.4211H58.7104L55.4275 18.7566ZM46.7414 59.7248C46.2626 61.7083 45.3735 62.6658 44.074 62.6658H32.9257C32.5837 62.6658 32.2418 62.4606 31.9682 62.1186C31.763 61.7083 31.6262 61.2295 31.6262 60.7507V60.2036L44.5528 4.87257C44.6895 4.12023 45.0315 3.43628 45.4419 2.88913C45.8523 2.34197 46.4678 2 47.2201 2H63.6348C64.3871 2 65.0027 2.27358 65.413 2.88913C65.8234 3.43628 66.1654 4.12023 66.3022 4.87257L79.1603 85.6463V86.1934C79.1603 86.7406 79.0919 87.151 78.8183 87.5613C78.6131 87.9033 78.2712 88.1085 77.9292 88.1085H66.7809C65.5498 88.1085 64.6607 87.151 64.1135 85.1675L61.0358 53.7061H48.246L46.7414 59.7932V59.7248Z" fill="#FFD010"/>
<path d="M119.103 99.3252L114.452 126.204H123.822L119.103 99.3252ZM110.006 143.987C109.527 145.97 108.638 146.928 107.339 146.928H96.1905C95.8485 146.928 95.5065 146.722 95.233 146.38C95.0278 145.97 94.891 145.491 94.891 145.013V144.465L107.818 89.1344C107.954 88.382 108.296 87.6981 108.707 87.151C109.117 86.6038 109.733 86.2618 110.485 86.2618H126.9C127.652 86.2618 128.267 86.5354 128.678 87.151C129.088 87.6981 129.43 88.382 129.567 89.1344L142.425 159.854V160.401C142.425 160.948 142.357 161.359 142.083 161.769C141.878 162.111 141.536 162.316 141.194 162.316H132.303C131.072 162.316 130.182 161.359 129.635 159.375L126.558 137.968H111.511L110.006 144.055V143.987Z" fill="#FFD010"/>
<path d="M45.0999 116.424C45.5103 116.424 45.9206 116.697 46.1942 117.176C46.5362 117.655 46.673 118.27 46.673 118.886V128.53C46.673 137.763 44.6211 144.602 40.5175 149.116C36.4822 153.562 31.0791 155.75 24.3764 155.75C17.6738 155.75 12.2706 153.562 8.16697 149.116C4.13171 144.602 2.07987 137.694 2.07987 128.324V117.586C2.07987 111.363 3.03739 106.233 5.02083 102.198C7.00427 98.094 9.67164 95.0163 13.023 93.1013C16.3743 91.1862 20.136 90.1603 24.3764 90.1603C28.6169 90.1603 33.6097 91.4598 36.8926 93.9904C40.1755 96.521 42.5693 99.4619 44.0056 102.676C45.5103 105.891 46.2626 108.49 46.2626 110.542C46.2626 112.594 46.1258 111.568 45.8522 111.978C45.6471 112.32 45.3051 112.525 44.9631 112.525H31.5578C30.7371 112.525 30.1899 112.183 29.848 111.499C28.6169 109.106 26.8386 107.943 24.3764 107.943C21.9142 107.943 21.0251 108.558 19.794 109.858C18.6313 111.157 18.0158 112.799 18.0158 114.782V130.308C18.0158 132.77 18.6313 134.685 19.794 136.053C20.9567 137.421 22.5298 138.036 24.3764 138.036C26.2231 138.036 28.6169 137.421 29.7796 136.121C30.9423 134.753 31.5578 133.249 31.6262 131.47H27.9329C27.5226 131.47 27.1122 131.197 26.8386 130.718C26.4966 130.239 26.3599 129.624 26.3599 129.008V118.886C26.3599 118.202 26.4966 117.655 26.8386 117.176C27.1806 116.697 27.5226 116.424 27.9329 116.424H45.0999Z" fill="#F27DA7"/>
<path d="M88.9407 148.637C89.3511 148.706 89.6246 149.048 89.8298 149.595C90.035 150.142 90.035 150.758 89.8298 151.442L87.094 164.71C86.9572 165.394 86.6837 165.941 86.2733 166.42C85.8629 166.83 85.521 167.036 85.1106 166.967L48.1093 159.375C47.6989 159.307 47.4253 158.965 47.2201 158.418C47.0149 157.871 47.0149 157.255 47.2201 156.571L59.6679 95.9054C59.8047 95.2215 60.0783 94.6743 60.4886 94.1956C60.899 93.7852 61.241 93.58 61.6513 93.6484L100.157 101.582C100.568 101.651 100.841 101.993 101.046 102.54C101.252 103.087 101.252 103.702 101.046 104.386L98.3107 117.655C98.1739 118.339 97.9003 118.886 97.49 119.365C97.0796 119.775 96.7376 119.98 96.3273 119.912L70.3374 114.577L69.1063 120.527L87.0256 124.221C87.436 124.289 87.7096 124.631 87.9148 125.178C88.12 125.725 88.12 126.341 87.9148 127.025L85.3842 139.267C85.2474 139.951 84.9738 140.499 84.5634 140.977C84.1531 141.456 83.8111 141.593 83.4007 141.524L65.4814 137.831L64.2503 143.781L88.8039 148.843L88.9407 148.637Z" fill="#009A5E"/>
<path d="M43.3217 162.316C43.732 162.316 44.1424 162.59 44.416 163.205C44.7579 163.821 44.8947 164.505 44.8947 165.326V182.219C44.8947 183.04 44.7579 183.724 44.416 184.339C44.074 184.955 43.732 185.228 43.3217 185.228H20.0676V192.341H39.4916C39.9019 192.341 40.3123 192.615 40.5859 193.231C40.9279 193.846 41.0646 194.53 41.0646 195.351V206.225C41.0646 207.046 40.9279 207.73 40.5859 208.346C40.2439 208.961 39.9019 209.235 39.4916 209.235H20.0676V237.14C20.0676 237.96 19.9308 238.644 19.5888 239.26C19.2469 239.876 18.9049 240.149 18.4945 240.149H5.70477C5.29441 240.149 4.88404 239.876 4.61046 239.26C4.26849 238.644 4.1317 237.96 4.1317 237.14V165.394C4.1317 164.573 4.26849 163.889 4.61046 163.274C4.95243 162.658 5.29441 162.385 5.70477 162.385H43.3217V162.316Z" fill="#FFD010"/>
<path d="M88.5987 191.999C89.0091 191.999 89.351 191.726 89.693 191.247C89.9666 190.768 90.1718 190.153 90.1718 189.469V176.337C90.1718 175.653 90.035 175.038 89.693 174.559C89.351 174.08 89.0091 173.807 88.5987 173.807H52.3497C51.9393 173.807 51.5974 174.08 51.2554 174.559C50.9818 175.038 50.7766 175.653 50.7766 176.337V236.661C50.7766 237.345 50.9134 237.96 51.2554 238.439C51.529 238.918 51.9393 239.192 52.3497 239.192H87.9832C88.3935 239.192 88.7355 238.918 89.0775 238.439C89.4194 237.96 89.5562 237.345 89.5562 236.661V223.529C89.5562 222.845 89.4194 222.23 89.0775 221.751C88.8039 221.272 88.3935 220.999 87.9832 220.999H65.6866V215.117H84.837C85.2474 215.117 85.5894 214.843 85.9313 214.364C86.2049 213.886 86.4101 213.27 86.4101 212.586V200.48C86.4101 199.796 86.2733 199.181 85.9313 198.702C85.6577 198.223 85.2474 197.95 84.837 197.95H65.6866V192.068H88.5303L88.5987 191.999Z" fill="#F27DA7"/>
<path d="M190.711 176.748C191.19 176.748 191.601 176.953 191.943 177.431C192.285 177.91 192.421 178.389 192.421 179.005V188.648C192.421 189.264 192.285 189.811 191.943 190.221C191.601 190.7 191.19 190.905 190.711 190.905H173.955V236.798C173.955 237.413 173.818 237.96 173.476 238.371C173.134 238.85 172.724 239.055 172.245 239.055H161.507C161.028 239.055 160.618 238.85 160.276 238.371C159.934 237.892 159.797 237.413 159.797 236.798V190.905H142.767C142.288 190.905 141.878 190.7 141.536 190.221C141.194 189.742 141.057 189.264 141.057 188.648V179.005C141.057 178.389 141.194 177.842 141.536 177.431C141.878 176.953 142.288 176.748 142.767 176.748H190.78H190.711Z" fill="#009A5E"/>
<path d="M116.777 184.271C120.676 184.476 123.959 185.434 126.558 187.075C129.225 188.717 131.345 191.042 132.918 194.12C134.491 197.197 135.791 201.233 136.612 206.157C137.569 211.56 137.569 216.348 136.68 220.725C135.791 224.966 134.149 228.385 131.756 231.053C129.293 233.652 126.284 235.225 122.727 235.909C118.761 236.593 115.136 236.114 111.99 234.472C108.843 232.762 106.244 230.3 104.261 226.949C102.278 223.529 100.841 219.631 100.089 215.322C99.9522 214.57 99.9522 213.954 100.089 213.475C100.226 212.997 100.499 212.723 100.841 212.655L111.374 210.808C112.058 210.671 112.742 211.081 113.357 211.971C114.178 213.065 114.931 213.749 115.751 214.091C116.504 214.364 117.598 214.364 118.897 214.091C122.112 213.544 123.548 212.176 123.206 209.987C123.069 209.098 122.727 208.414 122.112 207.867C121.565 207.251 120.744 206.841 119.581 206.567C118.419 206.225 116.777 205.952 114.589 205.815C109.664 205.473 105.629 203.558 102.483 200.07C99.2682 196.582 97.0796 191.179 95.7801 184.066C94.891 179.005 94.8226 174.354 95.5065 170.25C96.2589 166.146 97.6952 162.727 99.8838 160.128C102.072 157.529 104.945 155.887 108.365 155.272C111.921 154.656 115.273 155.272 118.35 157.324C121.428 159.239 124.027 161.906 126.01 165.189C128.062 168.54 129.362 171.892 129.977 175.38C130.114 176.132 130.114 176.748 129.977 177.226C129.841 177.705 129.567 177.979 129.225 178.047L118.213 179.962C117.666 180.03 117.051 179.688 116.367 178.868C115.888 178.184 115.341 177.637 114.725 177.295C114.11 176.953 113.289 176.884 112.263 177.021C110.006 177.431 108.98 178.663 109.391 180.783C109.596 181.877 110.211 182.698 111.169 183.245C112.195 183.655 114.041 183.997 116.846 184.203L116.777 184.271Z" fill="#218BCB"/>
<path d="M182.915 5.28293C183.393 5.28293 183.872 5.55651 184.214 6.17206C184.556 6.78761 184.761 7.47156 184.761 8.29229V79.2172C184.761 80.0379 184.556 80.7219 184.214 81.3374C183.872 81.953 183.393 82.2266 182.915 82.2266H171.835C170.74 82.2266 169.783 81.4742 169.099 79.9011L154.052 49.3973V79.2856C154.052 80.1063 153.847 80.7903 153.505 81.4058C153.163 82.0214 152.684 82.295 152.205 82.295H139.347C138.869 82.295 138.39 82.0214 138.048 81.4058C137.706 80.7903 137.501 80.1063 137.501 79.2856V8.36068C137.501 7.53994 137.706 6.85601 138.048 6.24046C138.39 5.62491 138.869 5.35133 139.347 5.35133H150.496C151.59 5.35133 152.479 6.10366 153.163 7.53995L168.21 40.5744V8.29229C168.21 7.47156 168.415 6.78761 168.757 6.17206C169.099 5.55651 169.578 5.28293 170.056 5.28293H182.915Z" fill="#FFD010"/>
<path d="M105.492 35.3081C106.244 35.2397 106.792 34.6241 107.065 33.5298C107.339 32.3671 107.407 30.9992 107.202 29.3577C106.997 27.7163 106.655 26.3484 106.108 25.2541C105.561 24.023 104.877 23.4758 104.124 23.6126L97.5584 24.365L98.9262 36.1288L105.492 35.3764V35.3081ZM127.994 74.9768C128.131 75.2503 128.199 75.5923 128.199 75.9343C128.267 76.6182 128.199 77.2338 128.062 77.7809C127.925 78.2597 127.652 78.5333 127.378 78.5333L115.478 79.9011C114.999 79.9011 114.52 79.7644 114.041 79.2856C113.563 78.8068 113.221 78.1913 112.947 77.3706L105.766 55.9631L101.388 56.5103L103.919 78.1913C103.987 79.012 103.919 79.696 103.714 80.3115C103.509 80.9271 103.235 81.269 102.825 81.3374L91.4713 82.6369C91.0609 82.6369 90.7189 82.4318 90.377 81.8846C90.035 81.3374 89.8298 80.6535 89.693 79.8328L81.3489 8.29229C81.2805 7.47156 81.3489 6.78761 81.5541 6.17206C81.7593 5.55651 82.0329 5.21454 82.4432 5.14614L102.825 2.75234C105.971 2.41037 108.843 3.16271 111.442 5.00936C114.041 6.856 116.23 9.72856 118.008 13.6954C119.718 17.5939 120.949 22.3131 121.565 27.7847C122.727 37.8386 121.77 45.2936 118.624 50.218L128.062 74.9084L127.994 74.9768Z" fill="#F27DA7"/>
<path d="M163.285 122.579C164.038 122.442 164.585 121.827 164.79 120.664C164.995 119.433 164.995 118.065 164.722 116.355C164.448 114.714 163.969 113.278 163.354 112.183C162.738 110.952 162.054 110.405 161.234 110.542L154.668 111.636L156.719 123.605L163.285 122.511V122.579ZM191.601 161.496C191.737 161.769 191.806 162.111 191.874 162.522C192.011 163.205 191.943 163.821 191.874 164.368C191.737 164.847 191.532 165.12 191.19 165.189L179.221 167.241C178.742 167.309 178.195 167.172 177.717 166.694C177.238 166.215 176.827 165.599 176.554 164.779L162.533 136.326L158.087 137.079L164.038 166.694C164.174 167.514 164.174 168.267 164.038 168.882C163.832 169.498 163.559 169.908 163.217 169.977L151.795 171.892C151.385 171.892 151.043 171.686 150.632 171.139C150.222 170.592 150.017 169.908 149.812 169.087L137.432 96.2474C137.295 95.4267 137.295 94.6743 137.432 94.0588C137.637 93.4432 137.911 93.0329 138.253 92.9645L158.771 89.4764C161.917 88.9292 164.858 89.5448 167.594 91.323C170.33 93.1013 172.724 95.9738 174.707 99.8723C176.691 103.771 178.127 108.558 179.084 114.098C180.794 124.357 178.742 128.735 175.87 133.933L191.601 161.496Z" fill="#218BCB"/>
<path d="M230.927 194.94C230.585 194.462 230.175 194.256 229.696 194.256H229.149C229.149 194.256 229.149 194.12 229.081 194.12C228.739 193.641 228.328 193.436 227.85 193.436H227.302C227.302 193.436 227.302 193.299 227.234 193.299C226.892 192.82 226.482 192.615 226.003 192.615H225.456C225.456 192.615 225.456 192.478 225.387 192.478C225.045 191.999 224.635 191.794 224.156 191.794H223.609C223.609 191.794 223.609 191.658 223.541 191.658C223.199 191.179 222.788 190.974 222.31 190.974H221.763C221.763 190.974 221.763 190.837 221.694 190.837C221.352 190.358 220.942 190.153 220.463 190.153H219.916C219.916 190.153 219.916 190.016 219.847 190.016C219.506 189.537 219.095 189.332 218.616 189.332H218.069C218.069 189.332 218.069 189.195 218.001 189.195C217.659 188.717 217.249 188.511 216.77 188.511H216.223C216.223 188.511 216.223 188.375 216.154 188.375C215.812 187.896 215.402 187.691 214.923 187.691H214.376C214.376 187.691 214.376 187.554 214.308 187.554C213.966 187.075 213.555 186.87 213.076 186.87H212.529C212.529 186.87 212.529 186.733 212.461 186.733C212.119 186.254 211.709 186.049 211.23 186.049H210.683C210.683 186.049 210.683 185.912 210.614 185.912C210.272 185.434 209.862 185.228 209.383 185.228H208.836C208.836 185.228 208.836 185.092 208.768 185.092C208.426 184.613 208.015 184.408 207.536 184.408H206.989C206.989 184.408 206.989 184.271 206.921 184.271C206.579 183.792 206.169 183.587 205.69 183.587H205.143C205.143 183.587 205.143 183.45 205.074 183.45C204.732 182.971 204.322 182.766 203.843 182.766H203.296C203.296 182.766 203.296 182.629 203.228 182.629C203.091 182.424 202.954 182.287 202.749 182.219L201.791 177.5C201.791 177.568 201.928 177.637 201.997 177.705C202.475 178.184 203.022 178.321 203.501 178.252H203.57C203.638 178.321 203.775 178.457 203.843 178.526C204.322 179.005 204.869 179.141 205.348 179.073H205.416C205.485 179.141 205.621 179.278 205.69 179.347C206.169 179.825 206.716 179.962 207.195 179.894H207.263C207.331 179.962 207.468 180.099 207.536 180.167C208.015 180.646 208.562 180.783 209.041 180.714H209.11C209.178 180.783 209.315 180.92 209.383 180.988C209.862 181.467 210.409 181.604 210.888 181.535H210.956C211.025 181.604 211.161 181.74 211.23 181.809C211.709 182.287 212.256 182.424 212.734 182.356H212.803C212.871 182.424 213.008 182.561 213.076 182.629C213.555 183.108 214.102 183.245 214.581 183.177H214.65C214.718 183.245 214.855 183.382 214.923 183.45C215.402 183.929 215.949 184.066 216.428 183.997H216.496C216.565 184.066 216.701 184.202 216.77 184.271C217.249 184.75 217.796 184.886 218.274 184.818L230.243 182.766C230.585 182.766 230.791 182.424 230.927 181.945C231.064 181.398 231.133 180.783 230.927 180.099C230.927 179.757 230.791 179.415 230.654 179.073L214.923 151.51C217.864 146.312 219.916 141.866 218.138 131.676C217.18 126.136 215.744 121.348 213.76 117.45C211.777 113.551 209.452 110.679 206.647 108.9C205.758 108.285 204.801 107.874 203.912 107.532C203.296 107.19 202.681 106.917 202.065 106.712C201.449 106.37 200.834 106.096 200.218 105.891C199.603 105.549 198.987 105.275 198.372 105.07C197.756 104.728 197.141 104.455 196.525 104.25C195.909 103.908 195.294 103.634 194.678 103.429C194.063 103.087 193.447 102.813 192.832 102.608C192.216 102.266 191.601 101.993 190.985 101.787C190.37 101.445 189.754 101.172 189.138 100.967C188.523 100.625 187.907 100.351 187.292 100.146C187.087 100.077 186.95 99.9407 186.745 99.8723H191.259C191.737 99.8723 192.216 99.5987 192.558 98.9832C192.9 98.3676 193.105 97.6837 193.105 96.8629V92.0753C193.447 92.2805 193.789 92.3489 194.2 92.3489H194.268C194.815 92.8961 195.362 93.1696 196.046 93.1696H196.115C196.662 93.7168 197.209 93.9904 197.893 93.9904H197.961C198.508 94.5375 199.056 94.8111 199.74 94.8111H199.808C200.355 95.3583 200.902 95.6318 201.586 95.6318H201.655C202.202 96.179 202.749 96.4526 203.433 96.4526H203.501C204.048 96.9997 204.596 97.2733 205.279 97.2733H205.348C205.895 97.8205 206.442 98.094 207.126 98.094H207.195C207.742 98.6412 208.289 98.9148 208.973 98.9148H209.041C209.588 99.4619 210.135 99.7355 210.819 99.7355H221.899C222.378 99.7355 222.857 99.4619 223.199 98.8464C223.541 98.2308 223.746 97.5469 223.746 96.7261V25.8012C223.746 24.9805 223.541 24.2965 223.199 23.681C222.857 23.0654 222.378 22.7919 221.899 22.7919H221.284C220.942 22.2447 220.531 21.9711 219.984 21.9711H219.369C219.027 21.424 218.616 21.1504 218.069 21.1504H217.454C217.112 20.6032 216.701 20.3297 216.154 20.3297H215.539C215.197 19.7825 214.786 19.5089 214.239 19.5089H213.624C213.282 18.9618 212.871 18.6882 212.324 18.6882H211.709C211.367 18.1411 210.956 17.8675 210.409 17.8675H209.794C209.452 17.3203 209.041 17.0467 208.494 17.0467H207.878C207.536 16.4996 207.126 16.226 206.579 16.226H205.963C205.621 15.6788 205.211 15.4053 204.664 15.4053H204.048C203.706 14.8581 203.296 14.5845 202.749 14.5845H202.133C201.791 14.0374 201.381 13.7638 200.834 13.7638H200.218C199.876 13.2167 199.466 12.9431 198.919 12.9431H198.303C197.961 12.3959 197.551 12.1223 197.004 12.1223H196.388C196.046 11.5752 195.636 11.3016 195.089 11.3016H194.473C194.131 10.7545 193.721 10.4809 193.174 10.4809H192.558C192.216 9.93373 191.806 9.66015 191.259 9.66015H190.643C190.301 9.113 189.891 8.83941 189.344 8.83941H188.728C188.386 8.29226 187.976 8.01868 187.429 8.01868H186.813C186.471 7.47153 186.061 7.19795 185.514 7.19795H184.898C184.556 6.6508 184.146 6.37722 183.598 6.37722H182.983C182.641 5.83007 182.231 5.55649 181.683 5.55649H168.825C168.347 5.55649 167.868 5.83006 167.526 6.44561C167.184 7.06116 166.979 7.74511 166.979 8.56584V13.3534C166.637 13.2167 166.363 13.1483 165.953 13.1483C165.406 12.6011 164.858 12.3275 164.174 12.3275C163.627 11.7804 163.08 11.5068 162.396 11.5068C161.849 10.9596 161.302 10.6861 160.618 10.6861C160.071 10.1389 159.524 9.86533 158.84 9.86533C158.293 9.31817 157.745 9.0446 157.061 9.0446C156.514 8.49744 155.967 8.22387 155.283 8.22387C154.736 7.67671 154.189 7.40314 153.505 7.40314C152.958 6.85598 152.411 6.58241 151.727 6.58241C151.18 6.03525 150.632 5.76167 149.948 5.76167H138.8C138.321 5.76167 137.843 6.03525 137.501 6.6508C137.159 7.26635 136.954 7.95029 136.954 8.77103V16.9099C136.475 16.7048 135.996 16.4996 135.586 16.2944C134.97 15.9524 134.355 15.6789 133.739 15.4737C133.123 15.1317 132.508 14.8581 131.892 14.6529C131.277 14.311 130.661 14.0374 130.046 13.8322C129.43 13.4902 128.815 13.2167 128.199 13.0115C127.584 12.6695 126.968 12.3959 126.352 12.1907C125.737 11.8488 125.121 11.5752 124.506 11.37C123.89 11.028 123.275 10.7545 122.659 10.5493C122.044 10.2073 121.428 9.93372 120.812 9.72854C120.197 9.38657 119.581 9.11299 118.966 8.90781C118.35 8.56584 117.735 8.29226 117.119 8.08708C116.504 7.74511 115.888 7.47153 115.273 7.26635C114.657 6.92438 114.041 6.65079 113.426 6.44561C112.81 6.10364 112.195 5.83006 111.579 5.62488C110.964 5.28291 110.348 5.00933 109.733 4.80415C107.544 3.57305 105.082 3.09429 102.483 3.43626L82.1013 5.83007C81.6909 5.83007 81.4173 6.24043 81.2122 6.85598C81.007 7.47153 80.9386 8.22387 81.007 8.97621L81.2122 10.4809C80.8702 10.2757 80.4598 10.1389 80.0495 10.1389H79.9127C79.5023 9.59176 78.8867 9.31818 78.2028 9.31818H78.066C77.6556 8.77103 77.0401 8.49744 76.3561 8.49744H76.2194C75.809 7.95029 75.1935 7.67671 74.5095 7.67671H74.3727C73.9623 7.12956 73.3468 6.85598 72.6629 6.85598H72.5261C72.1157 6.30883 71.5002 6.03525 70.8162 6.03525H70.6794C70.2691 5.4881 69.6535 5.21452 68.9696 5.21452H68.8328C68.4224 4.66737 67.8069 4.39378 67.1229 4.39378H66.9861C66.5758 3.84663 65.9602 3.57305 65.2763 3.57305H65.1395C64.7291 3.0259 64.1136 2.75232 63.4296 2.75232H47.015C46.2626 2.75232 45.6471 3.0259 45.2367 3.64145C44.8264 4.1886 44.4844 4.87254 44.3476 5.62488L42.2958 14.3794C41.9538 13.8322 41.6118 13.5586 41.2015 13.5586H40.4491C40.1072 13.0115 39.7652 12.7379 39.3548 12.7379H38.6025C38.2605 12.1907 37.9185 11.9172 37.5082 11.9172H36.7558C36.4139 11.37 36.0719 11.0964 35.6615 11.0964H34.9092C34.5672 10.5493 34.2252 10.2757 33.8149 10.2757H33.0625C32.7206 9.72854 32.3786 9.45497 31.9682 9.45497H31.2159C30.8739 8.90781 30.5319 8.63424 30.1216 8.63424H29.3692C29.0273 8.08708 28.6853 7.8135 28.2749 7.8135H27.5226C27.1806 7.26634 26.8387 6.99277 26.4283 6.99277H25.6759C25.334 6.44561 24.992 6.17204 24.5816 6.17204H23.8293C23.4873 5.62488 23.1454 5.35131 22.735 5.35131H21.9827C21.6407 4.80415 21.2987 4.53058 20.8883 4.53058H20.136C19.794 3.98342 19.4521 3.70984 19.0417 3.70984H18.2894C17.9474 3.16268 17.6054 2.88911 17.1951 2.88911H3.65297C3.17421 2.88911 2.76385 3.23109 2.49027 3.84663C2.1483 4.46218 2.01151 5.21451 2.01151 6.10364V82.2266C2.01151 83.1157 2.1483 83.868 2.49027 84.4836C2.83224 85.0991 3.24261 85.4411 3.65297 85.4411H4.40532C4.74729 85.9882 5.08925 86.2618 5.49962 86.2618H6.25196C6.59393 86.809 6.9359 87.0825 7.34626 87.0825H8.09861C8.44058 87.6297 8.78255 87.9033 9.19292 87.9033H9.94525C10.2872 88.4504 10.6292 88.724 11.0396 88.724H11.7919C12.1339 89.2712 12.4758 89.5447 12.8862 89.5447H13.6386C13.9805 90.0919 14.3225 90.3655 14.7329 90.3655H15.4852C15.8272 90.9126 16.1691 91.1862 16.5795 91.1862H17.3318C17.4686 91.4598 17.6738 91.665 17.879 91.8018C16.1007 92.2805 14.4593 92.9644 12.8862 93.922C9.53489 95.837 6.86751 98.9148 4.88407 103.018C2.90064 107.122 1.94312 112.252 1.94312 118.407V129.145C1.94312 138.515 3.99494 145.423 8.03021 149.937C10.1504 152.262 12.681 153.972 15.5536 155.067C16.1691 155.34 16.7847 155.682 17.4002 155.887C18.0158 156.161 18.6313 156.503 19.2469 156.708C19.8624 156.982 20.478 157.324 21.0935 157.529C21.7091 157.802 22.3246 158.144 22.9402 158.349C23.5557 158.623 24.1713 158.965 24.7868 159.17C25.4024 159.444 26.0179 159.786 26.6335 159.991C27.249 160.264 27.8646 160.606 28.4801 160.812C29.0957 161.085 29.7112 161.427 30.3268 161.632C30.9423 161.906 31.5579 162.248 32.1734 162.453C32.5838 162.658 32.9257 162.795 33.3361 163H5.49962C5.08925 163 4.67889 163.274 4.40532 163.889C4.06334 164.505 3.92655 165.189 3.92655 166.01V237.755C3.92655 238.576 4.06334 239.26 4.40532 239.876C4.74729 240.491 5.08925 240.765 5.49962 240.765H6.25196C6.59393 241.312 6.9359 241.585 7.34626 241.585H8.09861C8.44058 242.133 8.78255 242.406 9.19292 242.406H9.94525C10.2872 242.953 10.6292 243.227 11.0396 243.227H11.7919C12.1339 243.774 12.4758 244.048 12.8862 244.048H13.6386C13.9805 244.595 14.3225 244.868 14.7329 244.868H15.4852C15.8272 245.415 16.1691 245.689 16.5795 245.689H17.3318C17.6738 246.236 18.0158 246.51 18.4262 246.51H19.1785C19.5205 247.057 19.8624 247.33 20.2728 247.33H21.0251C21.3671 247.878 21.7091 248.151 22.1194 248.151H22.8718C23.2138 248.698 23.5557 248.972 23.9661 248.972H24.7184C25.0604 249.519 25.4024 249.793 25.8127 249.793H26.5651C26.907 250.34 27.249 250.613 27.6594 250.613H28.4117C28.7537 251.161 29.0957 251.434 29.506 251.434H30.2584C30.6003 251.981 30.9423 252.255 31.3527 252.255H32.105C32.447 252.802 32.789 253.076 33.1993 253.076H33.9517C34.2936 253.623 34.6356 253.896 35.046 253.896H35.7983C36.1403 254.443 36.4823 254.717 36.8926 254.717H37.645C37.9869 255.264 38.3289 255.538 38.7393 255.538H39.4916C39.8336 256.085 40.1756 256.359 40.5859 256.359H41.3383C41.6802 256.906 42.0222 257.179 42.4326 257.179H43.1849C43.5269 257.726 43.8688 258 44.2792 258H57.069C57.4793 258 57.8897 257.726 58.1633 257.111C58.5052 256.495 58.642 255.811 58.642 254.991V242.68C58.8472 242.885 59.1208 242.953 59.326 242.953H60.0783C60.0783 242.953 60.0783 242.953 60.0783 243.022C60.3519 243.5 60.7623 243.774 61.1726 243.774H61.925C61.925 243.774 61.925 243.774 61.925 243.842C62.1985 244.321 62.6089 244.595 63.0193 244.595H63.7716C63.7716 244.595 63.7716 244.595 63.7716 244.663C64.0452 245.142 64.4555 245.415 64.8659 245.415H65.6182C65.6182 245.415 65.6182 245.415 65.6182 245.484C65.8918 245.963 66.3022 246.236 66.7126 246.236H67.4649C67.4649 246.236 67.4649 246.236 67.4649 246.305C67.7385 246.783 68.1488 247.057 68.5592 247.057H69.3115C69.3115 247.057 69.3115 247.057 69.3115 247.125C69.5851 247.604 69.9955 247.878 70.4059 247.878H71.1582C71.1582 247.878 71.1582 247.878 71.1582 247.946C71.4318 248.425 71.8421 248.698 72.2525 248.698H73.0048C73.0048 248.698 73.0048 248.698 73.0048 248.767C73.2784 249.246 73.6888 249.519 74.0991 249.519H74.8515C74.8515 249.519 74.8515 249.519 74.8515 249.588C75.1251 250.066 75.5354 250.34 75.9458 250.34H76.6981C76.6981 250.34 76.6981 250.34 76.6981 250.408C76.9717 250.887 77.3821 251.161 77.7924 251.161H78.5448C78.5448 251.161 78.5448 251.161 78.5448 251.229C78.8184 251.708 79.2287 251.981 79.6391 251.981H80.3914C80.3914 251.981 80.3914 251.981 80.3914 252.05C80.665 252.528 81.0754 252.802 81.4857 252.802H82.2381C82.2381 252.802 82.2381 252.802 82.2381 252.87C82.5116 253.349 82.922 253.623 83.3324 253.623H84.0847C84.0847 253.623 84.0847 253.623 84.0847 253.691C84.3583 254.17 84.7687 254.443 85.179 254.443H85.9314C85.9314 254.443 85.9314 254.443 85.9314 254.512C86.2049 254.991 86.6153 255.264 87.0257 255.264H87.778C87.778 255.264 87.778 255.264 87.778 255.333C88.0516 255.811 88.462 256.085 88.8723 256.085H89.6247C89.6247 256.085 89.6247 256.085 89.6247 256.153C89.8982 256.632 90.3086 256.906 90.719 256.906H126.352C126.763 256.906 127.105 256.632 127.447 256.153C127.72 255.675 127.925 255.059 127.925 254.375V242.064C127.925 242.064 127.925 242.064 127.994 242.064C128.541 242.406 129.157 242.611 129.772 242.885C130.319 243.227 130.935 243.432 131.55 243.706C132.098 244.048 132.713 244.253 133.329 244.526C133.876 244.868 134.491 245.073 135.107 245.347C135.654 245.689 136.27 245.894 136.885 246.168C137.432 246.51 138.048 246.715 138.663 246.988C139.211 247.33 139.826 247.536 140.442 247.809C140.989 248.151 141.604 248.356 142.22 248.63C142.767 248.972 143.383 249.177 143.998 249.451C144.545 249.793 145.161 249.998 145.776 250.271C146.324 250.613 146.939 250.819 147.555 251.092C148.102 251.434 148.717 251.639 149.333 251.913C152.479 253.623 156.036 254.102 160.071 253.349C163.627 252.734 166.705 251.092 169.099 248.493C170.125 247.33 171.082 246.031 171.835 244.526C172.108 244.8 172.45 244.937 172.792 244.937H173.339C173.339 244.937 173.339 245.073 173.408 245.073C173.75 245.552 174.16 245.757 174.639 245.757H175.186C175.186 245.757 175.186 245.894 175.254 245.894C175.596 246.373 176.007 246.578 176.485 246.578H177.033C177.033 246.578 177.033 246.715 177.101 246.715C177.443 247.194 177.853 247.399 178.332 247.399H178.879C178.879 247.399 178.879 247.536 178.948 247.536C179.29 248.014 179.7 248.22 180.179 248.22H180.726C180.726 248.22 180.726 248.356 180.794 248.356C181.136 248.835 181.547 249.04 182.025 249.04H182.573C182.573 249.04 182.573 249.177 182.641 249.177C182.983 249.656 183.393 249.861 183.872 249.861H184.419C184.419 249.861 184.419 249.998 184.488 249.998C184.83 250.477 185.24 250.682 185.719 250.682H186.266C186.266 250.682 186.266 250.819 186.334 250.819C186.676 251.297 187.087 251.503 187.565 251.503H188.113C188.113 251.503 188.113 251.639 188.181 251.639C188.523 252.118 188.933 252.323 189.412 252.323H189.959C189.959 252.323 189.959 252.46 190.028 252.46C190.37 252.939 190.78 253.144 191.259 253.144H191.806C191.806 253.144 191.806 253.281 191.874 253.281C192.216 253.76 192.627 253.965 193.105 253.965H193.652C193.652 253.965 193.652 254.102 193.721 254.102C194.063 254.58 194.473 254.785 194.952 254.785H195.499C195.499 254.785 195.499 254.922 195.567 254.922C195.909 255.401 196.32 255.606 196.799 255.606H197.346C197.346 255.606 197.346 255.743 197.414 255.743C197.756 256.222 198.166 256.427 198.645 256.427H209.383C209.862 256.427 210.272 256.222 210.614 255.743C210.956 255.264 211.093 254.785 211.093 254.17V208.277H227.85C228.328 208.277 228.739 208.072 229.081 207.593C229.423 207.115 229.559 206.636 229.559 206.02V196.377C229.559 195.761 229.423 195.214 229.081 194.804L230.927 194.94ZM93.2496 100.077L88.1884 99.0515C88.1884 98.9831 88.1884 98.9148 88.1884 98.8464V97.9573C88.462 98.094 88.7355 98.094 89.0091 98.094H89.2143C89.6931 98.6412 90.2402 98.9148 90.9242 98.9148H91.1293C91.6081 99.4619 92.1552 99.7355 92.8392 99.7355H93.0444C93.1812 99.8723 93.2496 100.009 93.3864 100.077H93.2496ZM105.424 156.092L104.466 155.887L104.603 155.203L106.86 155.682C106.381 155.819 105.903 155.956 105.424 156.161V156.092ZM157.335 174.764C156.378 174.149 155.42 173.67 154.394 173.328C153.779 172.986 153.163 172.712 152.547 172.507C151.932 172.165 151.316 171.892 150.701 171.686C150.085 171.344 149.47 171.071 148.854 170.866C148.239 170.524 147.623 170.25 147.008 170.045C146.392 169.703 145.776 169.429 145.161 169.224C144.545 168.882 143.93 168.609 143.314 168.403C142.699 168.061 142.083 167.788 141.468 167.583C140.852 167.241 140.236 166.967 139.621 166.762C139.005 166.42 138.39 166.146 137.774 165.941C137.159 165.599 136.543 165.326 135.928 165.12C135.312 164.779 134.697 164.505 134.081 164.3C133.465 163.958 132.85 163.684 132.234 163.479C131.619 163.137 131.003 162.863 130.388 162.658C129.772 162.316 129.157 162.043 128.541 161.838C127.925 161.496 127.31 161.222 126.694 161.017C126.079 160.675 125.463 160.401 124.848 160.196C124.232 159.854 123.617 159.581 123.001 159.375C122.659 159.17 122.249 159.033 121.907 158.828L122.659 158.965C122.864 158.965 123.001 158.965 123.206 158.965C123.206 158.965 123.206 159.033 123.206 159.102C123.48 159.444 123.822 159.649 124.164 159.649H124.916C124.916 159.786 124.985 159.854 125.053 159.991C125.326 160.333 125.668 160.538 126.01 160.538H126.763C126.763 160.675 126.831 160.743 126.9 160.88C127.173 161.222 127.515 161.427 127.857 161.427H128.609C128.609 161.564 128.678 161.632 128.746 161.769C129.02 162.111 129.362 162.316 129.704 162.316H130.456C130.456 162.453 130.524 162.521 130.593 162.658C130.866 163 131.208 163.205 131.55 163.205H132.303C132.303 163.342 132.371 163.411 132.439 163.547C132.713 163.889 133.055 164.095 133.397 164.095H134.149C134.149 164.231 134.218 164.3 134.286 164.437C134.56 164.779 134.902 164.984 135.244 164.984H136.68C137.022 165.257 137.432 165.394 137.911 165.394H138.116C138.595 165.941 139.142 166.215 139.826 166.215H140.031C140.51 166.762 141.057 167.036 141.741 167.036H141.946C142.425 167.583 142.972 167.856 143.656 167.856H143.861C144.34 168.403 144.887 168.677 145.571 168.677H145.776C146.255 169.224 146.802 169.498 147.486 169.498H147.691C148.17 170.045 148.717 170.318 149.401 170.318H149.606C149.88 170.66 150.222 170.934 150.632 171.002C150.769 171.276 150.838 171.481 150.974 171.686C151.385 172.233 151.727 172.507 152.137 172.439H152.753C152.753 172.439 152.821 172.439 152.889 172.507C153.3 173.054 153.642 173.328 154.052 173.259H154.668C154.668 173.259 154.736 173.259 154.804 173.328C155.215 173.875 155.557 174.149 155.967 174.08H156.583C156.583 174.08 156.651 174.08 156.719 174.149C157.13 174.696 157.472 174.969 157.882 174.901H158.498C158.498 174.901 158.566 174.901 158.635 174.969C159.045 175.516 159.387 175.79 159.797 175.722H160.413C160.413 175.722 160.481 175.722 160.55 175.79C160.96 176.337 161.302 176.611 161.712 176.542H162.328C162.328 176.542 162.396 176.542 162.465 176.611C162.67 176.953 162.875 177.158 163.149 177.226H160.892C160.002 176.474 159.113 175.79 158.156 175.243L157.335 174.764ZM60.4887 75.3187H59.7363C59.3944 74.7716 59.0524 74.498 58.642 74.498H57.9581V73.7456C58.2317 74.0876 58.5736 74.2928 58.9156 74.2928H59.6679C59.6679 74.4296 59.7363 74.498 59.8047 74.6348C60.0783 74.9767 60.4203 75.1819 60.7622 75.1819H61.5146C61.5146 75.3187 61.583 75.3871 61.6514 75.5239C61.9249 75.8659 62.2669 76.0711 62.6089 76.0711H63.156V76.755C62.9509 76.413 62.6773 76.2762 62.3353 76.2762H61.583C61.241 75.7291 60.899 75.4555 60.4887 75.4555V75.3187ZM120.197 213.68H119.445C119.445 213.68 119.445 213.68 119.445 213.612C119.171 213.133 118.761 212.86 118.35 212.86H117.598C117.598 212.86 117.598 212.86 117.598 212.791C117.324 212.313 116.914 212.039 116.504 212.039H115.751C115.751 212.039 115.751 212.039 115.751 211.971C115.478 211.492 115.067 211.218 114.657 211.218H113.905C113.905 211.218 113.905 211.218 113.905 211.15C113.631 210.671 113.221 210.398 112.81 210.398H112.058C112.058 210.398 112.058 210.398 112.058 210.329C111.784 209.85 111.374 209.577 110.964 209.577H110.211H120.197C120.265 209.577 120.402 209.645 120.47 209.714C121.086 210.056 121.702 210.329 122.317 210.534C122.659 210.671 123.001 210.876 123.343 211.013C123.206 212.313 122.18 213.27 120.334 213.817L120.197 213.68ZM58.1633 103.018C57.6845 102.745 57.1373 102.54 56.5902 102.334C56.3166 102.198 56.1114 102.129 55.8379 101.993H58.3684L58.1633 103.018ZM66.6442 173.054C69.3115 172.712 71.7054 172.028 73.894 170.866C73.894 170.866 74.0307 170.866 74.0991 170.934L75.2619 171.139C75.467 171.481 75.6722 171.686 75.9458 171.755L77.1085 171.96C77.3137 172.302 77.5189 172.507 77.7924 172.575L78.9551 172.781C79.1603 173.123 79.3655 173.328 79.6391 173.396L80.8018 173.601C80.8018 173.601 80.8018 173.67 80.8702 173.738H68.4224C68.1488 173.259 67.8069 172.986 67.3965 172.986H66.6442V173.054ZM157.198 200.617C156.583 200.275 155.967 200.002 155.352 199.796C154.736 199.454 154.121 199.181 153.505 198.976C152.889 198.634 152.274 198.36 151.658 198.155C151.043 197.813 150.427 197.539 149.812 197.334C149.333 197.061 148.854 196.855 148.375 196.65C148.649 195.693 149.401 195.009 150.632 194.667C150.906 194.804 151.111 194.94 151.385 194.94C151.59 195.077 151.795 195.146 152 195.146C152.411 195.556 152.821 195.761 153.231 195.83C153.437 195.966 153.642 196.035 153.847 196.035C154.257 196.445 154.668 196.65 155.078 196.719C155.283 196.855 155.488 196.924 155.694 196.924C156.104 197.334 156.514 197.539 156.925 197.608C157.13 197.745 157.335 197.813 157.609 197.813H158.156C158.156 197.813 158.156 197.95 158.224 197.95C158.566 198.429 158.977 198.634 159.455 198.634H159.797V201.917C159.592 201.848 159.318 201.711 159.113 201.643C158.498 201.301 157.882 201.028 157.267 200.822L157.198 200.617Z" stroke="#1E1E1E" stroke-width="2.05183" stroke-miterlimit="10"/>
<path d="M47.4937 69.5052C47.9725 69.5052 48.3828 69.8472 48.6564 70.4627C48.9984 71.0783 49.1352 71.8306 49.1352 72.7197V81.3374C49.1352 82.2266 48.9984 82.9789 48.6564 83.5945C48.3144 84.21 47.9041 84.552 47.4937 84.552H3.72134C3.24258 84.552 2.83221 84.21 2.55863 83.5945C2.21666 82.9789 2.07987 82.2266 2.07987 81.3374V5.21454C2.07987 4.32542 2.21666 3.57308 2.55863 2.95753C2.9006 2.34198 3.31097 2 3.72134 2H17.2634C17.7422 2 18.1525 2.34198 18.4261 2.95753C18.7681 3.57308 18.9049 4.32542 18.9049 5.21454V69.5052H47.4937Z" stroke="#1E1E1E" stroke-width="2.05183" stroke-miterlimit="10"/>
<path d="M55.4275 18.7566L51.2554 42.4211H58.7104L55.4275 18.7566ZM46.7414 59.7248C46.2626 61.7083 45.3735 62.6658 44.074 62.6658H32.9257C32.5837 62.6658 32.2418 62.4606 31.9682 62.1186C31.763 61.7083 31.6262 61.2295 31.6262 60.7507V60.2036L44.5528 4.87257C44.6895 4.12023 45.0315 3.43628 45.4419 2.88913C45.8523 2.34197 46.4678 2 47.2201 2H63.6348C64.3871 2 65.0027 2.27358 65.413 2.88913C65.8234 3.43628 66.1654 4.12023 66.3022 4.87257L79.1603 85.6463V86.1934C79.1603 86.7406 79.0919 87.151 78.8183 87.5613C78.6131 87.9033 78.2712 88.1085 77.9292 88.1085H66.7809C65.5498 88.1085 64.6607 87.151 64.1135 85.1675L61.0358 53.7061H48.246L46.7414 59.7932V59.7248Z" stroke="#1E1E1E" stroke-width="2.05183" stroke-miterlimit="10"/>
<path d="M119.103 99.3252L114.452 126.204H123.822L119.103 99.3252ZM110.006 143.987C109.527 145.97 108.638 146.928 107.339 146.928H96.1905C95.8485 146.928 95.5065 146.722 95.233 146.38C95.0278 145.97 94.891 145.491 94.891 145.013V144.465L107.818 89.1344C107.954 88.382 108.296 87.6981 108.707 87.151C109.117 86.6038 109.733 86.2618 110.485 86.2618H126.9C127.652 86.2618 128.267 86.5354 128.678 87.151C129.088 87.6981 129.43 88.382 129.567 89.1344L142.425 159.854V160.401C142.425 160.948 142.357 161.359 142.083 161.769C141.878 162.111 141.536 162.316 141.194 162.316H132.303C131.072 162.316 130.182 161.359 129.635 159.375L126.558 137.968H111.511L110.006 144.055V143.987Z" stroke="#1E1E1E" stroke-width="2.05183" stroke-miterlimit="10"/>
<path d="M45.0999 116.424C45.5103 116.424 45.9206 116.697 46.1942 117.176C46.5362 117.655 46.673 118.27 46.673 118.886V128.53C46.673 137.763 44.6211 144.602 40.5175 149.116C36.4822 153.562 31.0791 155.75 24.3764 155.75C17.6738 155.75 12.2706 153.562 8.16697 149.116C4.13171 144.602 2.07987 137.694 2.07987 128.324V117.586C2.07987 111.363 3.03739 106.233 5.02083 102.198C7.00427 98.094 9.67164 95.0163 13.023 93.1013C16.3743 91.1862 20.136 90.1603 24.3764 90.1603C28.6169 90.1603 33.6097 91.4598 36.8926 93.9904C40.1755 96.521 42.5693 99.4619 44.0056 102.676C45.5103 105.891 46.2626 108.49 46.2626 110.542C46.2626 112.594 46.1258 111.568 45.8522 111.978C45.6471 112.32 45.3051 112.525 44.9631 112.525H31.5578C30.7371 112.525 30.1899 112.183 29.848 111.499C28.6169 109.106 26.8386 107.943 24.3764 107.943C21.9142 107.943 21.0251 108.558 19.794 109.858C18.6313 111.157 18.0158 112.799 18.0158 114.782V130.308C18.0158 132.77 18.6313 134.685 19.794 136.053C20.9567 137.421 22.5298 138.036 24.3764 138.036C26.2231 138.036 28.6169 137.421 29.7796 136.121C30.9423 134.753 31.5578 133.249 31.6262 131.47H27.9329C27.5226 131.47 27.1122 131.197 26.8386 130.718C26.4966 130.239 26.3599 129.624 26.3599 129.008V118.886C26.3599 118.202 26.4966 117.655 26.8386 117.176C27.1806 116.697 27.5226 116.424 27.9329 116.424H45.0999Z" stroke="#1E1E1E" stroke-width="2.05183" stroke-miterlimit="10"/>
<path d="M88.9407 148.637C89.3511 148.706 89.6246 149.048 89.8298 149.595C90.035 150.142 90.035 150.758 89.8298 151.442L87.094 164.71C86.9572 165.394 86.6837 165.941 86.2733 166.42C85.8629 166.83 85.521 167.036 85.1106 166.967L48.1093 159.375C47.6989 159.307 47.4253 158.965 47.2201 158.418C47.0149 157.871 47.0149 157.255 47.2201 156.571L59.6679 95.9054C59.8047 95.2215 60.0783 94.6743 60.4886 94.1956C60.899 93.7852 61.241 93.58 61.6513 93.6484L100.157 101.582C100.568 101.651 100.841 101.993 101.046 102.54C101.252 103.087 101.252 103.702 101.046 104.386L98.3107 117.655C98.1739 118.339 97.9003 118.886 97.49 119.365C97.0796 119.775 96.7376 119.98 96.3273 119.912L70.3374 114.577L69.1063 120.527L87.0256 124.221C87.436 124.289 87.7096 124.631 87.9148 125.178C88.12 125.725 88.12 126.341 87.9148 127.025L85.3842 139.267C85.2474 139.951 84.9738 140.499 84.5634 140.977C84.1531 141.456 83.8111 141.593 83.4007 141.524L65.4814 137.831L64.2503 143.781L88.8039 148.843L88.9407 148.637Z" stroke="#1E1E1E" stroke-width="2.05183" stroke-miterlimit="10"/>
<path d="M43.3217 162.316C43.732 162.316 44.1424 162.59 44.416 163.205C44.7579 163.821 44.8947 164.505 44.8947 165.326V182.219C44.8947 183.04 44.7579 183.724 44.416 184.339C44.074 184.955 43.732 185.228 43.3217 185.228H20.0676V192.341H39.4916C39.9019 192.341 40.3123 192.615 40.5859 193.231C40.9279 193.846 41.0646 194.53 41.0646 195.351V206.225C41.0646 207.046 40.9279 207.73 40.5859 208.346C40.2439 208.961 39.9019 209.235 39.4916 209.235H20.0676V237.14C20.0676 237.96 19.9308 238.644 19.5888 239.26C19.2469 239.876 18.9049 240.149 18.4945 240.149H5.70477C5.29441 240.149 4.88404 239.876 4.61046 239.26C4.26849 238.644 4.1317 237.96 4.1317 237.14V165.394C4.1317 164.573 4.26849 163.889 4.61046 163.274C4.95243 162.658 5.29441 162.385 5.70477 162.385H43.3217V162.316Z" stroke="#1E1E1E" stroke-width="2.05183" stroke-miterlimit="10"/>
<path d="M88.5987 191.999C89.0091 191.999 89.351 191.726 89.693 191.247C89.9666 190.768 90.1718 190.153 90.1718 189.469V176.337C90.1718 175.653 90.035 175.038 89.693 174.559C89.351 174.08 89.0091 173.807 88.5987 173.807H52.3497C51.9393 173.807 51.5974 174.08 51.2554 174.559C50.9818 175.038 50.7766 175.653 50.7766 176.337V236.661C50.7766 237.345 50.9134 237.96 51.2554 238.439C51.529 238.918 51.9393 239.192 52.3497 239.192H87.9832C88.3935 239.192 88.7355 238.918 89.0775 238.439C89.4194 237.96 89.5562 237.345 89.5562 236.661V223.529C89.5562 222.845 89.4194 222.23 89.0775 221.751C88.8039 221.272 88.3935 220.999 87.9832 220.999H65.6866V215.117H84.837C85.2474 215.117 85.5894 214.843 85.9313 214.364C86.2049 213.886 86.4101 213.27 86.4101 212.586V200.48C86.4101 199.796 86.2733 199.181 85.9313 198.702C85.6577 198.223 85.2474 197.95 84.837 197.95H65.6866V192.068H88.5303L88.5987 191.999Z" stroke="#1E1E1E" stroke-width="2.05183" stroke-miterlimit="10"/>
<path d="M190.711 176.748C191.19 176.748 191.601 176.953 191.943 177.431C192.285 177.91 192.421 178.389 192.421 179.005V188.648C192.421 189.264 192.285 189.811 191.943 190.221C191.601 190.7 191.19 190.905 190.711 190.905H173.955V236.798C173.955 237.413 173.818 237.96 173.476 238.371C173.134 238.85 172.724 239.055 172.245 239.055H161.507C161.028 239.055 160.618 238.85 160.276 238.371C159.934 237.892 159.797 237.413 159.797 236.798V190.905H142.767C142.288 190.905 141.878 190.7 141.536 190.221C141.194 189.742 141.057 189.264 141.057 188.648V179.005C141.057 178.389 141.194 177.842 141.536 177.431C141.878 176.953 142.288 176.748 142.767 176.748H190.78H190.711Z" stroke="#1E1E1E" stroke-width="2.05183" stroke-miterlimit="10"/>
<path d="M116.777 184.271C120.676 184.476 123.959 185.434 126.558 187.075C129.225 188.717 131.345 191.042 132.918 194.12C134.491 197.197 135.791 201.233 136.612 206.157C137.569 211.56 137.569 216.348 136.68 220.725C135.791 224.966 134.149 228.385 131.756 231.053C129.293 233.652 126.284 235.225 122.727 235.909C118.761 236.593 115.136 236.114 111.99 234.472C108.843 232.762 106.244 230.3 104.261 226.949C102.278 223.529 100.841 219.631 100.089 215.322C99.9522 214.57 99.9522 213.954 100.089 213.475C100.226 212.997 100.499 212.723 100.841 212.655L111.374 210.808C112.058 210.671 112.742 211.081 113.357 211.971C114.178 213.065 114.931 213.749 115.751 214.091C116.504 214.364 117.598 214.364 118.897 214.091C122.112 213.544 123.548 212.176 123.206 209.987C123.069 209.098 122.727 208.414 122.112 207.867C121.565 207.251 120.744 206.841 119.581 206.567C118.419 206.225 116.777 205.952 114.589 205.815C109.664 205.473 105.629 203.558 102.483 200.07C99.2682 196.582 97.0796 191.179 95.7801 184.066C94.891 179.005 94.8226 174.354 95.5065 170.25C96.2589 166.146 97.6952 162.727 99.8838 160.128C102.072 157.529 104.945 155.887 108.365 155.272C111.921 154.656 115.273 155.272 118.35 157.324C121.428 159.239 124.027 161.906 126.01 165.189C128.062 168.54 129.362 171.892 129.977 175.38C130.114 176.132 130.114 176.748 129.977 177.226C129.841 177.705 129.567 177.979 129.225 178.047L118.213 179.962C117.666 180.03 117.051 179.688 116.367 178.868C115.888 178.184 115.341 177.637 114.725 177.295C114.11 176.953 113.289 176.884 112.263 177.021C110.006 177.431 108.98 178.663 109.391 180.783C109.596 181.877 110.211 182.698 111.169 183.245C112.195 183.655 114.041 183.997 116.846 184.203L116.777 184.271Z" stroke="#1E1E1E" stroke-width="2.05183" stroke-miterlimit="10"/>
<path d="M182.915 5.28293C183.393 5.28293 183.872 5.55651 184.214 6.17206C184.556 6.78761 184.761 7.47156 184.761 8.29229V79.2172C184.761 80.0379 184.556 80.7219 184.214 81.3374C183.872 81.953 183.393 82.2266 182.915 82.2266H171.835C170.74 82.2266 169.783 81.4742 169.099 79.9011L154.052 49.3973V79.2856C154.052 80.1063 153.847 80.7903 153.505 81.4058C153.163 82.0214 152.684 82.295 152.205 82.295H139.347C138.869 82.295 138.39 82.0214 138.048 81.4058C137.706 80.7903 137.501 80.1063 137.501 79.2856V8.36068C137.501 7.53994 137.706 6.85601 138.048 6.24046C138.39 5.62491 138.869 5.35133 139.347 5.35133H150.496C151.59 5.35133 152.479 6.10366 153.163 7.53995L168.21 40.5744V8.29229C168.21 7.47156 168.415 6.78761 168.757 6.17206C169.099 5.55651 169.578 5.28293 170.056 5.28293H182.915Z" stroke="#1E1E1E" stroke-width="2.05183" stroke-miterlimit="10"/>
<path d="M105.492 35.3081C106.244 35.2397 106.792 34.6241 107.065 33.5298C107.339 32.3671 107.407 30.9992 107.202 29.3577C106.997 27.7163 106.655 26.3484 106.108 25.2541C105.561 24.023 104.877 23.4758 104.124 23.6126L97.5584 24.365L98.9262 36.1288L105.492 35.3764V35.3081ZM127.994 74.9768C128.131 75.2503 128.199 75.5923 128.199 75.9343C128.267 76.6182 128.199 77.2338 128.062 77.7809C127.925 78.2597 127.652 78.5333 127.378 78.5333L115.478 79.9011C114.999 79.9011 114.52 79.7644 114.041 79.2856C113.563 78.8068 113.221 78.1913 112.947 77.3706L105.766 55.9631L101.388 56.5103L103.919 78.1913C103.987 79.012 103.919 79.696 103.714 80.3115C103.509 80.9271 103.235 81.269 102.825 81.3374L91.4713 82.6369C91.0609 82.6369 90.7189 82.4318 90.377 81.8846C90.035 81.3374 89.8298 80.6535 89.693 79.8328L81.3489 8.29229C81.2805 7.47156 81.3489 6.78761 81.5541 6.17206C81.7593 5.55651 82.0329 5.21454 82.4432 5.14614L102.825 2.75234C105.971 2.41037 108.843 3.16271 111.442 5.00936C114.041 6.856 116.23 9.72856 118.008 13.6954C119.718 17.5939 120.949 22.3131 121.565 27.7847C122.727 37.8386 121.77 45.2936 118.624 50.218L128.062 74.9084L127.994 74.9768Z" stroke="#1E1E1E" stroke-width="2.05183" stroke-miterlimit="10"/>
<path d="M163.285 122.579C164.038 122.442 164.585 121.827 164.79 120.664C164.995 119.433 164.995 118.065 164.722 116.355C164.448 114.714 163.969 113.278 163.354 112.183C162.738 110.952 162.054 110.405 161.234 110.542L154.668 111.636L156.719 123.605L163.285 122.511V122.579ZM191.601 161.496C191.737 161.769 191.806 162.111 191.874 162.522C192.011 163.205 191.943 163.821 191.874 164.368C191.737 164.847 191.532 165.12 191.19 165.189L179.221 167.241C178.742 167.309 178.195 167.172 177.717 166.694C177.238 166.215 176.827 165.599 176.554 164.779L162.533 136.326L158.087 137.079L164.038 166.694C164.174 167.514 164.174 168.267 164.038 168.882C163.832 169.498 163.559 169.908 163.217 169.977L151.795 171.892C151.385 171.892 151.043 171.686 150.632 171.139C150.222 170.592 150.017 169.908 149.812 169.087L137.432 96.2474C137.295 95.4267 137.295 94.6743 137.432 94.0588C137.637 93.4432 137.911 93.0329 138.253 92.9645L158.771 89.4764C161.917 88.9292 164.858 89.5448 167.594 91.323C170.33 93.1013 172.724 95.9738 174.707 99.8723C176.691 103.771 178.127 108.558 179.084 114.098C180.794 124.357 178.742 128.735 175.87 133.933L191.601 161.496Z" stroke="#1E1E1E" stroke-width="2.05183" stroke-miterlimit="10"/>
</svg>
