<svg width="88" height="98" viewBox="0 0 88 98" fill="none" xmlns="http://www.w3.org/2000/svg">
<path d="M86.8689 73.283C86.7408 73.1036 86.587 73.0267 86.4077 73.0267H86.2027C86.2027 73.0267 86.2027 72.9755 86.1771 72.9755C86.049 72.7961 85.8952 72.7193 85.7159 72.7193H85.5109C85.5109 72.7193 85.5109 72.668 85.4852 72.668C85.3571 72.4886 85.2034 72.4118 85.024 72.4118H84.819C84.819 72.4118 84.8191 72.3605 84.7934 72.3605C84.6653 72.1812 84.5116 72.1043 84.3322 72.1043H84.1272C84.1272 72.1043 84.1272 72.0531 84.1016 72.0531C83.9735 71.8737 83.8197 71.7968 83.6404 71.7968H83.4354C83.4354 71.7968 83.4354 71.7456 83.4098 71.7456C83.2817 71.5662 83.1279 71.4893 82.9486 71.4893H82.7436C82.7436 71.4893 82.7436 71.4381 82.7179 71.4381C82.5898 71.2587 82.4361 71.1819 82.2567 71.1819H82.0517C82.0517 71.1819 82.0517 71.1306 82.0261 71.1306C81.898 70.9513 81.7443 70.8744 81.5649 70.8744H81.3599C81.3599 70.8744 81.3599 70.8231 81.3343 70.8231C81.2062 70.6438 81.0524 70.5669 80.8731 70.5669H80.6681C80.6681 70.5669 80.6681 70.5157 80.6425 70.5157C80.5144 70.3363 80.3606 70.2594 80.1813 70.2594H79.9763C79.9763 70.2594 79.9763 70.2082 79.9506 70.2082C79.8225 70.0288 79.6688 69.952 79.4894 69.952H79.2844C79.2844 69.952 79.2844 69.9007 79.2588 69.9007C79.1307 69.7213 78.977 69.6445 78.7976 69.6445H78.5926C78.5926 69.6445 78.5926 69.5932 78.567 69.5932C78.4389 69.4139 78.2851 69.337 78.1058 69.337H77.9008C77.9008 69.337 77.9008 69.2857 77.8752 69.2857C77.7471 69.1064 77.5933 69.0295 77.4139 69.0295H77.209C77.209 69.0295 77.209 68.9783 77.1833 68.9783C77.0552 68.7989 76.9015 68.722 76.7221 68.722H76.5171C76.5171 68.722 76.5171 68.6708 76.4915 68.6708C76.4403 68.5939 76.389 68.5427 76.3122 68.5171L75.9534 66.7491C75.9534 66.7747 76.0047 66.8003 76.0303 66.8259C76.2097 67.0053 76.4146 67.0565 76.594 67.0309H76.6196C76.6453 67.0565 76.6965 67.1078 76.7221 67.1334C76.9015 67.3128 77.1065 67.364 77.2858 67.3384H77.3115C77.3371 67.364 77.3883 67.4153 77.4139 67.4409C77.5933 67.6202 77.7983 67.6715 77.9777 67.6459H78.0033C78.0289 67.6715 78.0802 67.7227 78.1058 67.7484C78.2851 67.9277 78.4901 67.979 78.6695 67.9533H78.6951C78.7207 67.979 78.772 68.0302 78.7976 68.0558C78.977 68.2352 79.1819 68.2864 79.3613 68.2608H79.3869C79.4126 68.2864 79.4638 68.3377 79.4894 68.3633C79.6688 68.5427 79.8738 68.5939 80.0531 68.5683H80.0788C80.1044 68.5939 80.1556 68.6452 80.1813 68.6708C80.3606 68.8502 80.5656 68.9014 80.745 68.8758H80.7706C80.7962 68.9014 80.8475 68.9527 80.8731 68.9783C81.0524 69.1576 81.2574 69.2089 81.4368 69.1833H81.4624C81.488 69.2089 81.5393 69.2601 81.5649 69.2857C81.7443 69.4651 81.9492 69.5164 82.1286 69.4907L86.6127 68.722C86.7408 68.722 86.8177 68.5939 86.8689 68.4146C86.9201 68.2096 86.9458 67.979 86.8689 67.7227C86.8689 67.5946 86.8177 67.4665 86.7664 67.3384L80.8731 57.0122C81.9749 55.0649 82.7436 53.3994 82.0774 49.5815C81.7186 47.5061 81.1806 45.7124 80.4375 44.2519C79.6944 42.7914 78.8232 41.7152 77.7727 41.049C77.4396 40.8184 77.0808 40.6647 76.7477 40.5366C76.5171 40.4084 76.2865 40.3059 76.0559 40.2291C75.8253 40.101 75.5947 39.9985 75.3641 39.9216C75.1335 39.7935 74.9029 39.691 74.6723 39.6141C74.4417 39.486 74.2111 39.3835 73.9804 39.3066C73.7498 39.1785 73.5192 39.076 73.2886 38.9992C73.058 38.871 72.8274 38.7686 72.5968 38.6917C72.3662 38.5636 72.1356 38.4611 71.905 38.3842C71.6744 38.2561 71.4438 38.1536 71.2131 38.0767C70.9825 37.9486 70.7519 37.8461 70.5213 37.7692C70.4444 37.7436 70.3932 37.6924 70.3163 37.6668H72.0075C72.1868 37.6668 72.3662 37.5643 72.4943 37.3337C72.6224 37.103 72.6993 36.8468 72.6993 36.5393V34.7457C72.8274 34.8226 72.9555 34.8482 73.1093 34.8482H73.1349C73.3399 35.0532 73.5448 35.1557 73.8011 35.1557H73.8267C74.0317 35.3607 74.2367 35.4632 74.4929 35.4632H74.5185C74.7235 35.6681 74.9285 35.7706 75.1847 35.7706H75.2104C75.4153 35.9756 75.6203 36.0781 75.8766 36.0781H75.9022C76.1072 36.2831 76.3122 36.3856 76.5684 36.3856H76.594C76.799 36.5906 77.004 36.6931 77.2602 36.6931H77.2858C77.4908 36.8981 77.6958 37.0005 77.952 37.0005H77.9777C78.1826 37.2055 78.3876 37.308 78.6439 37.308H78.6695C78.8745 37.513 79.0795 37.6155 79.3357 37.6155H83.4866C83.666 37.6155 83.8454 37.513 83.9735 37.2824C84.1016 37.0518 84.1785 36.7956 84.1785 36.4881V9.91686C84.1785 9.60938 84.1016 9.35315 83.9735 9.12254C83.8454 8.89193 83.666 8.78944 83.4866 8.78944H83.256C83.1279 8.58445 82.9742 8.48196 82.7692 8.48196H82.5386C82.4105 8.27698 82.2567 8.17448 82.0517 8.17448H81.8211C81.693 7.9695 81.5393 7.867 81.3343 7.867H81.1037C80.9756 7.66202 80.8218 7.55953 80.6168 7.55953H80.3862C80.2581 7.35454 80.1044 7.25205 79.8994 7.25205H79.6688C79.5407 7.04706 79.3869 6.94457 79.1819 6.94457H78.9513C78.8232 6.73959 78.6695 6.63709 78.4645 6.63709H78.2339C78.1058 6.4321 77.952 6.32961 77.7471 6.32961H77.5164C77.3883 6.12463 77.2346 6.02214 77.0296 6.02214H76.799C76.6709 5.81715 76.5171 5.71466 76.3122 5.71466H76.0815C75.9534 5.50967 75.7997 5.40718 75.5947 5.40718H75.3641C75.236 5.2022 75.0822 5.0997 74.8773 5.0997H74.6466C74.5185 4.89471 74.3648 4.79222 74.1598 4.79222H73.9292C73.8011 4.58724 73.6473 4.48475 73.4424 4.48475H73.2118C73.0836 4.27976 72.9299 4.17727 72.7249 4.17727H72.4943C72.3662 3.97228 72.2124 3.86979 72.0075 3.86979H71.7769C71.6487 3.66481 71.495 3.56231 71.29 3.56231H71.0594C70.9313 3.35732 70.7776 3.25483 70.5726 3.25483H70.342C70.2138 3.04985 70.0601 2.94735 69.8551 2.94735H69.6245C69.4964 2.74237 69.3427 2.63988 69.1377 2.63988H68.9071C68.7789 2.43489 68.6252 2.3324 68.4202 2.3324H63.6031C63.4237 2.3324 63.2443 2.43489 63.1162 2.6655C62.9881 2.89611 62.9112 3.15234 62.9112 3.45982V5.25344C62.7831 5.20219 62.6806 5.17657 62.5269 5.17657C62.3219 4.97158 62.1169 4.86909 61.8607 4.86909C61.6557 4.66411 61.4507 4.56162 61.1945 4.56162C60.9895 4.35663 60.7845 4.25414 60.5283 4.25414C60.3233 4.04915 60.1183 3.94666 59.8621 3.94666C59.6571 3.74167 59.4521 3.63918 59.1959 3.63918C58.9909 3.43419 58.7859 3.3317 58.5297 3.3317C58.3247 3.12672 58.1197 3.02423 57.8635 3.02423C57.6585 2.81924 57.4535 2.71675 57.1973 2.71675C56.9923 2.51176 56.7873 2.40927 56.5311 2.40927H52.3545C52.1751 2.40927 51.9958 2.51176 51.8677 2.74237C51.7395 2.97298 51.6627 3.22921 51.6627 3.53669V6.58584C51.4833 6.50898 51.3039 6.43211 51.1502 6.35524C50.9196 6.22712 50.689 6.12463 50.4584 6.04776C50.2278 5.91964 49.9972 5.81715 49.7665 5.74028C49.5359 5.61216 49.3053 5.50967 49.0747 5.4328C48.8441 5.30469 48.6135 5.20219 48.3829 5.12532C48.1523 4.99721 47.9217 4.89472 47.6911 4.81785C47.4605 4.68973 47.2299 4.58724 46.9992 4.51037C46.7686 4.38225 46.538 4.27976 46.3074 4.20289C46.0768 4.07477 45.8462 3.97228 45.6156 3.89541C45.385 3.7673 45.1544 3.6648 44.9238 3.58793C44.6932 3.45982 44.4625 3.35733 44.2319 3.28046C44.0013 3.15234 43.7707 3.04985 43.5401 2.97298C43.3095 2.84486 43.0789 2.74237 42.8483 2.6655C42.6177 2.53738 42.3871 2.43489 42.1565 2.35802C41.9259 2.22991 41.6952 2.12741 41.4646 2.05054C40.6447 1.58933 39.7223 1.40996 38.7486 1.53808L31.1129 2.43489C30.9591 2.43489 30.8566 2.58863 30.7798 2.81924C30.7029 3.04985 30.6773 3.3317 30.7029 3.61356L30.7798 4.17727C30.6517 4.1004 30.4979 4.04915 30.3442 4.04915H30.2929C30.1392 3.84417 29.9086 3.74167 29.6524 3.74167H29.6011C29.4474 3.53669 29.2168 3.43419 28.9605 3.43419H28.9093C28.7555 3.22921 28.5249 3.12672 28.2687 3.12672H28.2175C28.0637 2.92173 27.8331 2.81924 27.5769 2.81924H27.5256C27.3719 2.61425 27.1413 2.51176 26.8851 2.51176H26.8338C26.6801 2.30678 26.4495 2.20428 26.1932 2.20428H26.142C25.9882 1.9993 25.7576 1.8968 25.5014 1.8968H25.4502C25.2964 1.69182 25.0658 1.58933 24.8096 1.58933H24.7583C24.6046 1.38434 24.374 1.28185 24.1178 1.28185H17.9682C17.6863 1.28185 17.4557 1.38434 17.302 1.61495C17.1482 1.81994 17.0201 2.07617 16.9689 2.35802L16.2002 5.63779C16.0721 5.4328 15.944 5.33031 15.7902 5.33031H15.5084C15.3803 5.12533 15.2521 5.02283 15.0984 5.02283H14.8165C14.6884 4.81785 14.5603 4.71535 14.4066 4.71535H14.1247C13.9966 4.51037 13.8685 4.40787 13.7147 4.40787H13.4329C13.3048 4.20289 13.1767 4.1004 13.0229 4.1004H12.7411C12.6129 3.89541 12.4848 3.79292 12.3311 3.79292H12.0492C11.9211 3.58793 11.793 3.48544 11.6393 3.48544H11.3574C11.2293 3.28046 11.1012 3.17796 10.9474 3.17796H10.6656C10.5375 2.97298 10.4094 2.87048 10.2556 2.87048H9.97376C9.84564 2.6655 9.71753 2.56301 9.56379 2.56301H9.28193C9.15382 2.35802 9.0257 2.25553 8.87196 2.25553H8.59011C8.46199 2.05054 8.33388 1.94805 8.18014 1.94805H7.89828C7.77017 1.74307 7.64205 1.64057 7.48831 1.64057H7.20646C7.07834 1.43559 6.95023 1.33309 6.79649 1.33309H1.7231C1.54374 1.33309 1.39 1.46121 1.28751 1.69182C1.15939 1.92243 1.10814 2.20428 1.10814 2.53738V31.056C1.10814 31.3891 1.15939 31.6709 1.28751 31.9015C1.41562 32.1321 1.56936 32.2603 1.7231 32.2603H2.00496C2.13307 32.4652 2.26118 32.5677 2.41492 32.5677H2.69678C2.8249 32.7727 2.95301 32.8752 3.10675 32.8752H3.38861C3.51672 33.0802 3.64484 33.1827 3.79858 33.1827H4.08043C4.20855 33.3877 4.33666 33.4902 4.4904 33.4902H4.77225C4.90037 33.6952 5.02849 33.7977 5.18223 33.7977H5.46408C5.5922 34.0026 5.72031 34.1051 5.87405 34.1051H6.15591C6.28402 34.3101 6.41214 34.4126 6.56588 34.4126H6.84773C6.89898 34.5151 6.97585 34.592 7.05272 34.6432C6.38652 34.8226 5.77156 35.0788 5.18223 35.4375C3.92669 36.155 2.92739 37.308 2.18432 38.8454C1.44124 40.3828 1.08252 42.3045 1.08252 44.6106V48.6335C1.08252 52.1438 1.85121 54.7318 3.36298 56.4229C4.1573 57.2941 5.10536 57.9347 6.18153 58.3447C6.41214 58.4471 6.64275 58.5753 6.87336 58.6521C7.10397 58.7546 7.33457 58.8827 7.56518 58.9596C7.79579 59.0621 8.0264 59.1902 8.25701 59.2671C8.48762 59.3696 8.71822 59.4977 8.94883 59.5746C9.17944 59.6771 9.41005 59.8052 9.64066 59.882C9.87127 59.9845 10.1019 60.1127 10.3325 60.1895C10.5631 60.292 10.7937 60.4201 11.0243 60.497C11.2549 60.5995 11.4855 60.7276 11.7161 60.8045C11.9467 60.907 12.1774 61.0351 12.408 61.112C12.5617 61.1888 12.6898 61.2401 12.8436 61.3169H2.41492C2.26118 61.3169 2.10745 61.4194 2.00496 61.65C1.87684 61.8807 1.82559 62.1369 1.82559 62.4444V89.3231C1.82559 89.6305 1.87684 89.8868 2.00496 90.1174C2.13307 90.348 2.26118 90.4505 2.41492 90.4505H2.69678C2.8249 90.6555 2.95301 90.758 3.10675 90.758H3.38861C3.51672 90.963 3.64484 91.0655 3.79858 91.0655H4.08043C4.20855 91.2704 4.33666 91.3729 4.4904 91.3729H4.77225C4.90037 91.5779 5.02849 91.6804 5.18223 91.6804H5.46408C5.5922 91.8854 5.72031 91.9879 5.87405 91.9879H6.15591C6.28402 92.1929 6.41214 92.2954 6.56588 92.2954H6.84773C6.97585 92.5003 7.10397 92.6028 7.25771 92.6028H7.53956C7.66767 92.8078 7.79579 92.9103 7.94953 92.9103H8.23138C8.3595 93.1153 8.48762 93.2178 8.64136 93.2178H8.92321C9.05133 93.4228 9.17944 93.5253 9.33318 93.5253H9.61504C9.74315 93.7303 9.87127 93.8328 10.025 93.8328H10.3069C10.435 94.0377 10.5631 94.1402 10.7168 94.1402H10.9987C11.1268 94.3452 11.2549 94.4477 11.4087 94.4477H11.6905C11.8186 94.6527 11.9467 94.7552 12.1005 94.7552H12.3823C12.5105 94.9602 12.6386 95.0627 12.7923 95.0627H13.0742C13.2023 95.2676 13.3304 95.3701 13.4841 95.3701H13.766C13.8941 95.5751 14.0222 95.6776 14.176 95.6776H14.4578C14.5859 95.8826 14.714 95.9851 14.8678 95.9851H15.1496C15.2778 96.1901 15.4059 96.2926 15.5596 96.2926H15.8415C15.9696 96.4976 16.0977 96.6001 16.2514 96.6001H16.5333C16.6614 96.805 16.7895 96.9075 16.9433 96.9075H21.7348C21.8885 96.9075 22.0423 96.805 22.1448 96.5744C22.2729 96.3438 22.3241 96.0876 22.3241 95.7801V91.1679C22.401 91.2448 22.5035 91.2704 22.5804 91.2704H22.8622C22.8622 91.2704 22.8622 91.2704 22.8622 91.2961C22.9647 91.4754 23.1184 91.5779 23.2722 91.5779H23.554C23.554 91.5779 23.554 91.5779 23.554 91.6035C23.6565 91.7829 23.8103 91.8854 23.964 91.8854H24.2459C24.2459 91.8854 24.2459 91.8854 24.2459 91.911C24.3484 92.0904 24.5021 92.1929 24.6558 92.1929H24.9377C24.9377 92.1929 24.9377 92.1929 24.9377 92.2185C25.0402 92.3979 25.1939 92.5003 25.3477 92.5003H25.6295C25.6295 92.5003 25.6295 92.5003 25.6295 92.526C25.732 92.7053 25.8857 92.8078 26.0395 92.8078H26.3213C26.3213 92.8078 26.3213 92.8078 26.3213 92.8334C26.4238 93.0128 26.5776 93.1153 26.7313 93.1153H27.0132C27.0132 93.1153 27.0132 93.1153 27.0132 93.1409C27.1157 93.3203 27.2694 93.4228 27.4231 93.4228H27.705C27.705 93.4228 27.705 93.4228 27.705 93.4484C27.8075 93.6278 27.9612 93.7303 28.115 93.7303H28.3968C28.3968 93.7303 28.3968 93.7303 28.3968 93.7559C28.4993 93.9352 28.6531 94.0377 28.8068 94.0377H29.0886C29.0886 94.0377 29.0886 94.0377 29.0886 94.0634C29.1911 94.2427 29.3449 94.3452 29.4986 94.3452H29.7805C29.7805 94.3452 29.7805 94.3452 29.7805 94.3708C29.883 94.5502 30.0367 94.6527 30.1904 94.6527H30.4723C30.4723 94.6527 30.4723 94.6527 30.4723 94.6783C30.5748 94.8577 30.7285 94.9602 30.8823 94.9602H31.1641C31.1641 94.9602 31.1641 94.9602 31.1641 94.9858C31.2666 95.1652 31.4204 95.2676 31.5741 95.2676H31.856C31.856 95.2676 31.856 95.2677 31.856 95.2933C31.9584 95.4726 32.1122 95.5751 32.2659 95.5751H32.5478C32.5478 95.5751 32.5478 95.5751 32.5478 95.6007C32.6503 95.7801 32.804 95.8826 32.9577 95.8826H33.2396C33.2396 95.8826 33.2396 95.8826 33.2396 95.9082C33.3421 96.0876 33.4958 96.1901 33.6496 96.1901H33.9314C33.9314 96.1901 33.9314 96.1901 33.9314 96.2157C34.0339 96.3951 34.1877 96.4976 34.3414 96.4976H47.6911C47.8448 96.4976 47.9729 96.3951 48.101 96.2157C48.2035 96.0363 48.2804 95.8057 48.2804 95.5495V90.9373C48.2804 90.9373 48.2804 90.9373 48.306 90.9373C48.511 91.0655 48.7416 91.1423 48.9722 91.2448C49.1772 91.3729 49.4078 91.4498 49.6384 91.5523C49.8434 91.6804 50.074 91.7573 50.3046 91.8598C50.5096 91.9879 50.7402 92.0648 50.9708 92.1672C51.1758 92.2954 51.4064 92.3722 51.637 92.4747C51.842 92.6028 52.0726 92.6797 52.3032 92.7822C52.5082 92.9103 52.7388 92.9872 52.9694 93.0897C53.1744 93.2178 53.405 93.2947 53.6356 93.3972C53.8406 93.5253 54.0712 93.6021 54.3019 93.7046C54.5068 93.8328 54.7374 93.9096 54.968 94.0121C55.173 94.1402 55.4036 94.2171 55.6343 94.3196C55.8392 94.4477 56.0698 94.5246 56.3005 94.6271C57.4791 95.2676 58.8115 95.447 60.3233 95.1652C61.6557 94.9346 62.8087 94.3196 63.7056 93.3459C64.0899 92.9103 64.4486 92.4235 64.7305 91.8598C64.833 91.9623 64.9611 92.0135 65.0892 92.0135H65.2942C65.2942 92.0135 65.2942 92.0647 65.3198 92.0647C65.4479 92.2441 65.6017 92.321 65.781 92.321H65.986C65.986 92.321 65.986 92.3722 66.0116 92.3722C66.1398 92.5516 66.2935 92.6285 66.4729 92.6285H66.6778C66.6778 92.6285 66.6778 92.6797 66.7035 92.6797C66.8316 92.8591 66.9853 92.9359 67.1647 92.9359H67.3697C67.3697 92.9359 67.3697 92.9872 67.3953 92.9872C67.5234 93.1666 67.6771 93.2434 67.8565 93.2434H68.0615C68.0615 93.2434 68.0615 93.2947 68.0871 93.2947C68.2152 93.474 68.369 93.5509 68.5483 93.5509H68.7533C68.7533 93.5509 68.7533 93.6021 68.7789 93.6021C68.9071 93.7815 69.0608 93.8584 69.2402 93.8584H69.4451C69.4451 93.8584 69.4451 93.9096 69.4708 93.9096C69.5989 94.089 69.7526 94.1658 69.932 94.1658H70.137C70.137 94.1658 70.137 94.2171 70.1626 94.2171C70.2907 94.3965 70.4444 94.4733 70.6238 94.4733H70.8288C70.8288 94.4733 70.8288 94.5246 70.8544 94.5246C70.9825 94.7039 71.1363 94.7808 71.3156 94.7808H71.5206C71.5206 94.7808 71.5206 94.832 71.5462 94.832C71.6744 95.0114 71.8281 95.0883 72.0075 95.0883H72.2124C72.2124 95.0883 72.2124 95.1395 72.2381 95.1395C72.3662 95.3189 72.5199 95.3958 72.6993 95.3958H72.9043C72.9043 95.3958 72.9043 95.447 72.9299 95.447C73.058 95.6264 73.2118 95.7032 73.3911 95.7032H73.5961C73.5961 95.7032 73.5961 95.7545 73.6217 95.7545C73.7498 95.9339 73.9036 96.0107 74.0829 96.0107H74.2879C74.2879 96.0107 74.2879 96.062 74.3135 96.062C74.4417 96.2413 74.5954 96.3182 74.7748 96.3182H78.7976C78.977 96.3182 79.1307 96.2413 79.2588 96.062C79.3869 95.8826 79.4382 95.7032 79.4382 95.4726V78.2795H85.7159C85.8952 78.2795 86.049 78.2026 86.1771 78.0233C86.3052 77.8439 86.3564 77.6645 86.3564 77.4339V73.8211C86.3564 73.5904 86.3052 73.3855 86.1771 73.2317L86.8689 73.283ZM35.2895 37.7436L33.3933 37.3593C33.3933 37.3336 33.3933 37.308 33.3933 37.2824V36.9493C33.4958 37.0006 33.5983 37.0005 33.7008 37.0005H33.7777C33.9571 37.2055 34.162 37.308 34.4183 37.308H34.4951C34.6745 37.513 34.8795 37.6155 35.1357 37.6155H35.2126C35.2638 37.6668 35.2895 37.718 35.3407 37.7436H35.2895ZM39.8504 58.729L39.4917 58.6521L39.5429 58.3959L40.3885 58.5753C40.2091 58.6265 40.0297 58.6778 39.8504 58.7546V58.729ZM59.2984 65.7241C58.9396 65.4935 58.5809 65.3142 58.1966 65.186C57.966 65.0579 57.7354 64.9554 57.5047 64.8786C57.2741 64.7505 57.0435 64.648 56.8129 64.5711C56.5823 64.443 56.3517 64.3405 56.1211 64.2636C55.8905 64.1355 55.6599 64.033 55.4293 63.9561C55.1987 63.828 54.968 63.7255 54.7374 63.6486C54.5068 63.5205 54.2762 63.418 54.0456 63.3412C53.815 63.2131 53.5844 63.1106 53.3538 63.0337C53.1232 62.9056 52.8926 62.8031 52.662 62.7262C52.4314 62.5981 52.2008 62.4956 51.9701 62.4187C51.7395 62.2906 51.5089 62.1881 51.2783 62.1113C51.0477 61.9831 50.8171 61.8807 50.5865 61.8038C50.3559 61.6757 50.1253 61.5732 49.8947 61.4963C49.6641 61.3682 49.4334 61.2657 49.2028 61.1888C48.9722 61.0607 48.7416 60.9582 48.511 60.8813C48.2804 60.7532 48.0498 60.6507 47.8192 60.5739C47.5886 60.4458 47.358 60.3433 47.1274 60.2664C46.8968 60.1383 46.6661 60.0358 46.4355 59.9589C46.3074 59.882 46.1537 59.8308 46.0256 59.7539L46.3074 59.8052C46.3843 59.8052 46.4355 59.8052 46.5124 59.8052C46.5124 59.8052 46.5124 59.8308 46.5124 59.8564C46.6149 59.9845 46.743 60.0614 46.8711 60.0614H47.153C47.153 60.1127 47.1786 60.1383 47.2042 60.1895C47.3067 60.3176 47.4348 60.3945 47.563 60.3945H47.8448C47.8448 60.4458 47.8704 60.4714 47.8961 60.5226C47.9986 60.6507 48.1267 60.7276 48.2548 60.7276H48.5366C48.5366 60.7789 48.5623 60.8045 48.5879 60.8557C48.6904 60.9838 48.8185 61.0607 48.9466 61.0607H49.2285C49.2285 61.112 49.2541 61.1376 49.2797 61.1888C49.3822 61.3169 49.5103 61.3938 49.6384 61.3938H49.9203C49.9203 61.4451 49.9459 61.4707 49.9715 61.5219C50.074 61.65 50.2021 61.7269 50.3303 61.7269H50.6121C50.6121 61.7782 50.6377 61.8038 50.6634 61.855C50.7659 61.9831 50.894 62.06 51.0221 62.06H51.5602C51.6883 62.1625 51.842 62.2137 52.0214 62.2137H52.0983C52.2776 62.4187 52.4826 62.5212 52.7388 62.5212H52.8157C52.9951 62.7262 53.2001 62.8287 53.4563 62.8287H53.5332C53.7125 63.0337 53.9175 63.1362 54.1737 63.1362H54.2506C54.43 63.3412 54.635 63.4437 54.8912 63.4437H54.968C55.1474 63.6487 55.3524 63.7511 55.6086 63.7511H55.6855C55.8649 63.9561 56.0698 64.0586 56.3261 64.0586H56.4029C56.5054 64.1867 56.6336 64.2892 56.7873 64.3149C56.8385 64.4173 56.8642 64.4942 56.9154 64.5711C57.0691 64.7761 57.1973 64.8786 57.351 64.8529H57.5816C57.5816 64.8529 57.6072 64.8529 57.6329 64.8786C57.7866 65.0836 57.9147 65.186 58.0685 65.1604H58.2991C58.2991 65.1604 58.3247 65.1604 58.3503 65.186C58.504 65.391 58.6322 65.4935 58.7859 65.4679H59.0165C59.0165 65.4679 59.0421 65.4679 59.0678 65.4935C59.2215 65.6985 59.3496 65.801 59.5034 65.7754H59.734C59.734 65.7754 59.7596 65.7754 59.7852 65.801C59.9389 66.006 60.0671 66.1085 60.2208 66.0829H60.4514C60.4514 66.0829 60.477 66.0829 60.5027 66.1085C60.6564 66.3135 60.7845 66.416 60.9383 66.3903H61.1689C61.1689 66.3903 61.1945 66.3903 61.2201 66.416C61.297 66.5441 61.3738 66.6209 61.4763 66.6466H60.6308C60.2977 66.3647 59.9646 66.1085 59.6058 65.9035L59.2984 65.7241ZM23.016 28.468H22.7341C22.606 28.2631 22.4779 28.1606 22.3241 28.1606H22.0679V27.8787C22.1704 28.0068 22.2985 28.0837 22.4266 28.0837H22.7085C22.7085 28.1349 22.7341 28.1606 22.7597 28.2118C22.8622 28.3399 22.9903 28.4168 23.1184 28.4168H23.4003C23.4003 28.468 23.4259 28.4937 23.4515 28.5449C23.554 28.673 23.6822 28.7499 23.8103 28.7499H24.0153V29.0061C23.9384 28.878 23.8359 28.8268 23.7078 28.8268H23.4259C23.2978 28.6218 23.1697 28.5193 23.016 28.5193V28.468ZM45.385 80.3037H45.1031C45.1031 80.3037 45.1031 80.3037 45.1031 80.2781C45.0006 80.0987 44.8469 79.9962 44.6932 79.9962H44.4113C44.4113 79.9962 44.4113 79.9962 44.4113 79.9706C44.3088 79.7913 44.1551 79.6888 44.0013 79.6888H43.7195C43.7195 79.6888 43.7195 79.6888 43.7195 79.6631C43.617 79.4838 43.4632 79.3813 43.3095 79.3813H43.0277C43.0277 79.3813 43.0277 79.3813 43.0277 79.3557C42.9252 79.1763 42.7714 79.0738 42.6177 79.0738H42.3358C42.3358 79.0738 42.3358 79.0738 42.3358 79.0482C42.2333 78.8688 42.0796 78.7663 41.9259 78.7663H41.644H45.385C45.4106 78.7663 45.4619 78.7919 45.4875 78.8176C45.7181 78.9457 45.9487 79.0482 46.1793 79.125C46.3074 79.1763 46.4355 79.2532 46.5637 79.3044C46.5124 79.7912 46.1281 80.15 45.4362 80.355L45.385 80.3037ZM22.1448 38.8454C21.9654 38.7429 21.7604 38.6661 21.5554 38.5892C21.4529 38.5379 21.3761 38.5123 21.2736 38.4611H22.2216L22.1448 38.8454ZM25.322 65.0835C26.3213 64.9554 27.2182 64.6992 28.0381 64.2636C28.0381 64.2636 28.0893 64.2636 28.115 64.2892L28.5506 64.3661C28.6274 64.4942 28.7043 64.5711 28.8068 64.5967L29.2424 64.6736C29.3193 64.8017 29.3961 64.8786 29.4986 64.9042L29.9342 64.9811C30.0111 65.1092 30.088 65.186 30.1904 65.2117L30.626 65.2885C30.626 65.2885 30.626 65.3142 30.6517 65.3398H25.9882C25.8858 65.1604 25.7576 65.0579 25.6039 65.0579H25.322V65.0835ZM59.2471 75.4097C59.0165 75.2816 58.7859 75.1791 58.5553 75.1022C58.3247 74.9741 58.0941 74.8716 57.8635 74.7947C57.6329 74.6666 57.4023 74.5641 57.1716 74.4873C56.941 74.3591 56.7104 74.2566 56.4798 74.1798C56.3005 74.0773 56.1211 74.0004 55.9417 73.9235C56.0442 73.5648 56.3261 73.3086 56.7873 73.1805C56.8898 73.2317 56.9667 73.283 57.0692 73.283C57.146 73.3342 57.2229 73.3598 57.2998 73.3598C57.4535 73.5136 57.6072 73.5904 57.761 73.6161C57.8378 73.6673 57.9147 73.6929 57.9916 73.6929C58.1453 73.8467 58.2991 73.9235 58.4528 73.9492C58.5297 74.0004 58.6065 74.026 58.6834 74.026C58.8371 74.1798 58.9909 74.2566 59.1446 74.2823C59.2215 74.3335 59.2984 74.3591 59.4009 74.3591H59.6058C59.6058 74.3591 59.6058 74.4104 59.6315 74.4104C59.7596 74.5897 59.9133 74.6666 60.0927 74.6666H60.2208V75.8965C60.1439 75.8709 60.0414 75.8197 59.9646 75.794C59.734 75.6659 59.5034 75.5634 59.2727 75.4866L59.2471 75.4097Z" fill="#1E1E1E"/>
<path d="M18.1475 26.2901C18.3269 26.2901 18.4806 26.4182 18.5831 26.6488C18.7113 26.8794 18.7625 27.1613 18.7625 27.4944V30.7229C18.7625 31.056 18.7113 31.3378 18.5831 31.5684C18.455 31.7991 18.3013 31.9272 18.1475 31.9272H1.74871C1.56935 31.9272 1.41561 31.7991 1.31311 31.5684C1.185 31.3378 1.13375 31.056 1.13375 30.7229V2.20429C1.13375 1.87119 1.185 1.58934 1.31311 1.35873C1.44123 1.12812 1.59497 1 1.74871 1H6.8221C7.00146 1 7.1552 1.12812 7.25769 1.35873C7.38581 1.58934 7.43706 1.87119 7.43706 2.20429V26.2901H18.1475Z" fill="#218BCB"/>
<path d="M21.1198 7.27768L19.5568 16.1433H22.3497L21.1198 7.27768ZM17.8657 22.626C17.6863 23.369 17.3532 23.7278 16.8664 23.7278H12.6898C12.5617 23.7278 12.4336 23.6509 12.3311 23.5228C12.2542 23.369 12.203 23.1897 12.203 23.0103V22.8053L17.0457 2.07618C17.097 1.79432 17.2251 1.53809 17.3788 1.3331C17.5326 1.12812 17.7632 1 18.045 1H24.1946C24.4765 1 24.7071 1.10249 24.8608 1.3331C25.0145 1.53809 25.1427 1.79432 25.1939 2.07618L30.0111 32.3371V32.5421C30.0111 32.7471 29.9854 32.9009 29.883 33.0546C29.8061 33.1827 29.678 33.2596 29.5499 33.2596H25.3733C24.9121 33.2596 24.579 32.9009 24.374 32.1578L23.2209 20.3711H18.4294L17.8657 22.6516V22.626Z" fill="#FFD010"/>
<path d="M44.975 37.4618L43.2326 47.5317H46.743L44.975 37.4618ZM41.5671 54.1937C41.3878 54.9368 41.0547 55.2955 40.5678 55.2955H36.3912C36.2631 55.2955 36.135 55.2186 36.0325 55.0905C35.9556 54.9368 35.9044 54.7574 35.9044 54.5781V54.3731L40.7472 33.6439C40.7984 33.3621 40.9265 33.1058 41.0803 32.9008C41.234 32.6959 41.4646 32.5678 41.7465 32.5678H47.896C48.1779 32.5678 48.4085 32.6702 48.5622 32.9008C48.716 33.1058 48.8441 33.3621 48.8953 33.6439L53.7125 60.1383V60.3433C53.7125 60.5483 53.6869 60.702 53.5844 60.8557C53.5075 60.9838 53.3794 61.0607 53.2513 61.0607H49.9203C49.4591 61.0607 49.126 60.702 48.921 59.9589L47.7679 51.9389H42.1308L41.5671 54.2193V54.1937Z" fill="#FFD010"/>
<path d="M17.2507 43.8676C17.4045 43.8676 17.5582 43.9701 17.6607 44.1494C17.7888 44.3288 17.8401 44.5594 17.8401 44.79V48.4029C17.8401 51.862 17.0714 54.4243 15.534 56.1154C14.0222 57.781 11.998 58.6009 9.48691 58.6009C6.97584 58.6009 4.95161 57.781 3.41422 56.1154C1.90245 54.4243 1.13375 51.8364 1.13375 48.326V44.3032C1.13375 41.9715 1.49248 40.0497 2.23555 38.5379C2.97862 37.0006 3.97793 35.8475 5.23346 35.1301C6.489 34.4126 7.89827 34.0283 9.48691 34.0283C11.0755 34.0283 12.946 34.5151 14.176 35.4632C15.4059 36.4112 16.3027 37.513 16.8408 38.7173C17.4045 39.9216 17.6863 40.8953 17.6863 41.664C17.6863 42.4327 17.6351 42.0483 17.5326 42.2021C17.4557 42.3302 17.3276 42.407 17.1995 42.407H12.1773C11.8699 42.407 11.6649 42.2789 11.5368 42.0227C11.0755 41.1259 10.4093 40.6903 9.48691 40.6903C8.56447 40.6903 8.23137 40.9209 7.77016 41.4077C7.33456 41.8946 7.10395 42.5095 7.10395 43.2526V49.0691C7.10395 49.9915 7.33456 50.709 7.77016 51.2214C8.20575 51.7339 8.79508 51.9645 9.48691 51.9645C10.1787 51.9645 11.0755 51.7339 11.5111 51.247C11.9467 50.7346 12.1773 50.1709 12.203 49.5047H10.8193C10.6656 49.5047 10.5118 49.4022 10.4093 49.2228C10.2812 49.0435 10.23 48.8128 10.23 48.5822V44.79C10.23 44.5338 10.2812 44.3288 10.4093 44.1494C10.5375 43.9701 10.6656 43.8676 10.8193 43.8676H17.2507Z" fill="#F27DA7"/>
<path d="M33.6752 55.9361C33.8289 55.9617 33.9314 56.0898 34.0083 56.2948C34.0852 56.4998 34.0852 56.7304 34.0083 56.9866L32.9834 61.9575C32.9321 62.2138 32.8296 62.4187 32.6759 62.5981C32.5221 62.7518 32.394 62.8287 32.2403 62.8031L18.3781 59.9589C18.2244 59.9333 18.1219 59.8052 18.045 59.6002C17.9682 59.3952 17.9682 59.1646 18.045 58.9084L22.7085 36.1806C22.7597 35.9244 22.8622 35.7194 23.0159 35.54C23.1697 35.3863 23.2978 35.3094 23.4515 35.3351L37.8774 38.3073C38.0311 38.333 38.1336 38.4611 38.2105 38.6661C38.2873 38.871 38.2873 39.1017 38.2105 39.3579L37.1856 44.3288C37.1343 44.585 37.0318 44.79 36.8781 44.9694C36.7243 45.1231 36.5962 45.2 36.4425 45.1743L26.7057 43.1757L26.2445 45.405L32.9577 46.7886C33.1115 46.8142 33.214 46.9423 33.2908 47.1473C33.3677 47.3523 33.3677 47.5829 33.2908 47.8392L32.3428 52.4257C32.2915 52.6819 32.189 52.8869 32.0353 53.0663C31.8816 53.2457 31.7534 53.2969 31.5997 53.2713L24.8864 51.8876L24.4252 54.1168L33.6239 56.013L33.6752 55.9361Z" fill="#009A5E"/>
<path d="M16.5845 61.0607C16.7383 61.0607 16.892 61.1632 16.9945 61.3938C17.1226 61.6244 17.1739 61.8807 17.1739 62.1881V68.5171C17.1739 68.8245 17.1226 69.0808 16.9945 69.3114C16.8664 69.542 16.7383 69.6445 16.5845 69.6445H7.87265V72.3093H15.1496C15.3034 72.3093 15.4571 72.4118 15.5596 72.6424C15.6877 72.873 15.739 73.1292 15.739 73.4367V77.5108C15.739 77.8183 15.6877 78.0745 15.5596 78.3051C15.4315 78.5357 15.3034 78.6382 15.1496 78.6382H7.87265V89.0925C7.87265 89.3999 7.8214 89.6562 7.69329 89.8868C7.56517 90.1174 7.43705 90.2199 7.28331 90.2199H2.49178C2.33804 90.2199 2.1843 90.1174 2.08181 89.8868C1.95369 89.6562 1.90245 89.3999 1.90245 89.0925V62.2138C1.90245 61.9063 1.95369 61.6501 2.08181 61.4194C2.20993 61.1888 2.33804 61.0863 2.49178 61.0863H16.5845V61.0607Z" fill="#FFD010"/>
<path d="M33.5471 72.1812C33.7008 72.1812 33.8289 72.0787 33.957 71.8993C34.0595 71.72 34.1364 71.4893 34.1364 71.2331V66.3135C34.1364 66.0572 34.0852 65.8266 33.957 65.6473C33.8289 65.4679 33.7008 65.3654 33.5471 65.3654H19.9668C19.813 65.3654 19.6849 65.4679 19.5568 65.6473C19.4543 65.8266 19.3775 66.0572 19.3775 66.3135V88.9131C19.3775 89.1693 19.4287 89.3999 19.5568 89.5793C19.6593 89.7587 19.813 89.8612 19.9668 89.8612H33.3165C33.4702 89.8612 33.5983 89.7587 33.7264 89.5793C33.8545 89.3999 33.9058 89.1693 33.9058 88.9131V83.9935C33.9058 83.7372 33.8545 83.5066 33.7264 83.3273C33.6239 83.1479 33.4702 83.0454 33.3165 83.0454H24.9633V80.8418H32.1378C32.2915 80.8418 32.4196 80.7393 32.5478 80.56C32.6503 80.3806 32.7271 80.15 32.7271 79.8937V75.3584C32.7271 75.1022 32.6759 74.8716 32.5478 74.6922C32.4453 74.5129 32.2915 74.4104 32.1378 74.4104H24.9633V72.2068H33.5214L33.5471 72.1812Z" fill="#F27DA7"/>
<path d="M71.8025 66.4672C71.9818 66.4672 72.1356 66.5441 72.2637 66.7234C72.3918 66.9028 72.443 67.0822 72.443 67.3128V70.9256C72.443 71.1562 72.3918 71.3612 72.2637 71.515C72.1356 71.6943 71.9818 71.7712 71.8025 71.7712H65.5248V88.9644C65.5248 89.195 65.4735 89.3999 65.3454 89.5537C65.2173 89.733 65.0636 89.8099 64.8842 89.8099H60.8614C60.682 89.8099 60.5283 89.733 60.4002 89.5537C60.272 89.3743 60.2208 89.195 60.2208 88.9644V71.7712H53.8406C53.6613 71.7712 53.5075 71.6943 53.3794 71.515C53.2513 71.3356 53.2 71.1562 53.2 70.9256V67.3128C53.2 67.0822 53.2513 66.8772 53.3794 66.7234C53.5075 66.5441 53.6613 66.4672 53.8406 66.4672H71.8281H71.8025Z" fill="#009A5E"/>
<path d="M44.1038 69.2858C45.5643 69.3626 46.7943 69.7214 47.7679 70.3363C48.7672 70.9513 49.5616 71.8224 50.1509 72.9755C50.7402 74.1285 51.2271 75.6403 51.5345 77.4852C51.8933 79.5094 51.8933 81.303 51.5602 82.9429C51.2271 84.5315 50.6121 85.8127 49.7153 86.812C48.7929 87.7857 47.6654 88.375 46.333 88.6313C44.8469 88.8875 43.4889 88.7081 42.3102 88.0932C41.1315 87.4526 40.1578 86.5301 39.4148 85.2746C38.6717 83.9935 38.1336 82.5329 37.8518 80.9187C37.8005 80.6368 37.8005 80.4062 37.8518 80.2269C37.903 80.0475 38.0055 79.945 38.1336 79.9194L42.0796 79.2276C42.3358 79.1763 42.592 79.33 42.8227 79.6631C43.1301 80.0731 43.412 80.3293 43.7195 80.4575C44.0013 80.56 44.4113 80.56 44.8981 80.4575C46.1024 80.2525 46.6405 79.74 46.5124 78.9201C46.4611 78.587 46.333 78.3307 46.1024 78.1257C45.8974 77.8951 45.59 77.7414 45.1544 77.6389C44.7188 77.5108 44.1038 77.4083 43.2839 77.3571C41.439 77.2289 39.9272 76.5115 38.7486 75.2047C37.5443 73.8979 36.7243 71.8737 36.2375 69.2089C35.9044 67.3128 35.8788 65.5704 36.135 64.033C36.4169 62.4956 36.955 61.2145 37.7749 60.2408C38.5948 59.2671 39.671 58.6521 40.9522 58.4215C42.2846 58.1909 43.5401 58.4215 44.6932 59.1902C45.8462 59.9077 46.8199 60.907 47.5629 62.1369C48.3316 63.3924 48.8185 64.648 49.0491 65.9547C49.1003 66.2366 49.1003 66.4672 49.0491 66.6466C48.9978 66.8259 48.8953 66.9284 48.7672 66.954L44.6419 67.6715C44.4369 67.6971 44.2063 67.569 43.9501 67.2615C43.7707 67.0053 43.5657 66.8003 43.3351 66.6722C43.1045 66.5441 42.797 66.5185 42.4127 66.5697C41.5671 66.7234 41.1828 67.1847 41.3365 67.979C41.4134 68.3889 41.644 68.6964 42.0027 68.9014C42.3871 69.0551 43.0789 69.1833 44.1294 69.2601L44.1038 69.2858Z" fill="#218BCB"/>
<path d="M68.8814 2.22991C69.0608 2.22991 69.2401 2.33241 69.3683 2.56302C69.4964 2.79362 69.5732 3.04986 69.5732 3.35733V29.9286C69.5732 30.236 69.4964 30.4923 69.3683 30.7229C69.2401 30.9535 69.0608 31.056 68.8814 31.056H64.7305C64.3205 31.056 63.9618 30.7741 63.7055 30.1848L58.0684 18.7569V29.9542C58.0684 30.2617 57.9916 30.5179 57.8635 30.7485C57.7353 30.9791 57.556 31.0816 57.3766 31.0816H52.5595C52.3801 31.0816 52.2007 30.9791 52.0726 30.7485C51.9445 30.5179 51.8676 30.2617 51.8676 29.9542V3.38296C51.8676 3.07548 51.9445 2.81925 52.0726 2.58864C52.2007 2.35803 52.3801 2.25554 52.5595 2.25554H56.736C57.146 2.25554 57.4791 2.53739 57.7353 3.07548L63.3724 15.4515V3.35733C63.3724 3.04986 63.4493 2.79362 63.5774 2.56302C63.7055 2.33241 63.8849 2.22991 64.0643 2.22991H68.8814Z" fill="#FFD010"/>
<path d="M39.876 13.4785C40.1578 13.4529 40.3628 13.2223 40.4653 12.8123C40.5678 12.3767 40.5934 11.8642 40.5166 11.2493C40.4397 10.6343 40.3116 10.1218 40.1066 9.71188C39.9016 9.25066 39.6454 9.04568 39.3635 9.09692L36.9037 9.37878L37.4162 13.786L39.876 13.5041V13.4785ZM48.306 28.3399C48.3573 28.4424 48.3829 28.5705 48.3829 28.6987C48.4085 28.9549 48.3829 29.1855 48.3316 29.3905C48.2804 29.5698 48.1779 29.6723 48.0754 29.6723L43.617 30.1848C43.4376 30.1848 43.2582 30.1335 43.0789 29.9542C42.8995 29.7748 42.7714 29.5442 42.6689 29.2367L39.9785 21.2167L38.3386 21.4217L39.2867 29.5442C39.3123 29.8517 39.2867 30.1079 39.2098 30.3385C39.1329 30.5691 39.0304 30.6973 38.8767 30.7229L34.6232 31.2097C34.4695 31.2097 34.3414 31.1329 34.2133 30.9279C34.0852 30.7229 34.0083 30.4667 33.957 30.1592L30.831 3.35733C30.8054 3.04986 30.831 2.79362 30.9079 2.56302C30.9847 2.33241 31.0872 2.20429 31.241 2.17867L38.8767 1.28186C40.0554 1.15374 41.1315 1.4356 42.1052 2.12742C43.0789 2.81925 43.8988 3.89542 44.565 5.38156C45.2056 6.84208 45.6668 8.61009 45.8974 10.6599C46.333 14.4265 45.9743 17.2195 44.7956 19.0643L48.3316 28.3143L48.306 28.3399Z" fill="#F27DA7"/>
<path d="M61.5276 46.1737C61.8094 46.1224 62.0144 45.8918 62.0913 45.4562C62.1682 44.995 62.1682 44.4825 62.0657 43.8419C61.9632 43.227 61.7838 42.6889 61.5532 42.2789C61.3226 41.8177 61.0664 41.6127 60.7589 41.664L58.299 42.074L59.0677 46.558L61.5276 46.148V46.1737ZM72.1356 60.7532C72.1868 60.8557 72.2124 60.9838 72.2381 61.1376C72.2893 61.3938 72.2637 61.6244 72.2381 61.8294C72.1868 62.0088 72.1099 62.1113 71.9818 62.1369L67.4978 62.9056C67.3184 62.9312 67.1134 62.88 66.9341 62.7006C66.7547 62.5212 66.601 62.2906 66.4985 61.9832L61.2457 51.3239L59.5802 51.6058L61.8094 62.7006C61.8607 63.0081 61.8607 63.2899 61.8094 63.5205C61.7326 63.7511 61.6301 63.9049 61.5019 63.9305L57.2229 64.648C57.0691 64.648 56.941 64.5711 56.7873 64.3661C56.6335 64.1611 56.5567 63.9049 56.4798 63.5974L51.842 36.3087C51.7908 36.0013 51.7908 35.7194 51.842 35.4888C51.9189 35.2582 52.0214 35.1044 52.1495 35.0788L59.8364 33.772C61.0151 33.5671 62.1169 33.7977 63.1418 34.4639C64.1668 35.1301 65.0636 36.2062 65.8066 37.6668C66.5497 39.1273 67.0878 40.9209 67.4465 42.9964C68.0871 46.8399 67.3184 48.4797 66.2422 50.4271L72.1356 60.7532Z" fill="#218BCB"/>
<path d="M86.8689 73.283C86.7408 73.1036 86.587 73.0267 86.4077 73.0267H86.2027C86.2027 73.0267 86.2027 72.9755 86.1771 72.9755C86.049 72.7961 85.8952 72.7193 85.7159 72.7193H85.5109C85.5109 72.7193 85.5109 72.668 85.4852 72.668C85.3571 72.4886 85.2034 72.4118 85.024 72.4118H84.819C84.819 72.4118 84.8191 72.3605 84.7934 72.3605C84.6653 72.1812 84.5116 72.1043 84.3322 72.1043H84.1272C84.1272 72.1043 84.1272 72.0531 84.1016 72.0531C83.9735 71.8737 83.8197 71.7968 83.6404 71.7968H83.4354C83.4354 71.7968 83.4354 71.7456 83.4098 71.7456C83.2817 71.5662 83.1279 71.4893 82.9486 71.4893H82.7436C82.7436 71.4893 82.7436 71.4381 82.7179 71.4381C82.5898 71.2587 82.4361 71.1819 82.2567 71.1819H82.0517C82.0517 71.1819 82.0517 71.1306 82.0261 71.1306C81.898 70.9513 81.7443 70.8744 81.5649 70.8744H81.3599C81.3599 70.8744 81.3599 70.8231 81.3343 70.8231C81.2062 70.6438 81.0524 70.5669 80.8731 70.5669H80.6681C80.6681 70.5669 80.6681 70.5157 80.6425 70.5157C80.5144 70.3363 80.3606 70.2594 80.1813 70.2594H79.9763C79.9763 70.2594 79.9763 70.2082 79.9506 70.2082C79.8225 70.0288 79.6688 69.952 79.4894 69.952H79.2844C79.2844 69.952 79.2844 69.9007 79.2588 69.9007C79.1307 69.7213 78.977 69.6445 78.7976 69.6445H78.5926C78.5926 69.6445 78.5926 69.5932 78.567 69.5932C78.4389 69.4139 78.2851 69.337 78.1058 69.337H77.9008C77.9008 69.337 77.9008 69.2857 77.8752 69.2857C77.7471 69.1064 77.5933 69.0295 77.4139 69.0295H77.209C77.209 69.0295 77.209 68.9783 77.1833 68.9783C77.0552 68.7989 76.9015 68.722 76.7221 68.722H76.5171C76.5171 68.722 76.5171 68.6708 76.4915 68.6708C76.4403 68.5939 76.389 68.5427 76.3122 68.5171L75.9534 66.7491C75.9534 66.7747 76.0047 66.8003 76.0303 66.8259C76.2097 67.0053 76.4146 67.0565 76.594 67.0309H76.6196C76.6453 67.0565 76.6965 67.1078 76.7221 67.1334C76.9015 67.3128 77.1065 67.364 77.2858 67.3384H77.3115C77.3371 67.364 77.3883 67.4153 77.4139 67.4409C77.5933 67.6202 77.7983 67.6715 77.9777 67.6459H78.0033C78.0289 67.6715 78.0802 67.7227 78.1058 67.7484C78.2851 67.9277 78.4901 67.979 78.6695 67.9533H78.6951C78.7207 67.979 78.772 68.0302 78.7976 68.0558C78.977 68.2352 79.1819 68.2864 79.3613 68.2608H79.3869C79.4126 68.2864 79.4638 68.3377 79.4894 68.3633C79.6688 68.5427 79.8738 68.5939 80.0531 68.5683H80.0788C80.1044 68.5939 80.1556 68.6452 80.1813 68.6708C80.3606 68.8502 80.5656 68.9014 80.745 68.8758H80.7706C80.7962 68.9014 80.8475 68.9527 80.8731 68.9783C81.0524 69.1576 81.2574 69.2089 81.4368 69.1833H81.4624C81.488 69.2089 81.5393 69.2601 81.5649 69.2857C81.7443 69.4651 81.9492 69.5164 82.1286 69.4907L86.6127 68.722C86.7408 68.722 86.8177 68.5939 86.8689 68.4146C86.9201 68.2096 86.9458 67.979 86.8689 67.7227C86.8689 67.5946 86.8177 67.4665 86.7664 67.3384L80.8731 57.0122C81.9749 55.0649 82.7436 53.3994 82.0774 49.5815C81.7186 47.5061 81.1806 45.7124 80.4375 44.2519C79.6944 42.7914 78.8232 41.7152 77.7727 41.049C77.4396 40.8184 77.0808 40.6647 76.7477 40.5366C76.5171 40.4084 76.2865 40.3059 76.0559 40.2291C75.8253 40.101 75.5947 39.9985 75.3641 39.9216C75.1335 39.7935 74.9029 39.691 74.6723 39.6141C74.4417 39.486 74.2111 39.3835 73.9804 39.3066C73.7498 39.1785 73.5192 39.076 73.2886 38.9992C73.058 38.871 72.8274 38.7686 72.5968 38.6917C72.3662 38.5636 72.1356 38.4611 71.905 38.3842C71.6744 38.2561 71.4438 38.1536 71.2131 38.0767C70.9825 37.9486 70.7519 37.8461 70.5213 37.7692C70.4444 37.7436 70.3932 37.6924 70.3163 37.6668H72.0075C72.1868 37.6668 72.3662 37.5643 72.4943 37.3337C72.6224 37.103 72.6993 36.8468 72.6993 36.5393V34.7457C72.8274 34.8226 72.9555 34.8482 73.1093 34.8482H73.1349C73.3399 35.0532 73.5448 35.1557 73.8011 35.1557H73.8267C74.0317 35.3607 74.2367 35.4632 74.4929 35.4632H74.5185C74.7235 35.6681 74.9285 35.7706 75.1847 35.7706H75.2104C75.4153 35.9756 75.6203 36.0781 75.8766 36.0781H75.9022C76.1072 36.2831 76.3122 36.3856 76.5684 36.3856H76.594C76.799 36.5906 77.004 36.6931 77.2602 36.6931H77.2858C77.4908 36.8981 77.6958 37.0005 77.952 37.0005H77.9777C78.1826 37.2055 78.3876 37.308 78.6439 37.308H78.6695C78.8745 37.513 79.0795 37.6155 79.3357 37.6155H83.4866C83.666 37.6155 83.8454 37.513 83.9735 37.2824C84.1016 37.0518 84.1785 36.7956 84.1785 36.4881V9.91686C84.1785 9.60938 84.1016 9.35315 83.9735 9.12254C83.8454 8.89193 83.666 8.78944 83.4866 8.78944H83.256C83.1279 8.58445 82.9742 8.48196 82.7692 8.48196H82.5386C82.4105 8.27698 82.2567 8.17448 82.0517 8.17448H81.8211C81.693 7.9695 81.5393 7.867 81.3343 7.867H81.1037C80.9756 7.66202 80.8218 7.55953 80.6168 7.55953H80.3862C80.2581 7.35454 80.1044 7.25205 79.8994 7.25205H79.6688C79.5407 7.04706 79.3869 6.94457 79.1819 6.94457H78.9513C78.8232 6.73959 78.6695 6.63709 78.4645 6.63709H78.2339C78.1058 6.4321 77.952 6.32961 77.7471 6.32961H77.5164C77.3883 6.12463 77.2346 6.02214 77.0296 6.02214H76.799C76.6709 5.81715 76.5171 5.71466 76.3122 5.71466H76.0815C75.9534 5.50967 75.7997 5.40718 75.5947 5.40718H75.3641C75.236 5.2022 75.0822 5.0997 74.8773 5.0997H74.6466C74.5185 4.89471 74.3648 4.79222 74.1598 4.79222H73.9292C73.8011 4.58724 73.6473 4.48475 73.4424 4.48475H73.2118C73.0836 4.27976 72.9299 4.17727 72.7249 4.17727H72.4943C72.3662 3.97228 72.2124 3.86979 72.0075 3.86979H71.7769C71.6487 3.66481 71.495 3.56231 71.29 3.56231H71.0594C70.9313 3.35732 70.7776 3.25483 70.5726 3.25483H70.342C70.2138 3.04985 70.0601 2.94735 69.8551 2.94735H69.6245C69.4964 2.74237 69.3427 2.63988 69.1377 2.63988H68.9071C68.7789 2.43489 68.6252 2.3324 68.4202 2.3324H63.6031C63.4237 2.3324 63.2443 2.43489 63.1162 2.6655C62.9881 2.89611 62.9112 3.15234 62.9112 3.45982V5.25344C62.7831 5.20219 62.6806 5.17657 62.5269 5.17657C62.3219 4.97158 62.1169 4.86909 61.8607 4.86909C61.6557 4.66411 61.4507 4.56162 61.1945 4.56162C60.9895 4.35663 60.7845 4.25414 60.5283 4.25414C60.3233 4.04915 60.1183 3.94666 59.8621 3.94666C59.6571 3.74167 59.4521 3.63918 59.1959 3.63918C58.9909 3.43419 58.7859 3.3317 58.5297 3.3317C58.3247 3.12672 58.1197 3.02423 57.8635 3.02423C57.6585 2.81924 57.4535 2.71675 57.1973 2.71675C56.9923 2.51176 56.7873 2.40927 56.5311 2.40927H52.3545C52.1751 2.40927 51.9958 2.51176 51.8677 2.74237C51.7395 2.97298 51.6627 3.22921 51.6627 3.53669V6.58584C51.4833 6.50898 51.3039 6.43211 51.1502 6.35524C50.9196 6.22712 50.689 6.12463 50.4584 6.04776C50.2278 5.91964 49.9972 5.81715 49.7665 5.74028C49.5359 5.61216 49.3053 5.50967 49.0747 5.4328C48.8441 5.30469 48.6135 5.20219 48.3829 5.12532C48.1523 4.99721 47.9217 4.89472 47.6911 4.81785C47.4605 4.68973 47.2299 4.58724 46.9992 4.51037C46.7686 4.38225 46.538 4.27976 46.3074 4.20289C46.0768 4.07477 45.8462 3.97228 45.6156 3.89541C45.385 3.7673 45.1544 3.6648 44.9238 3.58793C44.6932 3.45982 44.4625 3.35733 44.2319 3.28046C44.0013 3.15234 43.7707 3.04985 43.5401 2.97298C43.3095 2.84486 43.0789 2.74237 42.8483 2.6655C42.6177 2.53738 42.3871 2.43489 42.1565 2.35802C41.9259 2.22991 41.6952 2.12741 41.4646 2.05054C40.6447 1.58933 39.7223 1.40996 38.7486 1.53808L31.1129 2.43489C30.9591 2.43489 30.8566 2.58863 30.7798 2.81924C30.7029 3.04985 30.6773 3.3317 30.7029 3.61356L30.7798 4.17727C30.6517 4.1004 30.4979 4.04915 30.3442 4.04915H30.2929C30.1392 3.84417 29.9086 3.74167 29.6524 3.74167H29.6011C29.4474 3.53669 29.2168 3.43419 28.9605 3.43419H28.9093C28.7555 3.22921 28.5249 3.12672 28.2687 3.12672H28.2175C28.0637 2.92173 27.8331 2.81924 27.5769 2.81924H27.5256C27.3719 2.61425 27.1413 2.51176 26.8851 2.51176H26.8338C26.6801 2.30678 26.4495 2.20428 26.1932 2.20428H26.142C25.9882 1.9993 25.7576 1.8968 25.5014 1.8968H25.4502C25.2964 1.69182 25.0658 1.58933 24.8096 1.58933H24.7583C24.6046 1.38434 24.374 1.28185 24.1178 1.28185H17.9682C17.6863 1.28185 17.4557 1.38434 17.302 1.61495C17.1482 1.81994 17.0201 2.07617 16.9689 2.35802L16.2002 5.63779C16.0721 5.4328 15.944 5.33031 15.7902 5.33031H15.5084C15.3803 5.12533 15.2521 5.02283 15.0984 5.02283H14.8165C14.6884 4.81785 14.5603 4.71535 14.4066 4.71535H14.1247C13.9966 4.51037 13.8685 4.40787 13.7147 4.40787H13.4329C13.3048 4.20289 13.1767 4.1004 13.0229 4.1004H12.7411C12.6129 3.89541 12.4848 3.79292 12.3311 3.79292H12.0492C11.9211 3.58793 11.793 3.48544 11.6393 3.48544H11.3574C11.2293 3.28046 11.1012 3.17796 10.9474 3.17796H10.6656C10.5375 2.97298 10.4094 2.87048 10.2556 2.87048H9.97376C9.84564 2.6655 9.71753 2.56301 9.56379 2.56301H9.28193C9.15382 2.35802 9.0257 2.25553 8.87196 2.25553H8.59011C8.46199 2.05054 8.33388 1.94805 8.18014 1.94805H7.89828C7.77017 1.74307 7.64205 1.64057 7.48831 1.64057H7.20646C7.07834 1.43559 6.95023 1.33309 6.79649 1.33309H1.7231C1.54374 1.33309 1.39 1.46121 1.28751 1.69182C1.15939 1.92243 1.10814 2.20428 1.10814 2.53738V31.056C1.10814 31.3891 1.15939 31.6709 1.28751 31.9015C1.41562 32.1321 1.56936 32.2603 1.7231 32.2603H2.00496C2.13307 32.4652 2.26118 32.5677 2.41492 32.5677H2.69678C2.8249 32.7727 2.95301 32.8752 3.10675 32.8752H3.38861C3.51672 33.0802 3.64484 33.1827 3.79858 33.1827H4.08043C4.20855 33.3877 4.33666 33.4902 4.4904 33.4902H4.77225C4.90037 33.6952 5.02849 33.7977 5.18223 33.7977H5.46408C5.5922 34.0026 5.72031 34.1051 5.87405 34.1051H6.15591C6.28402 34.3101 6.41214 34.4126 6.56588 34.4126H6.84773C6.89898 34.5151 6.97585 34.592 7.05272 34.6432C6.38652 34.8226 5.77156 35.0788 5.18223 35.4375C3.92669 36.155 2.92739 37.308 2.18432 38.8454C1.44124 40.3828 1.08252 42.3045 1.08252 44.6106V48.6335C1.08252 52.1438 1.85121 54.7318 3.36298 56.4229C4.1573 57.2941 5.10536 57.9347 6.18153 58.3447C6.41214 58.4471 6.64275 58.5753 6.87336 58.6521C7.10397 58.7546 7.33457 58.8827 7.56518 58.9596C7.79579 59.0621 8.0264 59.1902 8.25701 59.2671C8.48762 59.3696 8.71822 59.4977 8.94883 59.5746C9.17944 59.6771 9.41005 59.8052 9.64066 59.882C9.87127 59.9845 10.1019 60.1127 10.3325 60.1895C10.5631 60.292 10.7937 60.4201 11.0243 60.497C11.2549 60.5995 11.4855 60.7276 11.7161 60.8045C11.9467 60.907 12.1774 61.0351 12.408 61.112C12.5617 61.1888 12.6898 61.2401 12.8436 61.3169H2.41492C2.26118 61.3169 2.10745 61.4194 2.00496 61.65C1.87684 61.8807 1.82559 62.1369 1.82559 62.4444V89.3231C1.82559 89.6305 1.87684 89.8868 2.00496 90.1174C2.13307 90.348 2.26118 90.4505 2.41492 90.4505H2.69678C2.8249 90.6555 2.95301 90.758 3.10675 90.758H3.38861C3.51672 90.963 3.64484 91.0655 3.79858 91.0655H4.08043C4.20855 91.2704 4.33666 91.3729 4.4904 91.3729H4.77225C4.90037 91.5779 5.02849 91.6804 5.18223 91.6804H5.46408C5.5922 91.8854 5.72031 91.9879 5.87405 91.9879H6.15591C6.28402 92.1929 6.41214 92.2954 6.56588 92.2954H6.84773C6.97585 92.5003 7.10397 92.6028 7.25771 92.6028H7.53956C7.66767 92.8078 7.79579 92.9103 7.94953 92.9103H8.23138C8.3595 93.1153 8.48762 93.2178 8.64136 93.2178H8.92321C9.05133 93.4228 9.17944 93.5253 9.33318 93.5253H9.61504C9.74315 93.7303 9.87127 93.8328 10.025 93.8328H10.3069C10.435 94.0377 10.5631 94.1402 10.7168 94.1402H10.9987C11.1268 94.3452 11.2549 94.4477 11.4087 94.4477H11.6905C11.8186 94.6527 11.9467 94.7552 12.1005 94.7552H12.3823C12.5105 94.9602 12.6386 95.0627 12.7923 95.0627H13.0742C13.2023 95.2676 13.3304 95.3701 13.4841 95.3701H13.766C13.8941 95.5751 14.0222 95.6776 14.176 95.6776H14.4578C14.5859 95.8826 14.714 95.9851 14.8678 95.9851H15.1496C15.2778 96.1901 15.4059 96.2926 15.5596 96.2926H15.8415C15.9696 96.4976 16.0977 96.6001 16.2514 96.6001H16.5333C16.6614 96.805 16.7895 96.9075 16.9433 96.9075H21.7348C21.8885 96.9075 22.0423 96.805 22.1448 96.5744C22.2729 96.3438 22.3241 96.0876 22.3241 95.7801V91.1679C22.401 91.2448 22.5035 91.2704 22.5804 91.2704H22.8622C22.8622 91.2704 22.8622 91.2704 22.8622 91.2961C22.9647 91.4754 23.1184 91.5779 23.2722 91.5779H23.554C23.554 91.5779 23.554 91.5779 23.554 91.6035C23.6565 91.7829 23.8103 91.8854 23.964 91.8854H24.2459C24.2459 91.8854 24.2459 91.8854 24.2459 91.911C24.3484 92.0904 24.5021 92.1929 24.6558 92.1929H24.9377C24.9377 92.1929 24.9377 92.1929 24.9377 92.2185C25.0402 92.3979 25.1939 92.5003 25.3477 92.5003H25.6295C25.6295 92.5003 25.6295 92.5003 25.6295 92.526C25.732 92.7053 25.8857 92.8078 26.0395 92.8078H26.3213C26.3213 92.8078 26.3213 92.8078 26.3213 92.8334C26.4238 93.0128 26.5776 93.1153 26.7313 93.1153H27.0132C27.0132 93.1153 27.0132 93.1153 27.0132 93.1409C27.1157 93.3203 27.2694 93.4228 27.4231 93.4228H27.705C27.705 93.4228 27.705 93.4228 27.705 93.4484C27.8075 93.6278 27.9612 93.7303 28.115 93.7303H28.3968C28.3968 93.7303 28.3968 93.7303 28.3968 93.7559C28.4993 93.9352 28.6531 94.0377 28.8068 94.0377H29.0886C29.0886 94.0377 29.0886 94.0377 29.0886 94.0634C29.1911 94.2427 29.3449 94.3452 29.4986 94.3452H29.7805C29.7805 94.3452 29.7805 94.3452 29.7805 94.3708C29.883 94.5502 30.0367 94.6527 30.1904 94.6527H30.4723C30.4723 94.6527 30.4723 94.6527 30.4723 94.6783C30.5748 94.8577 30.7285 94.9602 30.8823 94.9602H31.1641C31.1641 94.9602 31.1641 94.9602 31.1641 94.9858C31.2666 95.1652 31.4204 95.2676 31.5741 95.2676H31.856C31.856 95.2676 31.856 95.2677 31.856 95.2933C31.9584 95.4726 32.1122 95.5751 32.2659 95.5751H32.5478C32.5478 95.5751 32.5478 95.5751 32.5478 95.6007C32.6503 95.7801 32.804 95.8826 32.9577 95.8826H33.2396C33.2396 95.8826 33.2396 95.8826 33.2396 95.9082C33.3421 96.0876 33.4958 96.1901 33.6496 96.1901H33.9314C33.9314 96.1901 33.9314 96.1901 33.9314 96.2157C34.0339 96.3951 34.1877 96.4976 34.3414 96.4976H47.6911C47.8448 96.4976 47.9729 96.3951 48.101 96.2157C48.2035 96.0363 48.2804 95.8057 48.2804 95.5495V90.9373C48.2804 90.9373 48.2804 90.9373 48.306 90.9373C48.511 91.0655 48.7416 91.1423 48.9722 91.2448C49.1772 91.3729 49.4078 91.4498 49.6384 91.5523C49.8434 91.6804 50.074 91.7573 50.3046 91.8598C50.5096 91.9879 50.7402 92.0648 50.9708 92.1672C51.1758 92.2954 51.4064 92.3722 51.637 92.4747C51.842 92.6028 52.0726 92.6797 52.3032 92.7822C52.5082 92.9103 52.7388 92.9872 52.9694 93.0897C53.1744 93.2178 53.405 93.2947 53.6356 93.3972C53.8406 93.5253 54.0712 93.6021 54.3019 93.7046C54.5068 93.8328 54.7374 93.9096 54.968 94.0121C55.173 94.1402 55.4036 94.2171 55.6343 94.3196C55.8392 94.4477 56.0698 94.5246 56.3005 94.6271C57.4791 95.2676 58.8115 95.447 60.3233 95.1652C61.6557 94.9346 62.8087 94.3196 63.7056 93.3459C64.0899 92.9103 64.4486 92.4235 64.7305 91.8598C64.833 91.9623 64.9611 92.0135 65.0892 92.0135H65.2942C65.2942 92.0135 65.2942 92.0647 65.3198 92.0647C65.4479 92.2441 65.6017 92.321 65.781 92.321H65.986C65.986 92.321 65.986 92.3722 66.0116 92.3722C66.1398 92.5516 66.2935 92.6285 66.4729 92.6285H66.6778C66.6778 92.6285 66.6778 92.6797 66.7035 92.6797C66.8316 92.8591 66.9853 92.9359 67.1647 92.9359H67.3697C67.3697 92.9359 67.3697 92.9872 67.3953 92.9872C67.5234 93.1666 67.6771 93.2434 67.8565 93.2434H68.0615C68.0615 93.2434 68.0615 93.2947 68.0871 93.2947C68.2152 93.474 68.369 93.5509 68.5483 93.5509H68.7533C68.7533 93.5509 68.7533 93.6021 68.7789 93.6021C68.9071 93.7815 69.0608 93.8584 69.2402 93.8584H69.4451C69.4451 93.8584 69.4451 93.9096 69.4708 93.9096C69.5989 94.089 69.7526 94.1658 69.932 94.1658H70.137C70.137 94.1658 70.137 94.2171 70.1626 94.2171C70.2907 94.3965 70.4444 94.4733 70.6238 94.4733H70.8288C70.8288 94.4733 70.8288 94.5246 70.8544 94.5246C70.9825 94.7039 71.1363 94.7808 71.3156 94.7808H71.5206C71.5206 94.7808 71.5206 94.832 71.5462 94.832C71.6744 95.0114 71.8281 95.0883 72.0075 95.0883H72.2124C72.2124 95.0883 72.2124 95.1395 72.2381 95.1395C72.3662 95.3189 72.5199 95.3958 72.6993 95.3958H72.9043C72.9043 95.3958 72.9043 95.447 72.9299 95.447C73.058 95.6264 73.2118 95.7032 73.3911 95.7032H73.5961C73.5961 95.7032 73.5961 95.7545 73.6217 95.7545C73.7498 95.9339 73.9036 96.0107 74.0829 96.0107H74.2879C74.2879 96.0107 74.2879 96.062 74.3135 96.062C74.4417 96.2413 74.5954 96.3182 74.7748 96.3182H78.7976C78.977 96.3182 79.1307 96.2413 79.2588 96.062C79.3869 95.8826 79.4382 95.7032 79.4382 95.4726V78.2795H85.7159C85.8952 78.2795 86.049 78.2026 86.1771 78.0233C86.3052 77.8439 86.3564 77.6645 86.3564 77.4339V73.8211C86.3564 73.5904 86.3052 73.3855 86.1771 73.2317L86.8689 73.283ZM35.2895 37.7436L33.3933 37.3593C33.3933 37.3336 33.3933 37.308 33.3933 37.2824V36.9493C33.4958 37.0006 33.5983 37.0005 33.7008 37.0005H33.7777C33.9571 37.2055 34.162 37.308 34.4183 37.308H34.4951C34.6745 37.513 34.8795 37.6155 35.1357 37.6155H35.2126C35.2638 37.6668 35.2895 37.718 35.3407 37.7436H35.2895ZM39.8504 58.729L39.4917 58.6521L39.5429 58.3959L40.3885 58.5753C40.2091 58.6265 40.0297 58.6778 39.8504 58.7546V58.729ZM59.2984 65.7241C58.9396 65.4935 58.5809 65.3142 58.1966 65.186C57.966 65.0579 57.7354 64.9554 57.5047 64.8786C57.2741 64.7505 57.0435 64.648 56.8129 64.5711C56.5823 64.443 56.3517 64.3405 56.1211 64.2636C55.8905 64.1355 55.6599 64.033 55.4293 63.9561C55.1987 63.828 54.968 63.7255 54.7374 63.6486C54.5068 63.5205 54.2762 63.418 54.0456 63.3412C53.815 63.2131 53.5844 63.1106 53.3538 63.0337C53.1232 62.9056 52.8926 62.8031 52.662 62.7262C52.4314 62.5981 52.2008 62.4956 51.9701 62.4187C51.7395 62.2906 51.5089 62.1881 51.2783 62.1113C51.0477 61.9831 50.8171 61.8807 50.5865 61.8038C50.3559 61.6757 50.1253 61.5732 49.8947 61.4963C49.6641 61.3682 49.4334 61.2657 49.2028 61.1888C48.9722 61.0607 48.7416 60.9582 48.511 60.8813C48.2804 60.7532 48.0498 60.6507 47.8192 60.5739C47.5886 60.4458 47.358 60.3433 47.1274 60.2664C46.8968 60.1383 46.6661 60.0358 46.4355 59.9589C46.3074 59.882 46.1537 59.8308 46.0256 59.7539L46.3074 59.8052C46.3843 59.8052 46.4355 59.8052 46.5124 59.8052C46.5124 59.8052 46.5124 59.8308 46.5124 59.8564C46.6149 59.9845 46.743 60.0614 46.8711 60.0614H47.153C47.153 60.1127 47.1786 60.1383 47.2042 60.1895C47.3067 60.3176 47.4348 60.3945 47.563 60.3945H47.8448C47.8448 60.4458 47.8704 60.4714 47.8961 60.5226C47.9986 60.6507 48.1267 60.7276 48.2548 60.7276H48.5366C48.5366 60.7789 48.5623 60.8045 48.5879 60.8557C48.6904 60.9838 48.8185 61.0607 48.9466 61.0607H49.2285C49.2285 61.112 49.2541 61.1376 49.2797 61.1888C49.3822 61.3169 49.5103 61.3938 49.6384 61.3938H49.9203C49.9203 61.4451 49.9459 61.4707 49.9715 61.5219C50.074 61.65 50.2021 61.7269 50.3303 61.7269H50.6121C50.6121 61.7782 50.6377 61.8038 50.6634 61.855C50.7659 61.9831 50.894 62.06 51.0221 62.06H51.5602C51.6883 62.1625 51.842 62.2137 52.0214 62.2137H52.0983C52.2776 62.4187 52.4826 62.5212 52.7388 62.5212H52.8157C52.9951 62.7262 53.2001 62.8287 53.4563 62.8287H53.5332C53.7125 63.0337 53.9175 63.1362 54.1737 63.1362H54.2506C54.43 63.3412 54.635 63.4437 54.8912 63.4437H54.968C55.1474 63.6487 55.3524 63.7511 55.6086 63.7511H55.6855C55.8649 63.9561 56.0698 64.0586 56.3261 64.0586H56.4029C56.5054 64.1867 56.6336 64.2892 56.7873 64.3149C56.8385 64.4173 56.8642 64.4942 56.9154 64.5711C57.0691 64.7761 57.1973 64.8786 57.351 64.8529H57.5816C57.5816 64.8529 57.6072 64.8529 57.6329 64.8786C57.7866 65.0836 57.9147 65.186 58.0685 65.1604H58.2991C58.2991 65.1604 58.3247 65.1604 58.3503 65.186C58.504 65.391 58.6322 65.4935 58.7859 65.4679H59.0165C59.0165 65.4679 59.0421 65.4679 59.0678 65.4935C59.2215 65.6985 59.3496 65.801 59.5034 65.7754H59.734C59.734 65.7754 59.7596 65.7754 59.7852 65.801C59.9389 66.006 60.0671 66.1085 60.2208 66.0829H60.4514C60.4514 66.0829 60.477 66.0829 60.5027 66.1085C60.6564 66.3135 60.7845 66.416 60.9383 66.3903H61.1689C61.1689 66.3903 61.1945 66.3903 61.2201 66.416C61.297 66.5441 61.3738 66.6209 61.4763 66.6466H60.6308C60.2977 66.3647 59.9646 66.1085 59.6058 65.9035L59.2984 65.7241ZM23.016 28.468H22.7341C22.606 28.2631 22.4779 28.1606 22.3241 28.1606H22.0679V27.8787C22.1704 28.0068 22.2985 28.0837 22.4266 28.0837H22.7085C22.7085 28.1349 22.7341 28.1606 22.7597 28.2118C22.8622 28.3399 22.9903 28.4168 23.1184 28.4168H23.4003C23.4003 28.468 23.4259 28.4937 23.4515 28.5449C23.554 28.673 23.6822 28.7499 23.8103 28.7499H24.0153V29.0061C23.9384 28.878 23.8359 28.8268 23.7078 28.8268H23.4259C23.2978 28.6218 23.1697 28.5193 23.016 28.5193V28.468ZM45.385 80.3037H45.1031C45.1031 80.3037 45.1031 80.3037 45.1031 80.2781C45.0006 80.0987 44.8469 79.9962 44.6932 79.9962H44.4113C44.4113 79.9962 44.4113 79.9962 44.4113 79.9706C44.3088 79.7913 44.1551 79.6888 44.0013 79.6888H43.7195C43.7195 79.6888 43.7195 79.6888 43.7195 79.6631C43.617 79.4838 43.4632 79.3813 43.3095 79.3813H43.0277C43.0277 79.3813 43.0277 79.3813 43.0277 79.3557C42.9252 79.1763 42.7714 79.0738 42.6177 79.0738H42.3358C42.3358 79.0738 42.3358 79.0738 42.3358 79.0482C42.2333 78.8688 42.0796 78.7663 41.9259 78.7663H41.644H45.385C45.4106 78.7663 45.4619 78.7919 45.4875 78.8176C45.7181 78.9457 45.9487 79.0482 46.1793 79.125C46.3074 79.1763 46.4355 79.2532 46.5637 79.3044C46.5124 79.7912 46.1281 80.15 45.4362 80.355L45.385 80.3037ZM22.1448 38.8454C21.9654 38.7429 21.7604 38.6661 21.5554 38.5892C21.4529 38.5379 21.3761 38.5123 21.2736 38.4611H22.2216L22.1448 38.8454ZM25.322 65.0835C26.3213 64.9554 27.2182 64.6992 28.0381 64.2636C28.0381 64.2636 28.0893 64.2636 28.115 64.2892L28.5506 64.3661C28.6274 64.4942 28.7043 64.5711 28.8068 64.5967L29.2424 64.6736C29.3193 64.8017 29.3961 64.8786 29.4986 64.9042L29.9342 64.9811C30.0111 65.1092 30.088 65.186 30.1904 65.2117L30.626 65.2885C30.626 65.2885 30.626 65.3142 30.6517 65.3398H25.9882C25.8858 65.1604 25.7576 65.0579 25.6039 65.0579H25.322V65.0835ZM59.2471 75.4097C59.0165 75.2816 58.7859 75.1791 58.5553 75.1022C58.3247 74.9741 58.0941 74.8716 57.8635 74.7947C57.6329 74.6666 57.4023 74.5641 57.1716 74.4873C56.941 74.3591 56.7104 74.2566 56.4798 74.1798C56.3005 74.0773 56.1211 74.0004 55.9417 73.9235C56.0442 73.5648 56.3261 73.3086 56.7873 73.1805C56.8898 73.2317 56.9667 73.283 57.0692 73.283C57.146 73.3342 57.2229 73.3598 57.2998 73.3598C57.4535 73.5136 57.6072 73.5904 57.761 73.6161C57.8378 73.6673 57.9147 73.6929 57.9916 73.6929C58.1453 73.8467 58.2991 73.9235 58.4528 73.9492C58.5297 74.0004 58.6065 74.026 58.6834 74.026C58.8371 74.1798 58.9909 74.2566 59.1446 74.2823C59.2215 74.3335 59.2984 74.3591 59.4009 74.3591H59.6058C59.6058 74.3591 59.6058 74.4104 59.6315 74.4104C59.7596 74.5897 59.9133 74.6666 60.0927 74.6666H60.2208V75.8965C60.1439 75.8709 60.0414 75.8197 59.9646 75.794C59.734 75.6659 59.5034 75.5634 59.2727 75.4866L59.2471 75.4097Z" stroke="#1E1E1E" stroke-width="0.768695" stroke-miterlimit="10"/>
<path d="M18.1475 26.2901C18.3269 26.2901 18.4806 26.4182 18.5831 26.6488C18.7113 26.8794 18.7625 27.1613 18.7625 27.4944V30.7229C18.7625 31.056 18.7113 31.3378 18.5831 31.5684C18.455 31.7991 18.3013 31.9272 18.1475 31.9272H1.74871C1.56935 31.9272 1.41561 31.7991 1.31311 31.5684C1.185 31.3378 1.13375 31.056 1.13375 30.7229V2.20429C1.13375 1.87119 1.185 1.58934 1.31311 1.35873C1.44123 1.12812 1.59497 1 1.74871 1H6.8221C7.00146 1 7.1552 1.12812 7.25769 1.35873C7.38581 1.58934 7.43706 1.87119 7.43706 2.20429V26.2901H18.1475Z" stroke="#1E1E1E" stroke-width="0.768695" stroke-miterlimit="10"/>
<path d="M21.1198 7.27768L19.5568 16.1433H22.3497L21.1198 7.27768ZM17.8657 22.626C17.6863 23.369 17.3532 23.7278 16.8664 23.7278H12.6898C12.5617 23.7278 12.4336 23.6509 12.3311 23.5228C12.2542 23.369 12.203 23.1897 12.203 23.0103V22.8053L17.0457 2.07618C17.097 1.79432 17.2251 1.53809 17.3788 1.3331C17.5326 1.12812 17.7632 1 18.045 1H24.1946C24.4765 1 24.7071 1.10249 24.8608 1.3331C25.0145 1.53809 25.1427 1.79432 25.1939 2.07618L30.0111 32.3371V32.5421C30.0111 32.7471 29.9854 32.9009 29.883 33.0546C29.8061 33.1827 29.678 33.2596 29.5499 33.2596H25.3733C24.9121 33.2596 24.579 32.9009 24.374 32.1578L23.2209 20.3711H18.4294L17.8657 22.6516V22.626Z" stroke="#1E1E1E" stroke-width="0.768695" stroke-miterlimit="10"/>
<path d="M44.975 37.4618L43.2326 47.5317H46.743L44.975 37.4618ZM41.5671 54.1937C41.3878 54.9368 41.0547 55.2955 40.5678 55.2955H36.3912C36.2631 55.2955 36.135 55.2186 36.0325 55.0905C35.9556 54.9368 35.9044 54.7574 35.9044 54.5781V54.3731L40.7472 33.6439C40.7984 33.3621 40.9265 33.1058 41.0803 32.9008C41.234 32.6959 41.4646 32.5678 41.7465 32.5678H47.896C48.1779 32.5678 48.4085 32.6702 48.5622 32.9008C48.716 33.1058 48.8441 33.3621 48.8953 33.6439L53.7125 60.1383V60.3433C53.7125 60.5483 53.6869 60.702 53.5844 60.8557C53.5075 60.9838 53.3794 61.0607 53.2513 61.0607H49.9203C49.4591 61.0607 49.126 60.702 48.921 59.9589L47.7679 51.9389H42.1308L41.5671 54.2193V54.1937Z" stroke="#1E1E1E" stroke-width="0.768695" stroke-miterlimit="10"/>
<path d="M17.2507 43.8676C17.4045 43.8676 17.5582 43.9701 17.6607 44.1494C17.7888 44.3288 17.8401 44.5594 17.8401 44.79V48.4029C17.8401 51.862 17.0714 54.4243 15.534 56.1154C14.0222 57.781 11.998 58.6009 9.48691 58.6009C6.97584 58.6009 4.95161 57.781 3.41422 56.1154C1.90245 54.4243 1.13375 51.8364 1.13375 48.326V44.3032C1.13375 41.9715 1.49248 40.0497 2.23555 38.5379C2.97862 37.0006 3.97793 35.8475 5.23346 35.1301C6.489 34.4126 7.89827 34.0283 9.48691 34.0283C11.0755 34.0283 12.946 34.5151 14.176 35.4632C15.4059 36.4112 16.3027 37.513 16.8408 38.7173C17.4045 39.9216 17.6863 40.8953 17.6863 41.664C17.6863 42.4327 17.6351 42.0483 17.5326 42.2021C17.4557 42.3302 17.3276 42.407 17.1995 42.407H12.1773C11.8699 42.407 11.6649 42.2789 11.5368 42.0227C11.0755 41.1259 10.4093 40.6903 9.48691 40.6903C8.56447 40.6903 8.23137 40.9209 7.77016 41.4077C7.33456 41.8946 7.10395 42.5095 7.10395 43.2526V49.0691C7.10395 49.9915 7.33456 50.709 7.77016 51.2214C8.20575 51.7339 8.79508 51.9645 9.48691 51.9645C10.1787 51.9645 11.0755 51.7339 11.5111 51.247C11.9467 50.7346 12.1773 50.1709 12.203 49.5047H10.8193C10.6656 49.5047 10.5118 49.4022 10.4093 49.2228C10.2812 49.0435 10.23 48.8128 10.23 48.5822V44.79C10.23 44.5338 10.2812 44.3288 10.4093 44.1494C10.5375 43.9701 10.6656 43.8676 10.8193 43.8676H17.2507Z" stroke="#1E1E1E" stroke-width="0.768695" stroke-miterlimit="10"/>
<path d="M33.6752 55.9361C33.8289 55.9617 33.9314 56.0898 34.0083 56.2948C34.0852 56.4998 34.0852 56.7304 34.0083 56.9866L32.9834 61.9575C32.9321 62.2138 32.8296 62.4187 32.6759 62.5981C32.5221 62.7518 32.394 62.8287 32.2403 62.8031L18.3781 59.9589C18.2244 59.9333 18.1219 59.8052 18.045 59.6002C17.9682 59.3952 17.9682 59.1646 18.045 58.9084L22.7085 36.1806C22.7597 35.9244 22.8622 35.7194 23.0159 35.54C23.1697 35.3863 23.2978 35.3094 23.4515 35.3351L37.8774 38.3073C38.0311 38.333 38.1336 38.4611 38.2105 38.6661C38.2873 38.871 38.2873 39.1017 38.2105 39.3579L37.1856 44.3288C37.1343 44.585 37.0318 44.79 36.8781 44.9694C36.7243 45.1231 36.5962 45.2 36.4425 45.1743L26.7057 43.1757L26.2445 45.405L32.9577 46.7886C33.1115 46.8142 33.214 46.9423 33.2908 47.1473C33.3677 47.3523 33.3677 47.5829 33.2908 47.8392L32.3428 52.4257C32.2915 52.6819 32.189 52.8869 32.0353 53.0663C31.8816 53.2457 31.7534 53.2969 31.5997 53.2713L24.8864 51.8876L24.4252 54.1168L33.6239 56.013L33.6752 55.9361Z" stroke="#1E1E1E" stroke-width="0.768695" stroke-miterlimit="10"/>
<path d="M16.5845 61.0607C16.7383 61.0607 16.892 61.1632 16.9945 61.3938C17.1226 61.6244 17.1739 61.8807 17.1739 62.1881V68.5171C17.1739 68.8245 17.1226 69.0808 16.9945 69.3114C16.8664 69.542 16.7383 69.6445 16.5845 69.6445H7.87265V72.3093H15.1496C15.3034 72.3093 15.4571 72.4118 15.5596 72.6424C15.6877 72.873 15.739 73.1292 15.739 73.4367V77.5108C15.739 77.8183 15.6877 78.0745 15.5596 78.3051C15.4315 78.5357 15.3034 78.6382 15.1496 78.6382H7.87265V89.0925C7.87265 89.3999 7.8214 89.6562 7.69329 89.8868C7.56517 90.1174 7.43705 90.2199 7.28331 90.2199H2.49178C2.33804 90.2199 2.1843 90.1174 2.08181 89.8868C1.95369 89.6562 1.90245 89.3999 1.90245 89.0925V62.2138C1.90245 61.9063 1.95369 61.6501 2.08181 61.4194C2.20993 61.1888 2.33804 61.0863 2.49178 61.0863H16.5845V61.0607Z" stroke="#1E1E1E" stroke-width="0.768695" stroke-miterlimit="10"/>
<path d="M33.5471 72.1812C33.7008 72.1812 33.8289 72.0787 33.957 71.8993C34.0595 71.72 34.1364 71.4893 34.1364 71.2331V66.3135C34.1364 66.0572 34.0852 65.8266 33.957 65.6473C33.8289 65.4679 33.7008 65.3654 33.5471 65.3654H19.9668C19.813 65.3654 19.6849 65.4679 19.5568 65.6473C19.4543 65.8266 19.3775 66.0572 19.3775 66.3135V88.9131C19.3775 89.1693 19.4287 89.3999 19.5568 89.5793C19.6593 89.7587 19.813 89.8612 19.9668 89.8612H33.3165C33.4702 89.8612 33.5983 89.7587 33.7264 89.5793C33.8545 89.3999 33.9058 89.1693 33.9058 88.9131V83.9935C33.9058 83.7372 33.8545 83.5066 33.7264 83.3273C33.6239 83.1479 33.4702 83.0454 33.3165 83.0454H24.9633V80.8418H32.1378C32.2915 80.8418 32.4196 80.7393 32.5478 80.56C32.6503 80.3806 32.7271 80.15 32.7271 79.8937V75.3584C32.7271 75.1022 32.6759 74.8716 32.5478 74.6922C32.4453 74.5129 32.2915 74.4104 32.1378 74.4104H24.9633V72.2068H33.5214L33.5471 72.1812Z" stroke="#1E1E1E" stroke-width="0.768695" stroke-miterlimit="10"/>
<path d="M71.8025 66.4672C71.9818 66.4672 72.1356 66.5441 72.2637 66.7234C72.3918 66.9028 72.443 67.0822 72.443 67.3128V70.9256C72.443 71.1562 72.3918 71.3612 72.2637 71.515C72.1356 71.6943 71.9818 71.7712 71.8025 71.7712H65.5248V88.9644C65.5248 89.195 65.4735 89.3999 65.3454 89.5537C65.2173 89.733 65.0636 89.8099 64.8842 89.8099H60.8614C60.682 89.8099 60.5283 89.733 60.4002 89.5537C60.272 89.3743 60.2208 89.195 60.2208 88.9644V71.7712H53.8406C53.6613 71.7712 53.5075 71.6943 53.3794 71.515C53.2513 71.3356 53.2 71.1562 53.2 70.9256V67.3128C53.2 67.0822 53.2513 66.8772 53.3794 66.7234C53.5075 66.5441 53.6613 66.4672 53.8406 66.4672H71.8281H71.8025Z" stroke="#1E1E1E" stroke-width="0.768695" stroke-miterlimit="10"/>
<path d="M44.1038 69.2858C45.5643 69.3626 46.7943 69.7214 47.7679 70.3363C48.7672 70.9513 49.5616 71.8224 50.1509 72.9755C50.7402 74.1285 51.2271 75.6403 51.5345 77.4852C51.8933 79.5094 51.8933 81.303 51.5602 82.9429C51.2271 84.5315 50.6121 85.8127 49.7153 86.812C48.7929 87.7857 47.6654 88.375 46.333 88.6313C44.8469 88.8875 43.4889 88.7081 42.3102 88.0932C41.1315 87.4526 40.1578 86.5301 39.4148 85.2746C38.6717 83.9935 38.1336 82.5329 37.8518 80.9187C37.8005 80.6368 37.8005 80.4062 37.8518 80.2269C37.903 80.0475 38.0055 79.945 38.1336 79.9194L42.0796 79.2276C42.3358 79.1763 42.592 79.33 42.8227 79.6631C43.1301 80.0731 43.412 80.3293 43.7195 80.4575C44.0013 80.56 44.4113 80.56 44.8981 80.4575C46.1024 80.2525 46.6405 79.74 46.5124 78.9201C46.4611 78.587 46.333 78.3307 46.1024 78.1257C45.8974 77.8951 45.59 77.7414 45.1544 77.6389C44.7188 77.5108 44.1038 77.4083 43.2839 77.3571C41.439 77.2289 39.9272 76.5115 38.7486 75.2047C37.5443 73.8979 36.7243 71.8737 36.2375 69.2089C35.9044 67.3128 35.8788 65.5704 36.135 64.033C36.4169 62.4956 36.955 61.2145 37.7749 60.2408C38.5948 59.2671 39.671 58.6521 40.9522 58.4215C42.2846 58.1909 43.5401 58.4215 44.6932 59.1902C45.8462 59.9077 46.8199 60.907 47.5629 62.1369C48.3316 63.3924 48.8185 64.648 49.0491 65.9547C49.1003 66.2366 49.1003 66.4672 49.0491 66.6466C48.9978 66.8259 48.8953 66.9284 48.7672 66.954L44.6419 67.6715C44.4369 67.6971 44.2063 67.569 43.9501 67.2615C43.7707 67.0053 43.5657 66.8003 43.3351 66.6722C43.1045 66.5441 42.797 66.5185 42.4127 66.5697C41.5671 66.7234 41.1828 67.1847 41.3365 67.979C41.4134 68.3889 41.644 68.6964 42.0027 68.9014C42.3871 69.0551 43.0789 69.1833 44.1294 69.2601L44.1038 69.2858Z" stroke="#1E1E1E" stroke-width="0.768695" stroke-miterlimit="10"/>
<path d="M68.8814 2.22991C69.0608 2.22991 69.2401 2.33241 69.3683 2.56302C69.4964 2.79362 69.5732 3.04986 69.5732 3.35733V29.9286C69.5732 30.236 69.4964 30.4923 69.3683 30.7229C69.2401 30.9535 69.0608 31.056 68.8814 31.056H64.7305C64.3205 31.056 63.9618 30.7741 63.7055 30.1848L58.0684 18.7569V29.9542C58.0684 30.2617 57.9916 30.5179 57.8635 30.7485C57.7353 30.9791 57.556 31.0816 57.3766 31.0816H52.5595C52.3801 31.0816 52.2007 30.9791 52.0726 30.7485C51.9445 30.5179 51.8676 30.2617 51.8676 29.9542V3.38296C51.8676 3.07548 51.9445 2.81925 52.0726 2.58864C52.2007 2.35803 52.3801 2.25554 52.5595 2.25554H56.736C57.146 2.25554 57.4791 2.53739 57.7353 3.07548L63.3724 15.4515V3.35733C63.3724 3.04986 63.4493 2.79362 63.5774 2.56302C63.7055 2.33241 63.8849 2.22991 64.0643 2.22991H68.8814Z" stroke="#1E1E1E" stroke-width="0.768695" stroke-miterlimit="10"/>
<path d="M39.876 13.4785C40.1578 13.4529 40.3628 13.2223 40.4653 12.8123C40.5678 12.3767 40.5934 11.8642 40.5166 11.2493C40.4397 10.6343 40.3116 10.1218 40.1066 9.71188C39.9016 9.25066 39.6454 9.04568 39.3635 9.09692L36.9037 9.37878L37.4162 13.786L39.876 13.5041V13.4785ZM48.306 28.3399C48.3573 28.4424 48.3829 28.5705 48.3829 28.6987C48.4085 28.9549 48.3829 29.1855 48.3316 29.3905C48.2804 29.5698 48.1779 29.6723 48.0754 29.6723L43.617 30.1848C43.4376 30.1848 43.2582 30.1335 43.0789 29.9542C42.8995 29.7748 42.7714 29.5442 42.6689 29.2367L39.9785 21.2167L38.3386 21.4217L39.2867 29.5442C39.3123 29.8517 39.2867 30.1079 39.2098 30.3385C39.1329 30.5691 39.0304 30.6973 38.8767 30.7229L34.6232 31.2097C34.4695 31.2097 34.3414 31.1329 34.2133 30.9279C34.0852 30.7229 34.0083 30.4667 33.957 30.1592L30.831 3.35733C30.8054 3.04986 30.831 2.79362 30.9079 2.56302C30.9847 2.33241 31.0872 2.20429 31.241 2.17867L38.8767 1.28186C40.0554 1.15374 41.1315 1.4356 42.1052 2.12742C43.0789 2.81925 43.8988 3.89542 44.565 5.38156C45.2056 6.84208 45.6668 8.61009 45.8974 10.6599C46.333 14.4265 45.9743 17.2195 44.7956 19.0643L48.3316 28.3143L48.306 28.3399Z" stroke="#1E1E1E" stroke-width="0.768695" stroke-miterlimit="10"/>
<path d="M61.5276 46.1737C61.8094 46.1224 62.0144 45.8918 62.0913 45.4562C62.1682 44.995 62.1682 44.4825 62.0657 43.8419C61.9632 43.227 61.7838 42.6889 61.5532 42.2789C61.3226 41.8177 61.0664 41.6127 60.7589 41.664L58.299 42.074L59.0677 46.558L61.5276 46.148V46.1737ZM72.1356 60.7532C72.1868 60.8557 72.2124 60.9838 72.2381 61.1376C72.2893 61.3938 72.2637 61.6244 72.2381 61.8294C72.1868 62.0088 72.1099 62.1113 71.9818 62.1369L67.4978 62.9056C67.3184 62.9312 67.1134 62.88 66.9341 62.7006C66.7547 62.5212 66.601 62.2906 66.4985 61.9832L61.2457 51.3239L59.5802 51.6058L61.8094 62.7006C61.8607 63.0081 61.8607 63.2899 61.8094 63.5205C61.7326 63.7511 61.6301 63.9049 61.5019 63.9305L57.2229 64.648C57.0691 64.648 56.941 64.5711 56.7873 64.3661C56.6335 64.1611 56.5567 63.9049 56.4798 63.5974L51.842 36.3087C51.7908 36.0013 51.7908 35.7194 51.842 35.4888C51.9189 35.2582 52.0214 35.1044 52.1495 35.0788L59.8364 33.772C61.0151 33.5671 62.1169 33.7977 63.1418 34.4639C64.1668 35.1301 65.0636 36.2062 65.8066 37.6668C66.5497 39.1273 67.0878 40.9209 67.4465 42.9964C68.0871 46.8399 67.3184 48.4797 66.2422 50.4271L72.1356 60.7532Z" stroke="#1E1E1E" stroke-width="0.768695" stroke-miterlimit="10"/>
</svg>
