<svg width="280" height="188" viewBox="0 0 280 188" fill="none" xmlns="http://www.w3.org/2000/svg">
<g id="Group">
<g id="Layer_1">
<path id="Vector" d="M199.708 2.37814L4.11906 115.301C1.84417 116.615 1.06471 119.524 2.37811 121.798L73.2707 244.588C74.5841 246.863 77.493 247.642 79.7679 246.329L275.356 133.406C277.631 132.092 278.411 129.183 277.097 126.909L206.205 4.119C204.891 1.84414 201.983 1.06474 199.708 2.37814Z" fill="#F8B717" stroke="#231F20" stroke-width="1.77901" stroke-miterlimit="10"/>
<path id="Vector_2" d="M248.388 102.068L64.9309 207.987C63.2566 208.954 61.1076 208.386 60.135 206.702L13.1421 125.308C12.1755 123.634 12.7426 121.485 14.4272 120.512L197.885 14.5928C199.559 13.6261 201.708 14.1932 202.681 15.8778L249.673 97.2718C250.64 98.9462 250.073 101.095 248.388 102.068Z" fill="#FFE193" stroke="#231F20" stroke-width="1.77901" stroke-miterlimit="10"/>
<path id="Vector_3" d="M205.51 22.0367L16.9581 130.897L31.1734 155.519L219.726 46.6583L205.51 22.0367Z" fill="white"/>
<path id="Vector_4" d="M30.7319 155.774L220.27 46.344" stroke="#231F20" stroke-width="1.77901" stroke-miterlimit="10"/>
<path id="Vector_5" d="M33.9283 161.311L223.467 51.8805" stroke="#231F20" stroke-width="1.77901" stroke-miterlimit="10"/>
<path id="Vector_6" d="M32.25 158.404L221.788 48.9736" stroke="#231F20" stroke-width="1.77901" stroke-miterlimit="10"/>
<path id="Vector_7" d="M172.567 52.9859L61.4961 117.113C58.2795 118.97 57.1773 123.083 59.0344 126.299L80.5976 163.648C82.4546 166.864 86.5677 167.967 89.7843 166.109L200.855 101.983C204.072 100.125 205.174 96.0125 203.317 92.7959L181.754 55.4475C179.897 52.2309 175.784 51.1288 172.567 52.9859Z" fill="#1E1D1E"/>
<path id="Vector_8" d="M160.633 72.3117L84.2096 116.435C76.9708 120.614 74.4905 129.87 78.6698 137.109L80.7632 140.735C84.9425 147.974 94.1987 150.454 101.438 146.274L177.861 102.151C185.1 97.972 187.58 88.7159 183.401 81.4771L181.307 77.8512C177.128 70.6125 167.872 68.1323 160.633 72.3117Z" fill="#444546"/>
<path id="Vector_9" d="M99.0786 140.884C104.383 137.822 106.2 131.039 103.138 125.735C100.076 120.431 93.293 118.614 87.9887 121.676C82.6844 124.738 80.867 131.521 83.9294 136.825C86.9918 142.129 93.7743 143.947 99.0786 140.884Z" fill="white" stroke="#231F20" stroke-width="1.77901" stroke-miterlimit="10"/>
<path id="Vector_10" d="M16.3622 131.242L205.901 21.8116" stroke="#231F20" stroke-width="1.77901" stroke-miterlimit="10"/>
<path id="Vector_11" d="M272.458 129.998C273.751 129.251 274.195 127.597 273.448 126.304C272.701 125.011 271.047 124.567 269.754 125.314C268.46 126.061 268.017 127.715 268.764 129.008C269.511 130.302 271.165 130.745 272.458 129.998Z" fill="white" stroke="#231F20" stroke-width="1.77901" stroke-miterlimit="10"/>
<path id="Vector_12" d="M8.8992 121.992C10.1927 121.245 10.6358 119.591 9.88906 118.298C9.1423 117.004 7.48837 116.561 6.19491 117.308C4.90146 118.054 4.45828 119.708 5.20505 121.002C5.95181 122.295 7.60574 122.738 8.8992 121.992Z" fill="white" stroke="#231F20" stroke-width="1.77901" stroke-miterlimit="10"/>
<path id="Vector_13" d="M236.441 155.644L177.471 190.51L117.334 224.638L118.294 189.394L205.595 138.991L236.441 155.644Z" fill="#B6852C" stroke="#231F20" stroke-width="1.77901" stroke-miterlimit="10"/>
<path id="Vector_14" d="M158.36 126.517L151.632 130.402L156.105 155.348L162.833 151.463L158.36 126.517Z" fill="white" stroke="#231F20" stroke-width="1.77901" stroke-miterlimit="10"/>
<path id="Vector_15" d="M172.067 146.132L165.339 150.016L160.866 125.07L167.594 121.186L172.067 146.132Z" fill="white" stroke="#231F20" stroke-width="1.77901" stroke-miterlimit="10"/>
<path id="Vector_16" d="M181.251 140.83L174.523 144.714L170.06 119.762L176.788 115.878L181.251 140.83Z" fill="white" stroke="#231F20" stroke-width="1.77901" stroke-miterlimit="10"/>
<path id="Vector_17" d="M174.065 97.5911C179.369 94.5286 181.186 87.7461 178.124 82.4419C175.062 77.1376 168.279 75.3203 162.975 78.3828C157.67 81.4452 155.853 88.2277 158.915 93.532C161.978 98.8362 168.76 100.654 174.065 97.5911Z" fill="white" stroke="#231F20" stroke-width="1.77901" stroke-miterlimit="10"/>
<path id="Vector_18" d="M203.101 9.86884C204.395 9.12207 204.838 7.46815 204.091 6.17471C203.344 4.88127 201.691 4.43811 200.397 5.18489C199.104 5.93167 198.66 7.58559 199.407 8.87903C200.154 10.1725 201.808 10.6156 203.101 9.86884Z" fill="white" stroke="#231F20" stroke-width="1.77901" stroke-miterlimit="10"/>
<path id="Vector_19" d="M166.62 170.903C167.913 170.156 168.356 168.502 167.61 167.208C166.863 165.915 165.209 165.472 163.915 166.219C162.622 166.965 162.179 168.619 162.926 169.913C163.672 171.206 165.326 171.649 166.62 170.903Z" fill="white" stroke="#231F20" stroke-width="1.77901" stroke-miterlimit="10"/>
<path id="Vector_20" d="M147.275 183.441L142.55 186.169L145.278 190.894L150.003 188.166L147.275 183.441Z" fill="white" stroke="#231F20" stroke-width="1.77901" stroke-miterlimit="10"/>
<path id="Vector_21" d="M193.941 156.498L189.216 159.226L191.944 163.951L196.669 161.223L193.941 156.498Z" fill="white" stroke="#231F20" stroke-width="1.77901" stroke-miterlimit="10"/>
<path id="Vector_22" d="M209.269 167.178C211.147 166.094 211.79 163.693 210.706 161.815C209.622 159.938 207.221 159.294 205.343 160.378C203.466 161.463 202.822 163.864 203.906 165.741C204.99 167.619 207.392 168.263 209.269 167.178Z" fill="white" stroke="#231F20" stroke-width="1.77901" stroke-miterlimit="10"/>
<path id="Vector_23" d="M269.994 127.462L272.376 128.101" stroke="#231F20" stroke-width="1.77901" stroke-miterlimit="10"/>
<path id="Vector_24" d="M270.866 128.972L271.504 126.591" stroke="#231F20" stroke-width="1.77901" stroke-miterlimit="10"/>
<path id="Vector_25" d="M200.566 7.21002L202.948 7.84819" stroke="#231F20" stroke-width="1.77901" stroke-miterlimit="10"/>
<path id="Vector_26" d="M201.438 8.71998L202.076 6.33823" stroke="#231F20" stroke-width="1.77901" stroke-miterlimit="10"/>
<path id="Vector_27" d="M6.35376 119.339L8.73551 119.977" stroke="#231F20" stroke-width="1.77901" stroke-miterlimit="10"/>
<path id="Vector_28" d="M7.22553 120.849L7.86374 118.467" stroke="#231F20" stroke-width="1.77901" stroke-miterlimit="10"/>
<path id="Vector_29" d="M164.068 168.239L166.456 168.888" stroke="#231F20" stroke-width="1.77901" stroke-miterlimit="10"/>
<path id="Vector_30" d="M164.946 169.759L165.578 167.367" stroke="#231F20" stroke-width="1.77901" stroke-miterlimit="10"/>
<path id="Vector_31" d="M143.679 89.7016L107.757 110.441C106.107 111.394 105.541 113.505 106.494 115.156L113.682 127.605C114.635 129.256 116.746 129.821 118.397 128.868L154.318 108.129C155.969 107.176 156.534 105.065 155.581 103.414L148.393 90.9649C147.44 89.3141 145.329 88.7485 143.679 89.7016Z" fill="white" stroke="#231F20" stroke-width="1.77901" stroke-miterlimit="10"/>
<g id="Group_2">
<path id="Vector_32" d="M173.86 97.603L171.288 93.1715" stroke="#231F20" stroke-width="1.77901" stroke-miterlimit="10"/>
<path id="Vector_33" d="M165.516 98.7833L166.824 93.8372" stroke="#231F20" stroke-width="1.77901" stroke-miterlimit="10"/>
<path id="Vector_34" d="M158.916 93.5009L163.347 90.9286" stroke="#231F20" stroke-width="1.77901" stroke-miterlimit="10"/>
<path id="Vector_35" d="M157.788 85.399L162.724 86.7129" stroke="#231F20" stroke-width="1.77901" stroke-miterlimit="10"/>
<path id="Vector_36" d="M162.774 78.4243L165.346 82.8558" stroke="#231F20" stroke-width="1.77901" stroke-miterlimit="10"/>
<path id="Vector_37" d="M171.187 77.2845L169.863 82.2262" stroke="#231F20" stroke-width="1.77901" stroke-miterlimit="10"/>
<path id="Vector_38" d="M178.001 82.4679L173.57 85.0402" stroke="#231F20" stroke-width="1.77901" stroke-miterlimit="10"/>
<path id="Vector_39" d="M179.165 91.0308L174.213 89.7126" stroke="#231F20" stroke-width="1.77901" stroke-miterlimit="10"/>
</g>
<g id="Group_3">
<path id="Vector_40" d="M99.189 141.026L96.6168 136.595" stroke="#231F20" stroke-width="1.77901" stroke-miterlimit="10"/>
<path id="Vector_41" d="M90.6597 142.17L91.9779 137.218" stroke="#231F20" stroke-width="1.77901" stroke-miterlimit="10"/>
<path id="Vector_42" d="M83.8204 136.943L88.252 134.371" stroke="#231F20" stroke-width="1.77901" stroke-miterlimit="10"/>
<path id="Vector_43" d="M82.6816 128.424L87.6277 129.732" stroke="#231F20" stroke-width="1.77901" stroke-miterlimit="10"/>
<path id="Vector_44" d="M87.9033 121.575L90.4755 126.006" stroke="#231F20" stroke-width="1.77901" stroke-miterlimit="10"/>
<path id="Vector_45" d="M96.4387 120.441L95.1146 125.382" stroke="#231F20" stroke-width="1.77901" stroke-miterlimit="10"/>
<path id="Vector_46" d="M103.273 125.658L98.841 128.23" stroke="#231F20" stroke-width="1.77901" stroke-miterlimit="10"/>
<path id="Vector_47" d="M104.417 134.187L99.4645 132.869" stroke="#231F20" stroke-width="1.77901" stroke-miterlimit="10"/>
</g>
</g>
</g>
</svg>
