<svg width="296" height="194" viewBox="0 0 296 194" fill="none" xmlns="http://www.w3.org/2000/svg">
<path d="M289.059 1H6.94134C3.66003 1 1 3.6932 1 7.01543V186.338C1 189.661 3.66003 192.354 6.94134 192.354H289.059C292.34 192.354 295 189.661 295 186.338V7.01543C295 3.6932 292.34 1 289.059 1Z" fill="#F8B717" stroke="#231F20" stroke-width="2" stroke-miterlimit="10"/>
<path d="M279.458 140.975H14.8384C12.4233 140.975 10.4528 138.995 10.4528 136.535V17.6663C10.4528 15.2211 12.4085 13.226 14.8384 13.226H279.458C281.873 13.226 283.843 15.2061 283.843 17.6663V136.535C283.843 138.98 281.887 140.975 279.458 140.975Z" fill="#FFE193" stroke="#231F20" stroke-width="2" stroke-miterlimit="10"/>
<path d="M283.058 26.2017H11.0897V62.1593H283.058V26.2017Z" fill="white"/>
<path d="M10.4528 62.1594H283.843" stroke="#231F20" stroke-width="2" stroke-miterlimit="10"/>
<path d="M10.4528 70.245H283.843" stroke="#231F20" stroke-width="2" stroke-miterlimit="10"/>
<path d="M10.4528 65.9998H283.843" stroke="#231F20" stroke-width="2" stroke-miterlimit="10"/>
<path d="M228.089 39.2677H67.8806C63.2409 39.2677 59.4797 43.0758 59.4797 47.7733V102.317C59.4797 107.015 63.2409 110.823 67.8806 110.823H228.089C232.729 110.823 236.49 107.015 236.49 102.317V47.7733C236.49 43.0758 232.729 39.2677 228.089 39.2677Z" fill="#1E1D1E"/>
<path d="M203.109 52.8888H92.8755C82.4342 52.8888 73.9698 61.4587 73.9698 72.0302V77.3256C73.9698 87.8971 82.4342 96.4669 92.8755 96.4669H203.109C213.55 96.4669 222.014 87.8971 222.014 77.3256V72.0302C222.014 61.4587 213.55 52.8888 203.109 52.8888Z" fill="#444546"/>
<path d="M93.6903 89.0713C101.341 89.0713 107.544 82.7916 107.544 75.0453C107.544 67.2989 101.341 61.0193 93.6903 61.0193C86.0394 61.0193 79.837 67.2989 79.837 75.0453C79.837 82.7916 86.0394 89.0713 93.6903 89.0713Z" fill="white" stroke="#231F20" stroke-width="2" stroke-miterlimit="10"/>
<path d="M10.23 26.2017H283.62" stroke="#231F20" stroke-width="2" stroke-miterlimit="10"/>
<path d="M8.79352 187.208C10.6592 187.208 12.1716 185.677 12.1716 183.788C12.1716 181.899 10.6592 180.368 8.79352 180.368C6.92784 180.368 5.41541 181.899 5.41541 183.788C5.41541 185.677 6.92784 187.208 8.79352 187.208Z" fill="white" stroke="#231F20" stroke-width="2" stroke-miterlimit="10"/>
<path d="M288.051 186.788C289.917 186.788 291.429 185.257 291.429 183.368C291.429 181.479 289.917 179.948 288.051 179.948C286.186 179.948 284.673 181.479 284.673 183.368C284.673 185.257 286.186 186.788 288.051 186.788Z" fill="white" stroke="#231F20" stroke-width="2" stroke-miterlimit="10"/>
<path d="M7.93366 11.3507C9.79934 11.3507 11.3118 9.81945 11.3118 7.9305C11.3118 6.04155 9.79934 4.51025 7.93366 4.51025C6.06798 4.51025 4.55554 6.04155 4.55554 7.9305C4.55554 9.81945 6.06798 11.3507 7.93366 11.3507Z" fill="white" stroke="#231F20" stroke-width="2" stroke-miterlimit="10"/>
<path d="M233.071 192.103L147.501 193L61.1277 192.352L84.179 154.356H210.103L233.071 192.103Z" fill="#B6852C" stroke="#231F20" stroke-width="2" stroke-miterlimit="10"/>
<path d="M166.794 110.823H157.09L146.348 140.975H156.052L166.794 110.823Z" fill="white" stroke="#231F20" stroke-width="2" stroke-miterlimit="10"/>
<path d="M169.372 140.975H159.668L170.41 110.823H180.114L169.372 140.975Z" fill="white" stroke="#231F20" stroke-width="2" stroke-miterlimit="10"/>
<path d="M182.618 140.975H172.914L183.67 110.823H193.375L182.618 140.975Z" fill="white" stroke="#231F20" stroke-width="2" stroke-miterlimit="10"/>
<path d="M201.85 89.0713C209.501 89.0713 215.704 82.7916 215.704 75.0453C215.704 67.2989 209.501 61.0193 201.85 61.0193C194.199 61.0193 187.997 67.2989 187.997 75.0453C187.997 82.7916 194.199 89.0713 201.85 89.0713Z" fill="white" stroke="#231F20" stroke-width="2" stroke-miterlimit="10"/>
<path d="M288.051 11.3507C289.917 11.3507 291.429 9.81945 291.429 7.9305C291.429 6.04155 289.917 4.51025 288.051 4.51025C286.186 4.51025 284.673 6.04155 284.673 7.9305C284.673 9.81945 286.186 11.3507 288.051 11.3507Z" fill="white" stroke="#231F20" stroke-width="2" stroke-miterlimit="10"/>
<path d="M148.008 164.662C149.873 164.662 151.386 163.13 151.386 161.242C151.386 159.353 149.873 157.821 148.008 157.821C146.142 157.821 144.629 159.353 144.629 161.242C144.629 163.13 146.142 164.662 148.008 164.662Z" fill="white" stroke="#231F20" stroke-width="2" stroke-miterlimit="10"/>
<path d="M119.249 166.162H112.434V173.062H119.249V166.162Z" fill="white" stroke="#231F20" stroke-width="2" stroke-miterlimit="10"/>
<path d="M186.56 166.162H179.745V173.062H186.56V166.162Z" fill="white" stroke="#231F20" stroke-width="2" stroke-miterlimit="10"/>
<path d="M100.447 187.554C103.155 187.554 105.351 185.33 105.351 182.588C105.351 179.846 103.155 177.623 100.447 177.623C97.738 177.623 95.5424 179.846 95.5424 182.588C95.5424 185.33 97.738 187.554 100.447 187.554Z" fill="white" stroke="#231F20" stroke-width="2" stroke-miterlimit="10"/>
<path d="M196.472 187.554C199.18 187.554 201.376 185.33 201.376 182.588C201.376 179.846 199.18 177.623 196.472 177.623C193.763 177.623 191.568 179.846 191.568 182.588C191.568 185.33 193.763 187.554 196.472 187.554Z" fill="white" stroke="#231F20" stroke-width="2" stroke-miterlimit="10"/>
<path d="M286.97 182.453L289.148 184.658" stroke="#231F20" stroke-width="2" stroke-miterlimit="10"/>
<path d="M286.97 184.658L289.148 182.453" stroke="#231F20" stroke-width="2" stroke-miterlimit="10"/>
<path d="M286.97 6.83545L289.148 9.0406" stroke="#231F20" stroke-width="2" stroke-miterlimit="10"/>
<path d="M286.97 9.0406L289.148 6.83545" stroke="#231F20" stroke-width="2" stroke-miterlimit="10"/>
<path d="M6.83716 6.83545L9.01516 9.0406" stroke="#231F20" stroke-width="2" stroke-miterlimit="10"/>
<path d="M6.83716 9.0406L9.01516 6.83545" stroke="#231F20" stroke-width="2" stroke-miterlimit="10"/>
<path d="M7.6969 182.678L9.88971 184.898" stroke="#231F20" stroke-width="2" stroke-miterlimit="10"/>
<path d="M7.6969 184.898L9.88971 182.678" stroke="#231F20" stroke-width="2" stroke-miterlimit="10"/>
<path d="M146.911 160.131L149.089 162.352" stroke="#231F20" stroke-width="2" stroke-miterlimit="10"/>
<path d="M146.911 162.352L149.089 160.131" stroke="#231F20" stroke-width="2" stroke-miterlimit="10"/>
<path d="M173.906 61.2145H122.093C119.712 61.2145 117.782 63.1689 117.782 65.5798V83.7611C117.782 86.172 119.712 88.1264 122.093 88.1264H173.906C176.287 88.1264 178.218 86.172 178.218 83.7611V65.5798C178.218 63.1689 176.287 61.2145 173.906 61.2145Z" fill="white" stroke="#231F20" stroke-width="2" stroke-miterlimit="10"/>
<path d="M201.622 88.9546L201.607 82.4741" stroke="#231F20" stroke-width="2" stroke-miterlimit="10"/>
<path d="M191.857 84.9707L196.361 80.3804" stroke="#231F20" stroke-width="2" stroke-miterlimit="10"/>
<path d="M188.017 75.0111L194.417 74.9961" stroke="#231F20" stroke-width="2" stroke-miterlimit="10"/>
<path d="M191.857 65.4243L196.376 69.9846" stroke="#231F20" stroke-width="2" stroke-miterlimit="10"/>
<path d="M201.607 60.9374L201.622 67.4178" stroke="#231F20" stroke-width="2" stroke-miterlimit="10"/>
<path d="M211.42 65.0095L206.901 69.5848" stroke="#231F20" stroke-width="2" stroke-miterlimit="10"/>
<path d="M215.555 74.9961L209.154 75.0111" stroke="#231F20" stroke-width="2" stroke-miterlimit="10"/>
<path d="M211.465 85.111L206.931 80.5356" stroke="#231F20" stroke-width="2" stroke-miterlimit="10"/>
<path d="M93.7212 89.2964L93.7062 82.8159" stroke="#231F20" stroke-width="2" stroke-miterlimit="10"/>
<path d="M83.7792 85.1561L88.2982 80.5658" stroke="#231F20" stroke-width="2" stroke-miterlimit="10"/>
<path d="M79.6454 75.1054L86.046 75.0905" stroke="#231F20" stroke-width="2" stroke-miterlimit="10"/>
<path d="M83.7341 65.0547L88.2679 69.615" stroke="#231F20" stroke-width="2" stroke-miterlimit="10"/>
<path d="M93.6613 60.8544L93.6762 67.3348" stroke="#231F20" stroke-width="2" stroke-miterlimit="10"/>
<path d="M103.603 65.0096L99.084 69.585" stroke="#231F20" stroke-width="2" stroke-miterlimit="10"/>
<path d="M107.737 75.0454L101.337 75.0604" stroke="#231F20" stroke-width="2" stroke-miterlimit="10"/>
<path d="M103.648 85.1111L99.114 80.5358" stroke="#231F20" stroke-width="2" stroke-miterlimit="10"/>
</svg>
