<svg width="298" height="198" viewBox="0 0 298 198" fill="none" xmlns="http://www.w3.org/2000/svg">
<path d="M290.138 1.90747H7.86182C4.58667 1.90747 1.93164 4.63884 1.93164 8.00815V190.419C1.93164 193.788 4.58667 196.519 7.86182 196.519H290.138C293.413 196.519 296.068 193.788 296.068 190.419V8.00815C296.068 4.63884 293.413 1.90747 290.138 1.90747Z" fill="#FAEE8A" stroke="#231F20" stroke-width="2" stroke-miterlimit="10"/>
<path d="M281.244 10.7533H16.6094C14.153 10.7533 12.1617 12.8018 12.1617 15.3288V140.24C12.1617 142.767 14.153 144.816 16.6094 144.816H281.244C283.7 144.816 285.691 142.767 285.691 140.24V15.3288C285.691 12.8018 283.7 10.7533 281.244 10.7533Z" fill="#FAEE8A" stroke="#231F20" stroke-width="2" stroke-miterlimit="10"/>
<path d="M211.119 144.968H86.733V196.672H211.119V144.968Z" fill="#FAEE8A" stroke="#231F20" stroke-width="2" stroke-miterlimit="10"/>
<path d="M203.113 58.1863H94.7391C84.1767 58.1863 75.6143 66.9949 75.6143 77.861C75.6143 88.727 84.1767 97.5357 94.7391 97.5357H203.113C213.675 97.5357 222.238 88.727 222.238 77.861C222.238 66.9949 213.675 58.1863 203.113 58.1863Z" fill="#FAEE8A" stroke="#231F20" stroke-width="2" stroke-miterlimit="10"/>
<path d="M202.816 92.1976C210.513 92.1976 216.752 85.7789 216.752 77.861C216.752 69.9431 210.513 63.5244 202.816 63.5244C195.119 63.5244 188.88 69.9431 188.88 77.861C188.88 85.7789 195.119 92.1976 202.816 92.1976Z" fill="#FAEE8A" stroke="#231F20" stroke-width="2" stroke-miterlimit="10"/>
<path d="M94.5908 92.1976C102.287 92.1976 108.527 85.7789 108.527 77.861C108.527 69.9431 102.287 63.5244 94.5908 63.5244C86.8942 63.5244 80.6549 69.9431 80.6549 77.861C80.6549 85.7789 86.8942 92.1976 94.5908 92.1976Z" fill="#FAEE8A" stroke="#231F20" stroke-width="2" stroke-miterlimit="10"/>
<path d="M182.357 63.5244H115.642V82.8941H182.357V63.5244Z" fill="#FAEE8A" stroke="#231F20" stroke-width="2" stroke-miterlimit="10"/>
</svg>
