<svg width="71" height="71" viewBox="0 0 71 71" fill="none" xmlns="http://www.w3.org/2000/svg">
<mask id="path-1-outside-1_741_1207" maskUnits="userSpaceOnUse" x="0.424805" y="0.454648" width="71" height="71" fill="black">
<rect fill="white" x="0.424805" y="0.454648" width="71" height="71"/>
<path fill-rule="evenodd" clip-rule="evenodd" d="M48.6764 55.5006C44.9576 57.9448 40.5071 59.3667 35.7244 59.3667C22.6836 59.3667 12.112 48.795 12.112 35.7543C12.112 30.9716 13.5339 26.521 15.978 22.8023L48.6764 55.5006ZM55.4708 48.7062L22.7725 16.0078C26.4912 13.5637 30.9418 12.1418 35.7244 12.1418C48.7652 12.1418 59.3369 22.7135 59.3369 35.7543C59.3369 40.5369 57.915 44.9874 55.4708 48.7062ZM69.024 35.7543C69.024 54.1451 54.1153 69.0539 35.7244 69.0539C17.3335 69.0539 2.4248 54.1451 2.4248 35.7543C2.4248 17.3634 17.3335 2.45465 35.7244 2.45465C54.1153 2.45465 69.024 17.3634 69.024 35.7543Z"/>
</mask>
<path fill-rule="evenodd" clip-rule="evenodd" d="M48.6764 55.5006C44.9576 57.9448 40.5071 59.3667 35.7244 59.3667C22.6836 59.3667 12.112 48.795 12.112 35.7543C12.112 30.9716 13.5339 26.521 15.978 22.8023L48.6764 55.5006ZM55.4708 48.7062L22.7725 16.0078C26.4912 13.5637 30.9418 12.1418 35.7244 12.1418C48.7652 12.1418 59.3369 22.7135 59.3369 35.7543C59.3369 40.5369 57.915 44.9874 55.4708 48.7062ZM69.024 35.7543C69.024 54.1451 54.1153 69.0539 35.7244 69.0539C17.3335 69.0539 2.4248 54.1451 2.4248 35.7543C2.4248 17.3634 17.3335 2.45465 35.7244 2.45465C54.1153 2.45465 69.024 17.3634 69.024 35.7543Z" fill="#FF5A47"/>
<path d="M48.6764 55.5006L49.4745 56.7149L50.9656 55.7349L49.7038 54.4732L48.6764 55.5006ZM15.978 22.8023L17.0055 21.7748L15.7438 20.5131L14.7637 22.0042L15.978 22.8023ZM22.7725 16.0078L21.9744 14.7935L20.4833 15.7736L21.745 17.0353L22.7725 16.0078ZM55.4708 48.7062L54.4434 49.7336L55.7051 50.9954L56.6851 49.5042L55.4708 48.7062ZM35.7244 60.8198C40.7993 60.8198 45.5259 59.3101 49.4745 56.7149L47.8783 54.2864C44.3893 56.5795 40.2149 57.9136 35.7244 57.9136V60.8198ZM10.6589 35.7543C10.6589 49.5976 21.8811 60.8198 35.7244 60.8198V57.9136C23.4861 57.9136 13.565 47.9925 13.565 35.7543H10.6589ZM14.7637 22.0042C12.1686 25.9527 10.6589 30.6794 10.6589 35.7543H13.565C13.565 31.2638 14.8992 27.0894 17.1923 23.6004L14.7637 22.0042ZM49.7038 54.4732L17.0055 21.7748L14.9505 23.8298L47.6489 56.5281L49.7038 54.4732ZM21.745 17.0353L54.4434 49.7336L56.4983 47.6787L23.8 14.9803L21.745 17.0353ZM35.7244 10.6887C30.6496 10.6887 25.9229 12.1984 21.9744 14.7935L23.5706 17.2221C27.0596 14.929 31.234 13.5949 35.7244 13.5949V10.6887ZM60.7899 35.7543C60.7899 21.9109 49.5677 10.6887 35.7244 10.6887V13.5949C47.9627 13.5949 57.8838 23.516 57.8838 35.7543H60.7899ZM56.6851 49.5042C59.2802 45.5557 60.7899 40.8291 60.7899 35.7543H57.8838C57.8838 40.2447 56.5497 44.4191 54.2566 47.9081L56.6851 49.5042ZM35.7244 70.5069C54.9178 70.5069 70.4771 54.9476 70.4771 35.7543H67.5709C67.5709 53.3426 53.3128 67.6008 35.7244 67.6008V70.5069ZM0.971731 35.7543C0.971731 54.9476 16.531 70.5069 35.7244 70.5069V67.6008C18.1361 67.6008 3.87788 53.3426 3.87788 35.7543H0.971731ZM35.7244 1.00157C16.531 1.00157 0.971731 16.5609 0.971731 35.7543H3.87788C3.87788 18.1659 18.1361 3.90772 35.7244 3.90772V1.00157ZM70.4771 35.7543C70.4771 16.5609 54.9178 1.00157 35.7244 1.00157V3.90772C53.3128 3.90772 67.5709 18.1659 67.5709 35.7543H70.4771Z" fill="black" mask="url(#path-1-outside-1_741_1207)"/>
</svg>
