<svg width="173" height="173" viewBox="0 0 173 173" fill="none" xmlns="http://www.w3.org/2000/svg">
<mask id="path-1-outside-1_569_985" maskUnits="userSpaceOnUse" x="0" y="0" width="173" height="173" fill="black">
<rect fill="white" width="173" height="173"/>
<path fill-rule="evenodd" clip-rule="evenodd" d="M118.589 135.422C109.375 141.477 98.349 145 86.5 145C54.1913 145 28 118.809 28 86.5C28 74.651 31.5228 63.6247 37.5781 54.4115L118.589 135.422ZM135.422 118.589L54.4115 37.5781C63.6247 31.5228 74.651 28 86.5 28C118.809 28 145 54.1913 145 86.5C145 98.349 141.477 109.375 135.422 118.589ZM169 86.5C169 132.063 132.063 169 86.5 169C40.9365 169 4 132.063 4 86.5C4 40.9365 40.9365 4 86.5 4C132.063 4 169 40.9365 169 86.5Z"/>
</mask>
<path fill-rule="evenodd" clip-rule="evenodd" d="M118.589 135.422C109.375 141.477 98.349 145 86.5 145C54.1913 145 28 118.809 28 86.5C28 74.651 31.5228 63.6247 37.5781 54.4115L118.589 135.422ZM135.422 118.589L54.4115 37.5781C63.6247 31.5228 74.651 28 86.5 28C118.809 28 145 54.1913 145 86.5C145 98.349 141.477 109.375 135.422 118.589ZM169 86.5C169 132.063 132.063 169 86.5 169C40.9365 169 4 132.063 4 86.5C4 40.9365 40.9365 4 86.5 4C132.063 4 169 40.9365 169 86.5Z" fill="#FF5A47"/>
<path d="M118.589 135.422L120.566 138.43L124.26 136.002L121.134 132.876L118.589 135.422ZM37.5781 54.4115L40.1237 51.8659L36.9978 48.74L34.5697 52.4342L37.5781 54.4115ZM54.4115 37.5781L52.4342 34.5697L48.74 36.9978L51.8659 40.1237L54.4115 37.5781ZM135.422 118.589L132.876 121.134L136.002 124.26L138.43 120.566L135.422 118.589ZM86.5 148.6C99.073 148.6 110.783 144.86 120.566 138.43L116.611 132.413C107.967 138.095 97.6251 141.4 86.5 141.4V148.6ZM24.4 86.5C24.4 120.797 52.2031 148.6 86.5 148.6V141.4C56.1796 141.4 31.6 116.82 31.6 86.5H24.4ZM34.5697 52.4342C28.1403 62.2167 24.4 73.927 24.4 86.5H31.6C31.6 75.3749 34.9053 65.0328 40.5865 56.3887L34.5697 52.4342ZM121.134 132.876L40.1237 51.8659L35.0325 56.9571L116.043 137.967L121.134 132.876ZM51.8659 40.1237L132.876 121.134L137.967 116.043L56.9571 35.0325L51.8659 40.1237ZM86.5 24.4C73.927 24.4 62.2167 28.1403 52.4342 34.5697L56.3887 40.5865C65.0328 34.9053 75.3749 31.6 86.5 31.6V24.4ZM148.6 86.5C148.6 52.2031 120.797 24.4 86.5 24.4V31.6C116.82 31.6 141.4 56.1796 141.4 86.5H148.6ZM138.43 120.566C144.86 110.783 148.6 99.073 148.6 86.5H141.4C141.4 97.6251 138.095 107.967 132.413 116.611L138.43 120.566ZM86.5 172.6C134.052 172.6 172.6 134.052 172.6 86.5H165.4C165.4 130.075 130.075 165.4 86.5 165.4V172.6ZM0.4 86.5C0.4 134.052 38.9483 172.6 86.5 172.6V165.4C42.9247 165.4 7.6 130.075 7.6 86.5H0.4ZM86.5 0.4C38.9483 0.4 0.4 38.9483 0.4 86.5H7.6C7.6 42.9247 42.9247 7.6 86.5 7.6V0.4ZM172.6 86.5C172.6 38.9483 134.052 0.4 86.5 0.4V7.6C130.075 7.6 165.4 42.9247 165.4 86.5H172.6Z" fill="black" mask="url(#path-1-outside-1_569_985)"/>
</svg>
