<svg width="192" height="168" viewBox="0 0 192 168" fill="none" xmlns="http://www.w3.org/2000/svg">
<path d="M20.1309 144.738L21.9047 145.662L20.1309 144.738C18.976 146.955 21.321 149.361 23.5671 148.263L73.3186 123.94L91.9501 164.491C92.9244 166.611 95.9854 166.464 96.752 164.26L114.765 112.473L186.897 105.711C189.555 105.462 190.145 101.841 187.703 100.761L130.255 75.3514L162.552 14.0983L160.783 13.1654L162.552 14.0982C163.776 11.776 161.168 9.31448 158.921 10.6715L99.8748 46.3217L76.7431 3.36284C75.6337 1.30244 72.5775 1.65186 71.9618 3.90951L58.5076 53.2415L4.74062 61.0826C2.30652 61.4375 1.69038 64.6667 3.82292 65.8929L4.81986 64.1591L3.82292 65.8929L47.9737 91.2796L20.1309 144.738ZM72.7161 122.628L72.7175 122.631C72.717 122.63 72.7166 122.629 72.7161 122.628ZM129.551 76.6865L129.552 76.6835C129.552 76.6845 129.551 76.6855 129.551 76.6865Z" fill="#FED045" stroke="black" stroke-width="4"/>
</svg>
