<svg width="97" height="60" viewBox="0 0 97 60" fill="none" xmlns="http://www.w3.org/2000/svg">
<rect width="96" height="92.3077" transform="translate(0.5 0.90332)" fill="white"/>
<path fill-rule="evenodd" clip-rule="evenodd" d="M13.4031 57.8715C13.3566 56.7866 11.9939 18.8701 48.5483 18.8701C85.1026 18.8701 83.74 56.7866 83.6935 57.8715C83.6924 57.8963 83.6755 57.8959 83.6523 57.8954C83.6487 57.8953 83.645 57.8952 83.6411 57.8952H62.7717V56.4951V56.4937C62.7731 56.4645 63.5432 40.7544 48.5486 40.7544C33.554 40.7544 34.3241 56.4645 34.3255 56.4937L34.3255 56.4951V57.8952H13.4554C13.4516 57.8952 13.4479 57.8953 13.4443 57.8954C13.4211 57.8959 13.4041 57.8963 13.4031 57.8715Z" fill="#50C5C7"/>
<path d="M13.4031 57.8715L14.0221 57.845L14.0221 57.845L13.4031 57.8715ZM83.6935 57.8715L83.0744 57.845L83.0744 57.8451L83.6935 57.8715ZM83.6523 57.8954L83.6671 57.2759L83.6668 57.2759L83.6523 57.8954ZM62.7717 57.8952H62.152V58.5149H62.7717V57.8952ZM62.7717 56.4937L62.1528 56.4631L62.152 56.4784V56.4937H62.7717ZM34.3255 56.4937L34.9451 56.4929L34.9451 56.478L34.9444 56.4631L34.3255 56.4937ZM34.3255 56.4951H34.9452L34.9451 56.4943L34.3255 56.4951ZM34.3255 57.8952V58.5149H34.9451V57.8952H34.3255ZM13.4443 57.8954L13.4298 57.2759L13.4295 57.2759L13.4443 57.8954ZM48.5483 18.2505C39.2968 18.2505 32.3986 20.6517 27.2693 24.3069C22.145 27.9586 18.8275 32.8321 16.683 37.7148C12.4023 47.4614 12.7595 57.3272 12.784 57.898L14.0221 57.845C14.0001 57.3309 13.6528 47.696 17.8177 38.2132C19.896 33.4811 23.0889 28.8077 27.9885 25.3162C32.8832 21.8281 39.5226 19.4898 48.5483 19.4898V18.2505ZM84.3126 57.898C84.337 57.3272 84.6943 47.4614 80.4135 37.7148C78.2691 32.8321 74.9516 27.9586 69.8272 24.3069C64.6979 20.6517 57.7998 18.2505 48.5483 18.2505V19.4898C57.574 19.4898 64.2134 21.8281 69.108 25.3161C74.0076 28.8077 77.2005 33.4811 79.2789 38.2132C83.4437 47.696 83.0964 57.3309 83.0744 57.845L84.3126 57.898ZM83.6375 58.5149C83.6392 58.5149 83.6478 58.5151 83.6571 58.5152C83.6668 58.5152 83.6832 58.5152 83.703 58.5141C83.7363 58.5122 83.8184 58.5058 83.9133 58.4675C84.0226 58.4233 84.1382 58.3409 84.2191 58.2081C84.293 58.0868 84.3095 57.9695 84.3126 57.8979L83.0744 57.8451C83.0769 57.7858 83.091 57.6779 83.1606 57.5635C83.2373 57.4376 83.3471 57.3596 83.4491 57.3184C83.5367 57.283 83.6101 57.278 83.6337 57.2767C83.6584 57.2753 83.6794 57.2762 83.6671 57.2759L83.6375 58.5149ZM83.6411 58.5149C83.6384 58.5149 83.6365 58.5148 83.636 58.5148C83.6357 58.5148 83.6357 58.5148 83.6378 58.5149L83.6668 57.2759C83.6643 57.2758 83.6534 57.2756 83.6411 57.2756V58.5149ZM62.7717 58.5149H83.6411V57.2756H62.7717V58.5149ZM63.3913 57.8952V56.4951H62.152V57.8952H63.3913ZM63.3913 56.4951V56.4937H62.152V56.4951H63.3913ZM63.3906 56.5244C63.3927 56.482 63.5914 52.4324 61.8534 48.3694C60.9803 46.3285 59.6094 44.2624 57.4602 42.7075C55.3057 41.1488 52.4114 40.1347 48.5486 40.1347V41.374C52.183 41.374 54.8155 42.3237 56.7338 43.7116C58.6574 45.1032 59.9053 46.9665 60.7139 48.8568C62.3392 52.6562 62.1521 56.4762 62.1528 56.4631L63.3906 56.5244ZM48.5486 40.1347C44.6857 40.1347 41.7915 41.1488 39.637 42.7075C37.4878 44.2624 36.1168 46.3285 35.2438 48.3694C33.5058 52.4324 33.7045 56.482 33.7066 56.5244L34.9444 56.4631C34.945 56.4762 34.758 52.6562 36.3833 48.8568C37.1919 46.9665 38.4398 45.1033 40.3634 43.7116C42.2817 42.3237 44.9142 41.374 48.5486 41.374V40.1347ZM33.7059 56.4946L33.7059 56.496L34.9451 56.4943L34.9451 56.4929L33.7059 56.4946ZM33.7059 56.4951V57.8952H34.9451V56.4951H33.7059ZM13.4554 58.5149H34.3255V57.2756H13.4554V58.5149ZM13.4588 58.5149C13.4609 58.5148 13.4609 58.5148 13.4606 58.5148C13.46 58.5148 13.4581 58.5149 13.4554 58.5149V57.2756C13.4432 57.2756 13.4323 57.2758 13.4298 57.2759L13.4588 58.5149ZM12.784 57.898C12.7871 57.9697 12.8036 58.0869 12.8775 58.2081C12.9584 58.3409 13.074 58.4233 13.1833 58.4675C13.2782 58.5058 13.3602 58.5122 13.3936 58.5141C13.4134 58.5152 13.4298 58.5152 13.4395 58.5152C13.4488 58.5151 13.4573 58.5149 13.4591 58.5149L13.4295 57.2759C13.4172 57.2762 13.4382 57.2753 13.4628 57.2767C13.4865 57.278 13.5598 57.283 13.6475 57.3184C13.7495 57.3596 13.8592 57.4376 13.9359 57.5634C14.0056 57.6778 14.0196 57.7857 14.0221 57.845L12.784 57.898Z" fill="black"/>
<path fill-rule="evenodd" clip-rule="evenodd" d="M18.5925 59.2695C18.5486 58.1875 17.4551 25.0149 48.5484 25.0149C79.6417 25.0149 78.5482 58.1874 78.5043 59.2695C78.5032 59.2968 78.4828 59.2967 78.4562 59.2966L78.4517 59.2966H62.7715V56.495V56.4936C62.7729 56.4644 63.543 40.7543 48.5484 40.7543C33.5538 40.7543 34.3239 56.4644 34.3253 56.4936L34.3253 56.495V59.2966H18.6451L18.6406 59.2966C18.614 59.2967 18.5936 59.2968 18.5925 59.2695Z" fill="#F6E162"/>
<path d="M18.5925 59.2695L19.2117 59.2444H19.2117L18.5925 59.2695ZM78.5043 59.2695L79.1234 59.2947V59.2947L78.5043 59.2695ZM78.4562 59.2966L78.4582 58.677L78.4573 58.677L78.4562 59.2966ZM78.4517 59.2966L78.4528 58.6769H78.4517V59.2966ZM62.7715 59.2966H62.1519V59.9162H62.7715V59.2966ZM62.7715 56.4936L62.1526 56.463L62.1519 56.4783V56.4936H62.7715ZM34.3253 56.4936L34.945 56.4923L34.9449 56.4777L34.9442 56.463L34.3253 56.4936ZM34.3253 56.495H34.945L34.945 56.4937L34.3253 56.495ZM34.3253 59.2966V59.9162H34.945V59.2966H34.3253ZM18.6451 59.2966V58.6769H18.644L18.6451 59.2966ZM18.6406 59.2966L18.6395 58.677L18.6386 58.677L18.6406 59.2966ZM48.5484 24.3952C40.6583 24.3952 34.7649 26.5021 30.378 29.7151C25.997 32.9237 23.1597 37.2049 21.3243 41.4926C17.6613 50.0502 17.9503 58.7263 17.9734 59.2947L19.2117 59.2444C19.1908 58.7307 18.9111 50.2795 22.4636 41.9803C24.2361 37.8395 26.9526 33.76 31.1102 30.7149C35.2619 27.6742 40.8918 25.6345 48.5484 25.6345V24.3952ZM79.1234 59.2947C79.1465 58.7263 79.4355 50.0502 75.7725 41.4926C73.9371 37.2049 71.0998 32.9237 66.7188 29.7151C62.3319 26.5021 56.4385 24.3952 48.5484 24.3952V25.6345C56.205 25.6345 61.8349 27.6742 65.9865 30.7149C70.1441 33.76 72.8607 37.8395 74.6331 41.9803C78.1856 50.2795 77.906 58.7307 77.8851 59.2444L79.1234 59.2947ZM78.4543 59.9162C78.455 59.9163 78.4859 59.9167 78.5193 59.9143C78.5515 59.912 78.6284 59.9048 78.7175 59.8696C78.8182 59.8298 78.9347 59.7538 79.0199 59.6224C79.1002 59.4986 79.1201 59.3755 79.1234 59.2947L77.8851 59.2444C77.8879 59.1772 77.9048 59.0643 77.9801 58.9481C78.0604 58.8243 78.17 58.7534 78.2621 58.717C78.3427 58.6852 78.4094 58.6797 78.4303 58.6782C78.4523 58.6766 78.4707 58.677 78.4582 58.677L78.4543 59.9162ZM78.4507 59.9162L78.4552 59.9163L78.4573 58.677L78.4528 58.6769L78.4507 59.9162ZM62.7715 59.9162H78.4517V58.6769H62.7715V59.9162ZM63.3911 59.2966V56.495H62.1519V59.2966H63.3911ZM63.3911 56.495V56.4936H62.1519V56.495H63.3911ZM63.3904 56.5242C63.3925 56.4819 63.5912 52.4323 61.8532 48.3693C60.9802 46.3284 59.6092 44.2623 57.46 42.7074C55.3055 41.1487 52.4113 40.1346 48.5484 40.1346V41.3739C52.1828 41.3739 54.8153 42.3236 56.7336 43.7115C58.6572 45.1031 59.9051 46.9663 60.7137 48.8567C62.339 52.6561 62.152 56.4761 62.1526 56.463L63.3904 56.5242ZM48.5484 40.1346C44.6856 40.1346 41.7913 41.1487 39.6368 42.7074C37.4876 44.2623 36.1166 46.3284 35.2436 48.3693C33.5056 52.4323 33.7043 56.4819 33.7064 56.5242L34.9442 56.463C34.9448 56.4761 34.7578 52.6561 36.3831 48.8567C37.1917 46.9663 38.4396 45.1031 40.3632 43.7115C42.2815 42.3236 44.914 41.3739 48.5484 41.3739V40.1346ZM33.7057 56.4949L33.7057 56.4963L34.945 56.4937L34.945 56.4923L33.7057 56.4949ZM33.7057 56.495V59.2966H34.945V56.495H33.7057ZM18.6451 59.9162H34.3253V58.6769H18.6451V59.9162ZM18.6416 59.9163L18.6461 59.9162L18.644 58.6769L18.6395 58.677L18.6416 59.9163ZM17.9734 59.2947C17.9767 59.3755 17.9965 59.4985 18.0769 59.6224C18.1621 59.7538 18.2786 59.8298 18.3793 59.8696C18.4684 59.9048 18.5453 59.912 18.5775 59.9143C18.6109 59.9167 18.6418 59.9163 18.6425 59.9162L18.6386 58.677C18.626 58.677 18.6444 58.6766 18.6665 58.6782C18.6874 58.6797 18.7541 58.6852 18.8347 58.717C18.9268 58.7534 19.0364 58.8243 19.1167 58.9481C19.192 59.0643 19.2089 59.1772 19.2117 59.2444L17.9734 59.2947Z" fill="black"/>
<path fill-rule="evenodd" clip-rule="evenodd" d="M23.7646 56.8913C23.7217 55.8201 22.9306 29.5427 48.5487 29.5427C74.1669 29.5427 73.3758 55.8201 73.3329 56.8913C73.3317 56.92 73.3088 56.925 73.2801 56.925H62.7718V56.4951L62.7718 56.4937C62.7732 56.4645 63.5433 40.7543 48.5487 40.7543C33.5541 40.7543 34.3241 56.4645 34.3256 56.4937L34.3256 56.4951V56.925H23.8173C23.7886 56.925 23.7658 56.92 23.7646 56.8913Z" fill="#EA67AD"/>
<path d="M23.7646 56.8913L23.1455 56.9161H23.1455L23.7646 56.8913ZM73.3329 56.8913L72.7137 56.8665V56.8665L73.3329 56.8913ZM62.7718 56.925H62.1521V57.5446H62.7718V56.925ZM62.7718 56.4951L62.1521 56.4934V56.4951H62.7718ZM62.7718 56.4937L62.1529 56.4632L62.1522 56.4776L62.1521 56.492L62.7718 56.4937ZM34.3256 56.4937L34.9452 56.4924L34.9452 56.4778L34.9445 56.4631L34.3256 56.4937ZM34.3256 56.4951H34.9452L34.9452 56.4938L34.3256 56.4951ZM34.3256 56.925V57.5446H34.9452V56.925H34.3256ZM48.5487 28.9231C42.0328 28.9231 37.1507 30.596 33.5061 33.1584C29.8661 35.7176 27.5016 39.1349 25.9682 42.5622C22.9097 49.398 23.1228 56.3515 23.1455 56.9161L24.3838 56.8665C24.3635 56.3599 24.1596 49.6391 27.0994 43.0684C28.5651 39.7925 30.8035 36.5735 34.2189 34.1722C37.6298 31.7741 42.2556 30.1624 48.5487 30.1624V28.9231ZM73.952 56.9161C73.9746 56.3515 74.1877 49.398 71.1293 42.5622C69.5959 39.1349 67.2313 35.7176 63.5913 33.1584C59.9468 30.596 55.0647 28.9231 48.5487 28.9231V30.1624C54.8418 30.1624 59.4677 31.7741 62.8786 34.1722C66.294 36.5735 68.5324 39.7925 69.9981 43.0684C72.9379 49.6391 72.734 56.3599 72.7137 56.8665L73.952 56.9161ZM73.2801 57.5446C73.302 57.5446 73.4468 57.5483 73.5988 57.4707C73.6897 57.4242 73.7859 57.3478 73.8568 57.232C73.9259 57.119 73.9485 57.005 73.952 56.9161L72.7137 56.8665C72.7167 56.7919 72.7359 56.6894 72.7996 56.5853C72.8649 56.4785 72.9534 56.4087 73.0349 56.3671C73.11 56.3287 73.1755 56.3158 73.21 56.3107C73.2456 56.3055 73.2722 56.3053 73.2801 56.3053V57.5446ZM62.7718 57.5446H73.2801V56.3053H62.7718V57.5446ZM63.3914 56.925V56.4951H62.1521V56.925H63.3914ZM63.3914 56.4968L63.3914 56.4954L62.1521 56.492L62.1521 56.4934L63.3914 56.4968ZM63.3907 56.5242C63.3928 56.482 63.5915 52.4324 61.8534 48.3694C60.9804 46.3285 59.6095 44.2624 57.4603 42.7075C55.3058 41.1487 52.4115 40.1347 48.5487 40.1347V41.374C52.1831 41.374 54.8156 42.3237 56.7339 43.7115C58.6575 45.1032 59.9054 46.9664 60.714 48.8568C62.3393 52.6562 62.1522 56.4762 62.1529 56.4632L63.3907 56.5242ZM48.5487 40.1347C44.6858 40.1347 41.7916 41.1488 39.6371 42.7075C37.4879 44.2624 36.1169 46.3285 35.2439 48.3694C33.5059 52.4324 33.7046 56.482 33.7067 56.5243L34.9445 56.4631C34.9451 56.4762 34.7581 52.6562 36.3833 48.8568C37.192 46.9664 38.4399 45.1032 40.3635 43.7115C42.2818 42.3237 44.9142 41.374 48.5487 41.374V40.1347ZM33.7059 56.495L33.7059 56.4964L34.9452 56.4938L34.9452 56.4924L33.7059 56.495ZM33.7059 56.4951V56.925H34.9452V56.4951H33.7059ZM23.8173 57.5446H34.3256V56.3053H23.8173V57.5446ZM23.1455 56.9161C23.149 57.005 23.1716 57.119 23.2407 57.2321C23.3116 57.3478 23.4078 57.4243 23.4987 57.4707C23.6507 57.5483 23.7955 57.5446 23.8173 57.5446V56.3053C23.8253 56.3053 23.8518 56.3055 23.8875 56.3107C23.9219 56.3158 23.9875 56.3287 24.0626 56.3671C24.144 56.4087 24.2325 56.4785 24.2979 56.5853C24.3615 56.6893 24.3808 56.7919 24.3838 56.8665L23.1455 56.9161Z" fill="black"/>
<path fill-rule="evenodd" clip-rule="evenodd" d="M28.7204 56.8831C28.6807 55.8226 28.1583 34.9329 48.5482 34.9329C68.9382 34.9329 68.4158 55.8226 68.3761 56.8831C68.375 56.9118 68.3518 56.9249 68.3231 56.9249H62.7713V56.4949L62.7713 56.4935C62.7728 56.4643 63.5428 40.7541 48.5482 40.7541C33.5537 40.7541 34.3237 56.4643 34.3251 56.4935L34.3251 56.4949V56.9249H28.7734C28.7447 56.9249 28.7214 56.9118 28.7204 56.8831Z" fill="#A769B6"/>
<path d="M28.7204 56.8831L29.3396 56.86L28.7204 56.8831ZM68.3761 56.8831L68.9953 56.9063V56.9063L68.3761 56.8831ZM62.7713 56.9249H62.1517V57.5445H62.7713V56.9249ZM62.7713 56.4949L62.1517 56.4932V56.4949H62.7713ZM62.7713 56.4935L62.1524 56.4629L62.1517 56.4773L62.1517 56.4918L62.7713 56.4935ZM34.3251 56.4935L34.9448 56.4926L34.9448 56.4778L34.944 56.4629L34.3251 56.4935ZM34.3251 56.4949H34.9448L34.9448 56.494L34.3251 56.4949ZM34.3251 56.9249V57.5445H34.9448V56.9249H34.3251ZM48.5482 34.3132C43.3395 34.3132 39.4212 35.6493 36.4869 37.706C33.5571 39.7595 31.6489 42.5027 30.4083 45.2557C27.9355 50.743 28.0802 56.3469 28.1012 56.9063L29.3396 56.86C29.3208 56.3588 29.1846 50.9876 31.5381 45.7649C32.7107 43.1629 34.4925 40.6173 37.1982 38.7209C39.8994 36.8276 43.5621 35.5525 48.5482 35.5525V34.3132ZM68.9953 56.9063C69.0162 56.3469 69.161 50.743 66.6882 45.2557C65.4476 42.5027 63.5393 39.7595 60.6096 37.706C57.6753 35.6493 53.757 34.3132 48.5482 34.3132V35.5525C53.5344 35.5525 57.1971 36.8276 59.8983 38.7209C62.604 40.6173 64.3858 43.1629 65.5583 45.7649C67.9119 50.9876 67.7756 56.3588 67.7569 56.86L68.9953 56.9063ZM68.3231 57.5445C68.4212 57.5445 68.5748 57.5236 68.7219 57.4177C68.8916 57.2956 68.9879 57.1055 68.9953 56.9063L67.7569 56.8599C67.7633 56.6895 67.8474 56.5202 67.998 56.4118C68.126 56.3197 68.2537 56.3053 68.3231 56.3053V57.5445ZM62.7713 57.5445H68.3231V56.3053H62.7713V57.5445ZM63.391 56.9249V56.4949H62.1517V56.9249H63.391ZM63.391 56.4966L63.391 56.4952L62.1517 56.4918L62.1517 56.4932L63.391 56.4966ZM63.3902 56.5241C63.3923 56.4818 63.591 52.4321 61.853 48.3692C60.98 46.3283 59.609 44.2622 57.4598 42.7073C55.3053 41.1485 52.4111 40.1345 48.5482 40.1345V41.3738C52.1827 41.3738 54.8151 42.3235 56.7334 43.7113C58.657 45.103 59.905 46.9662 60.7136 48.8566C62.3388 52.656 62.1518 56.476 62.1524 56.4629L63.3902 56.5241ZM48.5482 40.1345C44.6854 40.1345 41.7911 41.1485 39.6366 42.7073C37.4874 44.2622 36.1165 46.3283 35.2435 48.3692C33.5055 52.4321 33.7042 56.4818 33.7062 56.5241L34.944 56.4629C34.9447 56.476 34.7576 52.656 36.3829 48.8566C37.1915 46.9662 38.4395 45.103 40.363 43.7113C42.2813 42.3235 44.9138 41.3738 48.5482 41.3738V40.1345ZM33.7055 56.4944L33.7055 56.4957L34.9448 56.494L34.9448 56.4926L33.7055 56.4944ZM33.7055 56.4949V56.9249H34.9448V56.4949H33.7055ZM28.7734 57.5445H34.3251V56.3053H28.7734V57.5445ZM28.1012 56.9063C28.1086 57.1055 28.2049 57.2956 28.3745 57.4177C28.5216 57.5236 28.6753 57.5445 28.7734 57.5445V56.3053C28.8428 56.3053 28.9705 56.3197 29.0985 56.4118C29.2491 56.5202 29.3332 56.6895 29.3396 56.86L28.1012 56.9063Z" fill="black"/>
<path d="M73.6828 51.9931C71.8987 51.9931 70.3718 52.5444 69.2192 53.3164C68.2669 53.9542 67.5408 54.7636 67.1513 55.5706C65.2482 55.2267 62.5733 55.0653 60.1675 55.6226C57.5457 56.2298 55.108 57.7368 54.5309 60.9107C53.9673 64.0103 55.2519 66.298 57.0401 67.8559C58.7048 69.3063 60.8224 70.1474 62.3728 70.5109C62.6542 71.0687 63.1286 71.9605 63.8306 72.8317C64.6456 73.843 65.801 74.8698 67.3709 75.3093C68.9012 75.7378 70.5317 75.3503 71.9096 74.7068C73.0203 74.1882 74.0253 73.4766 74.769 72.7867C75.6633 73.8169 77.5053 74.6598 80.0604 74.1337C82.9749 73.5337 84.0835 71.4126 84.4367 69.9406C85.3649 69.9329 86.6604 69.8858 87.9131 69.5945C89.3803 69.2533 90.9362 68.5425 91.7013 67.0122C92.3568 65.7013 92.5212 64.5381 92.3408 63.5226C92.1611 62.5115 91.6507 61.7093 91.063 61.0958C90.1385 60.1307 88.9789 59.587 88.4279 59.3658C88.1991 58.6618 87.4733 57.0918 85.3307 55.7527C84.1563 55.0187 82.8904 54.9105 81.7837 55.0235C80.967 55.1069 80.2059 55.3151 79.6087 55.4967C78.9523 53.7564 76.8615 51.9931 73.6828 51.9931Z" fill="#F5F2E3" stroke="black" stroke-width="1.2393"/>
<path d="M23.4461 51.9931C21.662 51.9931 20.1352 52.5444 18.9825 53.3164C18.0302 53.9542 17.3041 54.7636 16.9146 55.5706C15.0115 55.2267 12.3366 55.0653 9.93081 55.6226C7.30902 56.2298 4.87127 57.7368 4.29421 60.9107C3.73063 64.0103 5.0152 66.298 6.80336 67.8559C8.46814 69.3063 10.5857 70.1474 12.1361 70.5109C12.4175 71.0687 12.8919 71.9605 13.5939 72.8317C14.4089 73.843 15.5644 74.8698 17.1343 75.3093C18.6645 75.7378 20.2951 75.3503 21.6729 74.7068C22.7836 74.1882 23.7886 73.4766 24.5323 72.7867C25.4266 73.8169 27.2686 74.6598 29.8237 74.1337C32.7382 73.5337 33.8468 71.4126 34.2 69.9406C35.1282 69.9329 36.4237 69.8858 37.6764 69.5945C39.1436 69.2533 40.6995 68.5425 41.4646 67.0122C42.1201 65.7013 42.2845 64.5381 42.1041 63.5226C41.9244 62.5115 41.414 61.7093 40.8263 61.0958C39.9018 60.1307 38.7422 59.587 38.1912 59.3658C37.9624 58.6618 37.2366 57.0918 35.094 55.7527C33.9196 55.0187 32.6537 54.9105 31.547 55.0235C30.7303 55.1069 29.9692 55.3151 29.372 55.4967C28.7156 53.7564 26.6248 51.9931 23.4461 51.9931Z" fill="#F5F2E3" stroke="black" stroke-width="1.2393"/>
</svg>
