<svg width="232" height="231" viewBox="0 0 232 231" fill="none" xmlns="http://www.w3.org/2000/svg">
<path d="M58.9446 28.3195C53.6032 31.9539 50.6561 36.5381 49.6637 41.6879C48.6843 46.7694 49.6461 52.196 51.7077 57.5342C55.7592 68.025 64.2948 78.777 72.5191 87.1851C72.4725 87.3087 72.4004 87.4613 72.2964 87.628C72.1699 87.8311 72.0371 87.9893 71.9271 88.0965C59.8772 84.9127 44.7971 84.0492 31.9563 85.8933C25.4568 86.8268 19.4269 88.4683 14.6194 90.9287C9.82711 93.3814 6.03985 96.7614 4.43988 101.267C1.43988 109.714 2.21674 116.717 5.85224 122.328C9.41878 127.833 15.5439 131.696 22.6466 134.393C36.2065 139.543 54.2368 140.786 68.2696 140.369C58.6421 148.705 48.6893 160.943 42.7023 172.877C39.5556 179.149 37.4351 185.473 37.1221 191.188C36.8066 196.95 38.3338 202.245 42.6518 206.065C48.4042 211.153 54.8328 212.661 61.3659 211.637C67.7995 210.628 74.2341 207.187 80.2564 202.59C91.6373 193.903 102.074 180.677 108.991 169.947C109.215 180.643 110.962 194.161 115.731 205.494C120.839 217.633 129.636 227.698 144.078 228.426C151.67 228.809 157.025 225.79 160.404 220.51C163.675 215.398 164.989 208.342 165.16 200.701C165.487 186.103 161.652 168.357 157.608 154.97C166.512 160.92 178.828 167.576 190.951 170.818C203.77 174.245 217.133 174.021 225.569 163.948C229.833 158.857 230.786 153.567 229.186 148.449C227.639 143.499 223.782 138.96 218.979 134.954C209.866 127.355 196.584 121.057 185.849 117.054C196.562 112.75 209.827 105.806 218.943 97.1109C223.762 92.5147 227.563 87.2965 229.095 81.5802C230.652 75.7708 229.81 69.6432 225.7 63.4787C221.645 57.3964 216.426 54.1249 210.595 53.0259C204.838 51.9408 198.664 53.0047 192.65 55.2226C181.355 59.3877 170.071 67.8282 162.003 75.3091C163.795 62.7515 164.718 46.1366 162.253 32.024C160.954 24.5824 158.685 17.6752 154.971 12.4197C151.211 7.10107 145.963 3.47945 138.91 2.78046C132.508 2.14601 127.385 3.81285 123.442 7.1723C119.559 10.4815 116.987 15.2887 115.324 20.6721C112.186 30.834 112.099 43.6604 113.131 54.4147C107.624 45.614 99.8858 35.8894 90.937 29.7846C86.1823 26.541 80.993 24.2558 75.5468 23.7556C70.0584 23.2515 64.448 24.5749 58.9446 28.3195ZM72.5878 86.9318C72.5879 86.9307 72.588 86.932 72.5876 86.9357L72.5878 86.9318Z" fill="#048CD6" stroke="black" stroke-width="4"/>
<path d="M145.862 115.99C144.331 101.932 130.952 92.8194 117.217 94.4849C104.541 96.0219 94.5856 105.563 94.5061 118.624C94.4219 132.439 106.022 142.76 119.532 143.105C134.161 143.479 147.481 130.854 145.862 115.99Z" fill="#FFD011" stroke="black" stroke-width="4"/>
</svg>
