<svg width="91" height="83" viewBox="0 0 91 83" fill="none" xmlns="http://www.w3.org/2000/svg">
<path d="M49.2709 1.9886L49.2709 1.98857C49.1172 1.22462 48.1129 1.03389 47.6899 1.6885L38.026 16.6446L24.1354 2.40678C23.5825 1.84008 22.6217 2.24815 22.6456 3.03947L23.3485 26.3529L2.23131 24.2529C2.2313 24.2529 2.2313 24.2529 2.23129 24.2529C1.45291 24.1754 0.976916 25.0858 1.48459 25.6809L15.8673 42.5393L1.51118 57.7191L2.0964 58.2725L1.51117 57.7191C0.987499 58.2728 1.38002 59.1844 2.14221 59.1844H23.2111L19.6197 78.4158C19.4733 79.1999 20.3728 79.7503 21.0043 79.2627L39.5414 64.9493L49.902 81.2469C50.3026 81.8772 51.2587 81.7415 51.4685 81.0252L50.6938 80.7983L51.4686 81.0251L56.1959 64.8828L70.8973 71.4295C70.8974 71.4295 70.8974 71.4296 70.8974 71.4296C71.6184 71.7507 72.3594 71.0212 72.0496 70.2952L64.302 52.1406L88.7335 48.0492C89.5421 47.9138 89.7301 46.8366 89.0153 46.4352L66.8042 33.9638L73.5695 10.2259C73.7913 9.4477 72.9222 8.81594 72.2504 9.26652L72.7001 9.93695L72.2504 9.26653L53.2926 21.9821L49.2709 1.9886ZM22.9798 3.53424L23.4542 3.07141L22.9798 3.53425L22.9805 3.53502C22.9803 3.53476 22.98 3.5345 22.9798 3.53424ZM2.71285 24.633C2.71311 24.6333 2.71338 24.6336 2.71364 24.6339L2.71285 24.633L2.20999 25.062L2.71285 24.633ZM20.0176 77.9848C20.018 77.9845 20.0183 77.9842 20.0187 77.9839L20.0176 77.9848ZM51.2646 80.3808L51.2636 80.3794C51.264 80.3799 51.2643 80.3804 51.2646 80.3809L51.2646 80.3808ZM72.0168 9.78335L72.0165 9.78455L72.0168 9.78335ZM38.145 17.8349L38.3424 17.6423L38.3424 17.6424L38.145 17.8349ZM2.0715 25.8595L2.07152 25.8595C2.07151 25.8595 2.07151 25.8595 2.0715 25.8595ZM66.2906 33.6754C66.2911 33.6757 66.2916 33.676 66.2921 33.6762L66.2906 33.6754L65.9253 34.3258L66.2906 33.6754Z" fill="#FC99BF" stroke="black" stroke-width="1.61453"/>
</svg>
