<svg width="97" height="93" viewBox="0 0 97 93" fill="none" xmlns="http://www.w3.org/2000/svg">
<rect width="96" height="92.3077" transform="translate(0.5 0.595459)" fill="white"/>
<path d="M38.1516 25.1014L48.1178 29.5283L58.9616 25.4414L49.3365 21.2368L38.1516 25.1014Z" fill="#FFD011"/>
<path d="M26.657 29.2054L18.78 25.5912L19.338 38.61L27.0677 42.4612L26.657 29.2054Z" fill="#FFD011"/>
<path d="M27.8604 68.0418L37.2466 73.2904L37.0827 60.965L27.4888 56.0521L27.8604 68.0418Z" fill="#FFD011"/>
<path d="M46.8658 52.3249L47.0515 66.0699L58.314 61.1644L58.2396 47.6241L47.0057 52.3947L46.8658 52.3249Z" fill="#FF5A47"/>
<path d="M58.3834 73.7906L69.2142 68.8607V56.4168L58.314 61.1644L58.3831 73.7258L58.3834 73.7906Z" fill="#FF5A47"/>
<path d="M27.4888 56.0521L37.0827 60.965L36.9019 47.3607L27.0677 42.4612L27.4888 56.0521Z" fill="#FF5A47"/>
<path d="M36.7219 33.8234L46.6775 38.3912L58.1646 33.9911L48.1178 29.5283L36.7219 33.8234Z" fill="#FF5A47"/>
<path d="M67.5732 22.1846L58.0873 18.1704L49.3365 21.2368L58.9616 25.4414L67.5732 22.1846Z" fill="#FF5A47"/>
<path d="M46.6775 38.3912L36.7219 33.8234L36.9019 47.3607L46.8658 52.3249L46.6775 38.3912Z" fill="#048CD6"/>
<path d="M18.78 25.5912L26.657 29.2054L38.1516 25.1014L30.2672 21.5992L18.78 25.5912Z" fill="#048CD6"/>
<path d="M58.1646 33.9911L69.2142 29.7585L58.9616 25.4414L48.1178 29.5283L58.1646 33.9911Z" fill="#048CD6"/>
<path d="M78.0758 64.6476V52.6135L69.2142 56.4168V68.8607L78.0758 64.6476Z" fill="#048CD6"/>
<path d="M37.2466 73.2904L47.2245 78.8699L47.0515 66.0699L37.0827 60.965L37.2466 73.2904Z" fill="#FC7DA8"/>
<path d="M19.338 38.61L19.9194 52.1759L27.4888 56.0521L27.0677 42.4612L19.338 38.61Z" fill="#FC7DA8"/>
<path d="M69.2142 29.7585L78.0758 26.4665L67.5732 22.1846L58.9616 25.4414L69.2142 29.7585Z" fill="#FC7DA8"/>
<path d="M69.2142 29.7585L58.1646 33.9911L58.1649 34.0284L58.2396 47.6241L69.2142 42.9636V29.832V29.7585Z" fill="#FC7DA8"/>
<path d="M58.2396 47.6241L58.314 61.1644L69.2142 56.4168V42.9636L58.2396 47.6241Z" fill="#009A5E"/>
<path d="M20.4211 63.8818L27.8604 68.0418L27.4888 56.0521L19.9194 52.1759L20.4211 63.8818Z" fill="#009A5E"/>
<path d="M36.7219 33.8234L26.657 29.2054L27.0677 42.4612L36.9019 47.3607L36.7219 33.8234Z" fill="#009A5E"/>
<path d="M58.1649 34.0284L46.6775 38.3912L46.8658 52.3249L47.0057 52.3947L58.2396 47.6241L58.1649 34.0284Z" fill="#FFD011"/>
<path d="M78.0758 52.6135V39.1571L69.2142 42.9636V56.4168L78.0758 52.6135Z" fill="#FFD011"/>
<path d="M37.0827 60.965L47.0515 66.0699L46.8658 52.3249L36.9019 47.3607L37.0827 60.965Z" fill="#FFD011"/>
<path d="M47.2245 78.8699L58.3831 73.7258L58.314 61.1644L47.0515 66.0699L47.2245 78.8699Z" fill="#FFD011"/>
<path d="M26.657 29.2054L36.7219 33.8234L48.1178 29.5283L38.1516 25.1014L26.657 29.2054Z" fill="#FFD011"/>
<path d="M41.3489 17.8734L30.2672 21.5992L38.1516 25.1014L49.3365 21.2368L41.3489 17.8734Z" fill="#009A5E"/>
<path d="M58.0873 18.1704L49.9916 14.8699L41.3489 17.8734L49.3365 21.2368L58.0873 18.1704Z" fill="#048CD6"/>
<path fill-rule="evenodd" clip-rule="evenodd" d="M69.2142 29.7585L78.0758 26.4665L69.2142 29.832V29.7585Z" fill="#FFD011"/>
<path d="M78.0758 39.1571V26.4665L69.2142 29.832V42.9636L78.0758 39.1571Z" fill="#048CD6"/>
<path d="M18.78 25.5912L46.6775 38.3912M18.78 25.5912L49.9916 14.8699M18.78 25.5912L20.4211 63.8818M18.78 25.5912L26.657 29.2054M18.78 25.5912L19.338 38.61M18.78 25.5912L30.2672 21.5992M46.6775 38.3912L46.8658 52.3249M46.6775 38.3912L36.7219 33.8234M46.6775 38.3912L58.1646 33.9911M46.6775 38.3912L58.1649 34.0284M78.0758 26.4665L49.9916 14.8699M78.0758 26.4665V64.6476M78.0758 26.4665L69.2142 29.7585M78.0758 26.4665V39.1571M78.0758 26.4665L67.5732 22.1846M78.0758 26.4665L69.2142 29.832M49.9916 14.8699L58.0873 18.1704M49.9916 14.8699L41.3489 17.8734M78.0758 64.6476V52.6135M78.0758 64.6476L69.2142 68.8607M78.0758 64.6476L58.3831 73.7258M47.2245 78.8699L20.4211 63.8818M47.2245 78.8699L46.8658 52.3249M47.2245 78.8699L37.2466 73.2904M47.2245 78.8699L47.0515 66.0699M47.2245 78.8699L58.3831 73.7258M20.4211 63.8818L27.8604 68.0418M20.4211 63.8818L19.9194 52.1759M30.2672 21.5992L38.1516 25.1014M30.2672 21.5992L41.3489 17.8734M58.1646 33.9911L48.1178 29.5283M58.1646 33.9911L69.2142 29.7585M58.1646 33.9911L58.1649 34.0284M41.3489 17.8734L49.3365 21.2368M69.2142 29.7585L58.9616 25.4414M69.2142 29.7585V29.832M69.2142 68.8607L58.3835 73.7906L58.3831 73.7258M69.2142 68.8607V56.4168M58.0873 18.1704L49.3365 21.2368M58.0873 18.1704L67.5732 22.1846M26.657 29.2054L38.1516 25.1014M26.657 29.2054L27.0677 42.4612M26.657 29.2054L36.7219 33.8234M27.8604 68.0418L37.2466 73.2904M27.8604 68.0418L27.4888 56.0521M67.5732 22.1846L58.9616 25.4414M36.7219 33.8234L48.1178 29.5283M36.7219 33.8234L36.9019 47.3607M37.2466 73.2904L37.0827 60.965M19.9194 52.1759L27.4888 56.0521M19.9194 52.1759L19.338 38.61M47.0515 66.0699L37.0827 60.965M47.0515 66.0699L46.8658 52.3249M47.0515 66.0699L58.314 61.1644M78.0758 52.6135L69.2142 56.4168M78.0758 52.6135V39.1571M19.338 38.61L27.0677 42.4612M78.0758 39.1571L69.2142 42.9636M69.2142 42.9636L58.2396 47.6241M69.2142 42.9636V56.4168M69.2142 42.9636V29.832M38.1516 25.1014L48.1178 29.5283M38.1516 25.1014L49.3365 21.2368M48.1178 29.5283L58.9616 25.4414M58.9616 25.4414L49.3365 21.2368M27.0677 42.4612L27.4888 56.0521M27.0677 42.4612L36.9019 47.3607M37.0827 60.965L27.4888 56.0521M37.0827 60.965L36.9019 47.3607M46.8658 52.3249L47.0057 52.3947L58.2396 47.6241M46.8658 52.3249L36.9019 47.3607M58.314 61.1644L58.2396 47.6241M58.314 61.1644L69.2142 56.4168M58.314 61.1644L58.3831 73.7258M58.2396 47.6241L58.1649 34.0284M58.1649 34.0284L69.2142 29.832" stroke="black" stroke-width="1.4412"/>
</svg>
