<svg width="97" height="60" viewBox="0 0 97 60" fill="none" xmlns="http://www.w3.org/2000/svg">
<rect width="96" height="92.3077" transform="translate(0.500122 0.90332)" fill="white"/>
<path d="M18.0232 71.6652L18.7327 72.0348L18.0232 71.6653C17.5612 72.5522 18.4992 73.5144 19.3977 73.0752L39.2983 63.346L46.7509 79.5664C47.1406 80.4145 48.365 80.3558 48.6717 79.4742L55.8768 58.7594L84.7296 56.0545C85.7928 55.9548 86.0288 54.5066 85.0521 54.0746L62.0728 43.9107L74.9916 19.4094C75.4814 18.4805 74.4381 17.4959 73.5391 18.0387L49.9208 32.2988L40.6681 15.1153C40.2243 14.2911 39.0019 14.4309 38.7556 15.3339L33.3739 35.0667L11.8671 38.2031C10.8934 38.3451 10.647 39.6368 11.5 40.1273L11.8988 39.4338L11.5 40.1273L29.1603 50.282L18.0232 71.6652ZM12.098 39.7864L12.0993 39.7862C12.0989 39.7863 12.0984 39.7863 12.098 39.7864L12.0601 39.5265L12.098 39.7864ZM61.7912 44.4447L61.7915 44.4441C61.7914 44.4443 61.7913 44.4445 61.7912 44.4447L61.2927 44.1819L61.7912 44.4447ZM33.2768 35.4228C33.2769 35.4224 33.277 35.4219 33.2772 35.4214L33.2768 35.4228Z" fill="#FED045" stroke="black" stroke-width="1.6"/>
</svg>
