<svg width="97" height="93" viewBox="0 0 97 93" fill="none" xmlns="http://www.w3.org/2000/svg">
<rect width="96" height="92.3077" transform="translate(0.499878 0.595459)" fill="white"/>
<path d="M48.5626 79.5245C68.0816 79.5245 83.9998 64.9548 83.9998 46.8699C83.9998 28.7849 68.0816 14.2153 48.5626 14.2153C29.0437 14.2153 13.1254 28.7849 13.1254 46.8699C13.1254 64.9548 29.0437 79.5245 48.5626 79.5245Z" fill="#EBA627" stroke="black" stroke-width="1.30916"/>
<ellipse cx="59.13" cy="42.0136" rx="12.6835" ry="20.9278" fill="#F8DECF" stroke="black" stroke-width="1.58544"/>
<ellipse cx="37.885" cy="42.0136" rx="12.6835" ry="20.9278" fill="#F8DECF" stroke="black" stroke-width="1.58544"/>
<path d="M53.1865 40.9956L56.7272 42.5454L56.8793 42.612L56.8068 42.4625L53.972 36.6188C55.034 33.4201 57.0278 31.2939 59.2884 31.2939C60.965 31.2939 62.4942 32.4618 63.6077 34.3747C64.7203 36.2861 65.4104 38.9307 65.4104 41.8551C65.4104 44.7795 64.7203 47.4241 63.6077 49.3355C62.4942 51.2484 60.965 52.4163 59.2884 52.4163C57.6119 52.4163 56.0827 51.2484 54.9692 49.3355C53.8566 47.4241 53.1665 44.7795 53.1665 41.8551C53.1665 41.5657 53.1732 41.2791 53.1865 40.9956Z" fill="black" stroke="black" stroke-width="0.122511"/>
<path d="M31.6245 40.9956L35.1652 42.5454L35.3173 42.612L35.2448 42.4625L32.41 36.6188C33.472 33.4201 35.4658 31.2939 37.7264 31.2939C39.403 31.2939 40.9322 32.4618 42.0457 34.3747C43.1583 36.2861 43.8484 38.9307 43.8484 41.8551C43.8484 44.7795 43.1583 47.4241 42.0457 49.3355C40.9322 51.2484 39.403 52.4163 37.7264 52.4163C36.0499 52.4163 34.5206 51.2484 33.4072 49.3355C32.2946 47.4241 31.6045 44.7795 31.6045 41.8551C31.6045 41.5657 31.6112 41.2791 31.6245 40.9956Z" fill="black" stroke="black" stroke-width="0.122511"/>
</svg>
