<svg width="153" height="201" viewBox="0 0 153 201" fill="none" xmlns="http://www.w3.org/2000/svg">
<mask id="path-1-inside-1_265_604" fill="white">
<path fill-rule="evenodd" clip-rule="evenodd" d="M150.845 82.47C109.785 92.4277 65.8953 56.7721 52.8137 2.83112C65.8953 56.7721 43.2147 108.572 2.15517 118.53C43.2147 108.572 87.1049 144.228 100.187 198.169C87.1049 144.228 109.785 92.4277 150.845 82.47Z"/>
</mask>
<path fill-rule="evenodd" clip-rule="evenodd" d="M150.845 82.47C109.785 92.4277 65.8953 56.7721 52.8137 2.83112C65.8953 56.7721 43.2147 108.572 2.15517 118.53C43.2147 108.572 87.1049 144.228 100.187 198.169C87.1049 144.228 109.785 92.4277 150.845 82.47Z" fill="#FFD011"/>
<path d="M48.9264 3.77387C55.6547 31.5177 70.3368 54.7054 88.8155 69.7172C107.297 84.7315 129.785 91.6934 151.788 86.3573L149.902 78.5827C130.846 83.2042 110.858 77.3173 93.8598 63.5079C76.8581 49.6961 63.0543 28.0855 56.701 1.88838L48.9264 3.77387ZM3.09791 122.417C25.1009 117.081 41.9009 100.591 51.4515 78.7786C61.0006 56.9696 63.4294 29.6322 56.701 1.88838L48.9264 3.77387C55.2796 29.971 52.909 55.5042 44.1232 75.5699C35.3391 95.632 20.269 110.021 1.21243 114.643L3.09791 122.417ZM104.074 197.226C97.3455 169.482 82.6634 146.294 64.1847 131.283C45.7029 116.268 23.2154 109.307 1.21243 114.643L3.09791 122.417C22.1545 117.796 42.1418 123.683 59.1404 137.492C76.1421 151.304 89.9459 172.914 96.2992 199.112L104.074 197.226ZM149.902 78.5827C127.899 83.9188 111.099 100.409 101.549 122.221C91.9996 144.03 89.5708 171.368 96.2992 199.112L104.074 197.226C97.7206 171.029 100.091 145.496 108.877 125.43C117.661 105.368 132.731 90.9789 151.788 86.3573L149.902 78.5827Z" fill="black" mask="url(#path-1-inside-1_265_604)"/>
</svg>
