<svg width="78" height="79" viewBox="0 0 78 79" fill="none" xmlns="http://www.w3.org/2000/svg">
<mask id="path-1-outside-1_741_1205" maskUnits="userSpaceOnUse" x="0.581299" y="0.653061" width="77" height="78" fill="black">
<rect fill="white" x="0.581299" y="0.653061" width="77" height="78"/>
<path fill-rule="evenodd" clip-rule="evenodd" d="M43.9081 7.49406C45.6691 7.7461 47.3847 8.13906 49.043 8.66116C50.303 8.2583 51.8356 7.21616 53.2304 4.94044L58.9479 7.79918C58.6292 9.32194 58.3531 11.9486 58.8898 13.7491C60.0538 14.6304 61.1566 15.5882 62.191 16.615C63.4865 16.916 65.3588 16.798 67.7464 15.5019L71.2685 20.8364C70.356 21.8561 69.0451 23.632 68.4463 25.2886C69.287 26.9858 69.9841 28.7668 70.5217 30.6157C71.5363 31.3082 73.0565 31.866 75.2556 31.9237L75.6386 38.3046C74.5883 38.6494 73.0661 39.2916 71.8098 40.1242C71.7812 42.483 71.5018 44.7814 70.997 46.9941C71.7055 47.7562 72.7311 48.5166 74.1894 49.1717L72.0818 55.2066C70.964 55.1185 69.2803 55.1253 67.784 55.4211C66.5313 57.6928 65.0152 59.7988 63.2768 61.698C63.4163 62.6617 63.7722 63.7778 64.4559 65.0374L59.1214 68.5595C58.5958 68.0891 57.8691 67.5128 57.0615 66.9828C56.2885 67.4888 55.4927 67.9628 54.6759 68.4029L54.8537 68.7644C53.7233 69.0736 51.5076 70.8461 51.6874 75.4622L45.345 76.26C44.8755 75.0928 43.9818 73.3407 42.8922 72.0787C41.6979 72.2115 40.4841 72.2797 39.2544 72.2797C38.3261 72.2797 37.4069 72.2408 36.4983 72.1647C35.7786 72.9783 35.0989 74.1479 34.6072 75.7996L28.3463 74.51C28.2829 73.3421 28.0356 71.5774 27.4993 70.0929C25.5966 69.356 23.7805 68.4454 22.0704 67.3807C20.9086 68.0305 19.8162 68.8701 19.0984 69.5124L13.764 65.9903C14.7526 64.1691 15.0558 62.6477 15.0104 61.4534C13.6721 59.9614 12.4695 58.3451 11.4221 56.6241C9.73765 56.0863 7.51098 56.0513 6.13805 56.1595L4.03048 50.1246C5.79199 49.3333 6.92226 48.3883 7.62471 47.4723C7.13835 45.4806 6.83521 43.4171 6.73416 41.3006C5.42454 40.3596 3.72374 39.6326 2.5813 39.2575L2.9643 32.8766C5.18773 32.8183 6.7172 32.2487 7.73176 31.5456C8.22491 29.6388 8.8865 27.7999 9.69969 26.0455C9.07225 24.4464 7.82797 22.7689 6.95141 21.7893L10.4735 16.4548C12.4393 17.5219 14.0557 17.7905 15.2886 17.684C15.8968 17.0229 16.5321 16.387 17.1927 15.778L16.9952 15.5844C19.332 14.992 19.3002 10.2335 18.9922 7.92822L24.9041 5.497C25.8862 7.40026 27.0151 8.51797 28.0568 9.14073C29.876 8.47442 31.7712 7.96581 33.7259 7.63145C34.5679 6.1866 35.1239 4.28789 35.3693 3.04839L41.7494 2.65306C42.1117 5.08168 42.9896 6.59505 43.9081 7.49406ZM39.0956 49.7274C44.7092 49.7274 49.26 45.1767 49.26 39.563C49.26 33.9494 44.7092 29.3986 39.0956 29.3986C33.4819 29.3986 28.9312 33.9494 28.9312 39.563C28.9312 45.1767 33.4819 49.7274 39.0956 49.7274Z"/>
</mask>
<path fill-rule="evenodd" clip-rule="evenodd" d="M43.9081 7.49406C45.6691 7.7461 47.3847 8.13906 49.043 8.66116C50.303 8.2583 51.8356 7.21616 53.2304 4.94044L58.9479 7.79918C58.6292 9.32194 58.3531 11.9486 58.8898 13.7491C60.0538 14.6304 61.1566 15.5882 62.191 16.615C63.4865 16.916 65.3588 16.798 67.7464 15.5019L71.2685 20.8364C70.356 21.8561 69.0451 23.632 68.4463 25.2886C69.287 26.9858 69.9841 28.7668 70.5217 30.6157C71.5363 31.3082 73.0565 31.866 75.2556 31.9237L75.6386 38.3046C74.5883 38.6494 73.0661 39.2916 71.8098 40.1242C71.7812 42.483 71.5018 44.7814 70.997 46.9941C71.7055 47.7562 72.7311 48.5166 74.1894 49.1717L72.0818 55.2066C70.964 55.1185 69.2803 55.1253 67.784 55.4211C66.5313 57.6928 65.0152 59.7988 63.2768 61.698C63.4163 62.6617 63.7722 63.7778 64.4559 65.0374L59.1214 68.5595C58.5958 68.0891 57.8691 67.5128 57.0615 66.9828C56.2885 67.4888 55.4927 67.9628 54.6759 68.4029L54.8537 68.7644C53.7233 69.0736 51.5076 70.8461 51.6874 75.4622L45.345 76.26C44.8755 75.0928 43.9818 73.3407 42.8922 72.0787C41.6979 72.2115 40.4841 72.2797 39.2544 72.2797C38.3261 72.2797 37.4069 72.2408 36.4983 72.1647C35.7786 72.9783 35.0989 74.1479 34.6072 75.7996L28.3463 74.51C28.2829 73.3421 28.0356 71.5774 27.4993 70.0929C25.5966 69.356 23.7805 68.4454 22.0704 67.3807C20.9086 68.0305 19.8162 68.8701 19.0984 69.5124L13.764 65.9903C14.7526 64.1691 15.0558 62.6477 15.0104 61.4534C13.6721 59.9614 12.4695 58.3451 11.4221 56.6241C9.73765 56.0863 7.51098 56.0513 6.13805 56.1595L4.03048 50.1246C5.79199 49.3333 6.92226 48.3883 7.62471 47.4723C7.13835 45.4806 6.83521 43.4171 6.73416 41.3006C5.42454 40.3596 3.72374 39.6326 2.5813 39.2575L2.9643 32.8766C5.18773 32.8183 6.7172 32.2487 7.73176 31.5456C8.22491 29.6388 8.8865 27.7999 9.69969 26.0455C9.07225 24.4464 7.82797 22.7689 6.95141 21.7893L10.4735 16.4548C12.4393 17.5219 14.0557 17.7905 15.2886 17.684C15.8968 17.0229 16.5321 16.387 17.1927 15.778L16.9952 15.5844C19.332 14.992 19.3002 10.2335 18.9922 7.92822L24.9041 5.497C25.8862 7.40026 27.0151 8.51797 28.0568 9.14073C29.876 8.47442 31.7712 7.96581 33.7259 7.63145C34.5679 6.1866 35.1239 4.28789 35.3693 3.04839L41.7494 2.65306C42.1117 5.08168 42.9896 6.59505 43.9081 7.49406ZM39.0956 49.7274C44.7092 49.7274 49.26 45.1767 49.26 39.563C49.26 33.9494 44.7092 29.3986 39.0956 29.3986C33.4819 29.3986 28.9312 33.9494 28.9312 39.563C28.9312 45.1767 33.4819 49.7274 39.0956 49.7274Z" fill="#FF5A47"/>
<path d="M49.043 8.66116L48.5581 10.2012L49.0467 10.355L49.5347 10.199L49.043 8.66116ZM43.9081 7.49406L42.7788 8.64786L43.1563 9.01744L43.6794 9.0923L43.9081 7.49406ZM53.2304 4.94044L53.9524 3.49637L52.6278 2.83404L51.8539 4.09675L53.2304 4.94044ZM58.9479 7.79918L60.5282 8.12994L60.7831 6.91172L59.6699 6.3551L58.9479 7.79918ZM58.8898 13.7491L57.3425 14.2103L57.4936 14.717L57.9152 15.0363L58.8898 13.7491ZM62.191 16.615L61.0535 17.7608L61.3789 18.0838L61.8255 18.1876L62.191 16.615ZM67.7464 15.5019L69.0937 14.6123L68.2777 13.3764L66.9761 14.083L67.7464 15.5019ZM71.2685 20.8364L72.4717 21.9129L73.3016 20.9854L72.6158 19.9468L71.2685 20.8364ZM68.4463 25.2886L66.9279 24.7397L66.6937 25.3878L66.9995 26.0053L68.4463 25.2886ZM70.5217 30.6157L68.9713 31.0664L69.1331 31.6227L69.6115 31.9492L70.5217 30.6157ZM75.2556 31.9237L76.8672 31.827L76.7785 30.3486L75.298 30.3097L75.2556 31.9237ZM75.6386 38.3046L76.1423 39.8385L77.3248 39.4502L77.2502 38.2078L75.6386 38.3046ZM71.8098 40.1242L70.9179 38.7784L70.2057 39.2504L70.1954 40.1047L71.8098 40.1242ZM70.997 46.9941L69.4229 46.6349L69.2329 47.4677L69.8145 48.0933L70.997 46.9941ZM74.1894 49.1717L75.7137 49.704L76.202 48.3058L74.851 47.6989L74.1894 49.1717ZM72.0818 55.2066L71.955 56.8161L73.1957 56.9139L73.6061 55.7389L72.0818 55.2066ZM67.784 55.4211L67.4709 53.8373L66.7333 53.9831L66.3702 54.6415L67.784 55.4211ZM63.2768 61.698L62.0859 60.6078L61.5694 61.1721L61.6789 61.9292L63.2768 61.698ZM64.4559 65.0374L65.3455 66.3847L66.5814 65.5687L65.8749 64.2671L64.4559 65.0374ZM59.1214 68.5595L58.0449 69.7627L58.9724 70.5926L60.011 69.9068L59.1214 68.5595ZM57.0615 66.9828L57.9473 65.633L57.0627 65.0524L56.1773 65.632L57.0615 66.9828ZM54.6759 68.4029L53.9101 66.9815L52.5408 67.7193L53.227 69.1151L54.6759 68.4029ZM54.8537 68.7644L55.2797 70.3217L57.1648 69.806L56.3026 68.0521L54.8537 68.7644ZM51.6874 75.4622L51.8889 77.0641L53.3583 76.8793L53.3007 75.3994L51.6874 75.4622ZM45.345 76.26L43.8471 76.8626L44.3116 78.0173L45.5465 77.8619L45.345 76.26ZM42.8922 72.0787L44.1143 71.0236L43.5587 70.3801L42.7138 70.4741L42.8922 72.0787ZM36.4983 72.1647L36.6332 70.5558L35.8258 70.4881L35.289 71.0949L36.4983 72.1647ZM34.6072 75.7996L34.2814 77.381L35.732 77.6798L36.1546 76.2603L34.6072 75.7996ZM28.3463 74.51L26.7341 74.5974L26.8015 75.8402L28.0205 76.0913L28.3463 74.51ZM27.4993 70.0929L29.0177 69.5443L28.7679 68.8529L28.0824 68.5873L27.4993 70.0929ZM22.0704 67.3807L22.9237 66.0101L22.1143 65.5062L21.2822 65.9716L22.0704 67.3807ZM19.0984 69.5124L18.2089 70.8597L19.2475 71.5455L20.175 70.7156L19.0984 69.5124ZM13.764 65.9903L12.345 65.22L11.6385 66.5216L12.8744 67.3376L13.764 65.9903ZM15.0104 61.4534L16.6238 61.3921L16.6016 60.8094L16.2123 60.3754L15.0104 61.4534ZM11.4221 56.6241L12.8013 55.7847L12.4877 55.2695L11.9131 55.086L11.4221 56.6241ZM6.13805 56.1595L4.6138 56.6918L5.02416 57.8669L6.26493 57.769L6.13805 56.1595ZM4.03048 50.1246L3.36891 48.6519L2.01794 49.2587L2.50623 50.6569L4.03048 50.1246ZM7.62471 47.4723L8.90588 48.4548L9.37668 47.8409L9.19315 47.0893L7.62471 47.4723ZM6.73416 41.3006L8.34685 41.2236L8.30965 40.4446L7.67632 39.9895L6.73416 41.3006ZM2.5813 39.2575L0.969673 39.1608L0.895102 40.4031L2.0776 40.7914L2.5813 39.2575ZM2.9643 32.8766L2.92191 31.2627L1.44141 31.3016L1.35267 32.7799L2.9643 32.8766ZM7.73176 31.5456L8.65142 32.8726L9.1446 32.5308L9.29485 31.9498L7.73176 31.5456ZM9.69969 26.0455L11.1645 26.7245L11.4548 26.0983L11.2027 25.4558L9.69969 26.0455ZM6.95141 21.7893L5.60407 20.8997L4.9183 21.9384L5.74822 22.8659L6.95141 21.7893ZM10.4735 16.4548L11.2438 15.0359L9.9422 14.3293L9.12618 15.5652L10.4735 16.4548ZM15.2886 17.684L15.4274 19.2926L16.0522 19.2386L16.4767 18.7772L15.2886 17.684ZM17.1927 15.778L18.287 16.9651L19.5353 15.8143L18.3232 14.6254L17.1927 15.778ZM16.9952 15.5844L16.5985 14.0194L13.8137 14.7253L15.8647 16.737L16.9952 15.5844ZM18.9922 7.92822L18.3781 6.43503L17.227 6.9084L17.3919 8.14205L18.9922 7.92822ZM24.9041 5.497L26.3389 4.75666L25.6598 3.44053L24.29 4.00381L24.9041 5.497ZM28.0568 9.14073L27.2283 10.5265L27.8891 10.9216L28.612 10.6568L28.0568 9.14073ZM33.7259 7.63145L33.9981 9.22287L34.7412 9.09575L35.1208 8.4444L33.7259 7.63145ZM35.3693 3.04839L35.2695 1.43695L34.0272 1.51392L33.7855 2.73485L35.3693 3.04839ZM41.7494 2.65306L43.3463 2.41484L43.1278 0.950034L41.6496 1.04163L41.7494 2.65306ZM49.5278 7.12115C47.7866 6.57294 45.9854 6.16038 44.1369 5.89582L43.6794 9.0923C45.3529 9.33181 46.9828 9.70519 48.5581 10.2012L49.5278 7.12115ZM51.8539 4.09675C50.625 6.1018 49.3814 6.8579 48.5513 7.12332L49.5347 10.199C51.2245 9.6587 53.0463 8.33052 54.607 5.78413L51.8539 4.09675ZM59.6699 6.3551L53.9524 3.49637L52.5084 6.38452L58.2258 9.24326L59.6699 6.3551ZM60.437 13.2879C60.2414 12.6316 60.1726 11.7264 60.2114 10.7328C60.2493 9.75976 60.3854 8.81229 60.5282 8.12994L57.3676 7.46842C57.1917 8.30883 57.0304 9.43606 56.9848 10.6071C56.9399 11.7577 57.0015 13.0661 57.3425 14.2103L60.437 13.2879ZM63.3284 15.4691C62.2431 14.3918 61.0859 13.3868 59.8644 12.4619L57.9152 15.0363C59.0217 15.8741 60.0702 16.7846 61.0535 17.7608L63.3284 15.4691ZM66.9761 14.083C64.873 15.2246 63.4032 15.2391 62.5564 15.0423L61.8255 18.1876C63.5697 18.5929 65.8445 18.3714 68.5166 16.9208L66.9761 14.083ZM72.6158 19.9468L69.0937 14.6123L66.399 16.3915L69.9211 21.7259L72.6158 19.9468ZM69.9646 25.8374C70.4621 24.4612 71.6192 22.8657 72.4717 21.9129L70.0653 19.7598C69.0929 20.8465 67.6281 22.8027 66.9279 24.7397L69.9646 25.8374ZM72.072 30.165C71.5076 28.2236 70.7757 26.3536 69.893 24.5719L66.9995 26.0053C67.7984 27.6179 68.4607 29.31 68.9713 31.0664L72.072 30.165ZM75.298 30.3097C73.3564 30.2588 72.1498 29.7722 71.4318 29.2822L69.6115 31.9492C70.9228 32.8442 72.7567 33.4732 75.2132 33.5377L75.298 30.3097ZM77.2502 38.2078L76.8672 31.827L73.644 32.0204L74.027 38.4013L77.2502 38.2078ZM72.7017 41.47C73.804 40.7395 75.1848 40.1529 76.1423 39.8385L75.1349 36.7706C73.9919 37.1459 72.3283 37.8437 70.9179 38.7784L72.7017 41.47ZM72.5711 47.3532C73.1012 45.0299 73.3943 42.6176 73.4242 40.1438L70.1954 40.1047C70.1682 42.3484 69.9025 44.533 69.4229 46.6349L72.5711 47.3532ZM74.851 47.6989C73.5614 47.1196 72.7214 46.4777 72.1795 45.8948L69.8145 48.0933C70.6896 49.0347 71.9009 49.9136 73.5278 50.6444L74.851 47.6989ZM73.6061 55.7389L75.7137 49.704L72.6652 48.6394L70.5576 54.6743L73.6061 55.7389ZM68.0971 57.005C69.4068 56.7461 70.9347 56.7357 71.955 56.8161L72.2087 53.597C70.9934 53.5012 69.1538 53.5046 67.4709 53.8373L68.0971 57.005ZM64.4678 62.7881C66.2918 60.7953 67.8829 58.5852 69.1978 56.2008L66.3702 54.6415C65.1797 56.8003 63.7386 58.8022 62.0859 60.6078L64.4678 62.7881ZM65.8749 64.2671C65.27 63.1529 64.9834 62.218 64.8747 61.4667L61.6789 61.9292C61.8491 63.1053 62.2743 64.4027 63.037 65.8076L65.8749 64.2671ZM60.011 69.9068L65.3455 66.3847L63.5663 63.69L58.2319 67.2121L60.011 69.9068ZM56.1757 68.3327C56.9118 68.8157 57.575 69.3422 58.0449 69.7627L60.198 67.3563C59.6165 66.836 58.8265 66.21 57.9473 65.633L56.1757 68.3327ZM55.4418 69.8242C56.2992 69.3622 57.1345 68.8647 57.9457 68.3337L56.1773 65.632C55.4426 66.1129 54.6863 66.5633 53.9101 66.9815L55.4418 69.8242ZM56.3026 68.0521L56.1249 67.6906L53.227 69.1151L53.4048 69.4767L56.3026 68.0521ZM53.3007 75.3994C53.1427 71.3439 55.0423 70.3867 55.2797 70.3217L54.4276 67.2071C52.4044 67.7606 49.8725 70.3483 50.0741 75.5251L53.3007 75.3994ZM45.5465 77.8619L51.8889 77.0641L51.4859 73.8603L45.1435 74.6581L45.5465 77.8619ZM41.6702 73.1339C42.6002 74.211 43.4137 75.7849 43.8471 76.8626L46.8429 75.6575C46.3373 74.4006 45.3635 72.4703 44.1143 71.0236L41.6702 73.1339ZM39.2544 73.8942C40.5438 73.8942 41.8172 73.8227 43.0706 73.6834L42.7138 70.4741C41.5787 70.6003 40.4244 70.6652 39.2544 70.6652V73.8942ZM36.3634 73.7735C37.3168 73.8535 38.2811 73.8942 39.2544 73.8942V70.6652C38.3712 70.6652 37.497 70.6282 36.6332 70.5558L36.3634 73.7735ZM36.1546 76.2603C36.5893 74.8 37.1654 73.8474 37.7076 73.2344L35.289 71.0949C34.3918 72.1092 33.6084 73.4959 33.0598 75.339L36.1546 76.2603ZM28.0205 76.0913L34.2814 77.381L34.9329 74.2183L28.672 72.9287L28.0205 76.0913ZM25.9808 70.6415C26.4465 71.9305 26.6761 73.5275 26.7341 74.5974L29.9584 74.4226C29.8898 73.1566 29.6247 71.2243 29.0177 69.5443L25.9808 70.6415ZM21.217 68.7513C23.012 69.8688 24.9185 70.8247 26.9161 71.5984L28.0824 68.5873C26.2748 67.8872 24.5491 67.022 22.9237 66.0101L21.217 68.7513ZM20.175 70.7156C20.8238 70.1351 21.8205 69.3703 22.8585 68.7897L21.2822 65.9716C19.9967 66.6906 18.8087 67.6052 18.0219 68.3092L20.175 70.7156ZM12.8744 67.3376L18.2089 70.8597L19.988 68.1651L14.6536 64.643L12.8744 67.3376ZM13.3971 61.5148C13.4297 62.3749 13.2183 63.6113 12.345 65.22L15.1829 66.7606C16.2869 64.7269 16.6819 62.9205 16.6238 61.3921L13.3971 61.5148ZM10.0429 57.4634C11.1423 59.2698 12.4043 60.9659 13.8085 62.5315L16.2123 60.3754C14.9399 58.9569 13.7968 57.4205 12.8013 55.7847L10.0429 57.4634ZM6.26493 57.769C7.54903 57.6678 9.53522 57.7165 10.9311 58.1621L11.9131 55.086C9.94008 54.4562 7.47294 54.4348 6.01117 54.55L6.26493 57.769ZM2.50623 50.6569L4.6138 56.6918L7.6623 55.6272L5.55473 49.5923L2.50623 50.6569ZM6.34354 46.4898C5.82805 47.162 4.92555 47.9526 3.36891 48.6519L4.69205 51.5974C6.65843 50.7141 8.01647 49.6146 8.90588 48.4548L6.34354 46.4898ZM5.12147 41.3776C5.22749 43.598 5.54558 45.764 6.05627 47.8553L9.19315 47.0893C8.73112 45.1972 8.44294 43.2362 8.34685 41.2236L5.12147 41.3776ZM2.0776 40.7914C3.12703 41.136 4.66159 41.7995 5.792 42.6118L7.67632 39.9895C6.18749 38.9197 4.32045 38.1292 3.085 37.7236L2.0776 40.7914ZM1.35267 32.7799L0.969673 39.1608L4.19292 39.3542L4.57592 32.9734L1.35267 32.7799ZM6.8121 30.2186C6.09664 30.7144 4.88487 31.2111 2.92191 31.2627L3.00668 34.4906C5.49059 34.4254 7.33776 33.783 8.65142 32.8726L6.8121 30.2186ZM8.23487 25.3665C7.38113 27.2084 6.68648 29.1392 6.16867 31.1413L9.29485 31.9498C9.76335 30.1384 10.3919 28.3914 11.1645 26.7245L8.23487 25.3665ZM5.74822 22.8659C6.56216 23.7755 7.66807 25.2879 8.19672 26.6352L11.2027 25.4558C10.4764 23.6049 9.09379 21.7623 8.1546 20.7127L5.74822 22.8659ZM9.12618 15.5652L5.60407 20.8997L8.29875 22.6789L11.8209 17.3444L9.12618 15.5652ZM15.1497 16.0755C14.2819 16.1504 12.9792 15.978 11.2438 15.0359L9.70324 17.8737C11.8994 19.0659 13.8296 19.4305 15.4274 19.2926L15.1497 16.0755ZM16.0984 14.591C15.4053 15.2299 14.7387 15.8972 14.1004 16.5909L16.4767 18.7772C17.055 18.1486 17.659 17.544 18.287 16.9651L16.0984 14.591ZM15.8647 16.737L16.0621 16.9306L18.3232 14.6254L18.1258 14.4318L15.8647 16.737ZM17.3919 8.14205C17.5329 9.1974 17.6044 10.7972 17.3908 12.1462C17.2836 12.8239 17.1198 13.3349 16.9322 13.6657C16.7551 13.9777 16.6309 14.0112 16.5985 14.0194L17.392 17.1494C18.528 16.8614 19.2761 16.0779 19.7407 15.2591C20.1946 14.459 20.4418 13.5253 20.5802 12.651C20.8579 10.8964 20.7595 8.96428 20.5925 7.71439L17.3919 8.14205ZM24.29 4.00381L18.3781 6.43503L19.6062 9.42141L25.5182 6.9902L24.29 4.00381ZM28.8852 7.75497C28.1421 7.31069 27.2062 6.43746 26.3389 4.75666L23.4693 6.23734C24.5662 8.36306 25.8881 9.72524 27.2283 10.5265L28.8852 7.75497ZM33.4537 6.04004C31.4016 6.39106 29.4117 6.92507 27.5015 7.6247L28.612 10.6568C30.3403 10.0238 32.1408 9.54057 33.9981 9.22287L33.4537 6.04004ZM33.7855 2.73485C33.5589 3.87979 33.0488 5.58671 32.331 6.81851L35.1208 8.4444C36.087 6.78648 36.689 4.69599 36.9531 3.36192L33.7855 2.73485ZM41.6496 1.04163L35.2695 1.43695L35.4692 4.65982L41.8493 4.2645L41.6496 1.04163ZM45.0375 6.34026C44.4114 5.7275 43.6658 4.55686 43.3463 2.41484L40.1526 2.89128C40.5576 5.60649 41.5679 7.46261 42.7788 8.64786L45.0375 6.34026ZM47.6454 39.563C47.6454 44.285 43.8175 48.1129 39.0956 48.1129V51.3419C45.6009 51.3419 50.8745 46.0683 50.8745 39.563H47.6454ZM39.0956 31.0131C43.8175 31.0131 47.6454 34.841 47.6454 39.563H50.8745C50.8745 33.0577 45.6009 27.7841 39.0956 27.7841V31.0131ZM30.5457 39.563C30.5457 34.841 34.3736 31.0131 39.0956 31.0131V27.7841C32.5902 27.7841 27.3166 33.0577 27.3166 39.563H30.5457ZM39.0956 48.1129C34.3736 48.1129 30.5457 44.285 30.5457 39.563H27.3166C27.3166 46.0683 32.5902 51.3419 39.0956 51.3419V48.1129Z" fill="black" mask="url(#path-1-outside-1_741_1205)"/>
</svg>
