<svg width="97" height="60" viewBox="0 0 97 60" fill="none" xmlns="http://www.w3.org/2000/svg">
<rect width="96" height="92.3077" transform="translate(0.499878 0.90332)" fill="white"/>
<path fill-rule="evenodd" clip-rule="evenodd" d="M26.5493 29.7268C26.1836 31.1804 26.3267 32.5428 26.4983 33.0967L68.2998 33.9661L70.5342 34.0125C70.9287 32.6141 70.8568 32.4761 70.4871 31.1599C70.1914 30.107 68.0242 29.916 66.9814 29.9796C67.2231 29.1637 67.5559 27.2831 66.9235 26.0687C66.1329 24.5506 64.121 24.9318 64.0399 24.2372C63.9589 23.5426 63.7192 21.6675 61.8988 21.0015C60.4486 20.471 57.8635 20.7542 57.0842 20.9582C57.0217 21.0576 56.9561 21.1051 56.8893 21.0841C56.804 21.0572 56.8852 21.0103 57.0842 20.9582C57.4149 20.4327 57.6591 18.4585 57.5266 17.5243C57.3691 16.4134 55.0455 14.7814 52.7621 15.5846C50.4787 16.3877 49.4035 18.7021 48.4306 18.7877C47.4576 18.8733 46.1376 14.789 42.7583 16.6542C39.3789 18.5193 40.5605 18.4303 39.1861 19.4968C38.0865 20.3501 37.7117 22.9313 37.6617 24.1152C37.3042 23.5411 36.1874 22.4971 34.5796 22.9133C32.5698 23.4336 32.0398 25.043 31.7684 25.465C31.5512 25.8027 31.3405 27.6527 31.2622 28.5355C30.6322 28.314 29.2748 27.8724 28.8852 27.8788C28.3982 27.8868 27.0065 27.9098 26.5493 29.7268ZM41.6599 30.2432C41.4281 29.6903 42.1594 29.5854 42.554 29.6021C42.5525 29.5093 42.7185 29.4463 43.3948 29.9362C44.071 30.4262 43.129 30.7061 42.5735 30.7849C42.3656 30.8347 41.8917 30.7961 41.6599 30.2432ZM49.1701 25.6654L50.4225 25.6447C50.645 25.6411 50.5236 26.1534 50.4351 26.4101C50.1367 26.6006 49.4684 26.8714 49.1827 26.4307C48.8971 25.99 49.0553 25.7369 49.1701 25.6654ZM63.3354 27.9373L64.3095 27.9212C64.8023 28.2611 64.6015 28.7515 64.3278 29.0344C64.0542 29.3173 63.0824 29.4725 62.7926 28.7814C62.5608 28.2284 63.0579 27.9883 63.3354 27.9373Z" fill="#F2E5D2"/>
<path fill-rule="evenodd" clip-rule="evenodd" d="M24.2487 37.3198H27.0321H60.0554L67.6003 37.3893L71.7057 37.3198C72.8935 37.3407 73.4987 37.2327 74.1371 36.7845C74.275 36.6877 74.3499 36.5259 74.3499 36.3573V34.8688C74.3499 34.5675 74.1141 34.321 73.8129 34.3125C68.4657 34.1625 24.967 32.9487 24.2487 33.1447C23.4834 33.3534 22.875 34.0981 22.7874 35.0235C22.6873 36.0817 23.6224 37.3198 24.2487 37.3198Z" fill="#F2E5D2"/>
<path fill-rule="evenodd" clip-rule="evenodd" d="M69.8405 45.727L69.8404 45.7273C69.8389 45.7348 69.8375 45.7423 69.836 45.7498C69.8375 45.7422 69.839 45.7346 69.8405 45.727Z" fill="#F25D58"/>
<path fill-rule="evenodd" clip-rule="evenodd" d="M33.295 37.3198C33.4109 50.7777 34.1021 78.3586 35.9392 79.3491H41.1113C39.6639 72.5644 40.6041 48.5544 41.2276 37.3198H33.295ZM51.5262 79.3491H45.8203C45.0409 78.2914 46.2146 50.7497 46.864 37.3198H54.0313C52.7569 42.4172 51.1426 57.7311 51.5262 79.3491Z" fill="#E5C130"/>
<path fill-rule="evenodd" clip-rule="evenodd" d="M61.6856 79.3491H55.8818C55.8357 77.7356 55.9451 72.628 56.6753 61.1874C57.5022 48.2329 59.0567 39.7365 60.0554 37.3198L67.6003 37.3893C66.8173 39.2739 65.1471 44.9572 63.7728 53.5331C62.3811 62.2173 61.8016 74.3853 61.6856 79.3491Z" fill="#E5C130"/>
<path d="M28.9805 73.2952C28.9805 73.2952 29.1893 77.1919 29.7459 78.0965C30.3026 79.0011 31.1579 79.0794 33.0164 79.3491H35.9392C34.1021 78.3586 33.4109 50.7777 33.295 37.3198H27.0321V50.6105L27.5192 57.569L28.4934 67.798L28.9805 73.2952Z" fill="#F66056"/>
<path d="M45.8203 79.3491C45.0409 78.2914 46.2146 50.7497 46.864 37.3198H41.2276C40.6041 48.5544 39.6639 72.5644 41.1113 79.3491H45.8203Z" fill="#F66056"/>
<path d="M56.6753 61.1874C57.5022 48.2329 59.0567 39.7365 60.0554 37.3198H54.0313C52.7569 42.4172 51.1426 57.7311 51.5262 79.3491H55.8818C55.8357 77.7356 55.9451 72.628 56.6753 61.1874Z" fill="#F66056"/>
<path d="M70.3835 43.0257L71.7057 37.3198L67.6003 37.3893C66.8173 39.2739 65.1471 44.9572 63.7728 53.5331C62.3811 62.2173 61.8016 74.3853 61.6856 79.3491H63.2163C64.2428 78.7483 64.6818 78.2054 65.3038 76.9832L66.5564 68.2155L67.2522 60.074C67.5751 56.496 67.7983 55.2031 68.7135 51.0976C69.2329 48.7677 69.4906 47.4978 69.7355 46.2591C69.769 46.0896 69.8023 45.9207 69.836 45.7498L69.8404 45.7273L69.8405 45.727C69.993 44.9525 70.1544 44.1335 70.3835 43.0257Z" fill="#F66056"/>
<path d="M35.3626 28.1896L35.5627 27.8432L35.3626 28.1896ZM38.0955 29.3276L38.1021 29.7276L38.43 29.7222L38.489 29.3996L38.0955 29.3276ZM45.9083 26.2063L45.5832 26.4394L45.921 26.9106L46.2416 26.4274L45.9083 26.2063ZM52.2859 20.464L52.1193 20.8277L52.2018 20.8655L52.2925 20.864L52.2859 20.464ZM55.3487 24.7284L55.7487 24.7218L55.7481 24.6857L55.741 24.6504L55.3487 24.7284ZM59.2599 25.5687L59.5723 25.3189L59.5173 25.2501L59.4385 25.2108L59.2599 25.5687ZM59.3206 29.2562L58.9351 29.1496L58.8129 29.5921L59.2678 29.6527L59.3206 29.2562ZM42.554 29.6021L42.5371 30.0017L42.961 30.0197L42.954 29.5955L42.554 29.6021ZM42.5735 30.7849L42.5174 30.3888L42.4987 30.3915L42.4803 30.3959L42.5735 30.7849ZM50.4225 25.6447L50.4291 26.0447L50.4225 25.6447ZM49.1701 25.6654L49.1635 25.2654L49.0527 25.2673L48.9587 25.3258L49.1701 25.6654ZM49.1827 26.4307L49.5184 26.2131L49.1827 26.4307ZM50.4351 26.4101L50.6503 26.7472L50.7678 26.6722L50.8132 26.5405L50.4351 26.4101ZM64.3095 27.9212L64.5366 27.5919L64.431 27.5192L64.3029 27.5213L64.3095 27.9212ZM63.3354 27.9373L63.3288 27.5373L63.2957 27.5379L63.2632 27.5439L63.3354 27.9373ZM62.7926 28.7814L63.1615 28.6267L62.7926 28.7814ZM28.5741 30.1109L28.7503 30.47H28.7503L28.5741 30.1109ZM30.6612 30.0765L30.8126 29.7063L30.6612 30.0765ZM37.28 30.5242L37.2734 30.1243L37.28 30.5242ZM42.1888 33.1721L41.8877 33.4354L42.1888 33.1721ZM44.0288 30.413L44.2701 30.732L44.0288 30.413ZM46.7262 29.3942L46.7502 29.7935L46.7262 29.3942ZM49.9519 30.8721L49.6738 31.1595L50.3226 31.7873L50.3517 30.885L49.9519 30.8721ZM50.5926 27.521L50.3243 27.2243L50.3243 27.2243L50.5926 27.521ZM58.3205 31.9172L58.4054 32.3081L58.3205 31.9172ZM60.5595 32.6459L60.3916 33.0089L60.558 33.0859L60.725 33.01L60.5595 32.6459ZM62.4163 31.293L62.0798 31.0766L62.4163 31.293ZM65.9543 30.6083L65.8401 30.9917L65.9543 30.6083ZM26.4983 33.0967L26.1162 33.2151L26.2015 33.4907L26.4899 33.4967L26.4983 33.0967ZM26.5493 29.7268L26.9372 29.8244L26.5493 29.7268ZM28.8852 27.8788L28.8786 27.4788L28.8852 27.8788ZM31.2622 28.5355L31.1295 28.9129L31.6152 29.0837L31.6607 28.5709L31.2622 28.5355ZM31.7684 25.465L31.4319 25.2487V25.2487L31.7684 25.465ZM34.5796 22.9133L34.4793 22.5261L34.5796 22.9133ZM37.6617 24.1152L37.3221 24.3266L38.0067 25.4261L38.0613 24.1321L37.6617 24.1152ZM39.1861 19.4968L39.4313 19.8128L39.1861 19.4968ZM57.5266 17.5243L57.9226 17.4681L57.5266 17.5243ZM56.8893 21.0841L57.0096 20.7026L56.8893 21.0841ZM61.8988 21.0015L61.7613 21.3772L61.8988 21.0015ZM66.9235 26.0687L67.2783 25.8839L66.9235 26.0687ZM66.9814 29.9796L66.5978 29.866L66.4356 30.4137L67.0057 30.3789L66.9814 29.9796ZM70.4871 31.1599L70.102 31.2681L70.4871 31.1599ZM70.5342 34.0125L70.5258 34.4124L70.8351 34.4189L70.9191 34.1211L70.5342 34.0125ZM28.9805 73.2952L29.3802 73.2738L29.3789 73.2599L28.9805 73.2952ZM28.4934 67.798L28.8919 67.7627L28.8916 67.76L28.4934 67.798ZM27.5192 57.569L27.1201 57.5969L27.121 57.6069L27.5192 57.569ZM27.0321 50.6105H26.6321C26.6321 50.6198 26.6325 50.6291 26.6331 50.6384L27.0321 50.6105ZM71.7057 37.3198L71.7127 36.9196L71.6989 36.9198L71.7057 37.3198ZM70.3835 43.0257L69.9938 42.9354L69.9918 42.9447L70.3835 43.0257ZM68.7135 51.0976L68.3231 51.0105L68.7135 51.0976ZM67.2522 60.074L66.8538 60.0381L66.8537 60.04L67.2522 60.074ZM66.5564 68.2155L66.9523 68.272C66.9534 68.2646 66.9543 68.2571 66.9549 68.2495L66.5564 68.2155ZM65.3038 76.9832L65.6603 77.1646C65.6803 77.1254 65.6936 77.0833 65.6998 77.0397L65.3038 76.9832ZM63.2163 79.3491V79.7491C63.2873 79.7491 63.357 79.7302 63.4183 79.6943L63.2163 79.3491ZM33.0164 79.3491L32.959 79.7449C32.978 79.7477 32.9972 79.7491 33.0164 79.7491V79.3491ZM22.7874 35.0235L23.1857 35.0611L22.7874 35.0235ZM24.2487 33.1447L24.1435 32.7588L24.2487 33.1447ZM73.8129 34.3125L73.8242 33.9127L73.8129 34.3125ZM74.1371 36.7845L73.9072 36.4572L73.9072 36.4572L74.1371 36.7845ZM56.6753 61.1874L56.2761 61.1619L56.6753 61.1874ZM63.7728 53.5331L64.1677 53.5963L63.7728 53.5331ZM60.0554 37.3198L60.0591 36.9198H60.0554V37.3198ZM69.8405 45.727L70.2329 45.8043V45.8043L69.8405 45.727ZM69.8404 45.7273L69.4486 45.6468L69.448 45.65L69.8404 45.7273ZM69.7355 46.2591L70.1279 46.3367L69.7355 46.2591ZM69.836 45.7498L69.4435 45.6725L69.4435 45.6725L69.836 45.7498ZM32.0779 31.142C32.3806 30.5339 32.916 29.6802 33.5286 29.0856C33.8354 28.7878 34.1385 28.5777 34.4192 28.4811C34.6857 28.3893 34.9267 28.3997 35.1625 28.5359L35.5627 27.8432C35.0959 27.5735 34.6088 27.5697 34.1588 27.7247C33.7229 27.8747 33.3211 28.1721 32.9714 28.5115C32.2712 29.1912 31.6878 30.1306 31.3617 30.7855L32.0779 31.142ZM35.1625 28.5359C35.5924 28.7843 35.8928 28.9789 36.1238 29.132C36.3463 29.2796 36.5323 29.4081 36.7027 29.4997C37.0985 29.7124 37.4336 29.7386 38.1021 29.7276L38.089 28.9277C37.4356 28.9384 37.2825 28.9031 37.0814 28.795C36.9535 28.7263 36.8138 28.6296 36.5658 28.4652C36.3262 28.3064 36.0112 28.1023 35.5627 27.8432L35.1625 28.5359ZM38.489 29.3996C38.7788 27.8151 39.0594 26.2316 39.4863 25.0541C39.6997 24.4654 39.9372 24.0157 40.2027 23.7247C40.4572 23.4457 40.7215 23.3265 41.0284 23.3451L41.0766 22.5465C40.4779 22.5104 39.9916 22.769 39.6116 23.1855C39.2427 23.59 38.9618 24.1536 38.7342 24.7814C38.2791 26.0368 37.9868 27.6989 37.7021 29.2556L38.489 29.3996ZM41.0284 23.3451C42.6643 23.4438 44.331 24.6929 45.5832 26.4394L46.2333 25.9732C44.9211 24.143 43.0632 22.6664 41.0766 22.5465L41.0284 23.3451ZM46.2416 26.4274C47.3589 24.7434 48.5319 23.1511 49.6146 22.0752C50.1572 21.536 50.657 21.1469 51.0975 20.935C51.5356 20.7242 51.864 20.7107 52.1193 20.8277L52.4525 20.1004C51.9013 19.8478 51.3094 19.9453 50.7507 20.2141C50.1943 20.4818 49.6207 20.9412 49.0506 21.5078C47.9079 22.6434 46.6985 24.2917 45.5749 25.9851L46.2416 26.4274ZM52.2925 20.864C53.2658 20.8479 53.8886 21.5322 54.3093 22.4602C54.7275 23.3828 54.8755 24.3998 54.9564 24.8064L55.741 24.6504C55.6702 24.2939 55.5043 23.1587 55.0379 22.1299C54.5739 21.1064 53.7411 20.04 52.2793 20.0641L52.2925 20.864ZM54.9488 24.735C54.9525 24.9634 54.9978 25.1799 55.1143 25.3629C55.2355 25.5532 55.4086 25.6681 55.594 25.7314C55.7702 25.7917 55.9598 25.8065 56.1367 25.8054C56.3157 25.8043 56.5084 25.7863 56.6987 25.7657C57.494 25.6793 58.3313 25.5522 59.0812 25.9265L59.4385 25.2108C58.4342 24.7094 57.3279 24.8926 56.6123 24.9703C56.4248 24.9907 56.2668 25.0046 56.1318 25.0054C55.9947 25.0063 55.9071 24.993 55.8526 24.9744C55.8073 24.9589 55.7961 24.9442 55.7892 24.9333C55.7776 24.915 55.7509 24.8587 55.7487 24.7218L54.9488 24.735ZM58.9474 25.8184C59.9896 27.1221 59.1991 28.194 58.9351 29.1496L59.7062 29.3627C59.88 28.7337 60.9462 27.0376 59.5723 25.3189L58.9474 25.8184ZM59.2678 29.6527C59.722 29.7131 60.5754 29.8541 61.3862 30.0856C61.792 30.2014 62.176 30.3368 62.4902 30.4907C62.8134 30.649 63.0195 30.8065 63.1183 30.9452L63.77 30.4811C63.5553 30.1796 63.2055 29.9503 62.8421 29.7723C62.4696 29.5898 62.0363 29.4392 61.6058 29.3163C60.7442 29.0703 59.8493 28.923 59.3735 28.8597L59.2678 29.6527ZM42.5709 29.2025C42.348 29.193 41.9924 29.2137 41.7052 29.3455C41.558 29.4131 41.384 29.5306 41.286 29.7336C41.1817 29.9498 41.2011 30.1834 41.291 30.3978L42.0288 30.0885C42.0028 30.0265 42.0266 30.0397 42.0066 30.0812C41.9929 30.1095 41.9829 30.0983 42.0389 30.0726C42.092 30.0482 42.1709 30.027 42.2683 30.0139C42.3633 30.0012 42.4594 29.9985 42.5371 30.0017L42.5709 29.2025ZM41.291 30.3978C41.6175 31.1768 42.3201 31.2569 42.6667 31.1739L42.4803 30.3959C42.4519 30.4027 42.3687 30.4081 42.28 30.371C42.2047 30.3396 42.1046 30.2694 42.0288 30.0885L41.291 30.3978ZM42.6297 31.1809C42.9174 31.1401 43.3647 31.0417 43.6617 30.8516C43.8021 30.7617 44.0238 30.5768 44.0298 30.2723C44.0357 29.9707 43.8253 29.7542 43.6294 29.6123L43.1601 30.2601C43.3024 30.3632 43.2278 30.3654 43.2299 30.2566C43.2321 30.1448 43.3104 30.1267 43.2304 30.1779C43.167 30.2184 43.0603 30.2633 42.9204 30.3036C42.7853 30.3426 42.6409 30.3713 42.5174 30.3888L42.6297 31.1809ZM43.6294 29.6123C43.2841 29.3621 43.0242 29.2183 42.8242 29.1644C42.7305 29.1392 42.5803 29.114 42.4298 29.1796C42.2348 29.2646 42.1515 29.4482 42.1541 29.6087L42.954 29.5955C42.9548 29.6434 42.9449 29.7082 42.9061 29.7736C42.8656 29.842 42.8072 29.8878 42.7496 29.9129C42.6509 29.956 42.5842 29.9283 42.6162 29.9369C42.6679 29.9508 42.8292 30.0204 43.1601 30.2601L43.6294 29.6123ZM41.6189 27.756L40.8536 27.7686L40.8668 28.5685L41.6321 28.5559L41.6189 27.756ZM50.4159 25.2448L49.1635 25.2654L49.1767 26.0653L50.4291 26.0447L50.4159 25.2448ZM48.9587 25.3258C48.8009 25.4241 48.6652 25.6089 48.6303 25.853C48.5948 26.1014 48.6676 26.3713 48.8471 26.6483L49.5184 26.2131C49.4122 26.0494 49.4213 25.9724 49.4222 25.9662C49.4237 25.9557 49.4245 25.9782 49.3815 26.0049L48.9587 25.3258ZM48.8471 26.6483C49.1127 27.0581 49.5504 27.1002 49.8641 27.0526C50.1764 27.0052 50.471 26.8617 50.6503 26.7472L50.2199 26.0729C50.1008 26.1489 49.912 26.2361 49.7441 26.2616C49.5776 26.2869 49.5384 26.244 49.5184 26.2131L48.8471 26.6483ZM50.8132 26.5405C50.8626 26.3974 50.9264 26.17 50.944 25.9637C50.9521 25.868 50.9556 25.7259 50.9072 25.5913C50.8811 25.5187 50.8321 25.4266 50.7395 25.353C50.6412 25.2748 50.5256 25.243 50.4159 25.2448L50.4291 26.0447C50.3749 26.0456 50.3043 26.029 50.2415 25.9791C50.1846 25.9338 50.1619 25.8831 50.1544 25.862C50.143 25.8305 50.1523 25.8319 50.1469 25.8959C50.1372 26.009 50.0961 26.1661 50.0569 26.2797L50.8132 26.5405ZM64.3029 27.5213L63.3288 27.5373L63.342 28.3372L64.3161 28.3212L64.3029 27.5213ZM63.2632 27.5439C63.0759 27.5783 62.7925 27.6771 62.5843 27.8942C62.4744 28.0088 62.3816 28.1612 62.347 28.352C62.3124 28.5426 62.3415 28.7401 62.4237 28.936L63.1615 28.6267C63.1277 28.5462 63.1321 28.5063 63.1341 28.4948C63.1362 28.4834 63.1416 28.4689 63.1617 28.448C63.1841 28.4246 63.2204 28.3986 63.2703 28.3753C63.3195 28.3523 63.3698 28.3377 63.4077 28.3307L63.2632 27.5439ZM62.4237 28.936C62.648 29.4712 63.139 29.6568 63.5506 29.6729C63.7568 29.6809 63.96 29.6493 64.1367 29.5919C64.3068 29.5367 64.4855 29.4468 64.6153 29.3126L64.0403 28.7563C64.0404 28.7563 64.0374 28.7593 64.0301 28.7647C64.023 28.77 64.0128 28.7768 63.9992 28.7844C63.9717 28.7999 63.9349 28.8163 63.8897 28.831C63.7983 28.8607 63.6891 28.8777 63.5818 28.8735C63.3667 28.8651 63.2269 28.7827 63.1615 28.6267L62.4237 28.936ZM64.6153 29.3126C64.789 29.1331 64.9674 28.862 65.0035 28.5444C65.0439 28.1894 64.8979 27.8411 64.5366 27.5919L64.0824 28.2505C64.1573 28.3022 64.1854 28.3449 64.1968 28.3691C64.2078 28.3925 64.2127 28.4187 64.2086 28.454C64.1992 28.5373 64.1404 28.6529 64.0403 28.7563L64.6153 29.3126ZM27.9727 33.1002C27.9551 32.7037 27.9709 32.1068 28.0972 31.5651C28.2286 31.0014 28.451 30.6169 28.7503 30.47L28.3978 29.7519C27.7583 30.0658 27.4617 30.7676 27.3181 31.3835C27.1693 32.0215 27.1541 32.6976 27.1735 33.1356L27.9727 33.1002ZM28.7503 30.47C29.292 30.2041 29.6118 30.1734 29.8253 30.1995C30.0681 30.2291 30.2032 30.3213 30.5097 30.4467L30.8126 29.7063C30.6286 29.631 30.3071 29.4524 29.9223 29.4054C29.5083 29.3548 29.0298 29.4416 28.3978 29.7519L28.7503 30.47ZM30.5097 30.4467C30.5087 30.4463 30.5124 30.4478 30.5213 30.4525C30.5299 30.4571 30.5414 30.4638 30.5561 30.4729C30.5859 30.4913 30.6234 30.5168 30.6688 30.5501C30.7595 30.6167 30.8714 30.707 30.999 30.8174C31.2539 31.0379 31.5586 31.3275 31.8618 31.6425C32.1651 31.9576 32.462 32.2932 32.703 32.6053C32.9499 32.9251 33.1166 33.1929 33.1857 33.3768L33.9346 33.0953C33.8217 32.795 33.5936 32.4498 33.3362 32.1164C33.0728 31.7752 32.7555 31.4174 32.4382 31.0877C32.1207 30.7578 31.7983 30.4511 31.5225 30.2124C31.3848 30.0933 31.2555 29.9884 31.1421 29.9052C31.0364 29.8276 30.9196 29.7501 30.8126 29.7063L30.5097 30.4467ZM34.8132 33.2608C35.211 33.3028 35.211 33.3028 35.211 33.3029C35.211 33.3029 35.211 33.3029 35.211 33.3029C35.211 33.3029 35.211 33.3029 35.211 33.3029C35.211 33.3029 35.211 33.3027 35.2111 33.3025C35.2111 33.3019 35.2112 33.301 35.2114 33.2997C35.2117 33.2971 35.2121 33.293 35.2128 33.2873C35.2141 33.2761 35.2161 33.2589 35.2189 33.2366C35.2246 33.192 35.2333 33.127 35.2455 33.0473C35.2701 32.8872 35.3081 32.6709 35.3622 32.4431C35.4167 32.2135 35.4852 31.9825 35.5679 31.7891C35.6551 31.5854 35.7385 31.4704 35.7985 31.4228L35.3011 30.7962C35.0831 30.9692 34.9355 31.2334 34.8324 31.4745C34.7249 31.7258 34.644 32.0051 34.5839 32.2582C34.5233 32.513 34.4815 32.7518 34.4548 32.9261C34.4414 33.0136 34.4317 33.0856 34.4253 33.1362C34.422 33.1616 34.4197 33.1816 34.418 33.1956C34.4172 33.2026 34.4166 33.2081 34.4162 33.2119C34.416 33.2139 34.4158 33.2154 34.4157 33.2166C34.4156 33.2171 34.4156 33.2176 34.4155 33.218C34.4155 33.2182 34.4155 33.2183 34.4155 33.2184C34.4155 33.2185 34.4155 33.2186 34.4155 33.2186C34.4155 33.2187 34.4155 33.2187 34.8132 33.2608ZM35.7985 31.4228C36.2695 31.0489 36.7294 30.9333 37.2866 30.9241L37.2734 30.1243C36.586 30.1356 35.9421 30.2874 35.3011 30.7962L35.7985 31.4228ZM37.2866 30.9241C37.6729 30.9178 37.8318 30.9171 38.0465 30.9686C38.279 31.0244 38.5805 31.1428 39.22 31.4145L39.5329 30.6782C38.911 30.414 38.5437 30.2651 38.233 30.1906C37.9046 30.1119 37.6459 30.1181 37.2734 30.1243L37.2866 30.9241ZM39.22 31.4145C40.4074 31.919 41.1313 32.5708 41.8877 33.4354L42.4899 32.9087C41.6858 31.9895 40.8684 31.2457 39.5329 30.6782L39.22 31.4145ZM41.8877 33.4354C41.9847 33.5463 42.12 33.6859 42.2896 33.7437C42.3942 33.7793 42.5262 33.7888 42.6584 33.7297C42.7799 33.6754 42.8526 33.5846 42.8934 33.5192C42.968 33.3998 43.0065 33.248 43.0321 33.1386C43.0587 33.0249 43.0914 32.8581 43.1219 32.7198C43.2555 32.1124 43.494 31.319 44.2701 30.732L43.7875 30.0939C42.7765 30.8586 42.4851 31.8908 42.3405 32.548C42.3014 32.7258 42.2804 32.8401 42.2532 32.9563C42.225 33.0768 42.2098 33.1036 42.2148 33.0955C42.221 33.0857 42.255 33.0337 42.3319 32.9993C42.4196 32.9601 42.5012 32.9706 42.5475 32.9864C42.6005 33.0045 42.5879 33.0208 42.4899 32.9087L41.8877 33.4354ZM44.2701 30.732C44.7239 30.3888 45.0061 30.1696 45.212 30.0224C45.4201 29.8736 45.5048 29.8329 45.5608 29.8164C45.6149 29.8005 45.6694 29.7976 45.8696 29.8036C46.0608 29.8093 46.332 29.8186 46.7502 29.7935L46.7023 28.9949C46.3209 29.0178 46.0785 29.0094 45.8933 29.0039C45.7171 28.9987 45.5323 28.991 45.3353 29.0489C45.1403 29.1061 44.9621 29.2176 44.7467 29.3716C44.5292 29.5271 44.2274 29.7612 43.7875 30.0939L44.2701 30.732ZM46.7502 29.7935C47.2824 29.7615 47.8752 29.9615 48.425 30.2593C48.969 30.554 49.4265 30.9203 49.6738 31.1595L50.2301 30.5846C49.9351 30.2992 49.4194 29.8882 48.806 29.5559C48.1983 29.2267 47.4493 28.9501 46.7023 28.9949L46.7502 29.7935ZM50.3517 30.885C50.3667 30.42 50.4162 29.6979 50.5147 29.0485C50.5641 28.723 50.6241 28.4267 50.6945 28.1941C50.7297 28.0779 50.7651 27.9856 50.799 27.9171C50.8157 27.8832 50.8305 27.8584 50.8425 27.841C50.8548 27.8233 50.8615 27.8172 50.861 27.8176L50.3243 27.2243C50.1256 27.404 50.008 27.701 49.9289 27.9623C49.8428 28.2466 49.7759 28.5849 49.7237 28.9286C49.6193 29.6175 49.5678 30.3725 49.5521 30.8592L50.3517 30.885ZM50.861 27.8176C51.0289 27.6657 51.1623 27.4894 51.2701 27.352C51.385 27.2057 51.4817 27.0884 51.6004 26.9895C51.8118 26.8133 52.1516 26.6475 52.9121 26.6983L52.9653 25.9001C52.0537 25.8392 51.4947 26.0362 51.0883 26.3748C50.8981 26.5333 50.756 26.7114 50.6409 26.858C50.5186 27.0138 50.4307 27.1281 50.3243 27.2243L50.861 27.8176ZM52.9121 26.6983C53.5422 26.7404 54.0319 27.2231 54.3868 27.8569C54.5589 28.1644 54.6849 28.4835 54.7679 28.75C54.8546 29.0289 54.8833 29.2142 54.8841 29.2597L55.6839 29.2465C55.6813 29.0833 55.6241 28.809 55.5317 28.5123C55.4355 28.2033 55.2891 27.831 55.0848 27.4661C54.6868 26.7552 54.0073 25.9697 52.9653 25.9001L52.9121 26.6983ZM54.8841 29.2597C54.8875 29.4686 54.9019 30.3515 54.9778 31.1843C55.0154 31.5976 55.0697 32.0176 55.1508 32.3409C55.1905 32.4992 55.2431 32.6617 55.3184 32.793C55.3807 32.9017 55.5403 33.1286 55.835 33.1238L55.8218 32.3239C55.9947 32.321 56.0462 32.4541 56.0125 32.3952C55.9918 32.3591 55.9604 32.2805 55.9268 32.1463C55.8612 31.8849 55.8112 31.5149 55.7745 31.1117C55.7016 30.3115 55.6874 29.4551 55.6839 29.2465L54.8841 29.2597ZM55.835 33.1238C56.0208 33.1207 56.2434 33.0614 56.4468 32.9968C56.6613 32.9287 56.9024 32.8384 57.1399 32.7476C57.6346 32.5584 58.0968 32.3751 58.4054 32.3081L58.2356 31.5263C57.8507 31.6099 57.3104 31.8259 56.8541 32.0004C56.6162 32.0914 56.3947 32.174 56.2047 32.2344C56.0034 32.2982 55.8795 32.3229 55.8218 32.3239L55.835 33.1238ZM58.4054 32.3081C58.4659 32.295 58.5699 32.2949 58.7274 32.3277C58.8803 32.3596 59.0565 32.4166 59.2486 32.4915C59.639 32.6435 60.0349 32.8439 60.3916 33.0089L60.7274 32.2828C60.4062 32.1342 59.96 31.91 59.539 31.746C59.3255 31.6629 59.1037 31.589 58.8907 31.5446C58.6823 31.5011 58.4524 31.4792 58.2356 31.5263L58.4054 32.3081ZM60.725 33.01C61.0124 32.8794 61.4154 32.6561 61.7904 32.399C62.1534 32.1503 62.5435 31.8346 62.7527 31.5093L62.0798 31.0766C61.9633 31.2578 61.6898 31.4981 61.3382 31.7391C60.9988 31.9717 60.6362 32.1716 60.394 32.2817L60.725 33.01ZM62.7527 31.5093C62.7898 31.4516 62.9071 31.3497 63.154 31.2407C63.387 31.1379 63.6866 31.0503 64.0161 30.9887C64.6866 30.8632 65.3983 30.8601 65.8401 30.9917L66.0684 30.2249C65.4558 30.0425 64.602 30.0652 63.869 30.2023C63.4967 30.272 63.1348 30.3748 62.8311 30.5088C62.5412 30.6367 62.2463 30.8178 62.0798 31.0766L62.7527 31.5093ZM65.8401 30.9917C66.4776 31.1815 66.7913 31.347 67.0495 31.7072C67.3363 32.107 67.5757 32.7748 67.9127 34.067L68.6868 33.8651C68.3552 32.5933 68.0863 31.7801 67.6997 31.241C67.2845 30.6621 66.7598 30.4308 66.0684 30.2249L65.8401 30.9917ZM26.8804 32.9784C26.7317 32.4985 26.5884 31.2109 26.9372 29.8244L26.1614 29.6291C25.7788 31.1499 25.9217 32.5872 26.1162 33.2151L26.8804 32.9784ZM26.9372 29.8244C27.139 29.0226 27.529 28.6608 27.8855 28.4819C28.263 28.2924 28.6507 28.2827 28.8918 28.2787L28.8786 27.4788C28.6326 27.4829 28.0811 27.4886 27.5267 27.7669C26.9513 28.0557 26.4169 28.6139 26.1614 29.6291L26.9372 29.8244ZM28.8918 28.2787C28.9351 28.278 29.0499 28.2932 29.2431 28.3374C29.4239 28.3789 29.6412 28.4379 29.8707 28.5054C30.3292 28.6403 30.8192 28.8037 31.1295 28.9129L31.395 28.1582C31.0752 28.0457 30.5716 27.8777 30.0964 27.7379C29.8592 27.6681 29.6247 27.6041 29.4217 27.5576C29.2311 27.514 29.0301 27.4763 28.8786 27.4788L28.8918 28.2787ZM31.6607 28.5709C31.6993 28.1345 31.7708 27.4591 31.859 26.8535C31.9032 26.5502 31.9508 26.2703 31.9994 26.0489C32.0237 25.938 32.0472 25.8471 32.069 25.7781C32.0931 25.7017 32.1074 25.6774 32.1048 25.6814L31.4319 25.2487C31.3751 25.3371 31.3353 25.4445 31.306 25.5374C31.2744 25.6375 31.2452 25.7535 31.218 25.8774C31.1636 26.1254 31.1128 26.4265 31.0674 26.7382C30.9764 27.3627 30.9034 28.0538 30.8638 28.5002L31.6607 28.5709ZM32.1048 25.6814C32.4321 25.1725 32.8637 23.7707 34.6798 23.3005L34.4793 22.5261C32.2759 23.0965 31.6475 24.9135 31.4319 25.2487L32.1048 25.6814ZM34.6798 23.3005C36.0528 22.9451 37.0155 23.8341 37.3221 24.3266L38.0012 23.9038C37.593 23.2482 36.322 22.0491 34.4793 22.5261L34.6798 23.3005ZM38.0613 24.1321C38.0853 23.5631 38.1883 22.6511 38.4171 21.784C38.5313 21.351 38.6743 20.9393 38.8487 20.5911C39.0247 20.2396 39.2213 19.9758 39.4313 19.8128L38.9409 19.1808C38.6011 19.4445 38.3385 19.8233 38.1334 20.2328C37.9267 20.6455 37.7667 21.1131 37.6435 21.58C37.3974 22.5128 37.288 23.4834 37.262 24.0983L38.0613 24.1321ZM39.4313 19.8128C40.1556 19.2508 40.2929 18.9015 40.5224 18.6372C40.7707 18.3511 41.2642 17.9356 42.9515 17.0044L42.565 16.304C40.8729 17.2379 40.2675 17.7104 39.9183 18.1127C39.5501 18.5368 39.591 18.6763 38.9409 19.1808L39.4313 19.8128ZM42.9515 17.0044C43.7282 16.5757 44.3495 16.5068 44.8572 16.6054C45.3739 16.7057 45.8225 16.9892 46.231 17.3525C46.6478 17.7231 46.9799 18.134 47.3142 18.4985C47.4729 18.6716 47.6397 18.8418 47.8092 18.9664C47.9735 19.0872 48.1995 19.2096 48.4656 19.1862L48.3955 18.3892C48.4184 18.3872 48.3903 18.4007 48.283 18.3218C48.1809 18.2467 48.0585 18.1265 47.9038 17.9578C47.6114 17.6389 47.2199 17.1613 46.7626 16.7547C46.2972 16.3408 45.7213 15.9583 45.0097 15.8201C44.289 15.6801 43.478 15.8001 42.565 16.304L42.9515 17.0044ZM48.4656 19.1862C48.8475 19.1526 49.1817 18.9112 49.4616 18.6637C49.7492 18.4095 50.0665 18.0659 50.3906 17.7352C51.0603 17.0518 51.8456 16.331 52.8948 15.9619L52.6294 15.2072C51.3952 15.6414 50.5012 16.4793 49.8192 17.1753C49.4675 17.5342 49.1908 17.8354 48.9318 18.0643C48.6652 18.3 48.5001 18.38 48.3955 18.3892L48.4656 19.1862ZM52.8948 15.9619C53.9123 15.604 54.9502 15.785 55.7616 16.1939C56.1665 16.3979 56.5036 16.6534 56.7438 16.9119C56.9901 17.177 57.1071 17.4148 57.1306 17.5804L57.9226 17.4681C57.8674 17.0783 57.6348 16.6956 57.3298 16.3673C57.0187 16.0325 56.6026 15.7219 56.1215 15.4794C55.1608 14.9953 53.8952 14.762 52.6294 15.2072L52.8948 15.9619ZM57.1306 17.5804C57.1894 17.9955 57.1664 18.6815 57.0823 19.3441C57.0408 19.6711 56.9858 19.9806 56.923 20.2357C56.8573 20.5029 56.792 20.6715 56.7457 20.7452L57.4228 21.1712C57.5417 20.9822 57.631 20.7069 57.6999 20.4269C57.7717 20.1349 57.8316 19.794 57.8759 19.4449C57.9634 18.7555 57.9962 17.9873 57.9226 17.4681L57.1306 17.5804ZM56.7457 20.7452C56.7285 20.7724 56.7325 20.7561 56.7666 20.7334C56.7865 20.7202 56.82 20.7025 56.8664 20.6939C56.9148 20.685 56.9644 20.6884 57.0096 20.7026L56.7691 21.4656C56.9405 21.5196 57.0982 21.4737 57.2101 21.3992C57.3093 21.3331 57.3773 21.2434 57.4228 21.1712L56.7457 20.7452ZM57.0096 20.7026C57.0179 20.7052 57.0543 20.7168 57.0971 20.7473C57.1387 20.7769 57.231 20.8578 57.2518 21.0042C57.2729 21.1526 57.2049 21.2577 57.17 21.3001C57.1352 21.3425 57.101 21.3642 57.0923 21.3697C57.0686 21.3845 57.0826 21.3721 57.1855 21.3452L56.9829 20.5712C56.8869 20.5964 56.7607 20.6335 56.6679 20.6915C56.642 20.7078 56.595 20.7399 56.552 20.7922C56.5089 20.8446 56.4374 20.9592 56.4598 21.1166C56.4818 21.272 56.5802 21.3614 56.633 21.3989C56.6868 21.4373 56.7394 21.4562 56.7691 21.4656L57.0096 20.7026ZM57.1855 21.3452C57.537 21.2531 58.3464 21.1336 59.2529 21.1042C60.1654 21.0746 61.1108 21.1392 61.7613 21.3772L62.0362 20.6259C61.2366 20.3334 60.1644 20.2743 59.227 20.3046C58.2836 20.3352 57.4107 20.4593 56.9829 20.5712L57.1855 21.3452ZM61.7613 21.3772C63.3302 21.9511 63.5592 23.5687 63.6426 24.2835L64.4372 24.1908C64.3586 23.5164 64.1082 21.3838 62.0362 20.6259L61.7613 21.3772ZM63.6426 24.2835C63.6906 24.6946 64.0319 24.8803 64.2639 24.9739C64.4989 25.0687 64.8349 25.1485 65.102 25.2277C65.6928 25.4027 66.2529 25.6469 66.5687 26.2534L67.2783 25.8839C66.8036 24.9724 65.9624 24.6482 65.3293 24.4606C64.9844 24.3584 64.7528 24.3085 64.5631 24.232C64.3704 24.1542 64.4298 24.1271 64.4372 24.1908L63.6426 24.2835ZM66.5687 26.2534C66.8372 26.769 66.9137 27.4595 66.8807 28.1546C66.8481 28.8419 66.711 29.4841 66.5978 29.866L67.3649 30.0933C67.4935 29.6592 67.6437 28.9532 67.6798 28.1926C67.7155 27.4398 67.6422 26.5828 67.2783 25.8839L66.5687 26.2534ZM67.0057 30.3789C67.4968 30.3489 68.2582 30.3798 68.9204 30.5399C69.2517 30.6199 69.5369 30.7274 69.7476 30.8605C69.9573 30.993 70.0636 31.1313 70.102 31.2681L70.8722 31.0518C70.7628 30.6621 70.4873 30.3816 70.1749 30.1842C69.8634 29.9874 69.4863 29.8536 69.1084 29.7623C68.3524 29.5795 67.5088 29.5467 66.957 29.5804L67.0057 30.3789ZM70.102 31.2681C70.2934 31.9496 70.385 32.2566 70.3975 32.5713C70.4096 32.8746 70.3469 33.2031 70.1492 33.9039L70.9191 34.1211C71.1159 33.4236 71.2146 32.9838 71.1969 32.5395C71.1797 32.1066 71.0505 31.6864 70.8722 31.0518L70.102 31.2681ZM52.5557 24.1656L51.512 24.1828L51.5252 24.9827L52.5689 24.9655L52.5557 24.1656ZM26.4899 33.4967L70.5258 34.4124L70.5425 33.6126L26.5066 32.6968L26.4899 33.4967ZM26.4899 33.4967L68.2915 34.366L68.3081 33.5661L26.5066 32.6968L26.4899 33.4967ZM68.2915 34.366L70.5258 34.4124L70.5425 33.6126L68.3081 33.5661L68.2915 34.366ZM30.0866 77.8869C29.9896 77.7292 29.8824 77.3827 29.7838 76.8867C29.6891 76.41 29.6123 75.8506 29.552 75.3121C29.4918 74.7749 29.4487 74.2647 29.4207 73.8885C29.4067 73.7005 29.3965 73.5463 29.3898 73.4393C29.3864 73.3859 29.3839 73.3442 29.3823 73.316C29.3815 73.302 29.3809 73.2913 29.3805 73.2841C29.3803 73.2806 29.3802 73.2779 29.3801 73.2762C29.38 73.2753 29.38 73.2747 29.38 73.2743C29.38 73.2741 29.3799 73.2739 29.3799 73.2739C29.3799 73.2738 29.3799 73.2738 29.3799 73.2738C29.3799 73.2738 29.3799 73.2738 28.9805 73.2952C28.5811 73.3166 28.5811 73.3166 28.5811 73.3167C28.5811 73.3167 28.5811 73.3168 28.5811 73.3169C28.5811 73.317 28.5811 73.3172 28.5811 73.3175C28.5812 73.318 28.5812 73.3188 28.5813 73.3198C28.5814 73.3218 28.5815 73.3248 28.5817 73.3286C28.5822 73.3363 28.5828 73.3476 28.5837 73.3623C28.5854 73.3916 28.5879 73.4346 28.5913 73.4894C28.5982 73.5991 28.6087 73.7564 28.6229 73.9479C28.6514 74.3305 28.6954 74.8511 28.757 75.4011C28.8184 75.9499 28.8982 76.5344 28.9992 77.0426C29.0963 77.5318 29.224 78.0115 29.4053 78.3062L30.0866 77.8869ZM29.3789 73.2599L28.8919 67.7627L28.095 67.8333L28.5821 73.3305L29.3789 73.2599ZM28.8916 67.76L27.9174 57.5311L27.121 57.6069L28.0952 67.8359L28.8916 67.76ZM27.9182 57.541L27.4312 50.5826L26.6331 50.6384L27.1202 57.5969L27.9182 57.541ZM27.4321 50.6105V37.3198H26.6321V50.6105H27.4321ZM71.316 37.2295L69.9939 42.9354L70.7732 43.116L72.0953 37.4101L71.316 37.2295ZM68.3231 51.0105C67.4051 55.1285 67.1786 56.4389 66.8538 60.0381L67.6506 60.11C67.9715 56.5531 68.1915 55.2777 69.1039 51.1846L68.3231 51.0105ZM66.8537 60.04L66.1578 68.1814L66.9549 68.2495L67.6508 60.1081L66.8537 60.04ZM66.1604 68.1589L64.9079 76.9266L65.6998 77.0397L66.9523 68.272L66.1604 68.1589ZM64.9473 76.8018C64.6412 77.4034 64.3934 77.8103 64.1097 78.1369C63.8301 78.4588 63.5014 78.7187 63.0142 79.0038L63.4183 79.6943C63.9576 79.3787 64.3617 79.0668 64.7137 78.6615C65.0617 78.2609 65.3445 77.7852 65.6603 77.1646L64.9473 76.8018ZM33.0739 78.9532C32.1236 78.8153 31.4905 78.7334 31.0158 78.5802C30.5747 78.438 30.3069 78.2448 30.0866 77.8869L29.4053 78.3062C29.7417 78.8529 30.1798 79.1512 30.7702 79.3416C31.3269 79.5212 32.0507 79.6131 32.959 79.7449L33.0739 78.9532ZM27.0321 37.3198C27.0321 36.9198 27.0321 36.9198 27.0321 36.9198C27.0321 36.9198 27.0321 36.9198 27.032 36.9198C27.032 36.9198 27.032 36.9198 27.0319 36.9198C27.0319 36.9198 27.0318 36.9198 27.0317 36.9198C27.0317 36.9198 27.0316 36.9198 27.0315 36.9198C27.0314 36.9198 27.0313 36.9198 27.0312 36.9198C27.0311 36.9198 27.031 36.9198 27.0309 36.9198C27.0308 36.9198 27.0307 36.9198 27.0306 36.9198C27.0304 36.9198 27.0303 36.9198 27.0302 36.9198C27.03 36.9198 27.0299 36.9198 27.0297 36.9198C27.0295 36.9198 27.0294 36.9198 27.0292 36.9198C27.029 36.9198 27.0288 36.9198 27.0286 36.9198C27.0284 36.9198 27.0282 36.9198 27.028 36.9198C27.0278 36.9198 27.0276 36.9198 27.0274 36.9198C27.0271 36.9198 27.0269 36.9198 27.0267 36.9198C27.0264 36.9198 27.0262 36.9198 27.0259 36.9198C27.0257 36.9198 27.0254 36.9198 27.0251 36.9198C27.0249 36.9198 27.0246 36.9198 27.0243 36.9198C27.024 36.9198 27.0237 36.9198 27.0234 36.9198C27.0231 36.9198 27.0228 36.9198 27.0225 36.9198C27.0222 36.9198 27.0218 36.9198 27.0215 36.9198C27.0212 36.9198 27.0208 36.9198 27.0205 36.9198C27.0201 36.9198 27.0198 36.9198 27.0194 36.9198C27.019 36.9198 27.0187 36.9198 27.0183 36.9198C27.0179 36.9198 27.0175 36.9198 27.0171 36.9198C27.0167 36.9198 27.0163 36.9198 27.0159 36.9198C27.0155 36.9198 27.0151 36.9198 27.0147 36.9198C27.0143 36.9198 27.0138 36.9198 27.0134 36.9198C27.0129 36.9198 27.0125 36.9198 27.012 36.9198C27.0116 36.9198 27.0111 36.9198 27.0107 36.9198C27.0102 36.9198 27.0097 36.9198 27.0092 36.9198C27.0087 36.9198 27.0083 36.9198 27.0078 36.9198C27.0073 36.9198 27.0067 36.9198 27.0062 36.9198C27.0057 36.9198 27.0052 36.9198 27.0047 36.9198C27.0041 36.9198 27.0036 36.9198 27.0031 36.9198C27.0025 36.9198 27.002 36.9198 27.0014 36.9198C27.0009 36.9198 27.0003 36.9198 26.9997 36.9198C26.9992 36.9198 26.9986 36.9198 26.998 36.9198C26.9974 36.9198 26.9968 36.9198 26.9962 36.9198C26.9956 36.9198 26.995 36.9198 26.9944 36.9198C26.9938 36.9198 26.9932 36.9198 26.9925 36.9198C26.9919 36.9198 26.9913 36.9198 26.9906 36.9198C26.99 36.9198 26.9893 36.9198 26.9887 36.9198C26.988 36.9198 26.9873 36.9198 26.9867 36.9198C26.986 36.9198 26.9853 36.9198 26.9846 36.9198C26.984 36.9198 26.9833 36.9198 26.9826 36.9198C26.9819 36.9198 26.9812 36.9198 26.9805 36.9198C26.9797 36.9198 26.979 36.9198 26.9783 36.9198C26.9776 36.9198 26.9768 36.9198 26.9761 36.9198C26.9754 36.9198 26.9746 36.9198 26.9739 36.9198C26.9731 36.9198 26.9723 36.9198 26.9716 36.9198C26.9708 36.9198 26.97 36.9198 26.9692 36.9198C26.9685 36.9198 26.9677 36.9198 26.9669 36.9198C26.9661 36.9198 26.9653 36.9198 26.9645 36.9198C26.9637 36.9198 26.9628 36.9198 26.962 36.9198C26.9612 36.9198 26.9604 36.9198 26.9595 36.9198C26.9587 36.9198 26.9579 36.9198 26.957 36.9198C26.9562 36.9198 26.9553 36.9198 26.9544 36.9198C26.9536 36.9198 26.9527 36.9198 26.9518 36.9198C26.951 36.9198 26.9501 36.9198 26.9492 36.9198C26.9483 36.9198 26.9474 36.9198 26.9465 36.9198C26.9456 36.9198 26.9447 36.9198 26.9438 36.9198C26.9429 36.9198 26.942 36.9198 26.941 36.9198C26.9401 36.9198 26.9392 36.9198 26.9382 36.9198C26.9373 36.9198 26.9363 36.9198 26.9354 36.9198C26.9344 36.9198 26.9335 36.9198 26.9325 36.9198C26.9315 36.9198 26.9306 36.9198 26.9296 36.9198C26.9286 36.9198 26.9276 36.9198 26.9266 36.9198C26.9256 36.9198 26.9246 36.9198 26.9236 36.9198C26.9226 36.9198 26.9216 36.9198 26.9206 36.9198C26.9196 36.9198 26.9186 36.9198 26.9175 36.9198C26.9165 36.9198 26.9155 36.9198 26.9144 36.9198C26.9134 36.9198 26.9123 36.9198 26.9113 36.9198C26.9102 36.9198 26.9092 36.9198 26.9081 36.9198C26.907 36.9198 26.9059 36.9198 26.9049 36.9198C26.9038 36.9198 26.9027 36.9198 26.9016 36.9198C26.9005 36.9198 26.8994 36.9198 26.8983 36.9198C26.8972 36.9198 26.8961 36.9198 26.895 36.9198C26.8939 36.9198 26.8927 36.9198 26.8916 36.9198C26.8905 36.9198 26.8893 36.9198 26.8882 36.9198C26.8871 36.9198 26.8859 36.9198 26.8848 36.9198C26.8836 36.9198 26.8825 36.9198 26.8813 36.9198C26.8801 36.9198 26.879 36.9198 26.8778 36.9198C26.8766 36.9198 26.8754 36.9198 26.8742 36.9198C26.873 36.9198 26.8719 36.9198 26.8706 36.9198C26.8694 36.9198 26.8682 36.9198 26.867 36.9198C26.8658 36.9198 26.8646 36.9198 26.8634 36.9198C26.8622 36.9198 26.8609 36.9198 26.8597 36.9198C26.8585 36.9198 26.8572 36.9198 26.856 36.9198C26.8547 36.9198 26.8535 36.9198 26.8522 36.9198C26.8509 36.9198 26.8497 36.9198 26.8484 36.9198C26.8471 36.9198 26.8459 36.9198 26.8446 36.9198C26.8433 36.9198 26.842 36.9198 26.8407 36.9198C26.8394 36.9198 26.8381 36.9198 26.8368 36.9198C26.8355 36.9198 26.8342 36.9198 26.8329 36.9198C26.8316 36.9198 26.8303 36.9198 26.8289 36.9198C26.8276 36.9198 26.8263 36.9198 26.8249 36.9198C26.8236 36.9198 26.8223 36.9198 26.8209 36.9198C26.8196 36.9198 26.8182 36.9198 26.8168 36.9198C26.8155 36.9198 26.8141 36.9198 26.8127 36.9198C26.8114 36.9198 26.81 36.9198 26.8086 36.9198C26.8072 36.9198 26.8059 36.9198 26.8045 36.9198C26.8031 36.9198 26.8017 36.9198 26.8003 36.9198C26.7989 36.9198 26.7975 36.9198 26.796 36.9198C26.7946 36.9198 26.7932 36.9198 26.7918 36.9198C26.7904 36.9198 26.7889 36.9198 26.7875 36.9198C26.7861 36.9198 26.7846 36.9198 26.7832 36.9198C26.7817 36.9198 26.7803 36.9198 26.7788 36.9198C26.7774 36.9198 26.7759 36.9198 26.7744 36.9198C26.773 36.9198 26.7715 36.9198 26.77 36.9198C26.7685 36.9198 26.767 36.9198 26.7656 36.9198C26.7641 36.9198 26.7626 36.9198 26.7611 36.9198C26.7596 36.9198 26.7581 36.9198 26.7566 36.9198C26.7551 36.9198 26.7535 36.9198 26.752 36.9198C26.7505 36.9198 26.749 36.9198 26.7475 36.9198C26.7459 36.9198 26.7444 36.9198 26.7428 36.9198C26.7413 36.9198 26.7398 36.9198 26.7382 36.9198C26.7367 36.9198 26.7351 36.9198 26.7336 36.9198C26.732 36.9198 26.7304 36.9198 26.7289 36.9198C26.7273 36.9198 26.7257 36.9198 26.7241 36.9198C26.7226 36.9198 26.721 36.9198 26.7194 36.9198C26.7178 36.9198 26.7162 36.9198 26.7146 36.9198C26.713 36.9198 26.7114 36.9198 26.7098 36.9198C26.7082 36.9198 26.7066 36.9198 26.705 36.9198C26.7033 36.9198 26.7017 36.9198 26.7001 36.9198C26.6985 36.9198 26.6968 36.9198 26.6952 36.9198C26.6935 36.9198 26.6919 36.9198 26.6903 36.9198C26.6886 36.9198 26.687 36.9198 26.6853 36.9198C26.6836 36.9198 26.682 36.9198 26.6803 36.9198C26.6787 36.9198 26.677 36.9198 26.6753 36.9198C26.6736 36.9198 26.672 36.9198 26.6703 36.9198C26.6686 36.9198 26.6669 36.9198 26.6652 36.9198C26.6635 36.9198 26.6618 36.9198 26.6601 36.9198C26.6584 36.9198 26.6567 36.9198 26.655 36.9198C26.6533 36.9198 26.6516 36.9198 26.6498 36.9198C26.6481 36.9198 26.6464 36.9198 26.6447 36.9198C26.6429 36.9198 26.6412 36.9198 26.6395 36.9198C26.6377 36.9198 26.636 36.9198 26.6342 36.9198C26.6325 36.9198 26.6307 36.9198 26.629 36.9198C26.6272 36.9198 26.6255 36.9198 26.6237 36.9198C26.6219 36.9198 26.6202 36.9198 26.6184 36.9198C26.6166 36.9198 26.6148 36.9198 26.613 36.9198C26.6113 36.9198 26.6095 36.9198 26.6077 36.9198C26.6059 36.9198 26.6041 36.9198 26.6023 36.9198C26.6005 36.9198 26.5987 36.9198 26.5969 36.9198C26.5951 36.9198 26.5933 36.9198 26.5914 36.9198C26.5896 36.9198 26.5878 36.9198 26.586 36.9198C26.5842 36.9198 26.5823 36.9198 26.5805 36.9198C26.5787 36.9198 26.5768 36.9198 26.575 36.9198C26.5731 36.9198 26.5713 36.9198 26.5694 36.9198C26.5676 36.9198 26.5657 36.9198 26.5639 36.9198C26.562 36.9198 26.5602 36.9198 26.5583 36.9198C26.5564 36.9198 26.5545 36.9198 26.5527 36.9198C26.5508 36.9198 26.5489 36.9198 26.547 36.9198C26.5452 36.9198 26.5433 36.9198 26.5414 36.9198C26.5395 36.9198 26.5376 36.9198 26.5357 36.9198C26.5338 36.9198 26.5319 36.9198 26.53 36.9198C26.5281 36.9198 26.5262 36.9198 26.5243 36.9198C26.5223 36.9198 26.5204 36.9198 26.5185 36.9198C26.5166 36.9198 26.5146 36.9198 26.5127 36.9198C26.5108 36.9198 26.5089 36.9198 26.5069 36.9198C26.505 36.9198 26.503 36.9198 26.5011 36.9198C26.4992 36.9198 26.4972 36.9198 26.4952 36.9198C26.4933 36.9198 26.4913 36.9198 26.4894 36.9198C26.4874 36.9198 26.4855 36.9198 26.4835 36.9198C26.4815 36.9198 26.4796 36.9198 26.4776 36.9198C26.4756 36.9198 26.4736 36.9198 26.4716 36.9198C26.4697 36.9198 26.4677 36.9198 26.4657 36.9198C26.4637 36.9198 26.4617 36.9198 26.4597 36.9198C26.4577 36.9198 26.4557 36.9198 26.4537 36.9198C26.4517 36.9198 26.4497 36.9198 26.4477 36.9198C26.4457 36.9198 26.4437 36.9198 26.4416 36.9198C26.4396 36.9198 26.4376 36.9198 26.4356 36.9198C26.4336 36.9198 26.4315 36.9198 26.4295 36.9198C26.4275 36.9198 26.4254 36.9198 26.4234 36.9198C26.4213 36.9198 26.4193 36.9198 26.4173 36.9198C26.4152 36.9198 26.4132 36.9198 26.4111 36.9198C26.4091 36.9198 26.407 36.9198 26.4049 36.9198C26.4029 36.9198 26.4008 36.9198 26.3988 36.9198C26.3967 36.9198 26.3946 36.9198 26.3926 36.9198C26.3905 36.9198 26.3884 36.9198 26.3863 36.9198C26.3843 36.9198 26.3822 36.9198 26.3801 36.9198C26.378 36.9198 26.3759 36.9198 26.3738 36.9198C26.3717 36.9198 26.3696 36.9198 26.3675 36.9198C26.3654 36.9198 26.3633 36.9198 26.3612 36.9198C26.3591 36.9198 26.357 36.9198 26.3549 36.9198C26.3528 36.9198 26.3507 36.9198 26.3486 36.9198C26.3465 36.9198 26.3443 36.9198 26.3422 36.9198C26.3401 36.9198 26.338 36.9198 26.3358 36.9198C26.3337 36.9198 26.3316 36.9198 26.3294 36.9198C26.3273 36.9198 26.3252 36.9198 26.323 36.9198C26.3209 36.9198 26.3187 36.9198 26.3166 36.9198C26.3144 36.9198 26.3123 36.9198 26.3101 36.9198C26.308 36.9198 26.3058 36.9198 26.3037 36.9198C26.3015 36.9198 26.2994 36.9198 26.2972 36.9198C26.295 36.9198 26.2929 36.9198 26.2907 36.9198C26.2885 36.9198 26.2863 36.9198 26.2842 36.9198C26.282 36.9198 26.2798 36.9198 26.2776 36.9198C26.2755 36.9198 26.2733 36.9198 26.2711 36.9198C26.2689 36.9198 26.2667 36.9198 26.2645 36.9198C26.2623 36.9198 26.2601 36.9198 26.2579 36.9198C26.2557 36.9198 26.2535 36.9198 26.2513 36.9198C26.2491 36.9198 26.2469 36.9198 26.2447 36.9198C26.2425 36.9198 26.2403 36.9198 26.2381 36.9198C26.2359 36.9198 26.2336 36.9198 26.2314 36.9198C26.2292 36.9198 26.227 36.9198 26.2248 36.9198C26.2225 36.9198 26.2203 36.9198 26.2181 36.9198C26.2159 36.9198 26.2136 36.9198 26.2114 36.9198C26.2092 36.9198 26.2069 36.9198 26.2047 36.9198C26.2024 36.9198 26.2002 36.9198 26.198 36.9198C26.1957 36.9198 26.1935 36.9198 26.1912 36.9198C26.189 36.9198 26.1867 36.9198 26.1845 36.9198C26.1822 36.9198 26.1799 36.9198 26.1777 36.9198C26.1754 36.9198 26.1732 36.9198 26.1709 36.9198C26.1686 36.9198 26.1664 36.9198 26.1641 36.9198C26.1618 36.9198 26.1596 36.9198 26.1573 36.9198C26.155 36.9198 26.1527 36.9198 26.1505 36.9198C26.1482 36.9198 26.1459 36.9198 26.1436 36.9198C26.1413 36.9198 26.1391 36.9198 26.1368 36.9198C26.1345 36.9198 26.1322 36.9198 26.1299 36.9198C26.1276 36.9198 26.1253 36.9198 26.123 36.9198C26.1207 36.9198 26.1184 36.9198 26.1161 36.9198C26.1138 36.9198 26.1115 36.9198 26.1092 36.9198C26.1069 36.9198 26.1046 36.9198 26.1023 36.9198C26.1 36.9198 26.0977 36.9198 26.0954 36.9198C26.0931 36.9198 26.0908 36.9198 26.0884 36.9198C26.0861 36.9198 26.0838 36.9198 26.0815 36.9198C26.0792 36.9198 26.0769 36.9198 26.0745 36.9198C26.0722 36.9198 26.0699 36.9198 26.0676 36.9198C26.0652 36.9198 26.0629 36.9198 26.0606 36.9198C26.0582 36.9198 26.0559 36.9198 26.0536 36.9198C26.0512 36.9198 26.0489 36.9198 26.0466 36.9198C26.0442 36.9198 26.0419 36.9198 26.0395 36.9198C26.0372 36.9198 26.0348 36.9198 26.0325 36.9198C26.0301 36.9198 26.0278 36.9198 26.0254 36.9198C26.0231 36.9198 26.0207 36.9198 26.0184 36.9198C26.016 36.9198 26.0137 36.9198 26.0113 36.9198C26.009 36.9198 26.0066 36.9198 26.0043 36.9198C26.0019 36.9198 25.9995 36.9198 25.9972 36.9198C25.9948 36.9198 25.9924 36.9198 25.9901 36.9198C25.9877 36.9198 25.9853 36.9198 25.983 36.9198C25.9806 36.9198 25.9782 36.9198 25.9758 36.9198C25.9735 36.9198 25.9711 36.9198 25.9687 36.9198C25.9663 36.9198 25.964 36.9198 25.9616 36.9198C25.9592 36.9198 25.9568 36.9198 25.9544 36.9198C25.9521 36.9198 25.9497 36.9198 25.9473 36.9198C25.9449 36.9198 25.9425 36.9198 25.9401 36.9198C25.9377 36.9198 25.9354 36.9198 25.933 36.9198C25.9306 36.9198 25.9282 36.9198 25.9258 36.9198C25.9234 36.9198 25.921 36.9198 25.9186 36.9198C25.9162 36.9198 25.9138 36.9198 25.9114 36.9198C25.909 36.9198 25.9066 36.9198 25.9042 36.9198C25.9018 36.9198 25.8994 36.9198 25.897 36.9198C25.8946 36.9198 25.8922 36.9198 25.8898 36.9198C25.8874 36.9198 25.8849 36.9198 25.8825 36.9198C25.8801 36.9198 25.8777 36.9198 25.8753 36.9198C25.8729 36.9198 25.8705 36.9198 25.8681 36.9198C25.8657 36.9198 25.8632 36.9198 25.8608 36.9198C25.8584 36.9198 25.856 36.9198 25.8536 36.9198C25.8511 36.9198 25.8487 36.9198 25.8463 36.9198C25.8439 36.9198 25.8415 36.9198 25.839 36.9198C25.8366 36.9198 25.8342 36.9198 25.8318 36.9198C25.8293 36.9198 25.8269 36.9198 25.8245 36.9198C25.8221 36.9198 25.8196 36.9198 25.8172 36.9198C25.8148 36.9198 25.8123 36.9198 25.8099 36.9198C25.8075 36.9198 25.805 36.9198 25.8026 36.9198C25.8002 36.9198 25.7977 36.9198 25.7953 36.9198C25.7929 36.9198 25.7904 36.9198 25.788 36.9198C25.7856 36.9198 25.7831 36.9198 25.7807 36.9198C25.7782 36.9198 25.7758 36.9198 25.7734 36.9198C25.7709 36.9198 25.7685 36.9198 25.766 36.9198C25.7636 36.9198 25.7612 36.9198 25.7587 36.9198C25.7563 36.9198 25.7538 36.9198 25.7514 36.9198C25.7489 36.9198 25.7465 36.9198 25.744 36.9198C25.7416 36.9198 25.7391 36.9198 25.7367 36.9198C25.7342 36.9198 25.7318 36.9198 25.7294 36.9198C25.7269 36.9198 25.7245 36.9198 25.722 36.9198C25.7196 36.9198 25.7171 36.9198 25.7146 36.9198C25.7122 36.9198 25.7097 36.9198 25.7073 36.9198C25.7048 36.9198 25.7024 36.9198 25.6999 36.9198C25.6975 36.9198 25.695 36.9198 25.6926 36.9198C25.6901 36.9198 25.6877 36.9198 25.6852 36.9198C25.6827 36.9198 25.6803 36.9198 25.6778 36.9198C25.6754 36.9198 25.6729 36.9198 25.6705 36.9198C25.668 36.9198 25.6655 36.9198 25.6631 36.9198C25.6606 36.9198 25.6582 36.9198 25.6557 36.9198C25.6533 36.9198 25.6508 36.9198 25.6483 36.9198C25.6459 36.9198 25.6434 36.9198 25.641 36.9198C25.6385 36.9198 25.636 36.9198 25.6336 36.9198C25.6311 36.9198 25.6286 36.9198 25.6262 36.9198C25.6237 36.9198 25.6213 36.9198 25.6188 36.9198C25.6163 36.9198 25.6139 36.9198 25.6114 36.9198C25.6089 36.9198 25.6065 36.9198 25.604 36.9198C25.6016 36.9198 25.5991 36.9198 25.5966 36.9198C25.5942 36.9198 25.5917 36.9198 25.5892 36.9198C25.5868 36.9198 25.5843 36.9198 25.5819 36.9198C25.5794 36.9198 25.5769 36.9198 25.5745 36.9198C25.572 36.9198 25.5695 36.9198 25.5671 36.9198C25.5646 36.9198 25.5621 36.9198 25.5597 36.9198C25.5572 36.9198 25.5547 36.9198 25.5523 36.9198C25.5498 36.9198 25.5474 36.9198 25.5449 36.9198C25.5424 36.9198 25.54 36.9198 25.5375 36.9198C25.535 36.9198 25.5326 36.9198 25.5301 36.9198C25.5276 36.9198 25.5252 36.9198 25.5227 36.9198C25.5202 36.9198 25.5178 36.9198 25.5153 36.9198C25.5129 36.9198 25.5104 36.9198 25.5079 36.9198C25.5055 36.9198 25.503 36.9198 25.5005 36.9198C25.4981 36.9198 25.4956 36.9198 25.4932 36.9198C25.4907 36.9198 25.4882 36.9198 25.4858 36.9198C25.4833 36.9198 25.4808 36.9198 25.4784 36.9198C25.4759 36.9198 25.4735 36.9198 25.471 36.9198C25.4685 36.9198 25.4661 36.9198 25.4636 36.9198C25.4612 36.9198 25.4587 36.9198 25.4562 36.9198C25.4538 36.9198 25.4513 36.9198 25.4489 36.9198C25.4464 36.9198 25.4439 36.9198 25.4415 36.9198C25.439 36.9198 25.4366 36.9198 25.4341 36.9198C25.4317 36.9198 25.4292 36.9198 25.4267 36.9198C25.4243 36.9198 25.4218 36.9198 25.4194 36.9198C25.4169 36.9198 25.4145 36.9198 25.412 36.9198C25.4096 36.9198 25.4071 36.9198 25.4047 36.9198C25.4022 36.9198 25.3998 36.9198 25.3973 36.9198C25.3949 36.9198 25.3924 36.9198 25.39 36.9198C25.3875 36.9198 25.3851 36.9198 25.3826 36.9198C25.3802 36.9198 25.3777 36.9198 25.3753 36.9198C25.3728 36.9198 25.3704 36.9198 25.3679 36.9198C25.3655 36.9198 25.363 36.9198 25.3606 36.9198C25.3581 36.9198 25.3557 36.9198 25.3532 36.9198C25.3508 36.9198 25.3484 36.9198 25.3459 36.9198C25.3435 36.9198 25.341 36.9198 25.3386 36.9198C25.3362 36.9198 25.3337 36.9198 25.3313 36.9198C25.3288 36.9198 25.3264 36.9198 25.324 36.9198C25.3215 36.9198 25.3191 36.9198 25.3167 36.9198C25.3142 36.9198 25.3118 36.9198 25.3094 36.9198C25.3069 36.9198 25.3045 36.9198 25.3021 36.9198C25.2996 36.9198 25.2972 36.9198 25.2948 36.9198C25.2923 36.9198 25.2899 36.9198 25.2875 36.9198C25.285 36.9198 25.2826 36.9198 25.2802 36.9198C25.2778 36.9198 25.2753 36.9198 25.2729 36.9198C25.2705 36.9198 25.2681 36.9198 25.2657 36.9198C25.2632 36.9198 25.2608 36.9198 25.2584 36.9198C25.256 36.9198 25.2536 36.9198 25.2511 36.9198C25.2487 36.9198 25.2463 36.9198 25.2439 36.9198C25.2415 36.9198 25.2391 36.9198 25.2367 36.9198C25.2342 36.9198 25.2318 36.9198 25.2294 36.9198C25.227 36.9198 25.2246 36.9198 25.2222 36.9198C25.2198 36.9198 25.2174 36.9198 25.215 36.9198C25.2126 36.9198 25.2102 36.9198 25.2078 36.9198C25.2054 36.9198 25.203 36.9198 25.2006 36.9198C25.1982 36.9198 25.1958 36.9198 25.1934 36.9198C25.191 36.9198 25.1886 36.9198 25.1862 36.9198C25.1838 36.9198 25.1814 36.9198 25.179 36.9198C25.1766 36.9198 25.1742 36.9198 25.1718 36.9198C25.1694 36.9198 25.1671 36.9198 25.1647 36.9198C25.1623 36.9198 25.1599 36.9198 25.1575 36.9198C25.1551 36.9198 25.1528 36.9198 25.1504 36.9198C25.148 36.9198 25.1456 36.9198 25.1432 36.9198C25.1409 36.9198 25.1385 36.9198 25.1361 36.9198C25.1337 36.9198 25.1314 36.9198 25.129 36.9198C25.1266 36.9198 25.1243 36.9198 25.1219 36.9198C25.1195 36.9198 25.1172 36.9198 25.1148 36.9198C25.1124 36.9198 25.1101 36.9198 25.1077 36.9198C25.1054 36.9198 25.103 36.9198 25.1006 36.9198C25.0983 36.9198 25.0959 36.9198 25.0936 36.9198C25.0912 36.9198 25.0889 36.9198 25.0865 36.9198C25.0842 36.9198 25.0818 36.9198 25.0795 36.9198C25.0771 36.9198 25.0748 36.9198 25.0724 36.9198C25.0701 36.9198 25.0678 36.9198 25.0654 36.9198C25.0631 36.9198 25.0607 36.9198 25.0584 36.9198C25.0561 36.9198 25.0537 36.9198 25.0514 36.9198C25.0491 36.9198 25.0467 36.9198 25.0444 36.9198C25.0421 36.9198 25.0398 36.9198 25.0374 36.9198C25.0351 36.9198 25.0328 36.9198 25.0305 36.9198C25.0282 36.9198 25.0258 36.9198 25.0235 36.9198C25.0212 36.9198 25.0189 36.9198 25.0166 36.9198C25.0143 36.9198 25.012 36.9198 25.0097 36.9198C25.0073 36.9198 25.005 36.9198 25.0027 36.9198C25.0004 36.9198 24.9981 36.9198 24.9958 36.9198C24.9935 36.9198 24.9912 36.9198 24.9889 36.9198C24.9866 36.9198 24.9844 36.9198 24.9821 36.9198C24.9798 36.9198 24.9775 36.9198 24.9752 36.9198C24.9729 36.9198 24.9706 36.9198 24.9683 36.9198C24.9661 36.9198 24.9638 36.9198 24.9615 36.9198C24.9592 36.9198 24.957 36.9198 24.9547 36.9198C24.9524 36.9198 24.9501 36.9198 24.9479 36.9198C24.9456 36.9198 24.9433 36.9198 24.9411 36.9198C24.9388 36.9198 24.9366 36.9198 24.9343 36.9198C24.932 36.9198 24.9298 36.9198 24.9275 36.9198C24.9253 36.9198 24.923 36.9198 24.9208 36.9198C24.9185 36.9198 24.9163 36.9198 24.914 36.9198C24.9118 36.9198 24.9095 36.9198 24.9073 36.9198C24.9051 36.9198 24.9028 36.9198 24.9006 36.9198C24.8984 36.9198 24.8961 36.9198 24.8939 36.9198C24.8917 36.9198 24.8894 36.9198 24.8872 36.9198C24.885 36.9198 24.8828 36.9198 24.8806 36.9198C24.8783 36.9198 24.8761 36.9198 24.8739 36.9198C24.8717 36.9198 24.8695 36.9198 24.8673 36.9198C24.8651 36.9198 24.8629 36.9198 24.8607 36.9198C24.8585 36.9198 24.8563 36.9198 24.8541 36.9198C24.8519 36.9198 24.8497 36.9198 24.8475 36.9198C24.8453 36.9198 24.8431 36.9198 24.8409 36.9198C24.8387 36.9198 24.8365 36.9198 24.8344 36.9198C24.8322 36.9198 24.83 36.9198 24.8278 36.9198C24.8256 36.9198 24.8235 36.9198 24.8213 36.9198C24.8191 36.9198 24.817 36.9198 24.8148 36.9198C24.8126 36.9198 24.8105 36.9198 24.8083 36.9198C24.8062 36.9198 24.804 36.9198 24.8018 36.9198C24.7997 36.9198 24.7975 36.9198 24.7954 36.9198C24.7933 36.9198 24.7911 36.9198 24.789 36.9198C24.7868 36.9198 24.7847 36.9198 24.7826 36.9198C24.7804 36.9198 24.7783 36.9198 24.7762 36.9198C24.774 36.9198 24.7719 36.9198 24.7698 36.9198C24.7677 36.9198 24.7655 36.9198 24.7634 36.9198C24.7613 36.9198 24.7592 36.9198 24.7571 36.9198C24.755 36.9198 24.7529 36.9198 24.7508 36.9198C24.7487 36.9198 24.7466 36.9198 24.7445 36.9198C24.7424 36.9198 24.7403 36.9198 24.7382 36.9198C24.7361 36.9198 24.734 36.9198 24.7319 36.9198C24.7298 36.9198 24.7277 36.9198 24.7257 36.9198C24.7236 36.9198 24.7215 36.9198 24.7194 36.9198C24.7174 36.9198 24.7153 36.9198 24.7132 36.9198C24.7112 36.9198 24.7091 36.9198 24.7071 36.9198C24.705 36.9198 24.7029 36.9198 24.7009 36.9198C24.6988 36.9198 24.6968 36.9198 24.6947 36.9198C24.6927 36.9198 24.6907 36.9198 24.6886 36.9198C24.6866 36.9198 24.6845 36.9198 24.6825 36.9198C24.6805 36.9198 24.6785 36.9198 24.6764 36.9198C24.6744 36.9198 24.6724 36.9198 24.6704 36.9198C24.6684 36.9198 24.6663 36.9198 24.6643 36.9198C24.6623 36.9198 24.6603 36.9198 24.6583 36.9198C24.6563 36.9198 24.6543 36.9198 24.6523 36.9198C24.6503 36.9198 24.6483 36.9198 24.6463 36.9198C24.6443 36.9198 24.6424 36.9198 24.6404 36.9198C24.6384 36.9198 24.6364 36.9198 24.6344 36.9198C24.6325 36.9198 24.6305 36.9198 24.6285 36.9198C24.6266 36.9198 24.6246 36.9198 24.6226 36.9198C24.6207 36.9198 24.6187 36.9198 24.6168 36.9198C24.6148 36.9198 24.6129 36.9198 24.6109 36.9198C24.609 36.9198 24.607 36.9198 24.6051 36.9198C24.6032 36.9198 24.6012 36.9198 24.5993 36.9198C24.5974 36.9198 24.5954 36.9198 24.5935 36.9198C24.5916 36.9198 24.5897 36.9198 24.5878 36.9198C24.5859 36.9198 24.5839 36.9198 24.582 36.9198C24.5801 36.9198 24.5782 36.9198 24.5763 36.9198C24.5744 36.9198 24.5725 36.9198 24.5707 36.9198C24.5688 36.9198 24.5669 36.9198 24.565 36.9198C24.5631 36.9198 24.5612 36.9198 24.5594 36.9198C24.5575 36.9198 24.5556 36.9198 24.5537 36.9198C24.5519 36.9198 24.55 36.9198 24.5482 36.9198C24.5463 36.9198 24.5444 36.9198 24.5426 36.9198C24.5407 36.9198 24.5389 36.9198 24.5371 36.9198C24.5352 36.9198 24.5334 36.9198 24.5315 36.9198C24.5297 36.9198 24.5279 36.9198 24.5261 36.9198C24.5242 36.9198 24.5224 36.9198 24.5206 36.9198C24.5188 36.9198 24.517 36.9198 24.5152 36.9198C24.5133 36.9198 24.5115 36.9198 24.5097 36.9198C24.5079 36.9198 24.5061 36.9198 24.5044 36.9198C24.5026 36.9198 24.5008 36.9198 24.499 36.9198C24.4972 36.9198 24.4954 36.9198 24.4937 36.9198C24.4919 36.9198 24.4901 36.9198 24.4884 36.9198C24.4866 36.9198 24.4848 36.9198 24.4831 36.9198C24.4813 36.9198 24.4796 36.9198 24.4778 36.9198C24.4761 36.9198 24.4743 36.9198 24.4726 36.9198C24.4708 36.9198 24.4691 36.9198 24.4674 36.9198C24.4657 36.9198 24.4639 36.9198 24.4622 36.9198C24.4605 36.9198 24.4588 36.9198 24.4571 36.9198C24.4554 36.9198 24.4536 36.9198 24.4519 36.9198C24.4502 36.9198 24.4485 36.9198 24.4468 36.9198C24.4452 36.9198 24.4435 36.9198 24.4418 36.9198C24.4401 36.9198 24.4384 36.9198 24.4367 36.9198C24.4351 36.9198 24.4334 36.9198 24.4317 36.9198C24.4301 36.9198 24.4284 36.9198 24.4268 36.9198C24.4251 36.9198 24.4234 36.9198 24.4218 36.9198C24.4202 36.9198 24.4185 36.9198 24.4169 36.9198C24.4152 36.9198 24.4136 36.9198 24.412 36.9198C24.4104 36.9198 24.4087 36.9198 24.4071 36.9198C24.4055 36.9198 24.4039 36.9198 24.4023 36.9198C24.4007 36.9198 24.3991 36.9198 24.3975 36.9198C24.3959 36.9198 24.3943 36.9198 24.3927 36.9198C24.3911 36.9198 24.3895 36.9198 24.3879 36.9198C24.3864 36.9198 24.3848 36.9198 24.3832 36.9198C24.3816 36.9198 24.3801 36.9198 24.3785 36.9198C24.377 36.9198 24.3754 36.9198 24.3739 36.9198C24.3723 36.9198 24.3708 36.9198 24.3692 36.9198C24.3677 36.9198 24.3661 36.9198 24.3646 36.9198C24.3631 36.9198 24.3616 36.9198 24.36 36.9198C24.3585 36.9198 24.357 36.9198 24.3555 36.9198C24.354 36.9198 24.3525 36.9198 24.351 36.9198C24.3495 36.9198 24.348 36.9198 24.3465 36.9198C24.345 36.9198 24.3436 36.9198 24.3421 36.9198C24.3406 36.9198 24.3391 36.9198 24.3377 36.9198C24.3362 36.9198 24.3347 36.9198 24.3333 36.9198C24.3318 36.9198 24.3304 36.9198 24.3289 36.9198C24.3275 36.9198 24.326 36.9198 24.3246 36.9198C24.3232 36.9198 24.3217 36.9198 24.3203 36.9198C24.3189 36.9198 24.3175 36.9198 24.316 36.9198C24.3146 36.9198 24.3132 36.9198 24.3118 36.9198C24.3104 36.9198 24.309 36.9198 24.3076 36.9198C24.3062 36.9198 24.3049 36.9198 24.3035 36.9198C24.3021 36.9198 24.3007 36.9198 24.2993 36.9198C24.298 36.9198 24.2966 36.9198 24.2952 36.9198C24.2939 36.9198 24.2925 36.9198 24.2912 36.9198C24.2898 36.9198 24.2885 36.9198 24.2872 36.9198C24.2858 36.9198 24.2845 36.9198 24.2832 36.9198C24.2818 36.9198 24.2805 36.9198 24.2792 36.9198C24.2779 36.9198 24.2766 36.9198 24.2753 36.9198C24.274 36.9198 24.2727 36.9198 24.2714 36.9198C24.2701 36.9198 24.2688 36.9198 24.2675 36.9198C24.2662 36.9198 24.265 36.9198 24.2637 36.9198C24.2624 36.9198 24.2612 36.9198 24.2599 36.9198C24.2586 36.9198 24.2574 36.9198 24.2561 36.9198C24.2549 36.9198 24.2537 36.9198 24.2524 36.9198C24.2512 36.9198 24.25 36.9198 24.2487 36.9198V37.7198C24.25 37.7198 24.2512 37.7198 24.2524 37.7198C24.2537 37.7198 24.2549 37.7198 24.2561 37.7198C24.2574 37.7198 24.2586 37.7198 24.2599 37.7198C24.2612 37.7198 24.2624 37.7198 24.2637 37.7198C24.265 37.7198 24.2662 37.7198 24.2675 37.7198C24.2688 37.7198 24.2701 37.7198 24.2714 37.7198C24.2727 37.7198 24.274 37.7198 24.2753 37.7198C24.2766 37.7198 24.2779 37.7198 24.2792 37.7198C24.2805 37.7198 24.2818 37.7198 24.2832 37.7198C24.2845 37.7198 24.2858 37.7198 24.2872 37.7198C24.2885 37.7198 24.2898 37.7198 24.2912 37.7198C24.2925 37.7198 24.2939 37.7198 24.2952 37.7198C24.2966 37.7198 24.298 37.7198 24.2993 37.7198C24.3007 37.7198 24.3021 37.7198 24.3035 37.7198C24.3049 37.7198 24.3062 37.7198 24.3076 37.7198C24.309 37.7198 24.3104 37.7198 24.3118 37.7198C24.3132 37.7198 24.3146 37.7198 24.316 37.7198C24.3175 37.7198 24.3189 37.7198 24.3203 37.7198C24.3217 37.7198 24.3232 37.7198 24.3246 37.7198C24.326 37.7198 24.3275 37.7198 24.3289 37.7198C24.3304 37.7198 24.3318 37.7198 24.3333 37.7198C24.3347 37.7198 24.3362 37.7198 24.3377 37.7198C24.3391 37.7198 24.3406 37.7198 24.3421 37.7198C24.3436 37.7198 24.345 37.7198 24.3465 37.7198C24.348 37.7198 24.3495 37.7198 24.351 37.7198C24.3525 37.7198 24.354 37.7198 24.3555 37.7198C24.357 37.7198 24.3585 37.7198 24.36 37.7198C24.3616 37.7198 24.3631 37.7198 24.3646 37.7198C24.3661 37.7198 24.3677 37.7198 24.3692 37.7198C24.3708 37.7198 24.3723 37.7198 24.3739 37.7198C24.3754 37.7198 24.377 37.7198 24.3785 37.7198C24.3801 37.7198 24.3816 37.7198 24.3832 37.7198C24.3848 37.7198 24.3864 37.7198 24.3879 37.7198C24.3895 37.7198 24.3911 37.7198 24.3927 37.7198C24.3943 37.7198 24.3959 37.7198 24.3975 37.7198C24.3991 37.7198 24.4007 37.7198 24.4023 37.7198C24.4039 37.7198 24.4055 37.7198 24.4071 37.7198C24.4087 37.7198 24.4104 37.7198 24.412 37.7198C24.4136 37.7198 24.4152 37.7198 24.4169 37.7198C24.4185 37.7198 24.4202 37.7198 24.4218 37.7198C24.4234 37.7198 24.4251 37.7198 24.4268 37.7198C24.4284 37.7198 24.4301 37.7198 24.4317 37.7198C24.4334 37.7198 24.4351 37.7198 24.4367 37.7198C24.4384 37.7198 24.4401 37.7198 24.4418 37.7198C24.4435 37.7198 24.4452 37.7198 24.4468 37.7198C24.4485 37.7198 24.4502 37.7198 24.4519 37.7198C24.4536 37.7198 24.4554 37.7198 24.4571 37.7198C24.4588 37.7198 24.4605 37.7198 24.4622 37.7198C24.4639 37.7198 24.4657 37.7198 24.4674 37.7198C24.4691 37.7198 24.4708 37.7198 24.4726 37.7198C24.4743 37.7198 24.4761 37.7198 24.4778 37.7198C24.4796 37.7198 24.4813 37.7198 24.4831 37.7198C24.4848 37.7198 24.4866 37.7198 24.4884 37.7198C24.4901 37.7198 24.4919 37.7198 24.4937 37.7198C24.4954 37.7198 24.4972 37.7198 24.499 37.7198C24.5008 37.7198 24.5026 37.7198 24.5044 37.7198C24.5061 37.7198 24.5079 37.7198 24.5097 37.7198C24.5115 37.7198 24.5133 37.7198 24.5152 37.7198C24.517 37.7198 24.5188 37.7198 24.5206 37.7198C24.5224 37.7198 24.5242 37.7198 24.5261 37.7198C24.5279 37.7198 24.5297 37.7198 24.5315 37.7198C24.5334 37.7198 24.5352 37.7198 24.5371 37.7198C24.5389 37.7198 24.5407 37.7198 24.5426 37.7198C24.5444 37.7198 24.5463 37.7198 24.5482 37.7198C24.55 37.7198 24.5519 37.7198 24.5537 37.7198C24.5556 37.7198 24.5575 37.7198 24.5594 37.7198C24.5612 37.7198 24.5631 37.7198 24.565 37.7198C24.5669 37.7198 24.5688 37.7198 24.5707 37.7198C24.5725 37.7198 24.5744 37.7198 24.5763 37.7198C24.5782 37.7198 24.5801 37.7198 24.582 37.7198C24.5839 37.7198 24.5859 37.7198 24.5878 37.7198C24.5897 37.7198 24.5916 37.7198 24.5935 37.7198C24.5954 37.7198 24.5974 37.7198 24.5993 37.7198C24.6012 37.7198 24.6032 37.7198 24.6051 37.7198C24.607 37.7198 24.609 37.7198 24.6109 37.7198C24.6129 37.7198 24.6148 37.7198 24.6168 37.7198C24.6187 37.7198 24.6207 37.7198 24.6226 37.7198C24.6246 37.7198 24.6266 37.7198 24.6285 37.7198C24.6305 37.7198 24.6325 37.7198 24.6344 37.7198C24.6364 37.7198 24.6384 37.7198 24.6404 37.7198C24.6424 37.7198 24.6443 37.7198 24.6463 37.7198C24.6483 37.7198 24.6503 37.7198 24.6523 37.7198C24.6543 37.7198 24.6563 37.7198 24.6583 37.7198C24.6603 37.7198 24.6623 37.7198 24.6643 37.7198C24.6663 37.7198 24.6684 37.7198 24.6704 37.7198C24.6724 37.7198 24.6744 37.7198 24.6764 37.7198C24.6785 37.7198 24.6805 37.7198 24.6825 37.7198C24.6845 37.7198 24.6866 37.7198 24.6886 37.7198C24.6907 37.7198 24.6927 37.7198 24.6947 37.7198C24.6968 37.7198 24.6988 37.7198 24.7009 37.7198C24.7029 37.7198 24.705 37.7198 24.7071 37.7198C24.7091 37.7198 24.7112 37.7198 24.7132 37.7198C24.7153 37.7198 24.7174 37.7198 24.7194 37.7198C24.7215 37.7198 24.7236 37.7198 24.7257 37.7198C24.7277 37.7198 24.7298 37.7198 24.7319 37.7198C24.734 37.7198 24.7361 37.7198 24.7382 37.7198C24.7403 37.7198 24.7424 37.7198 24.7445 37.7198C24.7466 37.7198 24.7487 37.7198 24.7508 37.7198C24.7529 37.7198 24.755 37.7198 24.7571 37.7198C24.7592 37.7198 24.7613 37.7198 24.7634 37.7198C24.7655 37.7198 24.7677 37.7198 24.7698 37.7198C24.7719 37.7198 24.774 37.7198 24.7762 37.7198C24.7783 37.7198 24.7804 37.7198 24.7826 37.7198C24.7847 37.7198 24.7868 37.7198 24.789 37.7198C24.7911 37.7198 24.7933 37.7198 24.7954 37.7198C24.7975 37.7198 24.7997 37.7198 24.8018 37.7198C24.804 37.7198 24.8062 37.7198 24.8083 37.7198C24.8105 37.7198 24.8126 37.7198 24.8148 37.7198C24.817 37.7198 24.8191 37.7198 24.8213 37.7198C24.8235 37.7198 24.8256 37.7198 24.8278 37.7198C24.83 37.7198 24.8322 37.7198 24.8344 37.7198C24.8365 37.7198 24.8387 37.7198 24.8409 37.7198C24.8431 37.7198 24.8453 37.7198 24.8475 37.7198C24.8497 37.7198 24.8519 37.7198 24.8541 37.7198C24.8563 37.7198 24.8585 37.7198 24.8607 37.7198C24.8629 37.7198 24.8651 37.7198 24.8673 37.7198C24.8695 37.7198 24.8717 37.7198 24.8739 37.7198C24.8761 37.7198 24.8783 37.7198 24.8806 37.7198C24.8828 37.7198 24.885 37.7198 24.8872 37.7198C24.8894 37.7198 24.8917 37.7198 24.8939 37.7198C24.8961 37.7198 24.8984 37.7198 24.9006 37.7198C24.9028 37.7198 24.9051 37.7198 24.9073 37.7198C24.9095 37.7198 24.9118 37.7198 24.914 37.7198C24.9163 37.7198 24.9185 37.7198 24.9208 37.7198C24.923 37.7198 24.9253 37.7198 24.9275 37.7198C24.9298 37.7198 24.932 37.7198 24.9343 37.7198C24.9366 37.7198 24.9388 37.7198 24.9411 37.7198C24.9433 37.7198 24.9456 37.7198 24.9479 37.7198C24.9501 37.7198 24.9524 37.7198 24.9547 37.7198C24.957 37.7198 24.9592 37.7198 24.9615 37.7198C24.9638 37.7198 24.9661 37.7198 24.9683 37.7198C24.9706 37.7198 24.9729 37.7198 24.9752 37.7198C24.9775 37.7198 24.9798 37.7198 24.9821 37.7198C24.9844 37.7198 24.9866 37.7198 24.9889 37.7198C24.9912 37.7198 24.9935 37.7198 24.9958 37.7198C24.9981 37.7198 25.0004 37.7198 25.0027 37.7198C25.005 37.7198 25.0073 37.7198 25.0097 37.7198C25.012 37.7198 25.0143 37.7198 25.0166 37.7198C25.0189 37.7198 25.0212 37.7198 25.0235 37.7198C25.0258 37.7198 25.0282 37.7198 25.0305 37.7198C25.0328 37.7198 25.0351 37.7198 25.0374 37.7198C25.0398 37.7198 25.0421 37.7198 25.0444 37.7198C25.0467 37.7198 25.0491 37.7198 25.0514 37.7198C25.0537 37.7198 25.0561 37.7198 25.0584 37.7198C25.0607 37.7198 25.0631 37.7198 25.0654 37.7198C25.0678 37.7198 25.0701 37.7198 25.0724 37.7198C25.0748 37.7198 25.0771 37.7198 25.0795 37.7198C25.0818 37.7198 25.0842 37.7198 25.0865 37.7198C25.0889 37.7198 25.0912 37.7198 25.0936 37.7198C25.0959 37.7198 25.0983 37.7198 25.1006 37.7198C25.103 37.7198 25.1054 37.7198 25.1077 37.7198C25.1101 37.7198 25.1124 37.7198 25.1148 37.7198C25.1172 37.7198 25.1195 37.7198 25.1219 37.7198C25.1243 37.7198 25.1266 37.7198 25.129 37.7198C25.1314 37.7198 25.1337 37.7198 25.1361 37.7198C25.1385 37.7198 25.1409 37.7198 25.1432 37.7198C25.1456 37.7198 25.148 37.7198 25.1504 37.7198C25.1528 37.7198 25.1551 37.7198 25.1575 37.7198C25.1599 37.7198 25.1623 37.7198 25.1647 37.7198C25.1671 37.7198 25.1694 37.7198 25.1718 37.7198C25.1742 37.7198 25.1766 37.7198 25.179 37.7198C25.1814 37.7198 25.1838 37.7198 25.1862 37.7198C25.1886 37.7198 25.191 37.7198 25.1934 37.7198C25.1958 37.7198 25.1982 37.7198 25.2006 37.7198C25.203 37.7198 25.2054 37.7198 25.2078 37.7198C25.2102 37.7198 25.2126 37.7198 25.215 37.7198C25.2174 37.7198 25.2198 37.7198 25.2222 37.7198C25.2246 37.7198 25.227 37.7198 25.2294 37.7198C25.2318 37.7198 25.2342 37.7198 25.2367 37.7198C25.2391 37.7198 25.2415 37.7198 25.2439 37.7198C25.2463 37.7198 25.2487 37.7198 25.2511 37.7198C25.2536 37.7198 25.256 37.7198 25.2584 37.7198C25.2608 37.7198 25.2632 37.7198 25.2657 37.7198C25.2681 37.7198 25.2705 37.7198 25.2729 37.7198C25.2753 37.7198 25.2778 37.7198 25.2802 37.7198C25.2826 37.7198 25.285 37.7198 25.2875 37.7198C25.2899 37.7198 25.2923 37.7198 25.2948 37.7198C25.2972 37.7198 25.2996 37.7198 25.3021 37.7198C25.3045 37.7198 25.3069 37.7198 25.3094 37.7198C25.3118 37.7198 25.3142 37.7198 25.3167 37.7198C25.3191 37.7198 25.3215 37.7198 25.324 37.7198C25.3264 37.7198 25.3288 37.7198 25.3313 37.7198C25.3337 37.7198 25.3362 37.7198 25.3386 37.7198C25.341 37.7198 25.3435 37.7198 25.3459 37.7198C25.3484 37.7198 25.3508 37.7198 25.3532 37.7198C25.3557 37.7198 25.3581 37.7198 25.3606 37.7198C25.363 37.7198 25.3655 37.7198 25.3679 37.7198C25.3704 37.7198 25.3728 37.7198 25.3753 37.7198C25.3777 37.7198 25.3802 37.7198 25.3826 37.7198C25.3851 37.7198 25.3875 37.7198 25.39 37.7198C25.3924 37.7198 25.3949 37.7198 25.3973 37.7198C25.3998 37.7198 25.4022 37.7198 25.4047 37.7198C25.4071 37.7198 25.4096 37.7198 25.412 37.7198C25.4145 37.7198 25.4169 37.7198 25.4194 37.7198C25.4218 37.7198 25.4243 37.7198 25.4267 37.7198C25.4292 37.7198 25.4317 37.7198 25.4341 37.7198C25.4366 37.7198 25.439 37.7198 25.4415 37.7198C25.4439 37.7198 25.4464 37.7198 25.4489 37.7198C25.4513 37.7198 25.4538 37.7198 25.4562 37.7198C25.4587 37.7198 25.4612 37.7198 25.4636 37.7198C25.4661 37.7198 25.4685 37.7198 25.471 37.7198C25.4735 37.7198 25.4759 37.7198 25.4784 37.7198C25.4808 37.7198 25.4833 37.7198 25.4858 37.7198C25.4882 37.7198 25.4907 37.7198 25.4932 37.7198C25.4956 37.7198 25.4981 37.7198 25.5005 37.7198C25.503 37.7198 25.5055 37.7198 25.5079 37.7198C25.5104 37.7198 25.5129 37.7198 25.5153 37.7198C25.5178 37.7198 25.5202 37.7198 25.5227 37.7198C25.5252 37.7198 25.5276 37.7198 25.5301 37.7198C25.5326 37.7198 25.535 37.7198 25.5375 37.7198C25.54 37.7198 25.5424 37.7198 25.5449 37.7198C25.5474 37.7198 25.5498 37.7198 25.5523 37.7198C25.5547 37.7198 25.5572 37.7198 25.5597 37.7198C25.5621 37.7198 25.5646 37.7198 25.5671 37.7198C25.5695 37.7198 25.572 37.7198 25.5745 37.7198C25.5769 37.7198 25.5794 37.7198 25.5819 37.7198C25.5843 37.7198 25.5868 37.7198 25.5892 37.7198C25.5917 37.7198 25.5942 37.7198 25.5966 37.7198C25.5991 37.7198 25.6016 37.7198 25.604 37.7198C25.6065 37.7198 25.6089 37.7198 25.6114 37.7198C25.6139 37.7198 25.6163 37.7198 25.6188 37.7198C25.6213 37.7198 25.6237 37.7198 25.6262 37.7198C25.6286 37.7198 25.6311 37.7198 25.6336 37.7198C25.636 37.7198 25.6385 37.7198 25.641 37.7198C25.6434 37.7198 25.6459 37.7198 25.6483 37.7198C25.6508 37.7198 25.6533 37.7198 25.6557 37.7198C25.6582 37.7198 25.6606 37.7198 25.6631 37.7198C25.6655 37.7198 25.668 37.7198 25.6705 37.7198C25.6729 37.7198 25.6754 37.7198 25.6778 37.7198C25.6803 37.7198 25.6827 37.7198 25.6852 37.7198C25.6877 37.7198 25.6901 37.7198 25.6926 37.7198C25.695 37.7198 25.6975 37.7198 25.6999 37.7198C25.7024 37.7198 25.7048 37.7198 25.7073 37.7198C25.7097 37.7198 25.7122 37.7198 25.7146 37.7198C25.7171 37.7198 25.7196 37.7198 25.722 37.7198C25.7245 37.7198 25.7269 37.7198 25.7294 37.7198C25.7318 37.7198 25.7342 37.7198 25.7367 37.7198C25.7391 37.7198 25.7416 37.7198 25.744 37.7198C25.7465 37.7198 25.7489 37.7198 25.7514 37.7198C25.7538 37.7198 25.7563 37.7198 25.7587 37.7198C25.7612 37.7198 25.7636 37.7198 25.766 37.7198C25.7685 37.7198 25.7709 37.7198 25.7734 37.7198C25.7758 37.7198 25.7782 37.7198 25.7807 37.7198C25.7831 37.7198 25.7856 37.7198 25.788 37.7198C25.7904 37.7198 25.7929 37.7198 25.7953 37.7198C25.7977 37.7198 25.8002 37.7198 25.8026 37.7198C25.805 37.7198 25.8075 37.7198 25.8099 37.7198C25.8123 37.7198 25.8148 37.7198 25.8172 37.7198C25.8196 37.7198 25.8221 37.7198 25.8245 37.7198C25.8269 37.7198 25.8293 37.7198 25.8318 37.7198C25.8342 37.7198 25.8366 37.7198 25.839 37.7198C25.8415 37.7198 25.8439 37.7198 25.8463 37.7198C25.8487 37.7198 25.8511 37.7198 25.8536 37.7198C25.856 37.7198 25.8584 37.7198 25.8608 37.7198C25.8632 37.7198 25.8657 37.7198 25.8681 37.7198C25.8705 37.7198 25.8729 37.7198 25.8753 37.7198C25.8777 37.7198 25.8801 37.7198 25.8825 37.7198C25.8849 37.7198 25.8874 37.7198 25.8898 37.7198C25.8922 37.7198 25.8946 37.7198 25.897 37.7198C25.8994 37.7198 25.9018 37.7198 25.9042 37.7198C25.9066 37.7198 25.909 37.7198 25.9114 37.7198C25.9138 37.7198 25.9162 37.7198 25.9186 37.7198C25.921 37.7198 25.9234 37.7198 25.9258 37.7198C25.9282 37.7198 25.9306 37.7198 25.933 37.7198C25.9354 37.7198 25.9377 37.7198 25.9401 37.7198C25.9425 37.7198 25.9449 37.7198 25.9473 37.7198C25.9497 37.7198 25.9521 37.7198 25.9544 37.7198C25.9568 37.7198 25.9592 37.7198 25.9616 37.7198C25.964 37.7198 25.9663 37.7198 25.9687 37.7198C25.9711 37.7198 25.9735 37.7198 25.9758 37.7198C25.9782 37.7198 25.9806 37.7198 25.983 37.7198C25.9853 37.7198 25.9877 37.7198 25.9901 37.7198C25.9924 37.7198 25.9948 37.7198 25.9972 37.7198C25.9995 37.7198 26.0019 37.7198 26.0043 37.7198C26.0066 37.7198 26.009 37.7198 26.0113 37.7198C26.0137 37.7198 26.016 37.7198 26.0184 37.7198C26.0207 37.7198 26.0231 37.7198 26.0254 37.7198C26.0278 37.7198 26.0301 37.7198 26.0325 37.7198C26.0348 37.7198 26.0372 37.7198 26.0395 37.7198C26.0419 37.7198 26.0442 37.7198 26.0466 37.7198C26.0489 37.7198 26.0512 37.7198 26.0536 37.7198C26.0559 37.7198 26.0582 37.7198 26.0606 37.7198C26.0629 37.7198 26.0652 37.7198 26.0676 37.7198C26.0699 37.7198 26.0722 37.7198 26.0745 37.7198C26.0769 37.7198 26.0792 37.7198 26.0815 37.7198C26.0838 37.7198 26.0861 37.7198 26.0884 37.7198C26.0908 37.7198 26.0931 37.7198 26.0954 37.7198C26.0977 37.7198 26.1 37.7198 26.1023 37.7198C26.1046 37.7198 26.1069 37.7198 26.1092 37.7198C26.1115 37.7198 26.1138 37.7198 26.1161 37.7198C26.1184 37.7198 26.1207 37.7198 26.123 37.7198C26.1253 37.7198 26.1276 37.7198 26.1299 37.7198C26.1322 37.7198 26.1345 37.7198 26.1368 37.7198C26.1391 37.7198 26.1413 37.7198 26.1436 37.7198C26.1459 37.7198 26.1482 37.7198 26.1505 37.7198C26.1527 37.7198 26.155 37.7198 26.1573 37.7198C26.1596 37.7198 26.1618 37.7198 26.1641 37.7198C26.1664 37.7198 26.1686 37.7198 26.1709 37.7198C26.1732 37.7198 26.1754 37.7198 26.1777 37.7198C26.1799 37.7198 26.1822 37.7198 26.1845 37.7198C26.1867 37.7198 26.189 37.7198 26.1912 37.7198C26.1935 37.7198 26.1957 37.7198 26.198 37.7198C26.2002 37.7198 26.2024 37.7198 26.2047 37.7198C26.2069 37.7198 26.2092 37.7198 26.2114 37.7198C26.2136 37.7198 26.2159 37.7198 26.2181 37.7198C26.2203 37.7198 26.2225 37.7198 26.2248 37.7198C26.227 37.7198 26.2292 37.7198 26.2314 37.7198C26.2336 37.7198 26.2359 37.7198 26.2381 37.7198C26.2403 37.7198 26.2425 37.7198 26.2447 37.7198C26.2469 37.7198 26.2491 37.7198 26.2513 37.7198C26.2535 37.7198 26.2557 37.7198 26.2579 37.7198C26.2601 37.7198 26.2623 37.7198 26.2645 37.7198C26.2667 37.7198 26.2689 37.7198 26.2711 37.7198C26.2733 37.7198 26.2755 37.7198 26.2776 37.7198C26.2798 37.7198 26.282 37.7198 26.2842 37.7198C26.2863 37.7198 26.2885 37.7198 26.2907 37.7198C26.2929 37.7198 26.295 37.7198 26.2972 37.7198C26.2994 37.7198 26.3015 37.7198 26.3037 37.7198C26.3058 37.7198 26.308 37.7198 26.3101 37.7198C26.3123 37.7198 26.3144 37.7198 26.3166 37.7198C26.3187 37.7198 26.3209 37.7198 26.323 37.7198C26.3252 37.7198 26.3273 37.7198 26.3294 37.7198C26.3316 37.7198 26.3337 37.7198 26.3358 37.7198C26.338 37.7198 26.3401 37.7198 26.3422 37.7198C26.3443 37.7198 26.3465 37.7198 26.3486 37.7198C26.3507 37.7198 26.3528 37.7198 26.3549 37.7198C26.357 37.7198 26.3591 37.7198 26.3612 37.7198C26.3633 37.7198 26.3654 37.7198 26.3675 37.7198C26.3696 37.7198 26.3717 37.7198 26.3738 37.7198C26.3759 37.7198 26.378 37.7198 26.3801 37.7198C26.3822 37.7198 26.3843 37.7198 26.3863 37.7198C26.3884 37.7198 26.3905 37.7198 26.3926 37.7198C26.3946 37.7198 26.3967 37.7198 26.3988 37.7198C26.4008 37.7198 26.4029 37.7198 26.4049 37.7198C26.407 37.7198 26.4091 37.7198 26.4111 37.7198C26.4132 37.7198 26.4152 37.7198 26.4173 37.7198C26.4193 37.7198 26.4213 37.7198 26.4234 37.7198C26.4254 37.7198 26.4275 37.7198 26.4295 37.7198C26.4315 37.7198 26.4336 37.7198 26.4356 37.7198C26.4376 37.7198 26.4396 37.7198 26.4416 37.7198C26.4437 37.7198 26.4457 37.7198 26.4477 37.7198C26.4497 37.7198 26.4517 37.7198 26.4537 37.7198C26.4557 37.7198 26.4577 37.7198 26.4597 37.7198C26.4617 37.7198 26.4637 37.7198 26.4657 37.7198C26.4677 37.7198 26.4697 37.7198 26.4716 37.7198C26.4736 37.7198 26.4756 37.7198 26.4776 37.7198C26.4796 37.7198 26.4815 37.7198 26.4835 37.7198C26.4855 37.7198 26.4874 37.7198 26.4894 37.7198C26.4913 37.7198 26.4933 37.7198 26.4952 37.7198C26.4972 37.7198 26.4992 37.7198 26.5011 37.7198C26.503 37.7198 26.505 37.7198 26.5069 37.7198C26.5089 37.7198 26.5108 37.7198 26.5127 37.7198C26.5146 37.7198 26.5166 37.7198 26.5185 37.7198C26.5204 37.7198 26.5223 37.7198 26.5243 37.7198C26.5262 37.7198 26.5281 37.7198 26.53 37.7198C26.5319 37.7198 26.5338 37.7198 26.5357 37.7198C26.5376 37.7198 26.5395 37.7198 26.5414 37.7198C26.5433 37.7198 26.5452 37.7198 26.547 37.7198C26.5489 37.7198 26.5508 37.7198 26.5527 37.7198C26.5545 37.7198 26.5564 37.7198 26.5583 37.7198C26.5602 37.7198 26.562 37.7198 26.5639 37.7198C26.5657 37.7198 26.5676 37.7198 26.5694 37.7198C26.5713 37.7198 26.5731 37.7198 26.575 37.7198C26.5768 37.7198 26.5787 37.7198 26.5805 37.7198C26.5823 37.7198 26.5842 37.7198 26.586 37.7198C26.5878 37.7198 26.5896 37.7198 26.5914 37.7198C26.5933 37.7198 26.5951 37.7198 26.5969 37.7198C26.5987 37.7198 26.6005 37.7198 26.6023 37.7198C26.6041 37.7198 26.6059 37.7198 26.6077 37.7198C26.6095 37.7198 26.6113 37.7198 26.613 37.7198C26.6148 37.7198 26.6166 37.7198 26.6184 37.7198C26.6202 37.7198 26.6219 37.7198 26.6237 37.7198C26.6255 37.7198 26.6272 37.7198 26.629 37.7198C26.6307 37.7198 26.6325 37.7198 26.6342 37.7198C26.636 37.7198 26.6377 37.7198 26.6395 37.7198C26.6412 37.7198 26.6429 37.7198 26.6447 37.7198C26.6464 37.7198 26.6481 37.7198 26.6498 37.7198C26.6516 37.7198 26.6533 37.7198 26.655 37.7198C26.6567 37.7198 26.6584 37.7198 26.6601 37.7198C26.6618 37.7198 26.6635 37.7198 26.6652 37.7198C26.6669 37.7198 26.6686 37.7198 26.6703 37.7198C26.672 37.7198 26.6736 37.7198 26.6753 37.7198C26.677 37.7198 26.6787 37.7198 26.6803 37.7198C26.682 37.7198 26.6836 37.7198 26.6853 37.7198C26.687 37.7198 26.6886 37.7198 26.6903 37.7198C26.6919 37.7198 26.6935 37.7198 26.6952 37.7198C26.6968 37.7198 26.6985 37.7198 26.7001 37.7198C26.7017 37.7198 26.7033 37.7198 26.705 37.7198C26.7066 37.7198 26.7082 37.7198 26.7098 37.7198C26.7114 37.7198 26.713 37.7198 26.7146 37.7198C26.7162 37.7198 26.7178 37.7198 26.7194 37.7198C26.721 37.7198 26.7226 37.7198 26.7241 37.7198C26.7257 37.7198 26.7273 37.7198 26.7289 37.7198C26.7304 37.7198 26.732 37.7198 26.7336 37.7198C26.7351 37.7198 26.7367 37.7198 26.7382 37.7198C26.7398 37.7198 26.7413 37.7198 26.7428 37.7198C26.7444 37.7198 26.7459 37.7198 26.7475 37.7198C26.749 37.7198 26.7505 37.7198 26.752 37.7198C26.7535 37.7198 26.7551 37.7198 26.7566 37.7198C26.7581 37.7198 26.7596 37.7198 26.7611 37.7198C26.7626 37.7198 26.7641 37.7198 26.7656 37.7198C26.767 37.7198 26.7685 37.7198 26.77 37.7198C26.7715 37.7198 26.773 37.7198 26.7744 37.7198C26.7759 37.7198 26.7774 37.7198 26.7788 37.7198C26.7803 37.7198 26.7817 37.7198 26.7832 37.7198C26.7846 37.7198 26.7861 37.7198 26.7875 37.7198C26.7889 37.7198 26.7904 37.7198 26.7918 37.7198C26.7932 37.7198 26.7946 37.7198 26.796 37.7198C26.7975 37.7198 26.7989 37.7198 26.8003 37.7198C26.8017 37.7198 26.8031 37.7198 26.8045 37.7198C26.8059 37.7198 26.8072 37.7198 26.8086 37.7198C26.81 37.7198 26.8114 37.7198 26.8127 37.7198C26.8141 37.7198 26.8155 37.7198 26.8168 37.7198C26.8182 37.7198 26.8196 37.7198 26.8209 37.7198C26.8223 37.7198 26.8236 37.7198 26.8249 37.7198C26.8263 37.7198 26.8276 37.7198 26.8289 37.7198C26.8303 37.7198 26.8316 37.7198 26.8329 37.7198C26.8342 37.7198 26.8355 37.7198 26.8368 37.7198C26.8381 37.7198 26.8394 37.7198 26.8407 37.7198C26.842 37.7198 26.8433 37.7198 26.8446 37.7198C26.8459 37.7198 26.8471 37.7198 26.8484 37.7198C26.8497 37.7198 26.8509 37.7198 26.8522 37.7198C26.8535 37.7198 26.8547 37.7198 26.856 37.7198C26.8572 37.7198 26.8585 37.7198 26.8597 37.7198C26.8609 37.7198 26.8622 37.7198 26.8634 37.7198C26.8646 37.7198 26.8658 37.7198 26.867 37.7198C26.8682 37.7198 26.8694 37.7198 26.8706 37.7198C26.8719 37.7198 26.873 37.7198 26.8742 37.7198C26.8754 37.7198 26.8766 37.7198 26.8778 37.7198C26.879 37.7198 26.8801 37.7198 26.8813 37.7198C26.8825 37.7198 26.8836 37.7198 26.8848 37.7198C26.8859 37.7198 26.8871 37.7198 26.8882 37.7198C26.8893 37.7198 26.8905 37.7198 26.8916 37.7198C26.8927 37.7198 26.8939 37.7198 26.895 37.7198C26.8961 37.7198 26.8972 37.7198 26.8983 37.7198C26.8994 37.7198 26.9005 37.7198 26.9016 37.7198C26.9027 37.7198 26.9038 37.7198 26.9049 37.7198C26.9059 37.7198 26.907 37.7198 26.9081 37.7198C26.9092 37.7198 26.9102 37.7198 26.9113 37.7198C26.9123 37.7198 26.9134 37.7198 26.9144 37.7198C26.9155 37.7198 26.9165 37.7198 26.9175 37.7198C26.9186 37.7198 26.9196 37.7198 26.9206 37.7198C26.9216 37.7198 26.9226 37.7198 26.9236 37.7198C26.9246 37.7198 26.9256 37.7198 26.9266 37.7198C26.9276 37.7198 26.9286 37.7198 26.9296 37.7198C26.9306 37.7198 26.9315 37.7198 26.9325 37.7198C26.9335 37.7198 26.9344 37.7198 26.9354 37.7198C26.9363 37.7198 26.9373 37.7198 26.9382 37.7198C26.9392 37.7198 26.9401 37.7198 26.941 37.7198C26.942 37.7198 26.9429 37.7198 26.9438 37.7198C26.9447 37.7198 26.9456 37.7198 26.9465 37.7198C26.9474 37.7198 26.9483 37.7198 26.9492 37.7198C26.9501 37.7198 26.951 37.7198 26.9518 37.7198C26.9527 37.7198 26.9536 37.7198 26.9544 37.7198C26.9553 37.7198 26.9562 37.7198 26.957 37.7198C26.9579 37.7198 26.9587 37.7198 26.9595 37.7198C26.9604 37.7198 26.9612 37.7198 26.962 37.7198C26.9628 37.7198 26.9637 37.7198 26.9645 37.7198C26.9653 37.7198 26.9661 37.7198 26.9669 37.7198C26.9677 37.7198 26.9685 37.7198 26.9692 37.7198C26.97 37.7198 26.9708 37.7198 26.9716 37.7198C26.9723 37.7198 26.9731 37.7198 26.9739 37.7198C26.9746 37.7198 26.9754 37.7198 26.9761 37.7198C26.9768 37.7198 26.9776 37.7198 26.9783 37.7198C26.979 37.7198 26.9797 37.7198 26.9805 37.7198C26.9812 37.7198 26.9819 37.7198 26.9826 37.7198C26.9833 37.7198 26.984 37.7198 26.9846 37.7198C26.9853 37.7198 26.986 37.7198 26.9867 37.7198C26.9873 37.7198 26.988 37.7198 26.9887 37.7198C26.9893 37.7198 26.99 37.7198 26.9906 37.7198C26.9913 37.7198 26.9919 37.7198 26.9925 37.7198C26.9932 37.7198 26.9938 37.7198 26.9944 37.7198C26.995 37.7198 26.9956 37.7198 26.9962 37.7198C26.9968 37.7198 26.9974 37.7198 26.998 37.7198C26.9986 37.7198 26.9992 37.7198 26.9997 37.7198C27.0003 37.7198 27.0009 37.7198 27.0014 37.7198C27.002 37.7198 27.0025 37.7198 27.0031 37.7198C27.0036 37.7198 27.0041 37.7198 27.0047 37.7198C27.0052 37.7198 27.0057 37.7198 27.0062 37.7198C27.0067 37.7198 27.0073 37.7198 27.0078 37.7198C27.0083 37.7198 27.0087 37.7198 27.0092 37.7198C27.0097 37.7198 27.0102 37.7198 27.0107 37.7198C27.0111 37.7198 27.0116 37.7198 27.012 37.7198C27.0125 37.7198 27.0129 37.7198 27.0134 37.7198C27.0138 37.7198 27.0143 37.7198 27.0147 37.7198C27.0151 37.7198 27.0155 37.7198 27.0159 37.7198C27.0163 37.7198 27.0167 37.7198 27.0171 37.7198C27.0175 37.7198 27.0179 37.7198 27.0183 37.7198C27.0187 37.7198 27.019 37.7198 27.0194 37.7198C27.0198 37.7198 27.0201 37.7198 27.0205 37.7198C27.0208 37.7198 27.0212 37.7198 27.0215 37.7198C27.0218 37.7198 27.0222 37.7198 27.0225 37.7198C27.0228 37.7198 27.0231 37.7198 27.0234 37.7198C27.0237 37.7198 27.024 37.7198 27.0243 37.7198C27.0246 37.7198 27.0249 37.7198 27.0251 37.7198C27.0254 37.7198 27.0257 37.7198 27.0259 37.7198C27.0262 37.7198 27.0264 37.7198 27.0267 37.7198C27.0269 37.7198 27.0271 37.7198 27.0274 37.7198C27.0276 37.7198 27.0278 37.7198 27.028 37.7198C27.0282 37.7198 27.0284 37.7198 27.0286 37.7198C27.0288 37.7198 27.029 37.7198 27.0292 37.7198C27.0294 37.7198 27.0295 37.7198 27.0297 37.7198C27.0299 37.7198 27.03 37.7198 27.0302 37.7198C27.0303 37.7198 27.0304 37.7198 27.0306 37.7198C27.0307 37.7198 27.0308 37.7198 27.0309 37.7198C27.031 37.7198 27.0311 37.7198 27.0312 37.7198C27.0313 37.7198 27.0314 37.7198 27.0315 37.7198C27.0316 37.7198 27.0317 37.7198 27.0317 37.7198C27.0318 37.7198 27.0319 37.7198 27.0319 37.7198C27.032 37.7198 27.032 37.7198 27.032 37.7198C27.0321 37.7198 27.0321 37.7198 27.0321 37.7198C27.0321 37.7198 27.0321 37.7198 27.0321 37.3198ZM24.2487 36.9198C24.2164 36.9198 24.1252 36.8987 23.9844 36.7915C23.8511 36.69 23.7072 36.5363 23.5768 36.344C23.3108 35.9518 23.147 35.4695 23.1857 35.0611L22.3892 34.9858C22.3278 35.6357 22.5814 36.3015 22.9146 36.7929C23.0837 37.0423 23.2847 37.2643 23.4998 37.428C23.7073 37.586 23.9679 37.7198 24.2487 37.7198V36.9198ZM23.1857 35.0611C23.2595 34.2807 23.7685 33.6903 24.354 33.5306L24.1435 32.7588C23.1983 33.0166 22.4905 33.9154 22.3892 34.9858L23.1857 35.0611ZM27.0321 36.9198H24.2487V37.7198H27.0321V36.9198ZM24.354 33.5306C24.3227 33.5391 24.3071 33.5381 24.3433 33.5354C24.3672 33.5336 24.403 33.5318 24.4522 33.5301C24.5502 33.5269 24.6887 33.5247 24.867 33.5238C25.223 33.522 25.7271 33.5251 26.3607 33.5324C27.6274 33.5471 29.4049 33.579 31.5359 33.6233C35.7975 33.7119 41.4685 33.8499 47.2848 33.9987C58.9171 34.2964 71.1282 34.6374 73.8017 34.7124L73.8242 33.9127C71.1505 33.8377 58.9386 33.4967 47.3052 33.199C41.4886 33.0501 35.8161 32.9121 31.5525 32.8235C29.4209 32.7792 27.6405 32.7472 26.37 32.7325C25.735 32.7251 25.2257 32.722 24.8629 32.7238C24.6819 32.7248 24.5347 32.7269 24.4256 32.7306C24.3714 32.7324 24.3232 32.7346 24.2835 32.7376C24.2561 32.7397 24.1972 32.7441 24.1435 32.7588L24.354 33.5306ZM73.8017 34.7124C73.8827 34.7146 73.9499 34.7802 73.9499 34.8688H74.7499C74.7499 34.3547 74.3456 33.9273 73.8242 33.9127L73.8017 34.7124ZM73.9499 34.8688V36.3573H74.7499V34.8688H73.9499ZM73.9499 36.3573C73.9499 36.4109 73.9265 36.4436 73.9072 36.4572L74.3669 37.1119C74.6235 36.9318 74.7499 36.6408 74.7499 36.3573H73.9499ZM73.9072 36.4572C73.3732 36.832 72.8722 36.9403 71.7127 36.9198L71.6986 37.7197C72.9148 37.7411 73.6242 37.6333 74.3669 37.1119L73.9072 36.4572ZM74.7499 34.8688C74.7499 34.357 74.3433 33.9272 73.8242 33.9127L73.8017 34.7124C73.8805 34.7146 73.9499 34.7825 73.9499 34.8688H74.7499ZM32.895 37.3232C32.953 44.0552 33.1549 54.3205 33.5721 63.0289C33.7807 67.3819 34.0434 71.3528 34.3698 74.3007C34.5328 75.773 34.7128 77.0012 34.9125 77.8977C35.012 78.3446 35.1194 78.7231 35.2377 79.0129C35.2968 79.1578 35.363 79.2913 35.4389 79.4036C35.5123 79.5121 35.6124 79.6273 35.7494 79.7012L36.129 78.997C36.1512 79.0089 36.1387 79.0103 36.1017 78.9555C36.0672 78.9046 36.0252 78.8253 35.9784 78.7105C35.8846 78.4809 35.7887 78.1521 35.6933 77.7238C35.5031 76.8699 35.3269 75.6756 35.1649 74.2127C34.8414 71.29 34.5796 67.3388 34.3712 62.9906C33.9546 54.2964 33.7529 44.0423 33.6949 37.3163L32.895 37.3232ZM46.4645 37.3004C46.1397 44.0164 45.6838 54.2617 45.4065 62.9612C45.2679 67.3105 45.1738 71.2765 45.1632 74.2229C45.1579 75.6953 45.1734 76.9183 45.2151 77.809C45.236 78.2534 45.2636 78.6226 45.2997 78.9016C45.3177 79.0407 45.3388 79.1653 45.3645 79.2694C45.3866 79.3588 45.4236 79.485 45.4982 79.5863L46.1423 79.1118C46.1682 79.147 46.1603 79.1554 46.1412 79.0777C46.1256 79.0147 46.1092 78.923 46.0931 78.799C46.0611 78.5518 46.0347 78.2077 46.0143 77.7716C45.9735 76.9012 45.9579 75.694 45.9632 74.2258C45.9738 71.2909 46.0676 67.3339 46.2061 62.9867C46.4832 54.2935 46.9389 44.0531 47.2636 37.3391L46.4645 37.3004ZM63.3778 53.4698C61.9818 62.1812 61.4018 74.3709 61.2857 79.3397L62.0855 79.3584C62.2014 74.3998 62.7804 62.2533 64.1677 53.5963L63.3778 53.4698ZM59.6858 37.167C59.1658 38.4252 58.5221 41.1978 57.9055 45.2416C57.2867 49.3004 56.6902 54.6749 56.2761 61.1619L57.0745 61.2129C57.4873 54.7454 58.0816 49.3945 58.6964 45.3622C59.3134 41.3151 59.9464 38.631 60.4251 37.4725L59.6858 37.167ZM56.2761 61.1619C55.546 72.6009 55.4353 77.726 55.482 79.3605L56.2816 79.3376C56.2361 77.7452 56.3441 72.6551 57.0745 61.2129L56.2761 61.1619ZM55.8818 79.7491H63.2163V78.9491H55.8818V79.7491ZM70.2329 45.8043C70.3855 45.0299 70.5465 44.2125 70.7752 43.1068L69.9918 42.9447C69.7622 44.0544 69.6006 44.875 69.448 45.6497L70.2329 45.8043ZM27.0321 37.7198H60.0554V36.9198H27.0321V37.7198ZM33.0164 79.7491H41.1113V78.9491H33.0164V79.7491ZM41.1113 79.7491H51.5262V78.9491H41.1113V79.7491ZM51.5262 79.7491H55.8818V78.9491H51.5262V79.7491ZM53.6432 37.2227C52.3558 42.3726 50.7425 57.7292 51.1263 79.3562L51.9262 79.342C51.5427 57.733 53.1581 42.4618 54.4193 37.4168L53.6432 37.2227ZM40.8283 37.2976C40.5163 42.9183 40.1251 51.735 39.9929 59.9967C39.9269 64.1274 39.9255 68.1227 40.0314 71.5121C40.1371 74.8927 40.35 77.6977 40.7201 79.4325L41.5025 79.2656C41.1489 77.6081 40.9367 74.8676 40.831 71.4871C40.7256 68.1153 40.7269 64.1338 40.7928 60.0095C40.9248 51.7615 41.3154 42.9558 41.627 37.3419L40.8283 37.2976ZM40.7201 79.4325C40.722 79.4414 40.7228 79.4453 40.723 79.4463C40.7231 79.4464 40.7229 79.4457 40.7227 79.4446C40.7226 79.444 40.7224 79.4429 40.7221 79.4416C40.7219 79.4404 40.7214 79.4377 40.7209 79.4342C40.7206 79.4324 40.7201 79.4296 40.7196 79.426C40.7194 79.4241 40.719 79.4217 40.7187 79.4188C40.7183 79.4161 40.7179 79.412 40.7174 79.4072C40.717 79.4027 40.7163 79.3948 40.716 79.385C40.7158 79.3804 40.7157 79.3701 40.7157 79.3643C40.7159 79.3566 40.717 79.3382 40.718 79.3276C40.7199 79.312 40.7278 79.2722 40.7347 79.2483C40.7501 79.2079 40.8162 79.1049 40.8745 79.051C40.9801 78.9938 41.1983 78.9787 41.2935 79.0118C41.3427 79.0408 41.4095 79.0987 41.4299 79.1226C41.4414 79.138 41.4588 79.1646 41.4651 79.1755C41.4694 79.1833 41.4763 79.1971 41.4791 79.203C41.4812 79.2076 41.4848 79.2159 41.4863 79.2196C41.4875 79.2226 41.4896 79.2281 41.4906 79.2306C41.4927 79.2364 41.4943 79.2412 41.4954 79.2443C41.4964 79.2476 41.4973 79.2503 41.4979 79.2524C41.4992 79.2564 41.5001 79.2596 41.5006 79.2615C41.5012 79.2635 41.5017 79.2652 41.502 79.2664C41.5026 79.2687 41.503 79.2705 41.5033 79.2714C41.5035 79.2724 41.5037 79.2732 41.5039 79.2737C41.504 79.2742 41.5041 79.2746 41.5041 79.2748C41.5042 79.275 41.5042 79.2751 41.5042 79.2752C41.5042 79.2752 41.5041 79.2746 41.5038 79.2733C41.5032 79.2708 41.5024 79.2673 41.5016 79.2635C41.5007 79.2596 41.4999 79.256 41.4993 79.2534C41.499 79.252 41.4989 79.2513 41.4988 79.2511C41.4988 79.251 41.4989 79.2513 41.499 79.2519C41.4991 79.2523 41.4995 79.2542 41.5 79.2569C41.5002 79.2582 41.5008 79.2611 41.5014 79.2649C41.5017 79.2668 41.5022 79.27 41.5028 79.274C41.5031 79.276 41.5034 79.2787 41.5038 79.2819C41.5042 79.285 41.5047 79.2896 41.5052 79.2953C41.5054 79.2977 41.5058 79.303 41.506 79.3059C41.5062 79.3094 41.5065 79.3173 41.5066 79.3217C41.5067 79.3272 41.5066 79.3401 41.5063 79.3474C41.5058 79.3574 41.5034 79.3817 41.5012 79.396C41.497 79.4178 41.4795 79.4749 41.4643 79.5091C41.4291 79.5668 41.2956 79.6825 41.1922 79.7207C41.0834 79.7293 40.915 79.681 40.8591 79.6441C40.8312 79.6199 40.7916 79.5762 40.7784 79.5585C40.7705 79.5466 40.758 79.5258 40.7532 79.5171C40.7499 79.5106 40.7443 79.4991 40.742 79.4941C40.7402 79.4901 40.7371 79.4829 40.7358 79.4796C40.7347 79.4769 40.7328 79.472 40.732 79.4697C40.73 79.4645 40.7285 79.4601 40.7275 79.4572C40.7265 79.4541 40.7256 79.4515 40.725 79.4495C40.7238 79.4457 40.7229 79.4426 40.7224 79.4408C40.7218 79.4388 40.7214 79.4371 40.7211 79.436C40.7204 79.4337 40.72 79.432 40.7198 79.4311C40.7193 79.4293 40.719 79.4281 40.719 79.4281C40.7189 79.4279 40.7191 79.4286 40.7197 79.4309C40.7202 79.433 40.7209 79.4359 40.7218 79.4399L41.5009 79.2583C41.4998 79.2537 41.4989 79.2498 41.4981 79.2465C41.4974 79.2434 41.4966 79.2401 41.4959 79.2371C41.4955 79.2356 41.4949 79.2333 41.4943 79.2307C41.4939 79.2294 41.4934 79.2273 41.4927 79.2248C41.4923 79.2235 41.4918 79.2217 41.4912 79.2196C41.4907 79.2177 41.4898 79.2145 41.4885 79.2106C41.4879 79.2086 41.4871 79.206 41.486 79.2029C41.485 79.1999 41.4835 79.1955 41.4816 79.1902C41.4807 79.188 41.4788 79.183 41.4777 79.1803C41.4764 79.1771 41.4733 79.1698 41.4715 79.1658C41.4692 79.1608 41.4636 79.1493 41.4603 79.1428C41.4555 79.1341 41.443 79.1133 41.435 79.1014C41.4219 79.0836 41.3823 79.04 41.3543 79.0158C41.2985 78.9789 41.1301 78.9306 41.0212 78.9392C40.9179 78.9773 40.7844 79.0931 40.7491 79.1507C40.7339 79.185 40.7165 79.2421 40.7122 79.2639C40.7101 79.2782 40.7077 79.3025 40.7071 79.3125C40.7069 79.3198 40.7067 79.3327 40.7068 79.3383C40.7069 79.3427 40.7073 79.3506 40.7075 79.3541C40.7076 79.357 40.708 79.3623 40.7082 79.3647C40.7087 79.3704 40.7093 79.375 40.7096 79.3781C40.71 79.3814 40.7104 79.3841 40.7107 79.3862C40.7113 79.3902 40.7118 79.3935 40.7121 79.3955C40.7128 79.3995 40.7134 79.4027 40.7137 79.4042C40.7143 79.4076 40.7148 79.4103 40.7151 79.4116C40.7154 79.4132 40.7158 79.4147 40.716 79.4159C40.7165 79.4183 40.717 79.4208 40.7175 79.423C40.7185 79.4275 40.7196 79.4327 40.7207 79.4376C40.7218 79.4424 40.723 79.4475 40.724 79.452C40.7245 79.4542 40.7251 79.4567 40.7256 79.4591C40.7259 79.4603 40.7263 79.4619 40.7267 79.4637C40.727 79.4646 40.7273 79.4658 40.7276 79.4672C40.7279 79.4684 40.7285 79.4705 40.7291 79.473C40.7295 79.4743 40.73 79.4761 40.7306 79.4783C40.7311 79.4803 40.7321 79.4836 40.7333 79.4876C40.734 79.4897 40.7348 79.4925 40.7359 79.4958C40.737 79.4989 40.7386 79.5037 40.7407 79.5095C40.7417 79.512 40.7438 79.5175 40.745 79.5206C40.7466 79.5242 40.7501 79.5326 40.7522 79.5372C40.755 79.5431 40.762 79.5569 40.7662 79.5648C40.7725 79.5757 40.7899 79.6023 40.8014 79.6176C40.8219 79.6415 40.8887 79.6995 40.9379 79.7284C41.0331 79.7615 41.2513 79.7464 41.3568 79.6893C41.4151 79.6353 41.4813 79.5323 41.4967 79.4919C41.5035 79.468 41.5114 79.4283 41.5134 79.4126C41.5144 79.402 41.5155 79.3836 41.5156 79.3759C41.5157 79.3701 41.5156 79.3598 41.5154 79.3552C41.515 79.3453 41.5144 79.3374 41.514 79.3329C41.5135 79.3281 41.513 79.324 41.5127 79.3212C41.5123 79.3183 41.512 79.3158 41.5117 79.314C41.5112 79.3103 41.5107 79.3073 41.5104 79.3054C41.5098 79.3017 41.5093 79.2987 41.509 79.2972C41.5087 79.2955 41.5084 79.294 41.5082 79.2929C41.5078 79.2908 41.5074 79.2888 41.5071 79.2874C41.506 79.282 41.5045 79.2746 41.5025 79.2656L40.7201 79.4325ZM69.4487 45.6465L69.4486 45.6468L70.2322 45.8078L70.2323 45.8075L69.4487 45.6465ZM69.1039 51.1846C69.6241 48.8512 69.8825 47.5782 70.1279 46.3367L69.3431 46.1815C69.0987 47.4175 68.8417 48.6842 68.3231 51.0105L69.1039 51.1846ZM71.6989 36.9198L67.5936 36.9894L67.6071 37.7893L71.7124 37.7197L71.6989 36.9198ZM67.604 36.9894L60.0591 36.9198L60.0518 37.7197L67.5966 37.7893L67.604 36.9894ZM70.1279 46.3367C70.1615 46.167 70.1948 45.998 70.2284 45.8271L69.4435 45.6725C69.4099 45.8434 69.3766 46.0122 69.3431 46.1815L70.1279 46.3367ZM70.2284 45.8271L70.2329 45.8046L69.448 45.65L69.4435 45.6725L70.2284 45.8271ZM70.2284 45.8271C70.2319 45.8098 70.2295 45.8219 70.2329 45.8043L69.448 45.6497C69.4473 45.6535 69.4465 45.6572 69.4458 45.661C69.445 45.6648 69.4443 45.6686 69.4435 45.6725L70.2284 45.8271ZM69.448 45.65C69.4466 45.6566 69.4448 45.6658 69.4435 45.6725L70.2284 45.8271C70.2301 45.8188 70.2312 45.8129 70.2329 45.8046L69.448 45.65ZM67.231 37.2359C66.4305 39.1622 64.7543 44.8806 63.3778 53.4698L64.1677 53.5963C65.5399 45.0338 67.204 39.3856 67.9697 37.5428L67.231 37.2359ZM35.9392 79.7491H41.1113V78.9491H35.9392V79.7491ZM60.0554 36.9198H33.295V37.7198H60.0554V36.9198ZM33.295 37.7198H41.2276V36.9198H33.295V37.7198ZM45.8203 79.7491H51.5262V78.9491H45.8203V79.7491ZM60.0554 36.9198H46.864V37.7198H60.0554V36.9198ZM46.864 37.7198H54.0313V36.9198H46.864V37.7198ZM61.6856 78.9491H55.8818V79.7491H61.6856V78.9491ZM33.0164 79.7491H35.9392V78.9491H33.0164V79.7491ZM33.295 36.9198H27.0321V37.7198H33.295V36.9198ZM46.864 36.9198H41.2276V37.7198H46.864V36.9198ZM41.1113 79.7491H45.8203V78.9491H41.1113V79.7491ZM60.0554 36.9198H54.0313V37.7198H60.0554V36.9198ZM61.6856 79.7491H63.2163V78.9491H61.6856V79.7491Z" fill="black"/>
<path d="M43.6631 45.9484C42.2765 46.067 40.6246 46.6907 39.9751 47.0618C39.0011 47.5315 36.9132 48.8014 36.7045 48.9406C36.4957 49.0798 33.569 51.1301 32.8775 54.0899C32.1955 57.0087 32.6907 58.6121 32.8775 59.3783C33.0643 60.1445 35.3934 64.6064 38.5139 66.0585C41.8041 67.5896 43.1799 67.887 44.4286 67.9373C45.4744 67.9793 49.6151 67.9184 50.3433 67.9373C51.0715 67.9561 55.9101 68.0068 58.1368 66.476C60.3635 64.9451 60.6092 65.47 63.0077 61.9529C65.4063 58.4358 63.3369 53.3901 61.1659 51.2747C58.9948 49.1594 56.5363 47.92 55.7709 47.5489C54.8663 47.0154 52.2037 46.1224 48.8124 45.9484C44.6397 45.7343 45.4199 45.7982 43.6631 45.9484Z" fill="#F2E5D2" stroke="black" stroke-width="0.8" stroke-linejoin="round"/>
</svg>
