<svg width="97" height="93" viewBox="0 0 97 93" fill="none" xmlns="http://www.w3.org/2000/svg">
<rect width="96" height="92.3077" transform="translate(0.500122 0.595459)" fill="white"/>
<path d="M38.4464 55.1008L32.9871 77.358C32.9871 77.358 38.0068 78.5706 45.4175 78.8239V73.5555V68.9083C45.4175 68.5652 45.6956 68.2872 46.0386 68.2872H50.4237C50.7667 68.2872 51.0448 68.5652 51.0448 68.9083V73.5555V78.8156C58.3767 78.5453 63.2232 77.358 63.2232 77.358L57.092 55.1008H38.4464Z" fill="#F991AE"/>
<path d="M51.0448 68.9083C51.0448 68.5652 50.7667 68.2872 50.4237 68.2872H46.0386C45.6956 68.2872 45.4175 68.5652 45.4175 68.9083V73.5555H51.0448V68.9083Z" fill="#3A3434"/>
<path d="M45.4175 78.8239C46.3083 78.8543 47.2338 78.8709 48.1891 78.8698C49.1767 78.8687 50.1301 78.8493 51.0448 78.8156V73.5555H45.4175V78.8239Z" fill="#D26988"/>
<path d="M45.4175 78.8239C38.0068 78.5706 32.9871 77.358 32.9871 77.358L38.4464 55.1008H57.092L63.2232 77.358C63.2232 77.358 58.3767 78.5453 51.0448 78.8156M45.4175 78.8239C46.3083 78.8543 47.2338 78.8709 48.1891 78.8698C49.1767 78.8687 50.1301 78.8493 51.0448 78.8156M45.4175 78.8239V73.5555M51.0448 78.8156V73.5555M45.4175 73.5555V68.9083C45.4175 68.5652 45.6956 68.2872 46.0386 68.2872H50.4237C50.7667 68.2872 51.0448 68.5652 51.0448 68.9083V73.5555M45.4175 73.5555H51.0448" stroke="black" stroke-width="1.02273"/>
<circle cx="48.1055" cy="40.4027" r="20.3254" fill="#E4DED2" stroke="black" stroke-width="1.02273"/>
<ellipse cx="48.1892" cy="23.1009" rx="11.6745" ry="5.20734" fill="#F991AE" stroke="black" stroke-width="1.02273"/>
<circle cx="48.1896" cy="17.4735" r="2.60367" fill="#F3C9D3" stroke="black" stroke-width="1.02273"/>
<circle cx="35.6041" cy="42.1283" r="3.45099" fill="#DC9AA8" stroke="black" stroke-width="1.02273"/>
<circle cx="46.8587" cy="43.1362" r="3.45099" fill="#26788D" stroke="black" stroke-width="1.02273"/>
<circle cx="58.6172" cy="40.9524" r="3.45099" fill="#88DACB" stroke="black" stroke-width="1.02273"/>
<circle cx="52.738" cy="41.7924" r="3.45099" fill="#E14D75" stroke="black" stroke-width="1.02273"/>
<circle cx="42.9952" cy="40.2806" r="3.45099" fill="#ECB771" stroke="black" stroke-width="1.02273"/>
<circle cx="36.444" cy="48.6795" r="3.45099" fill="#DFB966" stroke="black" stroke-width="1.02273"/>
<circle cx="39.6357" cy="45.4878" r="3.45099" fill="#D88EA9" stroke="black" stroke-width="1.02273"/>
<circle cx="40.6434" cy="52.7109" r="3.45099" fill="#EBCBE3" stroke="black" stroke-width="1.02273"/>
<circle cx="44.675" cy="49.3514" r="3.45099" fill="#2DBCCC" stroke="black" stroke-width="1.02273"/>
<circle cx="50.5541" cy="49.3514" r="3.45099" fill="#DD8FA5" stroke="black" stroke-width="1.02273"/>
<circle cx="56.0976" cy="46.4958" r="3.45099" fill="#E6AA54" stroke="black" stroke-width="1.02273"/>
<circle cx="60.801" cy="46.4958" r="3.45099" fill="#F599BE" stroke="black" stroke-width="1.02273"/>
<circle cx="45.8508" cy="54.7267" r="3.45099" fill="#F6B849" stroke="black" stroke-width="1.02273"/>
<circle cx="56.9374" cy="51.7031" r="3.45099" fill="#E14D75" stroke="black" stroke-width="1.02273"/>
<circle cx="51.7302" cy="54.7267" r="3.45099" fill="#24C3C1" stroke="black" stroke-width="1.02273"/>
</svg>
