<svg width="358" height="62" viewBox="0 0 358 62" fill="none" xmlns="http://www.w3.org/2000/svg">
<mask id="path-1-outside-1_563_862" maskUnits="userSpaceOnUse" x="-4" y="-1" width="366" height="724" fill="black">
<rect fill="white" x="-4" y="-1" width="366" height="724"/>
<path fill-rule="evenodd" clip-rule="evenodd" d="M-3.05176e-05 63C33.6154 62.9611 60.8539 36.1131 60.8539 3H297C297 36.1371 324.278 63 357.927 63L358 63V719H-3.05176e-05V63Z"/>
</mask>
<path fill-rule="evenodd" clip-rule="evenodd" d="M-3.05176e-05 63C33.6154 62.9611 60.8539 36.1131 60.8539 3H297C297 36.1371 324.278 63 357.927 63L358 63V719H-3.05176e-05V63Z" fill="#F8B717"/>
<path d="M-3.05176e-05 63L-0.00465235 59L-4.00003 59.0046V63H-3.05176e-05ZM60.8539 3V-1H56.8539V3H60.8539ZM297 3H301V-1H297V3ZM357.927 63V67H357.929L357.927 63ZM358 63H362V58.9977L357.998 59L358 63ZM358 719V723H362V719H358ZM-3.05176e-05 719H-4.00003V723H-3.05176e-05V719ZM0.00459131 67C35.7692 66.9586 64.8539 38.3782 64.8539 3H56.8539C56.8539 33.848 31.4617 58.9636 -0.00465235 59L0.00459131 67ZM297 -1H60.8539V7H297V-1ZM357.927 59C326.429 59 301 33.8704 301 3H293C293 38.4038 322.127 67 357.927 67V59ZM357.998 59L357.925 59L357.929 67L358.002 67L357.998 59ZM362 719V63H354V719H362ZM-3.05176e-05 723H358V715H-3.05176e-05V723ZM-4.00003 63V719H3.99997V63H-4.00003Z" fill="black" mask="url(#path-1-outside-1_563_862)"/>
</svg>
